<svg width="25" height="27" viewBox="0 0 25 27" fill="none" xmlns="http://www.w3.org/2000/svg">
<path d="M15.5598 4.0957C15.6951 3.98382 15.8511 3.89969 16.0189 3.84809C16.1866 3.7965 16.3629 3.77847 16.5377 3.79502C16.7124 3.81156 16.8822 3.86237 17.0373 3.94454C17.1925 4.02671 17.3299 4.13863 17.4417 4.27391C18.4855 5.54072 20.5452 8.50833 21.3634 9.93133C23.2168 13.1427 24.3591 16.4324 24.6674 19.1911C24.8206 20.5687 24.7743 21.8803 24.4535 23.0048C24.1274 24.1364 23.4966 25.1611 22.438 25.7724C21.1567 26.512 19.6757 26.4086 18.3231 25.915C16.9652 25.4195 15.5662 24.4839 14.2332 23.2668C13.9754 23.0268 13.8226 22.6948 13.8082 22.3429C13.7939 21.9909 13.919 21.6476 14.1564 21.3874C14.3938 21.1272 14.7243 20.9712 15.0761 20.9534C15.4278 20.9356 15.7724 21.0573 16.0349 21.2922C17.2111 22.365 18.3142 23.0672 19.2373 23.4022C20.1676 23.7408 20.7521 23.6606 21.1014 23.4574C21.3937 23.2881 21.6895 22.9442 21.882 22.2688C22.078 21.5844 22.1404 20.6471 22.0103 19.4887C21.7519 17.1738 20.7628 14.2369 19.0467 11.2679C18.3039 9.97615 16.3307 7.13314 15.3834 5.98294C15.2715 5.84768 15.1874 5.6917 15.1358 5.52392C15.0842 5.35613 15.0662 5.17983 15.0827 5.00508C15.0993 4.83033 15.1501 4.66054 15.2323 4.50543C15.3144 4.35031 15.4263 4.2129 15.5616 4.10104" fill="#00D8FF"/>
<path d="M23.365 18.7517C23.3944 18.9248 23.3894 19.1019 23.3503 19.2731C23.3112 19.4442 23.2388 19.606 23.1372 19.7491C23.0356 19.8923 22.9068 20.014 22.7581 20.1073C22.6095 20.2007 22.4439 20.2639 22.2708 20.2932C20.6518 20.5619 16.7731 20.7837 15.132 20.7806C11.4254 20.7806 8.00398 20.1266 5.46106 19.0128C4.1905 18.4586 3.08031 17.7618 2.26772 16.9206C1.44622 16.0759 0.875977 15.0138 0.875977 13.793C0.875977 12.3139 1.70639 11.0842 2.80945 10.1575C3.91785 9.22906 5.42899 8.48593 7.14862 7.94061C7.48654 7.83332 7.85324 7.86467 8.16804 8.02776C8.32392 8.10852 8.46236 8.21919 8.57547 8.35345C8.68858 8.48771 8.77414 8.64294 8.82726 8.81027C8.88038 8.9776 8.90003 9.15376 8.88507 9.32868C8.87012 9.5036 8.82086 9.67387 8.74011 9.82975C8.65936 9.98564 8.5487 10.1241 8.41444 10.2372C8.28019 10.3503 8.12497 10.4359 7.95764 10.489C6.44295 10.9702 5.28108 11.5743 4.52908 12.207C3.76994 12.8414 3.54898 13.3885 3.54898 13.793C3.54898 14.1316 3.70045 14.5593 4.18871 15.0637C4.68411 15.5751 5.46463 16.0973 6.53204 16.5642C8.6651 17.498 11.7034 18.1075 15.132 18.1075C16.709 18.1075 20.4496 17.8909 21.8235 17.6575C21.9966 17.6281 22.1738 17.6331 22.3449 17.6722C22.516 17.7113 22.6778 17.7837 22.8209 17.8853C22.964 17.9869 23.0858 18.1157 23.1791 18.2644C23.2725 18.413 23.3356 18.5786 23.365 18.7517Z" fill="#00D8FF"/>
<path d="M23.365 18.7517C23.3944 18.9248 23.3894 19.1019 23.3503 19.2731C23.3112 19.4442 23.2388 19.606 23.1372 19.7491C23.0356 19.8923 22.9068 20.014 22.7581 20.1073C22.6095 20.2007 22.4439 20.2639 22.2708 20.2932C20.6518 20.5619 16.7731 20.7837 15.132 20.7806C11.4254 20.7806 8.00398 20.1266 5.46106 19.0128C4.1905 18.4586 3.08031 17.7618 2.26772 16.9206C1.44622 16.0759 0.875977 15.0138 0.875977 13.793C0.875977 12.3139 1.70639 11.0842 2.80945 10.1575C3.91785 9.22906 5.42899 8.48593 7.14862 7.94061C7.48654 7.83332 7.85324 7.86467 8.16804 8.02776C8.32392 8.10852 8.46236 8.21919 8.57547 8.35345C8.68858 8.48771 8.77414 8.64294 8.82726 8.81027C8.88038 8.9776 8.90003 9.15376 8.88507 9.32868C8.87012 9.5036 8.82086 9.67387 8.74011 9.82975C8.65936 9.98564 8.5487 10.1241 8.41444 10.2372C8.28019 10.3503 8.12497 10.4359 7.95764 10.489C6.44295 10.9702 5.28108 11.5743 4.52908 12.207C3.76994 12.8414 3.54898 13.3885 3.54898 13.793C3.54898 14.1316 3.70045 14.5593 4.18871 15.0637C4.68411 15.5751 5.46463 16.0973 6.53204 16.5642C8.6651 17.498 11.7034 18.1075 15.132 18.1075C16.709 18.1075 20.4496 17.8909 21.8235 17.6575C21.9966 17.6281 22.1738 17.6331 22.3449 17.6722C22.516 17.7113 22.6778 17.7837 22.8209 17.8853C22.964 17.9869 23.0858 18.1157 23.1791 18.2644C23.2725 18.413 23.3356 18.5786 23.365 18.7517Z" stroke="#00D8FF"/>
<path d="M7.01811 18.2185C6.6859 18.0951 6.41629 17.8448 6.26859 17.5227C6.12088 17.2005 6.10717 16.8329 6.23047 16.5006C6.76863 15.0482 8.43725 11.4231 9.29795 9.93323C11.1512 6.72189 13.4286 4.08795 15.6633 2.44129C16.7788 1.61974 17.9371 1.00492 19.0722 0.721567C20.2145 0.436431 21.4191 0.470291 22.4758 1.08155C23.7589 1.82112 24.4075 3.15413 24.657 4.57446C24.9083 5.99836 24.796 7.6771 24.4075 9.43959C24.3761 9.61689 24.3092 9.786 24.2108 9.93679C24.1123 10.0876 23.9845 10.2169 23.8348 10.3171C23.6852 10.4172 23.5169 10.4861 23.34 10.5195C23.163 10.553 22.9812 10.5504 22.8053 10.5118C22.6294 10.4732 22.4632 10.3995 22.3165 10.2951C22.1698 10.1907 22.0457 10.0577 21.9517 9.90414C21.8577 9.75057 21.7957 9.57959 21.7694 9.40146C21.7431 9.22333 21.7531 9.04172 21.7987 8.86754C22.139 7.31355 22.1961 6.00549 22.025 5.03603C21.8539 4.063 21.4904 3.59787 21.1411 3.3965C20.8489 3.2272 20.4016 3.14344 19.7209 3.31452C19.0295 3.48738 18.1884 3.90261 17.2492 4.59407C15.3746 5.97341 13.3253 8.30083 11.6128 11.2698C10.8639 12.5596 9.25961 16.0344 8.73596 17.4308C8.61256 17.7631 8.36227 18.0327 8.04013 18.1804C7.71798 18.3281 7.35036 18.3418 7.01811 18.2185Z" fill="#00D8FF"/>
<path d="M7.01811 18.2185C6.6859 18.0951 6.41629 17.8448 6.26859 17.5227C6.12088 17.2005 6.10717 16.8329 6.23047 16.5006C6.76863 15.0482 8.43725 11.4231 9.29795 9.93323C11.1512 6.72189 13.4286 4.08795 15.6633 2.44129C16.7788 1.61974 17.9371 1.00492 19.0722 0.721567C20.2145 0.436431 21.4191 0.470291 22.4758 1.08155C23.7589 1.82112 24.4075 3.15413 24.657 4.57446C24.9083 5.99836 24.796 7.6771 24.4075 9.43959C24.3761 9.61689 24.3092 9.786 24.2108 9.93679C24.1123 10.0876 23.9845 10.2169 23.8348 10.3171C23.6852 10.4172 23.5169 10.4861 23.34 10.5195C23.163 10.553 22.9812 10.5504 22.8053 10.5118C22.6294 10.4732 22.4632 10.3995 22.3165 10.2951C22.1698 10.1907 22.0457 10.0577 21.9517 9.90414C21.8577 9.75057 21.7957 9.57959 21.7694 9.40146C21.7431 9.22333 21.7531 9.04172 21.7987 8.86754C22.139 7.31355 22.1961 6.00549 22.025 5.03603C21.8539 4.063 21.4904 3.59787 21.1411 3.3965C20.8489 3.2272 20.4016 3.14344 19.7209 3.31452C19.0295 3.48738 18.1884 3.90261 17.2492 4.59407C15.3746 5.97341 13.3253 8.30083 11.6128 11.2698C10.8639 12.5596 9.25961 16.0344 8.73596 17.4308C8.61256 17.7631 8.36227 18.0327 8.04013 18.1804C7.71798 18.3281 7.35036 18.3418 7.01811 18.2185Z" stroke="#00D8FF"/>
<path d="M7.23877 17.3926L9.52708 15.5614C9.04985 16.9459 9.41471 17.463 11.3583 17.8497L9.06996 19.6809L7.23877 17.3926Z" fill="#00D8FF"/>
<path d="M5.57764 18.0488L4.47771 15.3322C5.66777 16.1856 6.26765 15.984 7.19429 14.2323L8.29422 16.9489L5.57764 18.0488Z" fill="#00D8FF"/>
<path d="M16.5732 2.89453L19.4613 3.39349C18.1084 3.95415 17.9632 4.56409 18.9623 6.27547L16.0743 5.78256L16.5732 2.89453Z" fill="#00D8FF"/>
<path d="M23.6914 20.124L21.8528 22.4087C22.1947 21.0024 21.5578 20.5331 19.5767 20.5798L21.405 18.2905L23.6914 20.124Z" fill="#00D8FF"/>
<path d="M16.7993 4.94727L16.8035 7.8619C16.0061 6.63362 14.7525 6.67239 13.9034 7.91258L13.8687 4.98197L16.7993 4.94727Z" fill="#00D8FF"/>
<path d="M23.3188 17.5322L21.0923 15.6265C21.5235 17.0259 21.143 17.606 19.1877 17.9283L21.4131 19.7588L23.3188 17.5322Z" fill="#00D8FF"/>
<circle cx="15.2957" cy="13.4295" r="1.32698" fill="#00D8FF"/>
</svg>
