<svg width="93" height="48" viewBox="0 0 93 48" fill="none" xmlns="http://www.w3.org/2000/svg">
<g opacity="0.5">
<g clip-path="url(#clip0_11012:707924)">
<path d="M25.5197 27.7473C24.7988 27.7625 24.0846 27.6055 23.4365 27.2894C22.8532 26.9998 22.3701 26.5421 22.0495 25.9753C21.713 25.3597 21.5446 24.6663 21.5614 23.9649C21.5448 23.2637 21.7132 22.5704 22.0497 21.955C22.371 21.3874 22.8537 20.928 23.4365 20.6351C24.0836 20.316 24.7981 20.1575 25.5194 20.1729C25.9881 20.1671 26.4557 20.2194 26.9116 20.3287C27.3129 20.4293 27.6954 20.594 28.0443 20.8165V22.5618C27.738 22.3187 27.3867 22.1386 27.0105 22.032C26.5789 21.9151 26.133 21.8591 25.6859 21.8658C24.9725 21.8658 24.4219 22.051 24.0341 22.4215C23.6462 22.792 23.4523 23.3062 23.4523 23.9642C23.4523 24.6222 23.648 25.1382 24.0393 25.5122C24.4307 25.8862 24.9796 26.0732 25.6859 26.0732C26.1388 26.0796 26.5902 26.0203 27.0261 25.8972C27.4239 25.7779 27.797 25.5878 28.1274 25.3361V27.0713C27.4694 27.5219 26.6002 27.7473 25.5197 27.7473ZM32.294 27.7473C31.6009 27.7572 30.9165 27.5926 30.3038 27.2687C29.7228 26.9606 29.2376 26.4988 28.9014 25.9336C28.5519 25.3372 28.374 24.6559 28.3872 23.9648C28.3745 23.2722 28.5524 22.5894 28.9014 21.991C29.2365 21.4236 29.7219 20.9598 30.304 20.6508C30.9165 20.3272 31.6007 20.1629 32.2934 20.1729C32.9828 20.1637 33.6634 20.328 34.2726 20.6508C34.8539 20.959 35.3377 21.4231 35.6699 21.991C36.0157 22.5905 36.1917 23.2729 36.1789 23.9649C36.1922 24.6554 36.0161 25.3363 35.6699 25.9337C35.3365 26.4994 34.8528 26.9616 34.2726 27.2688C33.6634 27.5918 32.9828 27.7563 32.2934 27.7473H32.294ZM32.294 26.0227C32.6456 26.0265 32.9924 25.9407 33.3017 25.7733C33.6064 25.6072 33.8584 25.3588 34.0289 25.0565C34.2146 24.7234 34.3079 24.3468 34.2993 23.9656C34.3085 23.5867 34.2171 23.2122 34.0345 22.8801C33.8649 22.5788 33.6149 22.3306 33.3124 22.1632C33.0007 21.9917 32.6499 21.904 32.2943 21.9086C31.9352 21.9032 31.5808 21.9909 31.2657 22.1632C30.9633 22.3306 30.7133 22.5788 30.5438 22.8801C30.3611 23.2122 30.2697 23.5867 30.2788 23.9656C30.2701 24.3462 30.3615 24.7223 30.5438 25.0565C30.7124 25.3603 30.9648 25.6091 31.271 25.7733C31.5855 25.9408 31.9371 26.0263 32.2934 26.022L32.294 26.0227ZM36.9067 20.33H38.7456V27.5907H36.9062L36.9067 20.33ZM39.6806 20.33H41.4987L44.1687 24.6519V20.3287H46.0076V27.5907H44.2002L41.5189 23.2585V27.5907H39.6801L39.6806 20.33Z" fill="white"/>
<path d="M52.4518 27.592C51.7043 27.608 50.9625 27.4573 50.2805 27.1508C49.6846 26.8804 49.1809 26.4416 48.8313 25.8884C48.4789 25.3065 48.3004 24.6359 48.317 23.9558C48.3042 23.2631 48.4821 22.5802 48.8312 21.9818C49.1655 21.4151 49.6512 20.9528 50.2337 20.6469C50.8473 20.3266 51.531 20.1642 52.2231 20.1743C52.9119 20.1649 53.5922 20.3274 54.2025 20.6469C54.7843 20.952 55.2686 21.4146 55.6 21.9818C55.9459 22.5813 56.1219 23.2638 56.1091 23.9558C56.1062 24.3834 56.0049 24.8046 55.8131 25.1868C55.6408 25.559 55.3911 25.8902 55.0807 26.1583H56.2962V27.592H52.4518ZM52.2233 26.0232C52.5749 26.027 52.9217 25.9412 53.231 25.7739C53.5357 25.6077 53.7877 25.3593 53.9583 25.057C54.1439 24.7239 54.2372 24.3474 54.2287 23.9662C54.2377 23.5872 54.1461 23.2127 53.9634 22.8806C53.7938 22.5793 53.5438 22.3311 53.2414 22.1637C52.9298 21.9922 52.579 21.9045 52.2233 21.9091C51.8642 21.9037 51.5098 21.9914 51.1948 22.1637C50.8923 22.3311 50.6424 22.5793 50.4728 22.8806C50.2902 23.2127 50.1988 23.5873 50.2079 23.9662C50.1992 24.3467 50.2906 24.7228 50.4728 25.057C50.6414 25.3608 50.8938 25.6096 51.2 25.7739C51.5147 25.9417 51.8667 26.0275 52.2233 26.0232ZM60.119 27.7485C59.0247 27.7485 58.2005 27.4558 57.6464 26.8705C57.0923 26.2852 56.8153 25.5112 56.8153 24.5485V20.33H58.6541V24.5687C58.6541 25.0535 58.784 25.4206 59.0438 25.67C59.3385 25.9322 59.7252 26.0667 60.119 26.044C60.3132 26.0556 60.5079 26.0285 60.6915 25.9643C60.8752 25.9001 61.0444 25.8 61.1891 25.67C61.4453 25.4206 61.5733 25.0535 61.5733 24.5687V20.33H63.4122V24.5479C63.4122 25.5176 63.1371 26.2933 62.5868 26.8751C62.0365 27.4569 61.2139 27.748 60.119 27.7485ZM67.9939 27.7485C67.3012 27.7585 66.6171 27.5942 66.0045 27.2706C65.4234 26.9626 64.9382 26.5007 64.602 25.9355C64.2524 25.3392 64.0744 24.6578 64.0876 23.9667C64.0749 23.274 64.2528 22.5912 64.602 21.9928C64.9371 21.4254 65.4224 20.9615 66.0045 20.6526C66.6171 20.329 67.3012 20.1647 67.9939 20.1747C68.6833 20.1655 69.3638 20.3298 69.973 20.6526C70.5543 20.9608 71.0382 21.4249 71.3704 21.9928C71.7163 22.5923 71.8923 23.2747 71.8795 23.9667C71.8928 24.6572 71.7167 25.3381 71.3704 25.9355C71.037 26.5012 70.5533 26.9634 69.973 27.2706C69.3638 27.5934 68.6833 27.7577 67.9939 27.7485ZM67.9939 26.0239C68.3456 26.0278 68.6924 25.9419 69.0017 25.7746C69.3064 25.6084 69.5584 25.36 69.7289 25.0577C69.9146 24.7247 70.0079 24.3481 69.9993 23.9669C70.0085 23.588 69.9171 23.2134 69.7345 22.8813C69.5649 22.58 69.3149 22.3318 69.0124 22.1644C68.7007 21.9929 68.3499 21.9052 67.9942 21.9098C67.6352 21.9044 67.2808 21.9921 66.9657 22.1644C66.6632 22.3318 66.4132 22.58 66.2436 22.8813C66.061 23.2134 65.9696 23.588 65.9787 23.9669C65.9701 24.3474 66.0614 24.7235 66.2436 25.0577C66.4122 25.3615 66.6647 25.6104 66.9708 25.7746C67.2855 25.9421 67.6374 26.0277 67.9939 26.0232V26.0239ZM72.6067 20.3312H75.8689C76.7208 20.3312 77.3875 20.546 77.8689 20.9754C78.3503 21.4048 78.5909 22.0212 78.5908 22.8246C78.6054 23.3093 78.483 23.7882 78.2376 24.2064C78.0021 24.5874 77.6534 24.8852 77.2403 25.0583L78.5285 27.592H76.6377L75.4849 25.3167H74.446V27.592H72.6069L72.6067 20.3312ZM75.5468 23.77C75.846 23.788 76.1434 23.7134 76.3987 23.5566C76.5996 23.4142 76.7 23.1701 76.7 22.8242C76.7 22.4637 76.6014 22.216 76.404 22.0813C76.1447 21.9303 75.8463 21.8598 75.5468 21.8787H74.4456V23.7695L75.5468 23.77ZM81.5517 20.3312H83.3592L86.258 27.592H84.3776L83.7958 26.0959H81.1154L80.5339 27.592H78.6428L81.5517 20.3312ZM83.3387 24.683L82.4552 22.2416L81.5621 24.683H83.3387Z" fill="white" fill-opacity="0.4"/>
<path d="M13.3332 30.7242C12.4764 30.7257 11.6282 30.5526 10.8405 30.2153C10.0784 29.8893 9.38718 29.418 8.80541 28.8276C7.90368 27.9104 7.29245 26.7477 7.0482 25.485C6.80394 24.2222 6.93751 22.9155 7.43219 21.7282C7.75272 20.9601 8.21872 20.2612 8.80455 19.6699C9.38659 19.0795 10.0781 18.6082 10.8405 18.2823C11.6287 17.9465 12.4766 17.7734 13.3334 17.7734C14.1901 17.7734 15.038 17.9465 15.8262 18.2823C16.5882 18.6083 17.2795 19.0797 17.8613 19.6701C19.0005 20.8243 19.6685 22.3616 19.7351 23.9819C19.8016 25.6022 19.2619 27.1892 18.2212 28.4329L16.277 28.4352C16.8782 27.9958 17.3777 27.4321 17.7416 26.7824C18.1055 26.1327 18.3252 25.4123 18.3858 24.6701C18.4465 23.928 18.3466 23.1815 18.093 22.4813C17.8393 21.7812 17.4379 21.1439 16.916 20.6128C16.4559 20.144 15.9087 19.7696 15.305 19.5107C14.6818 19.244 14.0109 19.1066 13.3331 19.1066C12.6552 19.1066 11.9844 19.244 11.3611 19.5107C10.7578 19.7698 10.2108 20.1442 9.75082 20.6129C9.03733 21.3428 8.55406 22.2663 8.36106 23.2686C8.16805 24.2709 8.27382 25.3078 8.66522 26.2505C8.91856 26.8601 9.28716 27.4151 9.75082 27.885C10.2108 28.3536 10.7578 28.728 11.3611 28.9871C11.984 29.2549 12.6551 29.3924 13.3331 29.3913C13.3628 29.3913 13.3923 29.3913 13.4286 29.3904V29.3913L17.2244 29.3923C16.1118 30.257 14.7424 30.7258 13.3332 30.7242ZM13.3332 28.4388C12.783 28.4397 12.2384 28.3277 11.7333 28.1096C11.2435 27.8981 10.7997 27.5931 10.4268 27.2116C10.0501 26.8284 9.75089 26.3761 9.54545 25.8796C9.11472 24.835 9.11472 23.6625 9.54545 22.6179C9.75068 22.1214 10.0497 21.6692 10.4261 21.2859C10.799 20.9044 11.2428 20.5993 11.7326 20.3879C12.238 20.1707 12.7824 20.0587 13.3325 20.0587C13.8826 20.0587 14.427 20.1707 14.9324 20.3879C15.4222 20.5993 15.866 20.9044 16.2389 21.2859C16.6153 21.6692 16.9144 22.1214 17.1197 22.6179C17.5504 23.6625 17.5504 24.835 17.1197 25.8796C16.9144 26.376 16.6153 26.8283 16.2389 27.2116C15.866 27.5931 15.4222 27.8981 14.9324 28.1096C14.4275 28.3276 13.8832 28.4396 13.3332 28.4388ZM13.284 21.0117C12.8625 21.011 12.4454 21.0973 12.0588 21.2651C11.6834 21.4282 11.3436 21.6631 11.0583 21.9565C10.7697 22.252 10.5408 22.6002 10.3838 22.9822C10.0541 23.7869 10.0541 24.689 10.3838 25.4937C10.5407 25.8756 10.7697 26.2239 11.0581 26.5193C11.3434 26.8128 11.6833 27.0476 12.0586 27.2107C12.4454 27.3779 12.8624 27.4642 13.2838 27.4642C13.7052 27.4642 14.1221 27.3779 14.5089 27.2107C14.8843 27.0477 15.2242 26.8128 15.5094 26.5193L15.5108 26.5178L15.5121 26.5165L14.8479 25.845L14.8465 25.8465L14.8448 25.8482C14.6431 26.059 14.4008 26.2269 14.1325 26.3415C13.8642 26.4562 13.5755 26.5153 13.2837 26.5153C12.9919 26.5153 12.7032 26.4562 12.4349 26.3415C12.1666 26.2269 11.9243 26.059 11.7226 25.8482C11.3075 25.4148 11.0758 24.8379 11.0758 24.2379C11.0758 23.6378 11.3075 23.0609 11.7226 22.6275C11.9243 22.4167 12.1666 22.249 12.4349 22.1343C12.7032 22.0197 12.9919 21.9606 13.2837 21.9606C13.5754 21.9606 13.8642 22.0197 14.1325 22.1343C14.4008 22.249 14.6431 22.4167 14.8448 22.6275L14.8465 22.6292L14.8479 22.6308L15.5121 21.9592L15.5108 21.9579L15.5094 21.9565C15.2242 21.663 14.8843 21.4281 14.5089 21.2651C14.1224 21.0973 13.7054 21.011 13.284 21.0117Z" fill="white" fill-opacity="0.4"/>
</g>
</g>
<defs>
<clipPath id="clip0_11012:707924">
<rect width="79.3302" height="12.9508" fill="white" transform="translate(6.92798 17.7734)"/>
</clipPath>
</defs>
</svg>
