<svg width="86" height="44" viewBox="0 0 86 44" fill="none" xmlns="http://www.w3.org/2000/svg">
<path d="M62.0182 23.6855C61.9086 22.7188 61.4252 22.0162 60.5283 21.6076C60.2792 21.493 60.0151 21.4083 59.736 21.3386C59.746 21.3236 59.751 21.3186 59.751 21.3186C59.7908 21.2987 59.8257 21.2738 59.8656 21.2539C60.3639 20.9649 60.7476 20.5762 60.9419 20.0231C61.206 19.2757 61.1761 18.5282 60.8821 17.7957C60.618 17.133 60.0998 16.7145 59.462 16.4304C58.7743 16.1215 58.0418 16.0019 57.2994 15.9321C57.2097 15.9222 57.1898 15.8973 57.1898 15.8126C57.1948 15.0003 57.1898 14.1931 57.1948 13.3809C57.1948 13.3012 57.1748 13.2812 57.0951 13.2812C56.6267 13.2862 56.1533 13.2862 55.6849 13.2812C55.5953 13.2812 55.5853 13.3062 55.5853 13.3859C55.5903 14.1732 55.5853 14.9605 55.5903 15.7478C55.5903 15.8325 55.5654 15.8524 55.4856 15.8524C55.1269 15.8524 54.7731 15.8574 54.4143 15.8674C54.3296 15.8674 54.2997 15.8524 54.3047 15.7627C54.3097 14.9704 54.3047 14.1782 54.3097 13.3809C54.3097 13.3012 54.2897 13.2812 54.21 13.2812C53.7416 13.2862 53.2782 13.2862 52.8098 13.2812C52.7201 13.2812 52.7002 13.3062 52.7002 13.3909C52.7052 14.1981 52.7002 15.0053 52.7052 15.8126C52.7052 15.9022 52.6803 15.9222 52.5956 15.9222C52.2667 15.9222 51.9428 15.9272 51.6139 15.9272C50.9263 15.9222 50.2387 15.9272 49.556 15.9222C49.4862 15.9222 49.4663 15.9421 49.4663 16.0119C49.4713 16.5102 49.4713 17.0134 49.4663 17.5117C49.4663 17.6064 49.4813 17.6413 49.5909 17.6363C49.9995 17.6263 50.4031 17.6064 50.8117 17.6463C51.2751 17.6911 51.5591 18.01 51.5591 18.4734C51.5591 20.8054 51.5591 23.1324 51.5591 25.4644C51.5591 25.8331 51.3548 26.0623 50.9861 26.0823C50.6174 26.1022 50.2486 26.0873 49.8749 26.0823C49.8101 26.0823 49.7852 26.0972 49.7752 26.167C49.6856 26.735 49.5909 27.3031 49.4962 27.8711C49.4763 27.9957 49.4763 27.9957 49.6058 27.9957C50.6074 28.0007 51.604 28.0007 52.6055 28.0007C52.6902 28.0007 52.7102 28.0206 52.7102 28.1053C52.7052 28.9275 52.7102 29.7497 52.7052 30.5768C52.7052 30.6516 52.7201 30.6715 52.7999 30.6715C53.2682 30.6665 53.7416 30.6665 54.21 30.6715C54.2947 30.6715 54.3147 30.6516 54.3147 30.5669C54.3097 29.7596 54.3147 28.9524 54.3097 28.1452C54.3097 28.0455 54.3396 28.0256 54.4342 28.0306C54.788 28.0405 55.1418 28.0405 55.4956 28.0405C55.5753 28.0405 55.6002 28.0605 55.6002 28.1452C55.5953 28.9574 55.6002 29.7646 55.5953 30.5768C55.5953 30.6516 55.6102 30.6715 55.6849 30.6715C56.1533 30.6665 56.6167 30.6665 57.0851 30.6715C57.1848 30.6715 57.2047 30.6466 57.2047 30.5519C57.1997 29.7347 57.2047 28.9175 57.1997 28.1003C57.1997 28.0356 57.2097 28.0057 57.2845 28.0007C57.6283 27.9857 57.9671 27.9509 58.3109 27.906C58.9487 27.8213 59.5766 27.6818 60.1695 27.4127C61.0116 27.029 61.5946 26.4062 61.8587 25.5142C62.0331 24.9213 62.0879 24.3084 62.0182 23.6855ZM54.3495 19.3454C54.3495 18.8421 54.3495 18.3389 54.3495 17.8356C54.3495 17.7858 54.3495 17.7509 54.4193 17.7509C54.9624 17.7409 55.5056 17.721 56.0487 17.7708C56.5021 17.8157 56.9456 17.8954 57.3542 18.1097C58.0668 18.4884 58.3259 19.3703 57.9223 20.048C57.7379 20.3569 57.4489 20.5363 57.125 20.6659C56.6466 20.8552 56.1484 20.92 55.6401 20.9449C55.2415 20.9649 54.8428 20.9599 54.4392 20.9549C54.3695 20.9549 54.3495 20.935 54.3495 20.8652C54.3495 20.3569 54.3495 19.8537 54.3495 19.3454ZM58.1465 25.5541C57.718 25.8182 57.2396 25.9328 56.7513 26.0075C55.9789 26.1221 55.1966 26.1171 54.4193 26.1022C54.3446 26.1022 54.3495 26.0623 54.3545 26.0125C54.3545 25.4544 54.3545 24.9013 54.3545 24.3432C54.3545 23.7852 54.3545 23.2221 54.3545 22.664C54.3545 22.5992 54.3595 22.5693 54.4392 22.5693C55.1069 22.5594 55.7746 22.5345 56.4374 22.5992C56.9755 22.6491 57.5087 22.7388 57.997 22.9929C58.4405 23.2221 58.7494 23.5559 58.8341 24.0692C58.9338 24.6871 58.6896 25.2202 58.1465 25.5541Z" fill="white"/>
<path d="M22.8826 17.3606V15.8906H29.4949V17.3705C29.4201 17.3656 29.3404 17.3606 29.2557 17.3556C29.171 17.3506 29.0564 17.3506 28.9069 17.3506C28.4335 17.3506 28.1146 17.4403 27.9551 17.6147C27.7957 17.7891 27.716 18.2774 27.716 19.0747V23.7486C27.716 24.6406 27.8704 25.2684 28.1794 25.6371C28.4883 26.0059 29.0015 26.1902 29.7241 26.1902C30.5861 26.1902 31.199 26.0158 31.5677 25.6621C31.9365 25.3133 32.1208 24.7203 32.1208 23.8931V19.1594C32.1208 18.3671 32.0411 17.8688 31.8767 17.6595C31.7172 17.4552 31.3834 17.3506 30.8851 17.3506C30.7655 17.3506 30.6758 17.3506 30.611 17.3556C30.5462 17.3606 30.4864 17.3606 30.4366 17.3705V15.8906H35.6387V17.3705C35.1953 17.3705 34.8614 17.3905 34.6272 17.4353C34.393 17.4802 34.2386 17.5499 34.1588 17.6496C34.109 17.7044 34.0741 17.824 34.0542 17.9984C34.0343 18.1728 34.0243 18.5664 34.0243 19.1793V24.1174C34.0243 25.3631 33.6057 26.3098 32.7736 26.9576C31.9414 27.6054 30.7256 27.9293 29.1261 27.9293C27.6661 27.9293 26.5251 27.6054 25.7128 26.9626C24.9006 26.3198 24.492 25.4179 24.492 24.2569V19.1245C24.492 18.397 24.4123 17.9236 24.2578 17.6944C24.1034 17.4652 23.8094 17.3506 23.3759 17.3506C23.2513 17.3506 23.1516 17.3506 23.0769 17.3556C23.0121 17.3606 22.9424 17.3606 22.8826 17.3606Z" fill="white" fill-opacity="0.4"/>
<path d="M48.4249 15.8906V20.5297H46.7955C46.7955 19.4982 46.6012 18.7358 46.2125 18.2425C45.8238 17.7492 45.2259 17.5051 44.4137 17.5051H44.2293V25.1438C44.2293 25.5574 44.2492 25.8315 44.2891 25.961C44.329 26.0906 44.4037 26.1753 44.5183 26.2102C44.6429 26.265 44.8073 26.2999 45.0166 26.3248C45.2259 26.3497 45.5946 26.3646 46.1278 26.3796V27.9193H39.0023V26.3796C39.376 26.3796 39.6999 26.3646 39.969 26.3397C40.238 26.3148 40.4623 26.27 40.6367 26.2152C40.7413 26.1803 40.816 26.0956 40.8559 25.966C40.8958 25.8365 40.9157 25.5674 40.9157 25.1638V24.9296V17.5051H40.7413C39.9241 17.5051 39.3212 17.7542 38.9275 18.2475C38.5339 18.7408 38.3346 19.5032 38.3346 20.5297H36.7251V15.8906H48.4249Z" fill="white" fill-opacity="0.4"/>
</svg>
