<svg width="85" height="44" viewBox="0 0 85 44" fill="none" xmlns="http://www.w3.org/2000/svg">
<g opacity="0.5">
<path fill-rule="evenodd" clip-rule="evenodd" d="M34.7941 23.8632H36.346H37.8065V21.581C37.8065 20.0748 37.8065 19.2533 37.8065 19.162C37.8522 18.9338 37.8978 18.7055 38.0347 18.523C38.2173 18.2035 38.5368 18.0666 38.9019 18.1122C39.404 18.1578 39.7235 18.4317 39.8148 19.025C39.8148 19.1163 39.8148 20.0292 39.8148 21.4897V23.8175H41.2754H42.7359V21.079C42.7359 18.7512 42.7359 18.2948 42.6903 18.0666C42.599 17.245 42.3251 16.606 41.8231 16.1496C41.4123 15.7388 40.9102 15.5106 40.3169 15.4193C40.0887 15.3736 39.4497 15.4193 39.2671 15.4649C38.7194 15.6019 38.3086 15.7844 37.9435 16.1952L37.7152 16.3778V14.1869V11.9961H36.2547H34.7941V17.9296V23.8632ZM65.9223 12.0874C65.831 12.2699 62.8643 19.4358 62.8643 19.4358C62.8643 19.4358 63.6402 19.4358 64.5987 19.4358H66.3331L67.885 15.7388C68.7522 13.6849 69.4368 11.9961 69.4368 11.9961C69.4368 11.9961 68.6609 11.9961 67.7024 11.9961H65.968L65.9223 12.0874ZM28.4954 15.4649C27.8565 15.5562 27.3544 15.7388 26.8523 16.0583C25.8482 16.6973 25.2092 17.7927 25.0266 19.0707C24.9353 19.664 24.981 20.3943 25.1179 20.942C25.483 22.3569 26.4415 23.4524 27.6739 23.8632C28.1303 24.0001 28.3129 24.0457 28.8606 24.0457C29.2714 24.0457 29.4083 24.0457 29.5452 24.0001C30.1386 23.8632 30.5494 23.6349 30.9145 23.2698L31.0971 23.0872V23.4524V23.8175H32.512H33.9269V19.7097V15.6019H32.512H31.0971V15.967V16.3321L30.9601 16.1952C30.6406 15.8301 30.1842 15.6019 29.5909 15.4649C29.4083 15.4193 29.317 15.4193 28.9519 15.4193C28.7237 15.4649 28.5411 15.4649 28.4954 15.4649ZM47.1176 15.4649C46.3417 15.5562 45.5201 15.9214 44.9268 16.3778C43.7857 17.3363 43.1923 18.8425 43.4206 20.3943C43.6488 22.1287 44.8811 23.4524 46.6155 23.9088C46.9807 24.0001 47.3458 24.0457 47.8022 24.0457C48.6238 24.0457 49.2172 23.9088 49.8562 23.5893C51.1341 22.9503 51.9557 21.8092 52.1383 20.3943C52.1839 20.0292 52.1839 19.4358 52.1383 19.1163C52.047 18.4317 51.7731 17.7471 51.3624 17.1993C51.1798 16.9711 50.8147 16.5603 50.5864 16.3778C49.9474 15.8757 49.2172 15.5562 48.3956 15.4649C48.0761 15.4193 47.4371 15.4193 47.1176 15.4649ZM56.4287 15.4649C55.6528 15.5562 54.8768 15.8757 54.2835 16.3778C54.0553 16.5603 53.6445 16.9711 53.5076 17.1993C53.0968 17.7471 52.8686 18.4317 52.7316 19.1163C52.686 19.4358 52.686 20.0748 52.7316 20.3943C53.0055 22.22 54.3291 23.6349 56.1548 24.0001C56.52 24.0914 56.7025 24.0914 57.1133 24.0914C57.8892 24.0914 58.5739 23.9544 59.2129 23.5893C60.9017 22.7221 61.8145 20.8051 61.4037 18.8425C61.0386 17.0168 59.578 15.6931 57.7067 15.4649C57.3872 15.4193 56.7482 15.4193 56.4287 15.4649ZM15.5786 15.6475C15.5786 15.6475 16.3545 17.5188 17.313 19.801C18.2715 22.0831 19.0474 23.9544 19.0474 23.9544C19.0474 23.9544 18.7736 24.6391 18.4085 25.4606C18.0433 26.2822 17.7695 26.9212 17.7695 26.9668C17.7695 27.0125 18.4541 26.9668 19.3213 26.9668H20.8731L23.2009 21.3528C24.4789 18.2491 25.5287 15.7388 25.5287 15.6931C25.5287 15.6931 25.2092 15.6475 23.9768 15.6931H22.425L21.4665 18.0666C21.0557 19.3445 20.6449 20.44 20.6449 20.44C20.6449 20.44 20.2342 19.3445 19.6864 18.0666L18.7736 15.6931H17.1761C16.3089 15.6475 15.5786 15.6475 15.5786 15.6475ZM29.9104 18.1122C30.5037 18.2491 30.9601 18.7055 31.1427 19.2989C31.1884 19.5271 31.1884 19.9379 31.1427 20.1661C31.0058 20.7595 30.5494 21.2159 29.956 21.3528C29.7278 21.3985 29.317 21.3985 29.0888 21.3528C28.5867 21.2159 28.1303 20.8507 27.9477 20.3943C27.7195 19.8923 27.8108 19.2533 28.0847 18.7968C28.4955 18.2035 29.1801 17.9753 29.9104 18.1122ZM48.1217 18.1578C48.7607 18.2491 49.2628 18.7512 49.3997 19.3902C49.4454 19.6184 49.4454 19.9835 49.3997 20.2118C49.2628 20.8051 48.8064 21.2159 48.2587 21.3985C48.0761 21.4441 47.574 21.4441 47.3915 21.3985C46.935 21.2615 46.5699 20.942 46.3417 20.5312C46.2048 20.2574 46.2048 20.1205 46.2048 19.801C46.2048 19.5271 46.2504 19.3902 46.3417 19.162C46.4786 18.8881 46.6612 18.6143 46.935 18.4317C47.2089 18.1578 47.6653 18.0666 48.1217 18.1578ZM57.3872 18.1578C57.9349 18.2491 58.3913 18.6143 58.5739 19.1163C58.6652 19.3445 58.7108 19.4815 58.7108 19.7553C58.7108 20.0748 58.6652 20.2118 58.5739 20.4856C58.3913 20.8964 57.9805 21.2159 57.5241 21.3528C57.3415 21.3985 56.8395 21.3985 56.6569 21.3528C56.1092 21.2159 55.6528 20.7595 55.5158 20.1661C55.4702 19.9379 55.4702 19.5271 55.5158 19.2989C55.6984 18.5686 56.3374 18.0666 57.0677 18.0666C57.159 18.1122 57.2959 18.1122 57.3872 18.1578ZM63.5946 20.1661C62.7274 20.2574 62.0884 20.8964 61.9058 21.718C61.8601 21.9462 61.8601 22.357 61.9058 22.5852C62.0884 23.3154 62.6361 23.8175 63.3663 24.0001C63.4576 24.0001 63.6402 24.0457 63.7771 24.0457C64.3248 24.0457 64.7813 23.8632 65.1464 23.498C65.5572 23.0872 65.6941 22.6764 65.6941 22.1287C65.6941 21.4441 65.3746 20.8507 64.8269 20.5312C64.4618 20.2118 63.9597 20.1205 63.5946 20.1661Z" fill="white" fill-opacity="0.4"/>
<path fill-rule="evenodd" clip-rule="evenodd" d="M39.2075 27.7099C39.5024 27.2913 39.959 27.082 40.5868 27.082C41.1291 27.082 41.5666 27.2628 41.8996 27.6243C42.2325 27.9762 42.3942 28.4518 42.3942 29.0511V31.9715H40.9673V29.1748C40.9673 28.6897 40.7295 28.3948 40.2824 28.3948C39.8163 28.3948 39.5404 28.7277 39.5404 29.289V31.9715H38.1136V29.1748C38.1136 28.6897 37.8757 28.3948 37.4286 28.3948C36.9625 28.3948 36.6867 28.7277 36.6867 29.289V31.9715H35.2598V27.2152H36.6867V27.6528C36.9435 27.2723 37.3716 27.082 37.9613 27.082C38.5131 27.082 38.9316 27.2913 39.2075 27.7099ZM48.1735 29.5934C48.1735 30.2973 47.9262 30.8966 47.441 31.3817C46.9559 31.8669 46.3566 32.1047 45.6527 32.1047C44.9487 32.1047 44.3494 31.8669 43.8643 31.3817C43.3792 30.8966 43.1318 30.2973 43.1318 29.5934C43.1318 28.8894 43.3792 28.2996 43.8643 27.8145C44.3494 27.3294 44.9487 27.082 45.6527 27.082C46.3566 27.082 46.9559 27.3294 47.441 27.8145C47.9262 28.2996 48.1735 28.8894 48.1735 29.5934ZM44.5587 29.5934C44.5587 29.9263 44.6634 30.1927 44.8726 30.4019C45.0819 30.6112 45.3388 30.7159 45.6527 30.7159C45.9666 30.7159 46.2234 30.6112 46.4327 30.4019C46.642 30.1927 46.7466 29.9263 46.7466 29.5934C46.7466 29.2604 46.642 28.9941 46.4327 28.7848C46.2234 28.5755 45.9666 28.4709 45.6527 28.4709C45.3388 28.4709 45.0819 28.5755 44.8726 28.7848C44.6634 28.9941 44.5587 29.2604 44.5587 29.5934ZM51.7678 27.082C51.1495 27.082 50.6929 27.2723 50.4075 27.6623V27.2152H48.9806V31.9715H50.4075V29.3746C50.4075 28.7277 50.7499 28.3948 51.2922 28.3948C51.7773 28.3948 52.1198 28.6992 52.1198 29.2604V31.9715H53.5467V29.0511C53.5467 28.4328 53.3754 27.9572 53.033 27.6052C52.7 27.2533 52.272 27.082 51.7678 27.082ZM59.2353 29.5934C59.2353 29.7931 59.2163 29.9834 59.1782 30.1641H55.8012C55.9629 30.6112 56.3434 30.83 56.9427 30.83C57.3328 30.83 57.6372 30.7063 57.8559 30.4685L58.9975 31.1249C58.5313 31.7813 57.8369 32.1047 56.9237 32.1047C56.1247 32.1047 55.4873 31.8669 55.0022 31.3912C54.5265 30.9156 54.2887 30.3163 54.2887 29.5934C54.2887 28.8799 54.5265 28.2806 54.9927 27.805C55.4683 27.3198 56.0771 27.082 56.8191 27.082C57.5135 27.082 58.0843 27.3198 58.5409 27.805C59.007 28.2806 59.2353 28.8799 59.2353 29.5934ZM56.8096 28.3472C56.2578 28.3472 55.9154 28.5945 55.7727 29.0987H57.8179C57.6752 28.5945 57.3423 28.3472 56.8096 28.3472ZM60.2919 29.5979C59.7543 28.3197 59.3145 27.255 59.3145 27.2318C59.3145 27.2087 59.7116 27.1898 60.1971 27.1899L61.0798 27.1901L61.5906 28.5398C61.8716 29.2822 62.1209 29.8896 62.1445 29.8896C62.1681 29.8896 62.419 29.2945 62.7021 28.5672C62.9852 27.8399 63.2518 27.2313 63.2945 27.2149C63.3373 27.1985 63.731 27.194 64.1694 27.2048L64.9664 27.2244L63.6455 30.4088L62.3246 33.5933L61.4428 33.6126L60.561 33.632L60.6939 33.3011C60.767 33.1191 60.9263 32.7343 61.0481 32.446L61.2694 31.9218L60.2919 29.5979Z" fill="white"/>
</g>
</svg>
