<svg width="77" height="40" viewBox="0 0 77 40" fill="none" xmlns="http://www.w3.org/2000/svg">
<g opacity="0.5">
<path opacity="0.4" fill-rule="evenodd" clip-rule="evenodd" d="M30.716 7.63477L26.1401 21.4281H29.3729C29.3729 21.4281 32.2363 12.6163 32.521 11.729C32.521 11.729 33.9317 16.0445 34.0934 16.547C34.0934 16.547 32.0734 16.547 32.1008 16.547C32.1008 16.547 31.4071 18.8404 31.2907 19.313L33.1232 19.3171L34.9557 19.3212L35.6229 21.4281H39.0713C39.0713 21.4281 38.0469 18.3042 36.7936 14.544C35.1424 9.58963 34.5052 7.69732 34.4792 7.67103L34.4434 7.63477H32.5797H30.716ZM39.5517 7.64958C39.5303 7.66397 39.527 8.44718 39.5234 14.5089C39.5193 21.3372 39.5194 21.352 39.5516 21.3843C39.5835 21.4161 39.6045 21.4165 41.168 21.4165C42.5757 21.4165 42.7562 21.4138 42.788 21.3914L42.8238 21.3664L42.8244 15.9231C42.8248 11.3616 42.8284 10.4751 42.8468 10.4509C42.8675 10.4236 42.9163 10.4224 43.7288 10.429C44.2018 10.4328 44.6215 10.4405 44.6614 10.4461C44.7013 10.4516 44.7738 10.464 44.8226 10.4736C44.8714 10.4832 44.9584 10.5019 45.016 10.5152C45.0737 10.5286 45.1752 10.5571 45.2417 10.5788C45.3082 10.6004 45.3771 10.6242 45.3948 10.6316C45.4126 10.639 45.4778 10.6693 45.5399 10.6988C45.602 10.7284 45.7057 10.7878 45.7704 10.8308C45.8351 10.8738 45.9387 10.9568 46.0007 11.0152C46.0626 11.0737 46.1494 11.1693 46.1936 11.2278C46.2377 11.2863 46.3094 11.4066 46.353 11.4953C46.3966 11.5839 46.4467 11.7036 46.4644 11.7612C46.482 11.8189 46.5039 11.9023 46.513 11.9466C46.5221 11.9909 46.5371 12.0658 46.5465 12.1131C46.5558 12.1603 46.5635 12.3168 46.5635 12.461C46.5635 12.6051 46.5559 12.7659 46.5466 12.8184C46.5373 12.8708 46.5219 12.9536 46.5124 13.0024C46.5028 13.0512 46.4809 13.1346 46.4637 13.1878C46.4465 13.241 46.4267 13.299 46.4198 13.3167C46.4128 13.3345 46.3754 13.4128 46.3365 13.4907C46.2977 13.5687 46.2179 13.692 46.1592 13.7648C46.1004 13.8375 46.0096 13.9338 45.9573 13.9787C45.905 14.0237 45.8188 14.0898 45.7656 14.1256C45.7124 14.1614 45.5919 14.228 45.4978 14.2736C45.4038 14.3191 45.3164 14.3564 45.3036 14.3564C45.2908 14.3564 45.2735 14.3625 45.2651 14.37C45.2567 14.3775 45.1917 14.3988 45.1208 14.4173C45.0499 14.4358 44.9592 14.4582 44.9193 14.4669C44.8794 14.4757 44.796 14.4904 44.7339 14.4996C44.6719 14.5088 44.5304 14.5239 44.4196 14.5333C44.3088 14.5426 44.1591 14.5501 44.0869 14.55C43.9819 14.5499 43.9537 14.5549 43.9458 14.5753C43.9405 14.5894 43.9361 15.2017 43.9361 15.9361C43.9361 16.6705 43.9405 17.2828 43.9458 17.2968C43.9543 17.319 44.0028 17.3223 44.3206 17.3226C44.5214 17.3227 44.7871 17.3151 44.9113 17.3057C45.0354 17.2963 45.2095 17.2814 45.2981 17.2725C45.3868 17.2637 45.5083 17.2495 45.5681 17.241C45.628 17.2325 45.7295 17.2178 45.7938 17.2083C45.858 17.1989 45.936 17.1849 45.9671 17.1773C45.9981 17.1697 46.067 17.1546 46.1202 17.1437C46.1734 17.1327 46.2858 17.1062 46.37 17.0847C46.4543 17.0632 46.5449 17.0398 46.5715 17.0328C46.5981 17.0257 46.6997 16.9934 46.7972 16.961C46.8947 16.9285 46.9926 16.894 47.0148 16.8843C47.037 16.8746 47.0714 16.8604 47.0914 16.8527C47.1113 16.845 47.144 16.8322 47.1639 16.8243C47.1838 16.8163 47.2292 16.7975 47.2646 16.7824C47.3001 16.7673 47.398 16.7215 47.4822 16.6805C47.5665 16.6396 47.6934 16.5723 47.7643 16.5311C47.8353 16.4899 47.9332 16.4314 47.9819 16.4011C48.0307 16.3707 48.1061 16.3208 48.1496 16.2901C48.193 16.2594 48.2873 16.1876 48.3591 16.1306C48.4309 16.0736 48.554 15.9648 48.6326 15.8888C48.7112 15.8129 48.8236 15.696 48.8825 15.6292C48.9413 15.5623 49.0052 15.4862 49.0245 15.4599C49.0438 15.4337 49.0912 15.3687 49.1298 15.3155C49.1684 15.2623 49.2415 15.1488 49.2923 15.0633C49.3431 14.9778 49.4249 14.8218 49.4742 14.7167C49.5235 14.6116 49.5705 14.5093 49.5788 14.4894C49.5871 14.4694 49.6008 14.4368 49.6093 14.4169C49.6179 14.3969 49.6502 14.3035 49.6811 14.2093C49.7121 14.115 49.7526 13.9808 49.7711 13.9111C49.7897 13.8413 49.8125 13.7479 49.8219 13.7036C49.8312 13.6593 49.8453 13.594 49.8531 13.5585C49.861 13.5231 49.8752 13.4433 49.8848 13.3812C49.8944 13.3191 49.9094 13.2103 49.918 13.1394C49.9266 13.0685 49.9379 12.8328 49.9429 12.6155C49.9487 12.368 49.9453 12.1515 49.9337 12.0353C49.9236 11.9333 49.9079 11.7919 49.8988 11.7209C49.8898 11.65 49.8748 11.5448 49.8656 11.4872C49.8564 11.4296 49.8428 11.3534 49.8353 11.318C49.8279 11.2825 49.8135 11.2172 49.8035 11.1729C49.7935 11.1286 49.7787 11.0669 49.7707 11.0359C49.7627 11.0049 49.7407 10.9251 49.7217 10.8586C49.7027 10.7921 49.6741 10.7014 49.6582 10.6571C49.6423 10.6128 49.6053 10.515 49.576 10.4398C49.5467 10.3646 49.482 10.2232 49.4321 10.1255C49.3822 10.0278 49.3181 9.90886 49.2895 9.86119C49.261 9.81351 49.2077 9.7301 49.1711 9.67582C49.1345 9.62153 49.0612 9.52271 49.0082 9.45622C48.9552 9.38973 48.8314 9.25305 48.733 9.15252C48.6346 9.05197 48.4853 8.9136 48.401 8.84505C48.3168 8.77648 48.1793 8.6744 48.0954 8.61817C48.0116 8.56196 47.8811 8.48021 47.8054 8.43651C47.7297 8.39281 47.5799 8.31423 47.4723 8.26188C47.3648 8.20952 47.2722 8.16669 47.2665 8.16669C47.2609 8.16669 47.2219 8.15146 47.1798 8.13284C47.1378 8.11424 47.0889 8.093 47.0712 8.08563C47.0535 8.07828 46.9846 8.05291 46.9181 8.02926C46.8516 8.0056 46.7754 7.98055 46.7488 7.9736C46.7222 7.96666 46.6678 7.95028 46.6279 7.93721C46.588 7.92413 46.5246 7.90513 46.4869 7.89499C46.4492 7.88485 46.3876 7.86881 46.3499 7.85934C46.3122 7.84987 46.2596 7.83617 46.233 7.82889C46.2064 7.8216 46.1375 7.80711 46.0799 7.79667C46.0223 7.78622 45.9461 7.77147 45.9106 7.76388C45.8752 7.75629 45.7954 7.74259 45.7333 7.73343C45.6713 7.72427 45.5588 7.70962 45.4835 7.70087C45.4081 7.6921 45.2776 7.67642 45.1933 7.666C45.0836 7.65243 44.2653 7.64511 42.308 7.6402C40.4882 7.63564 39.5678 7.63876 39.5517 7.64958ZM24.4266 28.5197C24.4207 28.5256 24.4159 29.26 24.4159 30.1517V31.773H38.0445H51.6732V30.1508C51.6732 28.6863 51.6707 28.5275 51.6477 28.5187C51.6337 28.5133 45.5056 28.5089 38.0298 28.5089C30.554 28.5089 24.4325 28.5138 24.4266 28.5197Z" fill="white"/>
</g>
</svg>
