<svg width="100" height="51" viewBox="0 0 100 51" fill="none" xmlns="http://www.w3.org/2000/svg">
<path d="M37.9396 23.2129C37.8557 22.108 36.9466 20.5625 34.7018 20.5625C32.7717 20.5625 31.2542 21.8982 31.2542 24.5206C31.2542 27.1081 32.6877 28.4577 34.6808 28.4577C36.5619 28.4577 37.6249 27.3179 37.9396 25.6885H36.3731C36.1843 26.6116 35.5829 27.1011 34.7157 27.1011C33.3871 27.1011 32.8556 25.8913 32.8556 24.5416C32.8556 22.4227 33.9605 21.9192 34.7157 21.9192C36.0095 21.9192 36.2472 22.7653 36.3731 23.2129H37.9396ZM61.961 25.4787C61.961 23.4716 60.6113 22.5555 59.1218 22.5555C57.6322 22.5555 56.2826 23.4716 56.2826 25.4787C56.2826 27.4857 57.6322 28.4018 59.1218 28.4018C60.6183 28.4018 61.961 27.4787 61.961 25.4787ZM60.4575 25.4787C60.4575 26.185 60.2477 27.171 59.1218 27.171C57.9959 27.171 57.7861 26.192 57.7861 25.4787C57.7861 24.7654 57.9959 23.7863 59.1218 23.7863C60.2546 23.7863 60.4575 24.7654 60.4575 25.4787ZM55.2616 21.1919H53.8V22.6954H53.0517V23.7374H53.8V27.1081C53.8 27.8284 54.0308 28.3109 55.2895 28.3109H55.4783C55.7091 28.3109 55.9399 28.3039 56.1707 28.2899V27.185C56.0658 27.192 55.9609 27.206 55.87 27.206C55.2755 27.206 55.2616 27.0801 55.2616 26.7584V23.7374H56.1707V22.6954H55.2616V21.1919ZM38.3662 28.2549H39.8277V25.3598C39.8277 24.7444 40.0375 24.0311 41.1774 24.0311C41.3103 24.0311 41.4711 24.0311 41.597 24.0521V22.5695C41.5061 22.5625 41.4082 22.5485 41.3173 22.5485C40.4291 22.5485 40.0935 23.094 39.7928 23.6535H39.7718V22.6954H38.3732V28.2549H38.3662Z" fill="white"/>
<path d="M47.3244 22.7031H45.7789L44.639 26.7941H44.618L43.4292 22.7031H41.7998L43.8488 28.4864C43.7089 29.2487 43.4222 29.3256 42.8907 29.3256C42.7649 29.3256 42.6739 29.3116 42.611 29.3046V30.4725C42.8208 30.4795 43.0726 30.4935 43.2684 30.4935C44.5411 30.4935 44.7299 30.2207 45.4222 28.1648L47.3244 22.7031Z" fill="white"/>
<path d="M49.0165 25.6037C49.0165 24.7156 49.2543 23.8204 50.2613 23.8204C51.1914 23.8204 51.5061 24.6456 51.5061 25.5198C51.5061 26.1771 51.2474 27.1981 50.3033 27.1981C49.3662 27.1981 49.0165 26.4219 49.0165 25.6037ZM49.0165 22.7015H47.6179V30.4289H49.0725V27.5478H49.0935C49.2683 27.8485 49.6389 28.4009 50.6599 28.4009C52.3103 28.4009 52.9956 26.9394 52.9956 25.4149C52.9956 23.4918 51.9117 22.5547 50.6879 22.5547C49.7089 22.5547 49.2963 23.0652 49.0235 23.5058H49.0026V22.7015H49.0165Z" fill="white"/>
<path d="M13.3655 27.4289C14.918 30.6598 17.5194 32.6948 19.918 33.9675C19.925 33.9745 20.1278 34.0794 20.1278 34.0794C20.1278 34.0794 20.3306 33.9745 20.3376 33.9675C24.4006 31.8276 29.0371 27.4779 28.1839 18.8973L26.3937 18.1211C26.058 20.7785 24.4216 23.0163 22.1419 24.6387C21.8342 24.8555 21.5125 25.0653 21.1768 25.2611L21.4985 27.6807C21.5404 28.0024 21.2327 28.2751 20.9111 28.2751H19.2817C18.96 28.2751 18.6453 28.0024 18.6942 27.6807L18.8621 26.38C17.2956 26.9814 15.6103 27.338 13.9389 27.422C13.7431 27.422 13.5543 27.4289 13.3655 27.4289Z" fill="white"/>
<path d="M12.0719 18.8983C11.7642 22.0382 12.1838 24.6117 13.0509 26.7236C13.3377 26.7306 13.6174 26.7236 13.9041 26.7097C15.6314 26.6257 17.3727 26.2271 18.9741 25.5698L19.107 24.5488C18.6035 24.2131 18.2678 23.6397 18.2678 22.9893C18.2678 21.9613 19.107 21.1221 20.135 21.1221C21.163 21.1221 22.0021 21.9613 22.0021 22.9893C22.0021 23.4299 21.8483 23.8425 21.5826 24.1642C21.6315 24.1292 21.6805 24.0942 21.7294 24.0593C23.8273 22.5697 25.3379 20.5277 25.6805 18.1361C23.7155 18.6536 21.9252 17.9752 20.8203 16.5137H20.1699H20.107H19.4566C18.2678 18.0871 16.2888 18.7515 14.1558 18.0032L12.0719 18.8983Z" fill="white" fill-opacity="0.4"/>
<path d="M62.6392 28.2552H65.884C68.3595 28.2552 68.9959 25.9405 68.9959 24.3251C68.9959 22.9055 68.4714 20.7516 65.9469 20.7516H62.6392V28.2552ZM84.6046 22.7027H83.0591L81.9192 26.7936H81.8982L80.7094 22.7027H79.08L81.129 28.486C80.9961 29.2482 80.7024 29.3251 80.1709 29.3251C80.0451 29.3251 79.9541 29.3112 79.8842 29.3042V30.472C80.094 30.479 80.3458 30.493 80.5416 30.493C81.8143 30.493 82.0031 30.2203 82.6955 28.1643L84.6046 22.7027ZM78.5905 20.7586H77.1289V28.2552H78.5905V20.7586ZM74.7862 22.7027V28.2552H76.2478V22.7027H74.7862ZM76.2478 20.6816H74.7862V22.0383H76.2478V20.6816ZM74.003 24.1572C74.003 22.7866 72.5694 22.5488 71.7862 22.5488C70.6463 22.5488 69.4714 22.7866 69.3036 24.4929H70.7162C70.7582 24.1712 70.8841 23.7167 71.6113 23.7167C71.989 23.7167 72.5694 23.7516 72.5694 24.36C72.5694 24.6747 72.2897 24.7656 72.0589 24.8006L70.7442 24.9964C69.8141 25.1293 69.1288 25.6887 69.1288 26.7727C69.1288 27.9195 69.9819 28.3951 70.8211 28.3951C71.8141 28.3951 72.2827 27.9335 72.6184 27.5909C72.6533 27.9055 72.6743 27.9895 72.7582 28.2482H74.3317V28.0384C74.1568 27.9755 74.01 27.8286 74.01 27.1713V24.1572H74.003ZM72.5694 26.2622C72.5694 26.9405 71.9121 27.3601 71.2617 27.3601C70.982 27.3601 70.5834 27.2062 70.5834 26.6887C70.5834 26.0803 71.0309 25.9475 71.5764 25.8566C72.1778 25.7587 72.4225 25.6677 72.5694 25.5559V26.2622ZM64.1707 22.0523H65.6742C66.3455 22.0523 67.3945 22.2341 67.3945 24.4439C67.3945 25.6747 66.9679 26.9615 65.6952 26.9615H64.1707V22.0523Z" fill="white" fill-opacity="0.4"/>
<path d="M85.5137 20.0665V20.6749C85.5137 20.6888 85.5067 20.7028 85.4997 20.7168C85.4927 20.7308 85.4787 20.7308 85.4647 20.7308H85.3668C85.3528 20.7308 85.3389 20.7238 85.3249 20.7168C85.3109 20.7098 85.3109 20.6958 85.3109 20.6749V19.1154C85.3109 19.1014 85.3179 19.0874 85.3249 19.0734C85.3319 19.0594 85.3458 19.0595 85.3668 19.0595H85.9263C86.0801 19.0595 86.213 19.1014 86.3109 19.1853C86.3948 19.2692 86.4508 19.3881 86.4508 19.542V19.5769C86.4508 19.6888 86.4228 19.7867 86.3529 19.8707C86.2969 19.9406 86.213 19.9965 86.1081 20.0315L86.4298 20.6469C86.4368 20.6539 86.4368 20.6609 86.4438 20.6679C86.4438 20.6749 86.4438 20.6819 86.4438 20.6888C86.4438 20.7028 86.4368 20.7098 86.4298 20.7168C86.4228 20.7238 86.4088 20.7308 86.4018 20.7308H86.2689C86.255 20.7308 86.241 20.7238 86.234 20.7168C86.227 20.7098 86.22 20.7028 86.213 20.6888L85.8913 20.0665H85.5137ZM85.8214 18.5C86.213 18.5 86.5696 18.6608 86.8284 18.9196C87.0871 19.1783 87.248 19.535 87.248 19.9266C87.248 20.3182 87.0871 20.6749 86.8284 20.9336C86.5696 21.1924 86.213 21.3532 85.8214 21.3532C85.4298 21.3532 85.0731 21.1924 84.8144 20.9336C84.5556 20.6749 84.3948 20.3182 84.3948 19.9266C84.3948 19.535 84.5556 19.1783 84.8144 18.9196C85.0661 18.6608 85.4298 18.5 85.8214 18.5ZM86.6885 19.0525C86.4647 18.8287 86.157 18.6888 85.8144 18.6888C85.4717 18.6888 85.164 18.8287 84.9402 19.0525C84.7165 19.2762 84.5766 19.5839 84.5766 19.9266C84.5766 20.2693 84.7165 20.577 84.9402 20.8007C85.164 21.0245 85.4717 21.1644 85.8144 21.1644C86.157 21.1644 86.4647 21.0245 86.6885 20.8007C86.9123 20.577 87.0522 20.2693 87.0522 19.9266C87.0522 19.5839 86.9123 19.2762 86.6885 19.0525ZM85.5137 19.2623V19.8707H85.9123C86.0032 19.8707 86.0871 19.8427 86.15 19.7937C86.199 19.7448 86.234 19.6818 86.234 19.5909V19.549C86.234 19.4511 86.199 19.3811 86.15 19.3322C86.0871 19.2762 86.0032 19.2553 85.9123 19.2553H85.5137V19.2623Z" fill="white" fill-opacity="0.4"/>
</svg>
