<svg width="116" height="60" viewBox="0 0 116 60" fill="none" xmlns="http://www.w3.org/2000/svg">
<path fill-rule="evenodd" clip-rule="evenodd" d="M63.471 36.4051C63.3179 36.4543 63.0427 36.6089 62.8596 36.7486C62.447 37.0633 62.4144 37.0636 62.4144 36.7523V36.502L61.2524 36.5298L60.0905 36.5576V39.7221V42.8866L61.2524 42.9145L62.4144 42.9423V41.1542C62.4144 39.7337 62.4458 39.3053 62.5675 39.0701C62.7466 38.7236 63.1256 38.5517 63.5192 38.6381C64.0515 38.755 64.0955 38.9377 64.0955 41.0297V42.936H65.2885H66.4816L66.4505 40.5305L66.4194 38.1251L66.1213 37.5424C65.7345 36.7869 65.1648 36.4094 64.3272 36.3539C64.0094 36.3329 63.6241 36.3559 63.471 36.4051ZM69.5627 36.4475C68.6062 36.7612 67.8812 37.3657 67.4406 38.2168C67.1821 38.7163 67.0783 40.0878 67.2506 40.7265C67.5309 41.7655 68.5492 42.6969 69.7306 42.9952C70.8749 43.2841 72.3063 43.0147 73.0863 42.3635L73.42 42.0849L72.6697 41.4304L71.9193 40.776L71.5427 40.9725C71.0119 41.2495 70.1339 41.1902 69.7748 40.8531L69.518 40.6121L71.6276 40.5627L73.7373 40.5132L73.7663 39.7361C73.805 38.702 73.6125 38.1415 72.9814 37.4509C72.3262 36.7341 71.6508 36.4082 70.706 36.3531C70.2442 36.3262 69.8277 36.3606 69.5627 36.4475ZM86.2652 36.4586C85.0753 36.793 84.4668 37.5127 84.4668 38.5859C84.4668 39.7429 84.9483 40.1924 86.6424 40.6171C87.5486 40.8442 87.7749 41.0687 87.2852 41.2549C86.9745 41.373 86.5652 41.2333 86.2963 40.9173L86.0985 40.6849L85.1827 41.1028C84.679 41.3327 84.2391 41.5486 84.2051 41.5825C84.1249 41.6628 84.3922 42.0675 84.7379 42.389C85.4367 43.039 87.2617 43.2922 88.4067 42.8982C89.0273 42.6846 89.5846 42.2277 89.7722 41.7788C89.971 41.3027 89.9413 40.4266 89.7108 39.9748C89.3817 39.3296 88.8274 39.0251 87.5422 38.7837C86.7737 38.6392 86.5057 38.369 86.9633 38.1997C87.2243 38.1032 87.7225 38.2519 87.7981 38.449C87.8639 38.6206 88.1077 38.6218 88.534 38.4526C88.7174 38.3798 89.0788 38.2426 89.3372 38.1477C89.5956 38.0529 89.8069 37.9408 89.8069 37.8987C89.8069 37.678 89.0751 36.9136 88.6339 36.6735C87.9993 36.3281 87.0393 36.241 86.2652 36.4586ZM74.0834 36.6434C74.0834 36.7489 75.2002 40.6731 75.826 42.766C75.8733 42.9242 75.9995 42.9392 77.074 42.9143L78.2695 42.8866L78.6239 41.5351C78.8189 40.7917 79.0064 40.1555 79.0407 40.1212C79.075 40.087 79.1329 40.1834 79.1694 40.3355C79.2059 40.4877 79.373 41.1363 79.5408 41.7771L79.8459 42.9419L81.0385 42.9143L82.2311 42.8866L83.0871 39.9602C83.5579 38.3507 83.9728 36.9155 84.0091 36.771L84.075 36.5082H82.837C82.1562 36.5082 81.599 36.5211 81.599 36.5367C81.599 36.688 80.9958 39.8145 80.9596 39.8507C80.8991 39.9111 80.9048 39.9289 80.3936 38.0904L79.9673 36.5576H79.0889H78.2105L77.7724 38.1399C77.5315 39.0101 77.2998 39.7572 77.2576 39.8002C77.2153 39.8432 77.0289 39.1312 76.8434 38.218L76.5062 36.5576L75.2948 36.5299C74.2981 36.507 74.0834 36.5272 74.0834 36.6434ZM71.3495 38.5307C71.4934 38.6641 71.6111 38.8199 71.6111 38.8768C71.6111 38.9425 71.2306 38.9804 70.5728 38.9804C69.4347 38.9804 69.2904 38.8901 69.795 38.4932C70.1842 38.1871 70.9999 38.2068 71.3495 38.5307Z" fill="white"/>
<path fill-rule="evenodd" clip-rule="evenodd" d="M46.7336 32.3446H48.8674H50.8756V29.2066C50.8756 27.1356 50.8756 26.0059 50.8756 25.8804C50.9384 25.5666 51.0012 25.2528 51.1894 25.0018C51.4405 24.5625 51.8798 24.3742 52.3818 24.437C53.0722 24.4997 53.5115 24.8763 53.637 25.6922C53.637 25.8177 53.637 27.0728 53.637 29.0811V32.2818H55.6453H57.6536V28.5163C57.6536 25.3156 57.6536 24.688 57.5908 24.3742C57.4653 23.2446 57.0887 22.366 56.3984 21.7384C55.8336 21.1735 55.1432 20.8597 54.3274 20.7342C54.0136 20.6715 53.1349 20.7342 52.8839 20.797C52.1308 20.9853 51.566 21.2363 51.0639 21.8011L50.7501 22.0522V19.0398V16.0273H48.7419H46.7336V24.1859V32.3446ZM89.5349 16.1529C89.4094 16.4039 85.33 26.257 85.33 26.257C85.33 26.257 86.3969 26.257 87.7149 26.257H90.0997L92.2335 21.1735C93.4259 18.3494 94.3673 16.0273 94.3673 16.0273C94.3673 16.0273 93.3004 16.0273 91.9824 16.0273H89.5976L89.5349 16.1529ZM38.0729 20.797C37.1943 20.9225 36.5039 21.1735 35.8136 21.6129C34.4329 22.4915 33.5543 23.9977 33.3033 25.7549C33.1777 26.5708 33.2405 27.5749 33.4288 28.328C33.9308 30.2735 35.2488 31.7797 36.9433 32.3446C37.5708 32.5328 37.8219 32.5956 38.575 32.5956C39.1398 32.5956 39.3281 32.5956 39.5164 32.5328C40.3322 32.3446 40.897 32.0308 41.3991 31.5287L41.6501 31.2777V31.7797V32.2818H43.5957H45.5412V26.6335V20.9853H43.5957H41.6501V21.4873V21.9894L41.4619 21.8011C41.0226 21.2991 40.395 20.9853 39.5791 20.797C39.3281 20.7342 39.2026 20.7342 38.7005 20.7342C38.3867 20.797 38.1357 20.797 38.0729 20.797ZM63.6784 20.797C62.6115 20.9225 61.4818 21.4246 60.666 22.0522C59.097 23.3701 58.2811 25.4411 58.5949 27.5749C58.9087 29.9597 60.6032 31.7797 62.988 32.4073C63.4901 32.5328 63.9922 32.5956 64.6197 32.5956C65.7494 32.5956 66.5653 32.4073 67.4439 31.968C69.2011 31.0894 70.3308 29.5204 70.5818 27.5749C70.6446 27.0728 70.6446 26.257 70.5818 25.8177C70.4563 24.8763 70.0797 23.9349 69.5149 23.1818C69.2639 22.868 68.7618 22.3032 68.448 22.0522C67.5694 21.3618 66.5653 20.9225 65.4356 20.797C64.9963 20.7342 64.1177 20.7342 63.6784 20.797ZM76.4811 20.797C75.4142 20.9225 74.3473 21.3618 73.5315 22.0522C73.2177 22.3032 72.6528 22.868 72.4646 23.1818C71.8997 23.9349 71.5859 24.8763 71.3977 25.8177C71.3349 26.257 71.3349 27.1356 71.3977 27.5749C71.7742 30.0852 73.5942 32.0308 76.1045 32.5328C76.6066 32.6583 76.8577 32.6583 77.4225 32.6583C78.4894 32.6583 79.4307 32.4701 80.3094 31.968C82.6314 30.7756 83.8866 28.1397 83.3218 25.4411C82.8197 22.9308 80.8114 21.1108 78.2383 20.797C77.799 20.7342 76.9204 20.7342 76.4811 20.797ZM20.3123 21.048C20.3123 21.048 21.3791 23.6211 22.6971 26.759C24.015 29.897 25.0819 32.4701 25.0819 32.4701C25.0819 32.4701 24.7054 33.4114 24.2033 34.5411C23.7012 35.6708 23.3247 36.5494 23.3247 36.6121C23.3247 36.6749 24.266 36.6121 25.4585 36.6121H27.5922L30.7929 28.8928C32.5502 24.6253 33.9936 21.1735 33.9936 21.1108C33.9936 21.1108 33.5543 21.048 31.8598 21.1108H29.726L28.4081 24.3742C27.8433 26.1315 27.2784 27.6377 27.2784 27.6377C27.2784 27.6377 26.7136 26.1315 25.9605 24.3742L24.7053 21.1108H22.5088C21.3164 21.048 20.3123 21.048 20.3123 21.048ZM40.0184 24.437C40.8343 24.6253 41.4619 25.2528 41.7129 26.0687C41.7757 26.3825 41.7757 26.9473 41.7129 27.2611C41.5246 28.077 40.897 28.7046 40.0812 28.8928C39.7674 28.9556 39.2026 28.9556 38.8888 28.8928C38.1984 28.7046 37.5708 28.2025 37.3198 27.5749C37.006 26.8846 37.1315 26.0059 37.5081 25.3784C38.0729 24.5625 39.0143 24.2487 40.0184 24.437ZM65.0591 24.4997C65.9377 24.6253 66.628 25.3156 66.8163 26.1942C66.8791 26.508 66.8791 27.0101 66.8163 27.3239C66.628 28.1397 66.0004 28.7046 65.2473 28.9556C64.9963 29.0184 64.3059 29.0184 64.0549 28.9556C63.4273 28.7673 62.9253 28.328 62.6115 27.7632C62.4232 27.3866 62.4232 27.1984 62.4232 26.759C62.4232 26.3825 62.486 26.1942 62.6115 25.8804C62.7997 25.5039 63.0508 25.1273 63.4273 24.8763C63.8039 24.4997 64.4315 24.3742 65.0591 24.4997ZM77.799 24.4997C78.5521 24.6253 79.1797 25.1273 79.4307 25.8177C79.5563 26.1315 79.619 26.3197 79.619 26.6963C79.619 27.1356 79.5563 27.3239 79.4307 27.7004C79.1797 28.2652 78.6149 28.7046 77.9873 28.8928C77.7363 28.9556 77.0459 28.9556 76.7949 28.8928C76.0418 28.7046 75.4142 28.077 75.2259 27.2611C75.1632 26.9473 75.1632 26.3825 75.2259 26.0687C75.477 25.0646 76.3556 24.3742 77.3597 24.3742C77.4852 24.437 77.6735 24.437 77.799 24.4997ZM86.3342 27.2611C85.1418 27.3866 84.2632 28.2653 84.0121 29.3949C83.9494 29.7087 83.9494 30.2735 84.0121 30.5873C84.2632 31.5915 85.0162 32.2818 86.0204 32.5328C86.1459 32.5328 86.3969 32.5956 86.5852 32.5956C87.3383 32.5956 87.9659 32.3446 88.468 31.8425C89.0328 31.2777 89.2211 30.7128 89.2211 29.9597C89.2211 29.0184 88.7818 28.2025 88.0287 27.7632C87.5266 27.3239 86.8362 27.1984 86.3342 27.2611Z" fill="white" fill-opacity="0.4"/>
</svg>
