<svg width="25" height="27" viewBox="0 0 25 27" fill="none" xmlns="http://www.w3.org/2000/svg">
<path d="M15.5602 4.37499C15.6955 4.26312 15.8515 4.17898 16.0192 4.12739C16.187 4.0758 16.3633 4.05776 16.5381 4.07431C16.7128 4.09086 16.8826 4.14167 17.0377 4.22384C17.1928 4.30601 17.3303 4.41793 17.4421 4.5532C18.4859 5.82002 20.5456 8.78763 21.3638 10.2106C23.2171 13.422 24.3595 16.7117 24.6678 19.4704C24.821 20.848 24.7747 22.1596 24.4539 23.2841C24.1278 24.4157 23.4969 25.4404 22.4384 26.0517C21.157 26.7913 19.6761 26.6879 18.3235 26.1942C16.9655 25.6988 15.5361 25.1495 14.2031 23.9324C13.9452 23.6924 13.7925 23.3604 13.7781 23.0085C13.7637 22.6566 13.8888 22.3132 14.1262 22.053C14.3636 21.7928 14.6942 21.6369 15.0459 21.619C15.3977 21.6012 15.7423 21.723 16.0048 21.9578C17.181 23.0306 18.3146 23.3465 19.2377 23.6815C20.168 24.0201 20.7525 23.9399 21.1018 23.7367C21.394 23.5674 21.6899 23.2235 21.8823 22.5481C22.0784 21.8637 22.1408 20.9264 22.0107 19.768C21.7523 17.4531 20.7632 14.5162 19.047 11.5472C18.3043 10.2554 16.3311 7.41243 15.3838 6.26224C15.2719 6.12697 15.1878 5.971 15.1362 5.80321C15.0846 5.63543 15.0666 5.45913 15.0831 5.28438C15.0997 5.10962 15.1505 4.93984 15.2326 4.78473C15.3148 4.62961 15.4267 4.4922 15.562 4.38034" fill="#00D8FF"/>
<path d="M23.3654 19.031C23.3948 19.2041 23.3898 19.3812 23.3507 19.5524C23.3116 19.7235 23.2392 19.8853 23.1376 20.0284C23.036 20.1715 22.9072 20.2933 22.7586 20.3866C22.6099 20.48 22.4443 20.5432 22.2713 20.5725C20.6522 20.8412 16.7736 21.063 15.1324 21.0599C11.4258 21.0599 8.0044 20.4059 5.46149 19.2921C4.19092 18.7379 3.08074 18.041 2.26815 17.1999C1.44664 16.3552 0.876404 15.2931 0.876404 14.0723C0.876404 12.5932 1.70682 11.3635 2.80987 10.4368C3.91828 9.50836 5.42941 8.76523 7.14904 8.2199C7.48696 8.11261 7.85366 8.14396 8.16847 8.30706C8.32435 8.38781 8.46279 8.49848 8.5759 8.63275C8.68901 8.76701 8.77457 8.92224 8.82769 9.08957C8.88081 9.2569 8.90045 9.43305 8.8855 9.60798C8.87055 9.7829 8.82129 9.95316 8.74054 10.109C8.65979 10.2649 8.54912 10.4034 8.41487 10.5165C8.28061 10.6296 8.12539 10.7152 7.95807 10.7683C6.44337 11.2495 5.28151 11.8536 4.5295 12.4862C3.77037 13.1207 3.5494 13.6678 3.5494 14.0723C3.5494 14.4109 3.70087 14.8386 4.18914 15.343C4.68454 15.8544 5.46505 16.3766 6.53247 16.8435C8.66553 17.7773 11.7038 18.3868 15.1324 18.3868C16.7095 18.3868 20.4501 18.1702 21.824 17.9368C21.997 17.9074 22.1742 17.9124 22.3453 17.9515C22.5164 17.9906 22.6782 18.063 22.8213 18.1646C22.9645 18.2662 23.0862 18.395 23.1795 18.5437C23.2729 18.6923 23.3361 18.8579 23.3654 19.031Z" fill="#00D8FF"/>
<path d="M23.3654 19.031C23.3948 19.2041 23.3898 19.3812 23.3507 19.5524C23.3116 19.7235 23.2392 19.8853 23.1376 20.0284C23.036 20.1715 22.9072 20.2933 22.7586 20.3866C22.6099 20.48 22.4443 20.5432 22.2713 20.5725C20.6522 20.8412 16.7736 21.063 15.1324 21.0599C11.4258 21.0599 8.0044 20.4059 5.46149 19.2921C4.19092 18.7379 3.08074 18.041 2.26815 17.1999C1.44664 16.3552 0.876404 15.2931 0.876404 14.0723C0.876404 12.5932 1.70682 11.3635 2.80987 10.4368C3.91828 9.50836 5.42941 8.76523 7.14904 8.2199C7.48696 8.11261 7.85366 8.14396 8.16847 8.30706C8.32435 8.38781 8.46279 8.49848 8.5759 8.63275C8.68901 8.76701 8.77457 8.92224 8.82769 9.08957C8.88081 9.2569 8.90045 9.43305 8.8855 9.60798C8.87055 9.7829 8.82129 9.95316 8.74054 10.109C8.65979 10.2649 8.54912 10.4034 8.41487 10.5165C8.28061 10.6296 8.12539 10.7152 7.95807 10.7683C6.44337 11.2495 5.28151 11.8536 4.5295 12.4862C3.77037 13.1207 3.5494 13.6678 3.5494 14.0723C3.5494 14.4109 3.70087 14.8386 4.18914 15.343C4.68454 15.8544 5.46505 16.3766 6.53247 16.8435C8.66553 17.7773 11.7038 18.3868 15.1324 18.3868C16.7095 18.3868 20.4501 18.1702 21.824 17.9368C21.997 17.9074 22.1742 17.9124 22.3453 17.9515C22.5164 17.9906 22.6782 18.063 22.8213 18.1646C22.9645 18.2662 23.0862 18.395 23.1795 18.5437C23.2729 18.6923 23.3361 18.8579 23.3654 19.031Z" stroke="#00D8FF"/>
<path d="M7.01851 18.4978C6.68629 18.3744 6.41669 18.1241 6.26898 17.802C6.12128 17.4798 6.10757 17.1122 6.23086 16.7799C6.76903 15.3275 8.43764 11.7024 9.29835 10.2125C11.1516 7.00119 13.429 4.36725 15.6637 2.72059C16.7792 1.89904 17.9375 1.28422 19.0726 1.00086C20.2149 0.715728 21.4195 0.749588 22.4762 1.36085C23.7593 2.10042 24.4079 3.43343 24.6574 4.85376C24.9087 6.27766 24.7964 7.95639 24.4079 9.71889C24.3765 9.89618 24.3096 10.0653 24.2112 10.2161C24.1127 10.3669 23.9849 10.4962 23.8352 10.5964C23.6856 10.6965 23.5173 10.7654 23.3404 10.7988C23.1634 10.8323 22.9816 10.8297 22.8057 10.7911C22.6298 10.7525 22.4636 10.6788 22.3169 10.5744C22.1702 10.47 22.0461 10.337 21.9521 10.1834C21.8581 10.0299 21.7961 9.85889 21.7698 9.68076C21.7435 9.50263 21.7535 9.32102 21.7991 9.14684C22.1394 7.59285 22.1965 6.28479 22.0254 5.31532C21.8543 4.3423 21.4908 3.87717 21.1415 3.67579C20.8493 3.50649 20.402 3.42274 19.7213 3.59382C19.0299 3.76668 18.1888 4.18191 17.2496 4.87336C15.375 6.25271 13.3257 8.58013 11.6132 11.5491C10.8643 12.8389 9.26 16.3137 8.73636 17.7101C8.61296 18.0424 8.36267 18.312 8.04052 18.4597C7.71838 18.6074 7.35076 18.6211 7.01851 18.4978Z" fill="#00D8FF"/>
<path d="M7.01851 18.4978C6.68629 18.3744 6.41669 18.1241 6.26898 17.802C6.12128 17.4798 6.10757 17.1122 6.23086 16.7799C6.76903 15.3275 8.43764 11.7024 9.29835 10.2125C11.1516 7.00119 13.429 4.36725 15.6637 2.72059C16.7792 1.89904 17.9375 1.28422 19.0726 1.00086C20.2149 0.715728 21.4195 0.749588 22.4762 1.36085C23.7593 2.10042 24.4079 3.43343 24.6574 4.85376C24.9087 6.27766 24.7964 7.95639 24.4079 9.71889C24.3765 9.89618 24.3096 10.0653 24.2112 10.2161C24.1127 10.3669 23.9849 10.4962 23.8352 10.5964C23.6856 10.6965 23.5173 10.7654 23.3404 10.7988C23.1634 10.8323 22.9816 10.8297 22.8057 10.7911C22.6298 10.7525 22.4636 10.6788 22.3169 10.5744C22.1702 10.47 22.0461 10.337 21.9521 10.1834C21.8581 10.0299 21.7961 9.85889 21.7698 9.68076C21.7435 9.50263 21.7535 9.32102 21.7991 9.14684C22.1394 7.59285 22.1965 6.28479 22.0254 5.31532C21.8543 4.3423 21.4908 3.87717 21.1415 3.67579C20.8493 3.50649 20.402 3.42274 19.7213 3.59382C19.0299 3.76668 18.1888 4.18191 17.2496 4.87336C15.375 6.25271 13.3257 8.58013 11.6132 11.5491C10.8643 12.8389 9.26 16.3137 8.73636 17.7101C8.61296 18.0424 8.36267 18.312 8.04052 18.4597C7.71838 18.6074 7.35076 18.6211 7.01851 18.4978Z" stroke="#00D8FF"/>
<path d="M7.23904 17.6719L9.52736 15.8407C9.05013 17.2252 9.41498 17.7423 11.3586 18.129L9.07024 19.9602L7.23904 17.6719Z" fill="#00D8FF"/>
<path d="M5.57831 18.3281L4.47838 15.6115C5.66844 16.4649 6.26832 16.2633 7.19496 14.5116L8.29489 17.2282L5.57831 18.3281Z" fill="#00D8FF"/>
<path d="M16.5734 3.17383L19.4615 3.67279C18.1086 4.23345 17.9634 4.84338 18.9625 6.55477L16.0745 6.06185L16.5734 3.17383Z" fill="#00D8FF"/>
<path d="M23.6917 20.4033L21.8531 22.688C22.195 21.2817 21.5582 20.8124 19.577 20.8591L21.4053 18.5698L23.6917 20.4033Z" fill="#00D8FF"/>
<path d="M16.7997 5.22656L16.8039 8.1412C16.0065 6.91291 14.7529 6.95169 13.9038 8.19188L13.8691 5.26127L16.7997 5.22656Z" fill="#00D8FF"/>
<path d="M23.3192 17.8115L21.0926 15.9058C21.5238 17.3052 21.1434 17.8853 19.1881 18.2076L21.4134 20.0381L23.3192 17.8115Z" fill="#00D8FF"/>
<circle cx="15.2961" cy="13.7084" r="2.12343" fill="#00D8FF"/>
</svg>
