<svg width="535" height="576" viewBox="0 0 535 576" fill="none" xmlns="http://www.w3.org/2000/svg">
<path d="M328.264 79.5224C331.284 77.0251 334.765 75.147 338.511 73.9954C342.256 72.8438 346.191 72.4412 350.092 72.8106C353.993 73.18 357.783 74.3142 361.245 76.1483C364.708 77.9825 367.775 80.4807 370.272 83.5003C393.571 111.778 439.547 178.02 457.81 209.784C499.181 281.467 524.68 354.9 531.561 416.479C534.983 447.229 533.948 476.507 526.788 501.608C519.508 526.868 505.426 549.741 481.797 563.386C453.196 579.894 420.139 577.587 389.946 566.568C359.634 555.509 327.842 540.679 298.086 513.51C292.331 508.154 288.922 500.742 288.601 492.887C288.28 485.031 291.072 477.366 296.372 471.559C301.671 465.751 309.049 462.27 316.901 461.872C324.753 461.474 332.444 464.191 338.304 469.434C364.558 493.381 389.747 503 410.353 510.479C431.118 518.037 444.166 516.247 451.962 511.712C458.486 507.933 465.09 500.255 469.386 485.179C473.762 469.903 475.154 448.979 472.25 423.122C466.482 371.449 444.404 305.892 406.096 239.619C389.517 210.785 345.471 147.324 324.326 121.649C321.829 118.63 319.951 115.148 318.799 111.403C317.648 107.658 317.245 103.722 317.614 99.8215C317.984 95.9207 319.118 92.1308 320.952 88.6683C322.786 85.2059 325.284 82.1386 328.304 79.6417" fill="#060606"/>
<path d="M502.488 406.674C503.144 410.538 503.033 414.492 502.16 418.312C501.288 422.132 499.671 425.743 497.403 428.938C495.135 432.134 492.26 434.851 488.941 436.935C485.623 439.019 481.927 440.429 478.063 441.084C441.922 447.082 355.338 452.032 318.702 451.964C235.961 451.964 159.584 437.365 102.818 412.502C74.4551 400.131 49.6723 384.577 31.5328 365.801C13.1943 346.945 0.464844 323.237 0.464844 295.988C0.464844 262.971 19.0022 235.523 43.6258 214.837C68.3688 194.112 102.102 177.524 140.489 165.351C148.033 162.956 156.219 163.656 163.246 167.297C166.726 169.099 169.816 171.57 172.341 174.567C174.866 177.564 176.776 181.029 177.962 184.764C179.148 188.499 179.586 192.431 179.252 196.336C178.919 200.24 177.819 204.041 176.016 207.52C174.214 211 171.743 214.091 168.746 216.615C165.749 219.14 162.284 221.05 158.549 222.236C124.737 232.977 98.8002 246.462 82.0132 260.584C65.0671 274.745 60.1344 286.958 60.1344 295.988C60.1344 303.546 63.5156 313.093 74.4153 324.351C85.474 335.767 102.898 347.423 126.726 357.845C174.342 378.69 242.166 392.294 318.702 392.294C353.907 392.294 437.408 387.461 468.079 382.25C471.942 381.594 475.896 381.705 479.716 382.578C483.536 383.45 487.147 385.067 490.343 387.335C493.538 389.603 496.255 392.478 498.339 395.796C500.423 399.115 501.833 402.811 502.488 406.674Z" fill="#060606"/>
<path d="M502.488 406.674C503.144 410.538 503.033 414.492 502.16 418.312C501.288 422.132 499.671 425.743 497.403 428.938C495.135 432.134 492.26 434.851 488.941 436.935C485.623 439.019 481.927 440.429 478.063 441.084C441.922 447.082 355.338 452.032 318.702 451.964C235.961 451.964 159.584 437.365 102.818 412.502C74.4551 400.131 49.6723 384.577 31.5328 365.801C13.1943 346.945 0.464844 323.237 0.464844 295.988C0.464844 262.971 19.0022 235.523 43.6258 214.837C68.3688 194.112 102.102 177.524 140.489 165.351C148.033 162.956 156.219 163.656 163.246 167.297C166.726 169.099 169.816 171.57 172.341 174.567C174.866 177.564 176.776 181.029 177.962 184.764C179.148 188.499 179.586 192.431 179.252 196.336C178.919 200.24 177.819 204.041 176.016 207.52C174.214 211 171.743 214.091 168.746 216.615C165.749 219.14 162.284 221.05 158.549 222.236C124.737 232.977 98.8002 246.462 82.0132 260.584C65.0671 274.745 60.1344 286.958 60.1344 295.988C60.1344 303.546 63.5156 313.093 74.4153 324.351C85.474 335.767 102.898 347.423 126.726 357.845C174.342 378.69 242.166 392.294 318.702 392.294C353.907 392.294 437.408 387.461 468.079 382.25C471.942 381.594 475.896 381.705 479.716 382.578C483.536 383.45 487.147 385.067 490.343 387.335C493.538 389.603 496.255 392.478 498.339 395.796C500.423 399.115 501.833 402.811 502.488 406.674Z" stroke="#060606"/>
<path d="M137.571 394.766C130.155 392.011 124.136 386.424 120.839 379.233C117.542 372.041 117.236 363.835 119.988 356.418C132.002 323.998 169.25 243.079 188.464 209.823C229.835 138.14 280.673 79.3454 330.557 42.5889C355.459 24.2505 381.316 10.5265 406.655 4.20155C432.154 -2.1632 459.045 -1.40739 482.635 12.237C511.276 28.7456 525.756 58.5008 531.325 90.2052C536.934 121.989 534.428 159.462 525.756 198.804C525.054 202.761 523.56 206.536 521.363 209.902C519.166 213.268 516.312 216.155 512.972 218.39C509.631 220.626 505.874 222.163 501.924 222.91C497.975 223.657 493.915 223.598 489.989 222.737C486.063 221.877 482.352 220.231 479.077 217.9C475.803 215.57 473.033 212.601 470.935 209.173C468.836 205.745 467.452 201.929 466.864 197.953C466.277 193.976 466.5 189.923 467.518 186.035C475.116 151.347 476.389 122.148 472.57 100.508C468.752 78.7885 460.636 68.406 452.84 63.9109C446.316 60.1318 436.331 58.2621 421.135 62.081C405.701 65.9396 386.925 75.2083 365.961 90.6428C324.113 121.432 278.366 173.385 240.138 239.658C223.421 268.448 187.608 346.011 175.918 377.183C173.164 384.599 167.576 390.618 160.385 393.915C153.194 397.212 144.988 397.518 137.571 394.766Z" fill="#060606"/>
<path d="M137.571 394.766C130.155 392.011 124.136 386.424 120.839 379.233C117.542 372.041 117.236 363.835 119.988 356.418C132.002 323.998 169.25 243.079 188.464 209.823C229.835 138.14 280.673 79.3454 330.557 42.5889C355.459 24.2505 381.316 10.5265 406.655 4.20155C432.154 -2.1632 459.045 -1.40739 482.635 12.237C511.276 28.7456 525.756 58.5008 531.325 90.2052C536.934 121.989 534.428 159.462 525.756 198.804C525.054 202.761 523.56 206.536 521.363 209.902C519.166 213.268 516.312 216.155 512.972 218.39C509.631 220.626 505.874 222.163 501.924 222.91C497.975 223.657 493.915 223.598 489.989 222.737C486.063 221.877 482.352 220.231 479.077 217.9C475.803 215.57 473.033 212.601 470.935 209.173C468.836 205.745 467.452 201.929 466.864 197.953C466.277 193.976 466.5 189.923 467.518 186.035C475.116 151.347 476.389 122.148 472.57 100.508C468.752 78.7885 460.636 68.406 452.84 63.9109C446.316 60.1318 436.331 58.2621 421.135 62.081C405.701 65.9396 386.925 75.2083 365.961 90.6428C324.113 121.432 278.366 173.385 240.138 239.658C223.421 268.448 187.608 346.011 175.918 377.183C173.164 384.599 167.576 390.618 160.385 393.915C153.194 397.212 144.988 397.518 137.571 394.766Z" stroke="#060606"/>
<path d="M144.096 376.531L190.737 339.207C186.664 352.563 186.506 362.519 192.48 370.15C195.734 374.307 200.711 377.636 207.523 380.462C213.754 383.048 221.595 385.242 231.213 387.255L183.336 425.567L144.096 376.531Z" fill="#060606" stroke="#060606" stroke-width="2.61684"/>
<path d="M105.897 389.274L83.4773 333.903C95.1098 341.627 104.604 344.627 113.625 341.087C118.54 339.158 123.154 335.341 127.811 329.623C132.07 324.392 136.417 317.506 141.097 308.866L164.11 365.703L105.897 389.274Z" fill="#060606" stroke="#060606" stroke-width="2.61684"/>
<path d="M351.657 54.2113L410.52 64.3811C397.825 70.1805 390.266 76.6318 388.513 86.1327C387.558 91.3096 388.366 97.2271 390.766 104.187C392.963 110.555 396.52 117.874 401.392 126.409L340.965 116.096L351.657 54.2113Z" fill="#060606" stroke="#060606" stroke-width="2.61684"/>
<path d="M458.68 398.204L507.672 437.492L470.873 483.217C473.138 470.199 471.051 460.783 463.324 454.687C459.028 451.297 453.11 449.048 445.563 447.701C438.652 446.468 430.298 445.979 420.426 446.106L458.68 398.204Z" fill="#060606" stroke="#060606" stroke-width="2.61684"/>
<path d="M291.559 100.604L354.345 99.8601L354.43 159.418C345.725 147.758 334.896 141.951 323.782 142.191C312.606 142.432 301.481 148.78 292.271 160.76L291.559 100.604Z" fill="#060606" stroke="#060606" stroke-width="2.61684"/>
<path d="M499.339 379.59L453.952 340.742C457.589 354.311 457.414 364.624 451.228 372.426C447.851 376.686 442.774 380.068 435.865 382.832C429.562 385.354 421.668 387.387 412.012 389.096L458.484 427.322L499.339 379.59Z" fill="#060606" stroke="#060606" stroke-width="2.61684"/>
<circle cx="322.09" cy="287.858" r="49.3487" fill="#060606" stroke="#060606" stroke-width="0.620908"/>
</svg>
