<svg width="18" height="17" viewBox="0 0 18 17" fill="none" xmlns="http://www.w3.org/2000/svg">
<path d="M9.10873 13.9129L4.95873 16.4129C4.77539 16.5296 4.58373 16.5796 4.38373 16.5629C4.18373 16.5462 4.00873 16.4796 3.85873 16.3629C3.70873 16.2462 3.59206 16.1006 3.50873 15.9259C3.42539 15.7512 3.40873 15.5552 3.45873 15.3379L4.55873 10.6129L0.883727 7.43789C0.717061 7.28789 0.613061 7.11689 0.571727 6.92489C0.530394 6.73289 0.542727 6.54556 0.608727 6.36289C0.674727 6.18022 0.774727 6.03022 0.908727 5.91289C1.04273 5.79556 1.22606 5.72056 1.45873 5.68789L6.30873 5.26289L8.18373 0.812891C8.26706 0.612891 8.39639 0.46289 8.57173 0.36289C8.74706 0.26289 8.92606 0.212891 9.10873 0.212891C9.29139 0.212891 9.47039 0.26289 9.64573 0.36289C9.82106 0.46289 9.95039 0.612891 10.0337 0.812891L11.9087 5.26289L16.7587 5.68789C16.9921 5.72122 17.1754 5.79622 17.3087 5.91289C17.4421 6.02956 17.5421 6.17956 17.6087 6.36289C17.6754 6.54622 17.6881 6.73389 17.6467 6.92589C17.6054 7.11789 17.5011 7.28856 17.3337 7.43789L13.6587 10.6129L14.7587 15.3379C14.8087 15.5546 14.7921 15.7506 14.7087 15.9259C14.6254 16.1012 14.5087 16.2469 14.3587 16.3629C14.2087 16.4789 14.0337 16.5456 13.8337 16.5629C13.6337 16.5802 13.4421 16.5302 13.2587 16.4129L9.10873 13.9129Z" fill="#00D8FF"/>
</svg>
