<svg width="17" height="19" viewBox="0 0 17 19" fill="none" xmlns="http://www.w3.org/2000/svg">
<path d="M1.2323 7.81426C1.2323 4.75363 1.2323 3.22292 2.18352 2.27251C3.13474 1.3221 4.66465 1.32129 7.72527 1.32129H9.34851C12.4091 1.32129 13.9399 1.32129 14.8903 2.27251C15.8407 3.22373 15.8415 4.75363 15.8415 7.81426V11.0607C15.8415 14.1214 15.8415 15.6521 14.8903 16.6025C13.939 17.5529 12.4091 17.5537 9.34851 17.5537H7.72527C4.66465 17.5537 3.13393 17.5537 2.18352 16.6025C1.23311 15.6513 1.2323 14.1214 1.2323 11.0607V7.81426Z" stroke="white" stroke-width="1.5"/>
<path d="M5.29041 7.81445H11.7834M5.29041 11.0609H9.34851" stroke="white" stroke-width="1.5" stroke-linecap="round"/>
</svg>
