<svg width="18" height="19" viewBox="0 0 18 19" fill="none" xmlns="http://www.w3.org/2000/svg">
<path d="M12.2959 17.5537V15.2275C12.3263 14.841 12.2741 14.4524 12.1427 14.0877C12.0113 13.7229 11.8038 13.3903 11.534 13.112C14.0791 12.8283 16.7538 11.8638 16.7538 7.43823C16.7536 6.30658 16.3183 5.21834 15.538 4.39872C15.9075 3.40866 15.8814 2.31431 15.4651 1.34301C15.4651 1.34301 14.5086 1.05932 12.2959 2.5426C10.438 2.03989 8.47997 2.03989 6.62213 2.5426C4.40937 1.05932 3.45294 1.34301 3.45294 1.34301C3.03663 2.31431 3.0105 3.40866 3.37999 4.39872C2.59387 5.22442 2.15813 6.3225 2.16419 7.46255C2.16419 11.8556 4.83895 12.8202 7.38403 13.1363C7.11736 13.4119 6.9117 13.7405 6.78043 14.1008C6.64916 14.4611 6.59523 14.845 6.62213 15.2275V17.5537" stroke="white" stroke-width="1.5" stroke-linecap="round" stroke-linejoin="round"/>
<path d="M6.62211 15.9316C4.19051 16.7203 2.16417 15.9316 0.948364 13.5" stroke="white" stroke-width="1.5" stroke-linecap="round" stroke-linejoin="round"/>
</svg>
