<svg width="1889" height="546" viewBox="0 0 1889 546" fill="none" xmlns="http://www.w3.org/2000/svg">
<g opacity="0.6">
<path d="M672.481 0.981445L0.51955 545.125" stroke="#B3B3B3" stroke-width="1.36036"/>
<path d="M750.216 0.981445L348.619 545.125" stroke="#B3B3B3" stroke-width="1.36036"/>
<path d="M827.95 0.981445L609.679 545.125" stroke="#B3B3B3" stroke-width="1.36036"/>
<path d="M905.686 0.981445L836.117 545.125" stroke="#B3B3B3" stroke-width="1.36036"/>
<path d="M983.42 0.981445L1052.99 545.125" stroke="#B3B3B3" stroke-width="1.36036"/>
<path d="M1061.16 0.981445L1279.43 545.125" stroke="#B3B3B3" stroke-width="1.36036"/>
<path d="M1138.89 0.981445L1540.49 545.125" stroke="#B3B3B3" stroke-width="1.36036"/>
<path d="M1216.62 0.981445L1888.59 545.125" stroke="#B3B3B3" stroke-width="1.36036"/>
<path d="M665.011 7.03027H1224.09" stroke="#B3B3B3" stroke-width="1.36036"/>
<path d="M618.978 44.1279L1270.48 44.128" stroke="#B3B3B3" stroke-width="1.36036"/>
<path d="M566.178 87.0635H1322.93" stroke="#B3B3B3" stroke-width="1.36036"/>
<path d="M521.831 122.975H1367.27" stroke="#B3B3B3" stroke-width="1.36036"/>
<path d="M462.972 170.638H1426.13" stroke="#B3B3B3" stroke-width="1.36036"/>
<path d="M386.005 232.965H1503.1" stroke="#B3B3B3" stroke-width="1.36036"/>
<path d="M286.699 313.382H1602.41" stroke="#B3B3B3" stroke-width="1.36036"/>
<path d="M160.111 415.89H1728.99" stroke="#B3B3B3" stroke-width="1.36036"/>
<path d="M0.519531 545.125H1888.59" stroke="#B3B3B3" stroke-width="1.36036"/>
</g>
</svg>
