<svg width="1891" height="859" viewBox="0 0 1891 859" fill="none" xmlns="http://www.w3.org/2000/svg">
<g filter="url(#filter0_d_313_24)">
<path d="M263.374 167.136C246.907 169.786 232.166 178.868 222.395 192.386C212.624 205.904 208.624 222.749 211.273 239.216L251.231 487.578C253.88 504.046 262.963 518.786 276.481 528.557C289.998 538.328 306.844 542.329 323.311 539.679L571.673 499.721C588.14 497.072 602.881 487.989 612.652 474.472C622.422 460.954 626.423 444.109 623.774 427.641L583.816 179.279C581.167 162.812 572.084 148.072 558.566 138.301C545.049 128.53 528.203 124.529 511.736 127.178L263.374 167.136ZM458.636 412.913C475.469 422.519 491.295 426.045 506.115 423.491C515.221 422.026 521.935 419.233 526.254 415.113C528.279 413.281 529.793 410.953 530.645 408.359C531.497 405.765 531.659 402.993 531.114 400.317C530.673 397.374 529.591 394.564 527.945 392.084C526.298 389.605 524.128 387.517 521.587 385.968C516.048 382.514 506.175 379.743 491.967 377.654C474.972 375.576 461.474 371.519 451.472 365.485C441.636 359.424 435.562 349.735 433.25 336.419C431.223 323.822 434.99 312.394 444.55 302.137C453.807 291.928 466.714 285.491 483.272 282.828C506.342 279.116 525.755 281.754 541.512 290.741L529.568 318.12C523.111 314.582 516.005 312.388 508.678 311.672C502.02 310.571 495.234 310.482 488.549 311.407C480.684 312.672 474.618 315.127 470.349 318.773C466.124 322.425 464.389 326.597 465.143 331.288C465.974 336.448 469.559 340.387 475.898 343.104C482.257 345.676 492.746 347.959 507.363 349.953C525.016 352.251 538.081 357.001 546.557 364.201C555.034 371.401 560.31 381.451 562.385 394.352C564.51 407.557 561.257 419.758 552.626 430.956C544.123 441.978 530.346 449.255 511.295 452.787C486.252 456.816 464.098 452.673 444.833 440.357L458.636 412.913ZM346.307 444.531C351.652 446.785 357.739 447.363 364.569 446.264C371.703 445.116 377.292 442.115 381.338 437.26C385.346 432.256 386.514 424.516 384.843 414.041L367.188 304.306L397.923 299.362L416.53 415.016C418.956 432.998 415.871 446.73 407.276 456.209C402.612 461.641 396.884 466.06 390.446 469.193C384.479 472.114 378.122 474.159 371.571 475.267C360.188 477.098 349.777 476.749 340.339 474.219C330.248 471.497 321.146 465.254 313.036 455.489L331.616 434.516C336.403 439.196 341.3 442.534 346.307 444.531Z" fill="white"/>
</g>
<g filter="url(#filter1_d_313_24)">
<path d="M595.484 335.16L578.435 459.777C573.727 494.189 597.807 525.902 632.219 530.61L881.453 564.708C915.865 569.416 947.578 545.336 952.286 510.924L986.384 261.69C991.092 227.278 967.012 195.565 932.6 190.857L683.366 156.759C648.954 152.051 617.241 176.131 612.533 210.543L595.484 335.16ZM898.794 361.423C907.464 364.726 914.961 370.522 920.341 378.081C923.312 382.164 925.776 386.593 927.676 391.272C927.611 391.75 909.967 400.457 899.292 405.212C898.901 405.402 897.678 403.651 896.416 401.071C895.044 397.726 892.847 394.783 890.029 392.517C887.212 390.25 883.866 388.735 880.305 388.112C869.076 385.783 860.964 390.737 859.686 400.525C859.262 402.947 859.489 405.438 860.343 407.744C862.118 413.258 866.332 416.973 880.008 425.242C905.2 440.419 915.616 449.583 921.257 461.353C927.576 474.405 926.697 493.967 919.358 507.526C911.248 522.26 895.149 530.813 873.944 531.476C864.329 531.266 854.778 529.857 845.512 527.282C831.423 522.973 819.07 514.294 810.239 502.5C807.319 498.231 801.974 487.415 802.491 486.754C803.692 486.09 804.942 485.517 806.229 485.041L821.067 479.028L832.655 474.276L834.444 477.903C837.49 483.835 841.677 489.108 846.763 493.42C857.867 501.338 874.316 502.705 883.385 496.542C886.461 494.25 888.635 490.951 889.529 487.221C890.424 483.491 889.982 479.565 888.28 476.128C885.858 471.561 880.355 467.244 864.635 457.659C846.482 446.705 838.871 440.423 832.396 431.189C828.395 425.132 825.767 418.273 824.695 411.093C824.271 402.999 825.154 394.89 827.31 387.077C833.837 368.988 849.584 357.889 870.509 356.822C880.115 356.947 889.648 358.518 898.786 361.482L898.794 361.423ZM808.899 365.089L806.804 380.402L758.264 373.761L739.347 512.026L704.923 507.316L723.844 369.021L675.183 362.364L677.229 347.41C677.802 342.244 678.646 337.112 679.759 332.035C679.971 331.82 709.716 335.768 745.598 340.738L810.827 349.662L808.899 365.089Z" fill="white"/>
</g>
<g filter="url(#filter2_d_313_24)">
<path fill-rule="evenodd" clip-rule="evenodd" d="M1014.41 152.87L1213.19 126.952C1261.62 120.637 1306 154.78 1312.31 203.213L1338.23 401.989C1344.55 450.421 1310.41 494.803 1261.97 501.118L1063.2 527.036C1014.76 533.352 970.382 499.208 964.067 450.776L938.149 252C931.834 203.567 965.977 159.185 1014.41 152.87ZM1127.9 248.078C1092.82 252.652 1073.18 273.049 1068.99 309.271C1079.86 290.017 1094.34 281.438 1112.46 283.536C1122.79 284.733 1130.89 291.061 1139.85 298.065C1154.46 309.474 1171.36 322.679 1203.96 318.428C1239.04 313.854 1258.68 293.456 1262.87 257.235C1252.01 276.491 1237.52 285.069 1219.41 282.969C1209.07 281.772 1200.97 275.445 1192.01 268.441C1177.4 257.032 1160.5 243.827 1127.9 248.078ZM1072.42 335.579C1037.34 340.153 1017.7 360.551 1013.51 396.772C1024.38 377.516 1038.86 368.938 1056.98 371.038C1067.31 372.235 1075.41 378.562 1084.37 385.566C1098.98 396.975 1115.88 410.18 1148.48 405.929C1183.56 401.355 1203.2 380.958 1207.39 344.736C1196.52 363.992 1182.04 372.571 1163.92 370.471C1153.59 369.274 1145.49 362.946 1136.53 355.942C1121.92 344.533 1105.02 331.328 1072.42 335.579Z" fill="white"/>
</g>
<g filter="url(#filter3_d_313_24)">
<path d="M1312.86 153.21L1276.36 468.061C1274.51 483.966 1279.06 499.953 1289.01 512.504C1298.95 525.055 1313.47 533.142 1329.38 534.986L1584.25 564.537C1600.16 566.381 1616.15 561.831 1628.7 551.888C1641.25 541.945 1649.34 527.424 1651.18 511.519L1680.73 256.639C1682.57 240.734 1678.02 224.747 1668.08 212.196C1658.14 199.645 1643.62 191.558 1627.71 189.714L1312.86 153.21ZM1511.82 383.302C1536.19 386.127 1545.47 404.298 1543.02 428.705L1517.91 425.793C1518.81 421.338 1518.25 416.335 1517.18 412.413C1516.03 409.241 1513.16 407.769 1509.04 407.291C1501.92 406.465 1497.69 410.154 1496.65 419.149C1495.23 428.102 1499.54 433.539 1506.69 437.407C1517.41 443.209 1530.45 451.938 1534.33 461.124C1538.04 468.392 1539.29 477.274 1538.08 487.769C1535.16 512.882 1519.14 526.598 1494.4 523.73C1468.54 520.732 1458.79 503.267 1461.41 477.361L1487.65 480.403C1486.21 492.772 1489.64 499.247 1497.89 500.203C1502.01 500.681 1505.14 499.905 1506.94 497.455C1510.51 492.93 1512.82 479.523 1508.93 473.754C1504.8 466.817 1495.77 462.732 1489.79 458.62C1481.65 453.497 1475.84 447.886 1472.37 441.785C1469.28 435.728 1468.36 427.265 1469.53 417.145C1472.14 394.655 1488.63 380.233 1511.82 383.302ZM1596.16 393.08C1620.89 395.948 1630.18 414.119 1627.73 438.526L1602.62 435.614C1603.14 431.116 1602.96 426.157 1601.52 422.191C1600.37 419.019 1597.87 417.59 1593.75 417.112C1586.25 416.243 1582.03 419.932 1580.98 428.927C1579.94 437.923 1583.87 443.317 1591.4 447.228C1601.75 452.987 1615.16 461.76 1619.04 470.945C1622.38 478.17 1623.63 487.052 1622.41 497.547C1619.87 522.704 1603.85 536.42 1579.11 533.552C1552.87 530.51 1543.17 512.67 1545.75 487.139L1571.98 490.181C1570.64 501.8 1573.98 509.025 1582.22 509.981C1586.35 510.459 1589.48 509.682 1591.28 507.233C1595.22 502.751 1597.53 489.344 1593.27 483.532C1589.51 476.638 1580.48 472.553 1574.13 468.398C1565.99 463.275 1560.18 457.664 1557.08 451.607C1553.99 445.55 1553.07 437.086 1554.24 426.966C1556.47 404.433 1572.96 390.011 1596.16 393.08ZM1423.85 373.387C1434.96 374.581 1445.65 379.049 1451.43 386.556C1457.39 394.085 1459.88 405.39 1457.94 418.84L1430.2 415.624C1431.4 408.546 1430.14 403.081 1425.19 399.849C1420.58 397.035 1413.29 397.708 1410.89 401.989C1408.54 405.895 1406.85 410.637 1406.7 415.178L1400.36 469.902C1399.01 481.522 1402.44 487.997 1410.31 488.91C1411.97 489.176 1413.66 489.03 1415.25 488.486C1416.84 487.941 1418.27 487.014 1419.41 485.786C1422.47 482.342 1423.41 477.513 1423.55 472.972L1451.29 476.188C1449.83 501.849 1431.01 516.761 1406.32 513.518C1382.33 510.736 1368.9 495.504 1372.19 470.435L1379.49 407.465C1380.97 394.721 1385.84 385.41 1393.7 379.864C1401.19 374.274 1412.73 372.193 1423.85 373.387Z" fill="white"/>
</g>
<defs>
<filter id="filter0_d_313_24" x="0.844673" y="0.602066" width="833.358" height="833.357" filterUnits="userSpaceOnUse" color-interpolation-filters="sRGB">
<feFlood flood-opacity="0" result="BackgroundImageFix"/>
<feColorMatrix in="SourceAlpha" type="matrix" values="0 0 0 0 0 0 0 0 0 0 0 0 0 0 0 0 0 0 127 0" result="hardAlpha"/>
<feOffset dy="83.8519"/>
<feGaussianBlur stdDeviation="104.815"/>
<feComposite in2="hardAlpha" operator="out"/>
<feColorMatrix type="matrix" values="0 0 0 0 0 0 0 0 0 0 0 0 0 0 0 0 0 0 0.5 0"/>
<feBlend mode="normal" in2="BackgroundImageFix" result="effect1_dropShadow_313_24"/>
<feBlend mode="normal" in="SourceGraphic" in2="effect1_dropShadow_313_24" result="shape"/>
</filter>
<filter id="filter1_d_313_24" x="368.217" y="30.3931" width="828.385" height="828.384" filterUnits="userSpaceOnUse" color-interpolation-filters="sRGB">
<feFlood flood-opacity="0" result="BackgroundImageFix"/>
<feColorMatrix in="SourceAlpha" type="matrix" values="0 0 0 0 0 0 0 0 0 0 0 0 0 0 0 0 0 0 127 0" result="hardAlpha"/>
<feOffset dy="83.8519"/>
<feGaussianBlur stdDeviation="104.815"/>
<feComposite in2="hardAlpha" operator="out"/>
<feColorMatrix type="matrix" values="0 0 0 0 0 0 0 0 0 0 0 0 0 0 0 0 0 0 0.5 0"/>
<feBlend mode="normal" in2="BackgroundImageFix" result="effect1_dropShadow_313_24"/>
<feBlend mode="normal" in="SourceGraphic" in2="effect1_dropShadow_313_24" result="shape"/>
</filter>
<filter id="filter2_d_313_24" x="727.767" y="0.422379" width="820.848" height="820.848" filterUnits="userSpaceOnUse" color-interpolation-filters="sRGB">
<feFlood flood-opacity="0" result="BackgroundImageFix"/>
<feColorMatrix in="SourceAlpha" type="matrix" values="0 0 0 0 0 0 0 0 0 0 0 0 0 0 0 0 0 0 127 0" result="hardAlpha"/>
<feOffset dy="83.8519"/>
<feGaussianBlur stdDeviation="104.815"/>
<feComposite in2="hardAlpha" operator="out"/>
<feColorMatrix type="matrix" values="0 0 0 0 0 0 0 0 0 0 0 0 0 0 0 0 0 0 0.5 0"/>
<feBlend mode="normal" in2="BackgroundImageFix" result="effect1_dropShadow_313_24"/>
<feBlend mode="normal" in="SourceGraphic" in2="effect1_dropShadow_313_24" result="shape"/>
</filter>
<filter id="filter3_d_313_24" x="1066.33" y="27.4321" width="824.437" height="830.988" filterUnits="userSpaceOnUse" color-interpolation-filters="sRGB">
<feFlood flood-opacity="0" result="BackgroundImageFix"/>
<feColorMatrix in="SourceAlpha" type="matrix" values="0 0 0 0 0 0 0 0 0 0 0 0 0 0 0 0 0 0 127 0" result="hardAlpha"/>
<feOffset dy="83.8519"/>
<feGaussianBlur stdDeviation="104.815"/>
<feComposite in2="hardAlpha" operator="out"/>
<feColorMatrix type="matrix" values="0 0 0 0 0 0 0 0 0 0 0 0 0 0 0 0 0 0 0.5 0"/>
<feBlend mode="normal" in2="BackgroundImageFix" result="effect1_dropShadow_313_24"/>
<feBlend mode="normal" in="SourceGraphic" in2="effect1_dropShadow_313_24" result="shape"/>
</filter>
</defs>
</svg>
