<svg width="32" height="366" viewBox="0 0 32 366" fill="none" xmlns="http://www.w3.org/2000/svg">
<path d="M31.4271 2.18766C31.5248 1.93008 31.3959 1.63724 31.1392 1.53359C30.8826 1.42993 30.5953 1.55471 30.4976 1.81228L31.4271 2.18766ZM28.5281 364.149C28.6144 364.414 28.8957 364.562 29.1564 364.48C29.4171 364.398 29.5585 364.116 29.4722 363.851L28.5281 364.149ZM29.4469 4.61547C29.3512 4.87382 29.4822 5.16571 29.7396 5.26741C29.997 5.36912 30.2833 5.24212 30.379 4.98377L29.4469 4.61547ZM27.0482 14.3302C27.1375 14.0694 26.9994 13.7808 26.7397 13.6855C26.48 13.5903 26.1971 13.7244 26.1078 13.9852L27.0482 14.3302ZM24.2175 19.6402C24.132 19.9023 24.2743 20.189 24.5353 20.2804C24.7962 20.3719 25.0771 20.2335 25.1626 19.9713L24.2175 19.6402ZM22.1956 29.4545C22.2749 29.1902 22.1259 28.9069 21.863 28.8218C21.6 28.7367 21.3227 28.8819 21.2434 29.1462L22.1956 29.4545ZM19.5718 34.8691C19.4963 35.1345 19.6491 35.4157 19.9131 35.4971C20.1772 35.5785 20.4524 35.4293 20.528 35.1638L19.5718 34.8691ZM17.9167 44.765C17.9861 44.4978 17.8269 44.2201 17.5612 44.1449C17.2955 44.0696 17.0238 44.2253 16.9544 44.4925L17.9167 44.765ZM15.4953 50.273C15.4295 50.5413 15.5924 50.8168 15.859 50.8884C16.1256 50.96 16.3951 50.8006 16.4609 50.5324L15.4953 50.273ZM14.1958 60.2345C14.2557 59.9647 14.0869 59.6928 13.8189 59.6271C13.5509 59.5615 13.2851 59.727 13.2252 59.9968L14.1958 60.2345ZM11.9712 65.8293C11.9149 66.0999 12.0871 66.3696 12.3558 66.4317C12.6246 66.4939 12.8882 66.3248 12.9446 66.0542L11.9712 65.8293ZM11.0163 75.8375C11.0669 75.5656 10.8891 75.2996 10.6192 75.2432C10.3492 75.1869 10.0894 75.3617 10.0388 75.6335L11.0163 75.8375ZM8.9831 81.5101C8.93588 81.7826 9.11691 82.0465 9.38744 82.0994C9.65798 82.1523 9.91556 81.9743 9.96278 81.7017L8.9831 81.5101ZM8.36034 91.5508C8.402 91.2772 8.21573 91.0171 7.94428 90.9698C7.67284 90.9224 7.41901 91.1059 7.37735 91.3795L8.36034 91.5508ZM6.51327 97.2911C6.47486 97.5652 6.66417 97.8232 6.93609 97.8672C7.20801 97.9113 7.45959 97.7247 7.49799 97.4506L6.51327 97.2911ZM6.2098 107.353C6.24285 107.078 6.04863 106.824 5.776 106.786C5.50338 106.747 5.25558 106.938 5.22253 107.213L6.2098 107.353ZM4.5433 113.152C4.51339 113.427 4.71045 113.679 4.98344 113.715C5.25643 113.75 5.50198 113.556 5.53188 113.28L4.5433 113.152ZM4.54646 123.226C4.57121 122.95 4.36955 122.702 4.09605 122.671C3.82254 122.641 3.58075 122.84 3.55601 123.116L4.54646 123.226ZM3.05485 129.074C3.03313 129.35 3.23745 129.596 3.51121 129.623C3.78497 129.65 4.02452 129.449 4.04623 129.172L3.05485 129.074ZM3.35235 139.151C3.36911 138.875 3.16048 138.632 2.88637 138.61C2.61226 138.588 2.37646 138.794 2.35971 139.071L3.35235 139.151ZM2.02994 145.039C2.01609 145.316 2.22721 145.557 2.50148 145.576C2.77576 145.595 3.00933 145.386 3.02318 145.109L2.02994 145.039ZM2.61003 155.114C2.61909 154.836 2.40393 154.6 2.12946 154.586C1.85498 154.571 1.62513 154.784 1.61607 155.061L2.61003 155.114ZM1.45115 161.033C1.44488 161.311 1.66237 161.545 1.93693 161.557C2.21148 161.568 2.43913 161.353 2.44539 161.075L1.45115 161.033ZM2.30277 171.099C2.30442 170.821 2.08314 170.591 1.80852 170.584C1.5339 170.577 1.30993 170.796 1.30829 171.074L2.30277 171.099ZM1.30184 177.054C1.30289 177.331 1.52636 177.56 1.80099 177.564C2.07561 177.568 2.29739 177.346 2.29633 177.069L1.30184 177.054ZM2.41471 187.093C2.40921 186.815 2.18217 186.59 1.90761 186.59C1.63304 186.591 1.41491 186.816 1.4204 187.094L2.41471 187.093ZM1.56725 193.088C1.57535 193.366 1.80445 193.588 2.07896 193.585C2.35346 193.582 2.56942 193.355 2.56132 193.077L1.56725 193.088ZM2.9309 203.081C2.91851 202.804 2.68606 202.584 2.41172 202.592C2.13737 202.599 1.92502 202.83 1.93741 203.107L2.9309 203.081ZM2.23344 209.12C2.24837 209.398 2.48276 209.615 2.75698 209.605C3.0312 209.595 3.24139 209.362 3.22647 209.085L2.23344 209.12ZM3.83727 219.049C3.8182 218.772 3.58065 218.558 3.30669 218.572C3.03273 218.586 2.8261 218.823 2.84517 219.1L3.83727 219.049ZM3.28745 225.138C3.30899 225.415 3.54839 225.627 3.82217 225.61C4.09595 225.594 4.30043 225.356 4.27889 225.078L3.28745 225.138ZM5.12492 235.028C5.09935 234.751 4.85697 234.543 4.58354 234.564C4.31011 234.584 4.10917 234.825 4.13473 235.102L5.12492 235.028ZM4.71715 241.125C4.74512 241.401 4.98926 241.607 5.26246 241.584C5.53565 241.561 5.73445 241.318 5.70648 241.041L4.71715 241.125ZM6.78453 250.997C6.75262 250.721 6.50564 250.519 6.23288 250.546C5.96011 250.573 5.76486 250.819 5.79677 251.095L6.78453 250.997ZM6.51062 257.057C6.54486 257.333 6.79351 257.533 7.06599 257.504C7.33847 257.474 7.5316 257.226 7.49736 256.95L6.51062 257.057ZM8.8035 266.909C8.76539 266.633 8.51401 266.437 8.24205 266.47C7.97008 266.503 7.78051 266.754 7.81864 267.03L8.8035 266.909ZM8.66293 272.953C8.70334 273.229 8.95631 273.423 9.22794 273.387C9.49957 273.352 9.68701 273.1 9.6466 272.824L8.66293 272.953ZM11.1687 282.717C11.1245 282.442 10.8689 282.251 10.5978 282.291C10.3268 282.33 10.1429 282.585 10.1872 282.86L11.1687 282.717ZM11.1801 288.867C11.2267 289.141 11.4838 289.33 11.7545 289.288C12.0251 289.246 12.2068 288.99 12.1602 288.715L11.1801 288.867ZM13.9065 298.591C13.8561 298.317 13.5964 298.132 13.3264 298.178C13.0565 298.224 12.8785 298.483 12.9289 298.757L13.9065 298.591ZM14.0301 304.603C14.0828 304.876 14.344 305.059 14.6135 305.011C14.883 304.963 15.0588 304.702 15.0061 304.429L14.0301 304.603ZM16.9738 314.262C16.9172 313.99 16.6534 313.811 16.3847 313.863C16.116 313.915 15.944 314.178 16.0007 314.451L16.9738 314.262ZM17.2685 320.425C17.3275 320.697 17.5928 320.874 17.861 320.819C18.1292 320.765 18.2988 320.5 18.2397 320.228L17.2685 320.425ZM20.4331 329.987C20.37 329.715 20.1021 329.543 19.8348 329.602C19.5676 329.66 19.4021 329.928 19.4653 330.199L20.4331 329.987ZM20.8709 336.109C20.9367 336.38 21.2061 336.55 21.4728 336.488C21.7394 336.427 21.9022 336.158 21.8364 335.887L20.8709 336.109ZM24.2722 345.556C24.2017 345.287 23.9295 345.122 23.664 345.188C23.3986 345.254 23.2405 345.526 23.311 345.796L24.2722 345.556ZM24.8763 351.649C24.9499 351.918 25.2241 352.08 25.4886 352.01C25.7532 351.941 25.908 351.667 25.8344 351.398L24.8763 351.649ZM28.6115 361.079C28.5307 360.812 28.2525 360.658 27.99 360.734C27.7275 360.811 27.5802 361.089 27.661 361.356L28.6115 361.079ZM30.4976 1.81228C30.1436 2.74603 29.7933 3.68044 29.4469 4.61547L30.379 4.98377C30.7246 4.05109 31.074 3.11904 31.4271 2.18766L30.4976 1.81228ZM26.1078 13.9852C25.4629 15.8683 24.8329 17.7534 24.2175 19.6402L25.1626 19.9713C25.7765 18.0891 26.405 16.2086 27.0482 14.3302L26.1078 13.9852ZM21.2434 29.1462C20.6719 31.0526 20.1148 32.9603 19.5718 34.8691L20.528 35.1638C21.0697 33.2596 21.6255 31.3564 22.1956 29.4545L21.2434 29.1462ZM16.9544 44.4925C16.4542 46.4189 15.968 48.3459 15.4953 50.273L16.4609 50.5324C16.9324 48.6096 17.4176 46.687 17.9167 44.765L16.9544 44.4925ZM13.2252 59.9968C12.7939 61.9413 12.376 63.8856 11.9712 65.8293L12.9446 66.0542C13.3484 64.1148 13.7654 62.1748 14.1958 60.2345L13.2252 59.9968ZM10.0388 75.6335C9.67403 77.5936 9.32223 79.5526 8.9831 81.5101L9.96278 81.7017C10.3012 79.7483 10.6523 77.7935 11.0163 75.8375L10.0388 75.6335ZM7.37735 91.3795C7.07694 93.3521 6.789 95.3228 6.51327 97.2911L7.49799 97.4506C7.77318 95.4862 8.06053 93.5195 8.36034 91.5508L7.37735 91.3795ZM5.22253 107.213C4.98423 109.196 4.75793 111.176 4.5433 113.152L5.53188 113.28C5.7461 111.308 5.97197 109.332 6.2098 107.353L5.22253 107.213ZM3.55601 123.116C3.3776 125.106 3.21065 127.092 3.05485 129.074L4.04623 129.172C4.20174 127.194 4.36838 125.212 4.54646 123.226L3.55601 123.116ZM2.35971 139.071C2.23895 141.066 2.12914 143.055 2.02994 145.039L3.02318 145.109C3.12219 143.129 3.23181 141.142 3.35235 139.151L2.35971 139.071ZM1.61607 155.061C1.55081 157.058 1.49595 159.049 1.45115 161.033L2.44539 161.075C2.49012 159.095 2.54488 157.107 2.61003 155.114L1.61607 155.061ZM1.30829 171.074C1.29638 173.075 1.29436 175.068 1.30184 177.054L2.29633 177.069C2.28886 175.087 2.29089 173.096 2.30277 171.099L1.30829 171.074ZM1.4204 187.094C1.46013 189.101 1.50921 191.099 1.56725 193.088L2.56132 193.077C2.50337 191.092 2.45436 189.097 2.41471 187.093L1.4204 187.094ZM1.93741 203.107C2.02741 205.123 2.12623 207.127 2.23344 209.12L3.22647 209.085C3.11942 207.095 3.02075 205.094 2.9309 203.081L1.93741 203.107ZM2.84517 219.1C2.9845 221.126 3.13209 223.139 3.28745 225.138L4.27889 225.078C4.12375 223.082 3.97639 221.072 3.83727 219.049L2.84517 219.1ZM4.13473 235.102C4.32156 237.126 4.51588 239.133 4.71715 241.125L5.70648 241.041C5.5055 239.053 5.31146 237.048 5.12492 235.028L4.13473 235.102ZM5.79677 251.095C6.0284 253.101 6.26656 255.089 6.51062 257.057L7.49736 256.95C7.25364 254.985 7.01584 253.001 6.78453 250.997L5.79677 251.095ZM7.81864 267.03C8.09489 269.027 8.37655 271.002 8.66293 272.953L9.6466 272.824C9.36063 270.876 9.07937 268.904 8.8035 266.909L7.81864 267.03ZM10.1872 282.86C10.5143 284.892 10.8456 286.895 11.1801 288.867L12.1602 288.715C11.8262 286.746 11.4954 284.746 11.1687 282.717L10.1872 282.86ZM12.9289 298.757C13.2944 300.743 13.6618 302.692 14.0301 304.603L15.0061 304.429C14.6383 302.52 14.2714 300.574 13.9065 298.591L12.9289 298.757ZM16.0007 314.451C16.4252 316.496 16.8484 318.488 17.2685 320.425L18.2397 320.228C17.8203 318.294 17.3978 316.305 16.9738 314.262L16.0007 314.451ZM19.4653 330.199C19.9432 332.252 20.4126 334.223 20.8709 336.109L21.8364 335.887C21.3789 334.004 20.9103 332.036 20.4331 329.987L19.4653 330.199ZM23.311 345.796C23.8656 347.919 24.3897 349.872 24.8763 351.649L25.8344 351.398C25.3488 349.625 24.8258 347.675 24.2722 345.556L23.311 345.796ZM27.661 361.356C27.9384 362.273 28.155 362.97 28.3022 363.439C28.3759 363.673 28.4322 363.85 28.4702 363.969C28.4892 364.028 28.5036 364.073 28.5133 364.103C28.5181 364.118 28.5218 364.13 28.5243 364.137C28.5255 364.141 28.5264 364.144 28.5271 364.146C28.5274 364.147 28.5276 364.148 28.5278 364.148C28.5279 364.148 28.5279 364.149 28.528 364.149C28.528 364.149 28.528 364.149 28.528 364.149C28.5281 364.149 28.5281 364.149 28.5281 364.149C28.5281 364.149 28.5281 364.149 29.0001 364C29.4722 363.851 29.4722 363.851 29.4722 363.851C29.4722 363.851 29.4722 363.851 29.4722 363.851C29.4722 363.851 29.4721 363.851 29.4721 363.851C29.4721 363.851 29.4721 363.851 29.472 363.85C29.4718 363.85 29.4716 363.849 29.4714 363.849C29.4708 363.847 29.4699 363.844 29.4687 363.841C29.4664 363.833 29.4629 363.822 29.4582 363.808C29.4487 363.779 29.4346 363.735 29.4159 363.676C29.3784 363.559 29.3226 363.384 29.2495 363.151C29.1033 362.686 28.8879 361.992 28.6115 361.079L27.661 361.356ZM31.8919 2.37535C32.0872 1.86019 31.8294 1.27451 31.3161 1.0672C30.8027 0.859885 30.2282 1.10944 30.0329 1.6246L31.8919 2.37535ZM28.056 364.298C28.2287 364.828 28.7913 365.125 29.3127 364.96C29.8341 364.796 30.1169 364.232 29.9442 363.702L28.056 364.298ZM28.9808 4.43131C28.7894 4.94802 29.0515 5.5318 29.5663 5.7352C30.0811 5.93861 30.6536 5.68463 30.8451 5.16792L28.9808 4.43131ZM27.5185 14.5027C27.6971 13.9811 27.4208 13.4038 26.9014 13.2133C26.382 13.0228 25.8162 13.2912 25.6376 13.8128L27.5185 14.5027ZM23.745 19.4746C23.574 19.9989 23.8585 20.5722 24.3804 20.7551C24.9024 20.938 25.4641 20.6612 25.6351 20.1369L23.745 19.4746ZM22.6718 29.6086C22.8302 29.0801 22.5323 28.5135 22.0064 28.3433C21.4806 28.173 20.9258 28.4635 20.7673 28.992L22.6718 29.6086ZM19.0937 34.7217C18.9427 35.2526 19.2483 35.8149 19.7764 35.9777C20.3045 36.1405 20.855 35.8421 21.006 35.3112L19.0937 34.7217ZM18.3978 44.9013C18.5366 44.3667 18.2183 43.8114 17.6869 43.6609C17.1554 43.5104 16.6121 43.8217 16.4733 44.3563L18.3978 44.9013ZM15.0126 50.1433C14.881 50.6798 15.2066 51.2309 15.7399 51.3741C16.2731 51.5174 16.8121 51.1986 16.9436 50.662L15.0126 50.1433ZM14.6811 60.3533C14.8008 59.8138 14.4633 59.2699 13.9273 59.1387C13.3912 59.0074 12.8596 59.3384 12.7399 59.8779L14.6811 60.3533ZM11.4846 65.7168C11.3718 66.258 11.7163 66.7975 12.2538 66.9217C12.7914 67.046 13.3185 66.7079 13.4312 66.1667L11.4846 65.7168ZM11.505 75.9395C11.6062 75.3957 11.2506 74.8636 10.7108 74.751C10.1709 74.6383 9.65128 74.9878 9.55008 75.5315L11.505 75.9395ZM8.49326 81.4142C8.39881 81.9594 8.76088 82.4871 9.30194 82.5929C9.84301 82.6988 10.3582 82.3427 10.4526 81.7975L8.49326 81.4142ZM8.85183 91.6365C8.93516 91.0893 8.56261 90.569 8.01972 90.4744C7.47683 90.3797 6.96918 90.7466 6.88585 91.2938L8.85183 91.6365ZM6.0209 97.2114C5.94409 97.7596 6.3227 98.2755 6.86655 98.3636C7.41041 98.4517 7.91355 98.0786 7.99036 97.5303L6.0209 97.2114ZM6.70344 107.423C6.76953 106.873 6.38109 106.365 5.83584 106.288C5.29059 106.21 4.79499 106.594 4.72889 107.143L6.70344 107.423ZM4.04901 113.088C3.98919 113.638 4.38331 114.142 4.92929 114.213C5.47527 114.284 5.96636 113.895 6.02617 113.345L4.04901 113.088ZM5.04169 123.281C5.09119 122.729 4.68787 122.232 4.14085 122.172C3.59384 122.111 3.11028 122.51 3.06078 123.062L5.04169 123.281ZM2.55916 129.024C2.51571 129.577 2.92435 130.069 3.47188 130.124C4.0194 130.178 4.49848 129.774 4.54193 129.222L2.55916 129.024ZM3.84868 139.191C3.88218 138.638 3.46493 138.153 2.91671 138.109C2.36848 138.064 1.89689 138.477 1.86338 139.031L3.84868 139.191ZM1.53332 145.005C1.50563 145.559 1.92787 146.039 2.47641 146.077C3.02496 146.116 3.4921 145.698 3.51979 145.144L1.53332 145.005ZM3.10701 155.14C3.12513 154.585 2.69481 154.112 2.14586 154.083C1.59691 154.055 1.13721 154.481 1.11909 155.035L3.10701 155.14ZM0.954023 161.012C0.9415 161.567 1.37648 162.036 1.92558 162.059C2.47469 162.082 2.92998 161.651 2.94251 161.096L0.954023 161.012ZM2.80001 171.111C2.8033 170.556 2.36074 170.095 1.8115 170.081C1.26227 170.067 0.814341 170.506 0.811044 171.061L2.80001 171.111ZM0.804596 177.046C0.80669 177.601 1.25364 178.058 1.80288 178.067C2.35212 178.075 2.79568 177.632 2.79358 177.076L0.804596 177.046ZM2.91186 187.092C2.90086 186.537 2.4468 186.087 1.89765 186.088C1.34852 186.088 0.912265 186.539 0.923256 187.094L2.91186 187.092ZM1.07022 193.093C1.08643 193.649 1.54462 194.094 2.09363 194.088C2.64264 194.082 3.07456 193.627 3.05836 193.072L1.07022 193.093ZM3.42764 203.068C3.40285 202.513 2.93796 202.075 2.38927 202.089C1.84058 202.104 1.41588 202.565 1.44067 203.121L3.42764 203.068ZM1.73692 209.138C1.76678 209.693 2.23557 210.127 2.78401 210.108C3.33244 210.088 3.75284 209.622 3.72298 209.067L1.73692 209.138ZM4.33332 219.024C4.29518 218.469 3.82009 218.042 3.27216 218.07C2.72424 218.098 2.31098 218.571 2.34912 219.125L4.33332 219.024ZM2.79173 225.168C2.83481 225.722 3.31361 226.145 3.86116 226.112C4.40872 226.079 4.81768 225.603 4.7746 225.049L2.79173 225.168ZM5.62001 234.99C5.56888 234.437 5.08411 234.021 4.53725 234.062C3.99039 234.103 3.58852 234.586 3.63964 235.14L5.62001 234.99ZM4.22249 241.166C4.27842 241.72 4.76671 242.131 5.31309 242.085C5.85948 242.039 6.25708 241.553 6.20114 241L4.22249 241.166ZM7.27841 250.949C7.2146 250.396 6.72063 249.992 6.1751 250.046C5.62958 250.1 5.23907 250.592 5.30289 251.144L7.27841 250.949ZM6.01725 257.11C6.08573 257.662 6.58303 258.062 7.12799 258.003C7.67295 257.945 8.05921 257.449 7.99073 256.897L6.01725 257.11ZM9.29594 266.849C9.21971 266.297 8.71695 265.904 8.17303 265.971C7.6291 266.038 7.24996 266.539 7.3262 267.09L9.29594 266.849ZM8.1711 273.018C8.25192 273.568 8.75784 273.957 9.30111 273.886C9.84438 273.815 10.2193 273.31 10.1384 272.76L8.1711 273.018ZM11.6595 282.645C11.571 282.096 11.0598 281.714 10.5177 281.793C9.97566 281.872 9.60795 282.382 9.69643 282.931L11.6595 282.645ZM10.6901 288.943C10.7832 289.492 11.2975 289.869 11.8388 289.785C12.3801 289.701 12.7434 289.188 12.6503 288.639L10.6901 288.943ZM14.3953 298.508C14.2945 297.96 13.7751 297.591 13.2352 297.682C12.6952 297.774 12.3393 298.292 12.4401 298.84L14.3953 298.508ZM13.5421 304.69C13.6475 305.237 14.1699 305.602 14.7089 305.506C15.248 305.41 15.5995 304.889 15.4941 304.342L13.5421 304.69ZM17.4604 314.168C17.3471 313.623 16.8197 313.265 16.2822 313.369C15.7448 313.473 15.4009 314 15.5141 314.545L17.4604 314.168ZM16.7829 320.524C16.901 321.068 17.4315 321.421 17.968 321.312C18.5044 321.203 18.8435 320.673 18.7254 320.129L16.7829 320.524ZM20.9171 329.88C20.7907 329.338 20.255 328.993 19.7205 329.11C19.1859 329.228 18.855 329.763 18.9814 330.306L20.9171 329.88ZM20.3881 336.22C20.5197 336.762 21.0586 337.101 21.5919 336.979C22.1251 336.856 22.4507 336.317 22.3192 335.776L20.3881 336.22ZM24.7528 345.437C24.6119 344.897 24.0673 344.567 23.5365 344.699C23.0056 344.832 22.6895 345.376 22.8304 345.915L24.7528 345.437ZM24.3972 351.775C24.5445 352.312 25.0928 352.636 25.622 352.497C26.1511 352.358 26.4607 351.81 26.3134 351.272L24.3972 351.775ZM29.0867 360.94C28.9252 360.406 28.3687 360.098 27.8437 360.251C27.3188 360.404 27.0242 360.961 27.1857 361.495L29.0867 360.94ZM30.0329 1.6246C29.6784 2.55952 29.3277 3.49511 28.9808 4.43131L30.8451 5.16792C31.1902 4.23642 31.5391 3.30555 31.8919 2.37535L30.0329 1.6246ZM25.6376 13.8128C24.9919 15.6981 24.3612 17.5855 23.745 19.4746L25.6351 20.1369C26.2483 18.257 26.876 16.3788 27.5185 14.5027L25.6376 13.8128ZM20.7673 28.992C20.1951 30.9007 19.6373 32.8107 19.0937 34.7217L21.006 35.3112C21.5471 33.4092 22.1023 31.5083 22.6718 29.6086L20.7673 28.992ZM16.4733 44.3563C15.9726 46.2849 15.4857 48.214 15.0126 50.1433L16.9436 50.662C17.4147 48.7414 17.8993 46.8211 18.3978 44.9013L16.4733 44.3563ZM12.7399 59.8779C12.3081 61.8246 11.8897 63.771 11.4846 65.7168L13.4312 66.1667C13.8346 64.2294 14.2512 62.2915 14.6811 60.3533L12.7399 59.8779ZM9.55008 75.5315C9.18492 77.4937 8.83273 79.4547 8.49326 81.4142L10.4526 81.7975C10.7907 79.8462 11.1414 77.8934 11.505 75.9395L9.55008 75.5315ZM6.88585 91.2938C6.58514 93.2685 6.29692 95.2411 6.0209 97.2114L7.99036 97.5303C8.26527 95.5679 8.55233 93.6032 8.85183 91.6365L6.88585 91.2938ZM4.72889 107.143C4.49037 109.128 4.26384 111.109 4.04901 113.088L6.02617 113.345C6.24019 111.374 6.46584 109.4 6.70344 107.423L4.72889 107.143ZM3.06078 123.062C2.8822 125.053 2.7151 127.041 2.55916 129.024L4.54193 129.222C4.69729 127.245 4.86377 125.265 5.04169 123.281L3.06078 123.062ZM1.86338 139.031C1.74252 141.027 1.63261 143.019 1.53332 145.005L3.51979 145.144C3.61872 143.165 3.72825 141.181 3.84868 139.191L1.86338 139.031ZM1.11909 155.035C1.05378 157.034 0.998869 159.027 0.954023 161.012L2.94251 161.096C2.9872 159.117 3.04191 157.132 3.10701 155.14L1.11909 155.035ZM0.811044 171.061C0.799136 173.064 0.79711 175.059 0.804596 177.046L2.79358 177.076C2.78612 175.096 2.78814 173.107 2.80001 171.111L0.811044 171.061ZM0.923256 187.094C0.96301 189.103 1.01213 191.103 1.07022 193.093L3.05836 193.072C3.00044 191.088 2.95148 189.095 2.91186 187.092L0.923256 187.094ZM1.44067 203.121C1.53074 205.138 1.62963 207.144 1.73692 209.138L3.72298 209.067C3.61602 207.079 3.51743 205.079 3.42764 203.068L1.44067 203.121ZM2.34912 219.125C2.48856 221.153 2.63625 223.167 2.79173 225.168L4.7746 225.049C4.61959 223.054 4.47233 221.045 4.33332 219.024L2.34912 219.125ZM3.63964 235.14C3.8266 237.165 4.02106 239.174 4.22249 241.166L6.20114 241C6.00031 239.013 5.80642 237.009 5.62001 234.99L3.63964 235.14ZM5.30289 251.144C5.53469 253.152 5.77301 255.141 6.01725 257.11L7.99073 256.897C7.74719 254.933 7.50955 252.95 7.27841 250.949L5.30289 251.144ZM7.3262 267.09C7.60265 269.089 7.88452 271.065 8.1711 273.018L10.1384 272.76C9.85267 270.813 9.57161 268.842 9.29594 266.849L7.3262 267.09ZM9.69643 282.931C10.0238 284.965 10.3553 286.969 10.6901 288.943L12.6503 288.639C12.3164 286.671 11.9859 284.673 11.6595 282.645L9.69643 282.931ZM12.4401 298.84C12.8058 300.827 13.1735 302.777 13.5421 304.69L15.4941 304.342C15.1266 302.435 14.76 300.49 14.3953 298.508L12.4401 298.84ZM15.5141 314.545C15.939 316.592 16.3625 318.586 16.7829 320.524L18.7254 320.129C18.3062 318.197 17.884 316.209 17.4604 314.168L15.5141 314.545ZM18.9814 330.306C19.4597 332.36 19.9295 334.333 20.3881 336.22L22.3192 335.776C21.8621 333.894 21.3938 331.928 20.9171 329.88L18.9814 330.306ZM22.8304 345.915C23.3855 348.04 23.9101 349.996 24.3972 351.775L26.3134 351.272C25.8284 349.501 25.3058 347.554 24.7528 345.437L22.8304 345.915ZM27.1857 361.495C27.4637 362.414 27.6808 363.113 27.8286 363.583C27.9025 363.818 27.9591 363.996 27.9973 364.116C28.0165 364.175 28.031 364.22 28.0408 364.251C28.0457 364.266 28.0495 364.278 28.052 364.285C28.0533 364.289 28.0543 364.292 28.0549 364.294C28.0553 364.295 28.0555 364.296 28.0557 364.297C28.0558 364.297 28.0559 364.297 28.0559 364.298C28.0559 364.298 28.056 364.298 28.056 364.298C28.056 364.298 28.056 364.298 28.056 364.298C28.056 364.298 28.056 364.298 29.0001 364C29.9442 363.702 29.9442 363.702 29.9442 363.702C29.9442 363.702 29.9442 363.702 29.9442 363.702C29.9442 363.702 29.9442 363.702 29.9442 363.702C29.9442 363.702 29.9441 363.702 29.9441 363.702C29.944 363.701 29.9438 363.701 29.9435 363.7C29.943 363.698 29.9421 363.696 29.941 363.692C29.9387 363.685 29.9352 363.674 29.9306 363.66C29.9213 363.631 29.9073 363.588 29.8887 363.53C29.8515 363.413 29.796 363.239 29.7232 363.007C29.5775 362.544 29.3626 361.852 29.0867 360.94L27.1857 361.495Z" fill="#7B41FF"/>
</svg>
