<svg width="161" height="83" viewBox="0 0 161 83" fill="none" xmlns="http://www.w3.org/2000/svg">
<g opacity="0.4" clip-path="url(#clip0_11012:707899)">
<path d="M77.5886 31.407H77.3002C75.095 31.407 72.8805 31.407 70.6753 31.3977C70.1542 31.3977 69.7541 30.9883 69.7448 30.4579C69.7355 29.0622 69.7448 27.6666 69.7448 26.2802C69.7448 25.7591 70.1356 25.3497 70.6567 25.3125H83.4133C83.7762 25.3125 84.0925 25.4149 84.2972 25.7219C84.3903 25.8708 84.4275 26.0569 84.4833 26.2337C84.5019 26.2802 84.4833 26.3453 84.4833 26.3918V57.0318C84.4833 57.5901 84.2042 57.9809 83.7203 58.0833C83.6273 58.1019 83.5249 58.1019 83.4226 58.1019H70.7963C70.1263 58.1019 69.7355 57.7111 69.7355 57.0505V53.0588C69.7355 52.4075 70.117 52.0167 70.7683 52.0167H77.5793C77.5886 45.1499 77.5886 38.2924 77.5886 31.407ZM49.0514 31.407V52.0167H49.3399C51.4892 52.0167 53.6293 52.0353 55.7787 52.0074C56.5602 51.9981 56.9417 52.5284 56.9231 53.1518C56.9045 54.4452 56.9231 55.7385 56.9138 57.0318C56.9138 57.5901 56.6254 57.9809 56.1508 58.0833C56.0578 58.1019 55.9554 58.1112 55.8531 58.1112H43.2268C42.5475 58.1112 42.1567 57.7297 42.1567 57.0505V26.3918C42.1567 25.7033 42.5475 25.3125 43.2268 25.3125H55.8531C56.5137 25.3125 56.9138 25.7033 56.9231 26.3639C56.9324 27.7038 56.9231 29.0436 56.9231 30.3835C56.9231 31.0162 56.4114 31.4163 55.9275 31.407C53.7316 31.3884 51.5451 31.407 49.3492 31.407H49.0514Z" fill="white"/>
<path d="M67.856 42.4058V46.351C67.856 46.7883 67.7257 46.9092 67.2884 46.9092H64.6831C64.3295 46.9092 64.1714 46.7511 64.1714 46.3975V36.7579C64.1714 36.3857 64.3202 36.2369 64.6924 36.2369H66.972C67.2884 36.2369 67.5303 36.3485 67.7257 36.6184C68.7492 38.0327 69.7727 39.4377 70.7962 40.8426C70.8427 40.9078 70.8893 40.9636 70.973 41.0753C70.9823 40.945 70.9823 40.8613 70.9823 40.7868V36.8417C70.9823 36.3764 71.1126 36.2462 71.5778 36.2462H74.09C74.5367 36.2462 74.6855 36.3951 74.6855 36.851V46.323C74.6855 46.779 74.546 46.9185 74.09 46.9185C73.3643 46.9185 72.6292 46.9092 71.9035 46.9185C71.5685 46.9278 71.3266 46.7976 71.1312 46.5371C70.0798 45.1972 69.0283 43.8573 67.9769 42.5268C67.949 42.4896 67.9211 42.4709 67.856 42.4058ZM54.904 39.3818H52.2801C51.8521 39.3818 51.7125 39.2423 51.7125 38.8049V36.7579C51.7125 36.3857 51.8707 36.2276 52.2336 36.2276H61.7429C62.0964 36.2276 62.2453 36.3857 62.2546 36.7393V38.8515C62.2546 39.2236 62.0964 39.3725 61.7242 39.3725H59.0817V43.755H61.5102C61.6219 43.755 61.7242 43.7643 61.8359 43.7736C62.115 43.8015 62.2453 43.9225 62.2546 44.1923C62.2639 44.946 62.2639 45.6903 62.2546 46.444C62.2546 46.7511 62.0778 46.8906 61.7336 46.8906H52.2522C51.8893 46.8906 51.7311 46.7324 51.7311 46.3696V44.276C51.7311 43.8945 51.8893 43.7457 52.2708 43.7457H54.9226C54.904 42.2942 54.904 40.8519 54.904 39.3818ZM19.4814 31.7148V37.7535C19.5652 37.707 19.6303 37.6698 19.6861 37.6326C21.8355 36.1345 26.2924 36.6742 27.1391 40.8054C27.4275 42.1918 27.3252 43.5596 26.6273 44.8157C25.8737 46.1742 24.6641 46.9372 23.166 47.2349C21.3609 47.5885 19.6768 47.207 18.0764 46.3603C17.9182 46.2765 17.9182 46.1649 17.9182 46.0253V40.2378C17.9182 37.6698 17.9182 35.0924 17.9089 32.5243C17.9089 32.3196 17.9555 32.2266 18.1602 32.1615C18.6068 32.0405 19.0255 31.873 19.4814 31.7148ZM19.4814 42.35C19.4814 43.3084 19.4907 44.2667 19.4814 45.2251C19.4814 45.4019 19.5279 45.4856 19.6954 45.5415C20.691 45.8857 21.7052 46.0439 22.7566 45.8857C24.2174 45.6531 25.213 44.7878 25.5573 43.4014C25.7062 42.7966 25.7341 42.1732 25.669 41.5591C25.548 40.4705 25.1293 39.5307 24.1988 38.8887C23.3986 38.3397 22.5054 38.2467 21.5749 38.3862C20.8678 38.4886 20.2072 38.7026 19.6396 39.1678C19.5279 39.2609 19.4814 39.3539 19.4814 39.5028V42.35ZM114.546 36.9812H116.063V38.0513C116.212 37.921 116.333 37.8093 116.454 37.707C117.952 36.4323 120.055 36.2462 121.646 37.2604C122.334 37.6977 122.874 38.2839 123.2 39.0282C123.953 40.731 123.981 42.4616 123.2 44.1551C122.279 46.1277 120.269 47.1605 118.119 46.8441C117.403 46.7418 116.733 46.5464 116.082 46.1277V50.2124C116.082 50.4171 116.035 50.4822 115.821 50.4729C115.402 50.4543 114.984 50.4729 114.556 50.4729C114.546 45.9695 114.546 41.4847 114.546 36.9812ZM116.063 42.1267C116.063 42.9176 116.072 43.7085 116.054 44.49C116.054 44.6668 116.11 44.7692 116.258 44.8622C117.096 45.3926 118.026 45.6159 119.003 45.5601C120.306 45.4856 121.264 44.8436 121.776 43.634C122.269 42.4709 122.297 41.252 121.916 40.0518C121.655 39.233 121.106 38.6375 120.297 38.3118C118.892 37.7442 117.282 38.1629 116.212 39.3632C116.128 39.4563 116.072 39.6051 116.072 39.7261C116.063 40.5356 116.063 41.3358 116.063 42.1267ZM38.5372 42.1732H30.2468C30.2561 42.9641 30.3864 43.7085 30.7958 44.3877C31.382 45.3368 32.2659 45.8113 33.3359 45.9323C34.7875 46.0997 36.1645 45.7927 37.4672 45.1321C37.523 45.1041 37.5788 45.0762 37.644 45.0483V46.5743C36.7042 46.993 35.7179 47.2442 34.6851 47.3279C33.7453 47.4024 32.8149 47.3652 31.9123 47.0488C30.1166 46.4347 29.0651 45.16 28.7302 43.3084C28.5534 42.35 28.572 41.3916 28.8325 40.4519C29.3629 38.5444 30.6469 37.4279 32.5637 37.0092C33.6337 36.7765 34.6944 36.7951 35.7086 37.2604C37.1322 37.921 37.9417 39.0841 38.2953 40.5728C38.4256 41.0846 38.4628 41.6149 38.5372 42.1732ZM36.8531 40.9915C36.8624 40.9636 36.8717 40.9543 36.8717 40.9357V40.8706C36.76 39.9308 36.3506 39.1585 35.5225 38.6561C34.3781 37.9675 32.6939 38.0885 31.5495 38.9259C30.8516 39.4377 30.4608 40.1355 30.312 40.9915H36.8531ZM137.594 36.5998C139.138 36.637 140.478 37.0836 141.52 38.2001C142.218 38.9445 142.6 39.8471 142.739 40.8613C142.907 42.1081 142.777 43.3177 142.144 44.4342C141.418 45.7276 140.274 46.4626 138.841 46.7697C137.65 47.0209 136.477 46.9278 135.361 46.444C133.63 45.681 132.709 44.3226 132.495 42.4709C132.365 41.3544 132.495 40.2565 133.016 39.2423C133.779 37.7628 135.044 36.9719 136.654 36.6835C136.775 36.6649 136.896 36.6463 137.026 36.637C137.231 36.6277 137.436 36.6184 137.594 36.5998ZM137.333 37.9303C136.729 37.9303 135.919 38.2001 135.221 38.7863C133.732 40.0424 133.677 42.6291 134.616 44.0062C135.472 45.2716 136.719 45.7182 138.189 45.5322C139.473 45.3647 140.413 44.6854 140.944 43.4851C141.251 42.778 141.316 42.0243 141.251 41.2614C141.074 39.2888 139.613 37.9303 137.333 37.9303ZM108.266 44.5366C109.354 41.9778 110.415 39.4749 111.476 36.9812H113.011C112.899 37.2604 112.788 37.5302 112.676 37.7907C110.936 41.8475 109.187 45.895 107.466 49.9611C107.289 50.3798 107.093 50.5473 106.647 50.4915C106.34 50.4543 106.033 50.4822 105.688 50.4822C105.856 50.0821 106.014 49.7192 106.172 49.3563C106.572 48.4259 106.982 47.5047 107.373 46.565C107.41 46.4719 107.41 46.3324 107.373 46.2393L103.493 37.1673C103.465 37.1115 103.446 37.0557 103.418 36.9719C103.967 36.9719 104.488 36.9626 105.009 36.9812C105.065 36.9812 105.13 37.0836 105.158 37.1487C105.93 38.9724 106.693 40.7961 107.456 42.6198C107.717 43.2339 107.977 43.848 108.266 44.5366ZM95.6581 38.4886C94.9882 38.3397 94.3461 38.1629 93.6948 38.0699C92.4108 37.8745 91.2012 38.0978 90.2521 39.0469C89.117 40.1727 88.8936 41.5684 89.3682 43.0385C89.8241 44.4621 90.8755 45.253 92.3363 45.4763C93.3971 45.6345 94.4113 45.4112 95.4162 45.0669C95.472 45.0483 95.5278 45.0297 95.5929 45.0018H95.6581V46.3882C95.6581 46.4254 95.6116 46.4812 95.565 46.4998C93.518 47.0953 91.5082 47.1791 89.638 45.9602C88.3074 45.0948 87.684 43.8015 87.5724 42.2476C87.4886 41.1218 87.6561 40.0331 88.2423 39.0469C89.0053 37.7721 90.1684 37.0557 91.592 36.7579C92.9132 36.4788 94.2252 36.6091 95.5092 37.0278C95.5743 37.0464 95.6488 37.1487 95.6488 37.2139C95.6674 37.6419 95.6581 38.0792 95.6581 38.4886ZM126.447 38.2653H124.735C124.791 38.135 124.809 38.0234 124.874 37.9396C125.824 36.8417 126.773 35.753 127.731 34.6737C127.787 34.6086 127.88 34.5807 127.954 34.5341C127.973 34.6179 128.019 34.7016 128.019 34.7854C128.029 35.4181 128.019 36.0508 128.019 36.6928V36.9626H131.23V38.2653H128.019V43.8015C128.019 44.0527 128.038 44.3133 128.075 44.5645C128.168 45.0762 128.42 45.2716 128.95 45.2623C129.657 45.2437 130.327 45.0948 130.988 44.8529C131.071 44.825 131.164 44.7878 131.276 44.7506C131.276 45.1879 131.276 45.5973 131.267 46.016C131.267 46.0625 131.211 46.1277 131.164 46.1463C130.178 46.5929 129.155 46.8255 128.075 46.658C127.34 46.5464 126.847 46.0997 126.652 45.3926C126.531 44.946 126.466 44.4621 126.466 43.9969C126.447 42.1825 126.456 40.3774 126.456 38.563C126.447 38.47 126.447 38.3862 126.447 38.2653ZM97.6958 36.9812H99.2217V39.205C99.2403 39.2143 99.259 39.233 99.2776 39.2423C99.9382 37.5395 101.241 36.7858 102.99 36.6649V38.3304C102.655 38.3769 102.302 38.3955 101.967 38.47C100.431 38.8142 99.6311 39.8377 99.3427 41.3172C99.2589 41.7545 99.231 42.2104 99.2217 42.657C99.2031 43.848 99.2124 45.039 99.2124 46.23V46.5184H97.6865C97.6958 43.3549 97.6958 40.1727 97.6958 36.9812Z" fill="white"/>
</g>
<defs>
<clipPath id="clip0_11012:707899">
<rect width="124.961" height="32.8452" fill="white" transform="translate(17.9182 25.3125)"/>
</clipPath>
</defs>
</svg>
