<svg width="136" height="70" viewBox="0 0 136 70" fill="none" xmlns="http://www.w3.org/2000/svg">
<path d="M19.9212 40.8731C18.7209 39.7317 18.0874 38.0774 18.0874 35.96V28.0859H22.9219V35.7946C22.9219 36.8202 23.0886 37.6143 23.4887 38.0774C23.8888 38.5406 24.4056 38.7557 25.1057 38.7557C25.8059 38.7557 26.3727 38.5241 26.7228 38.0774C27.1229 37.6143 27.2896 36.8202 27.2896 35.7946V28.0859H32.0573V35.8939C32.0573 38.0113 31.4239 39.6655 30.2236 40.8565C28.9566 42.0476 27.2896 42.6266 25.0557 42.6266C22.8552 42.6431 21.1381 42.0807 19.9212 40.8731ZM36.075 29.5251C36.5917 29.5251 36.8751 29.6905 36.9918 29.8725C37.1585 30.0379 37.3419 30.2199 37.3419 30.7327C37.3419 31.2455 37.1752 31.4771 36.9918 31.5929C36.8251 31.7583 36.5917 31.9403 36.075 31.9403C35.5582 31.9403 35.3248 31.7748 35.1581 31.5929C34.9914 31.4274 34.808 31.1959 34.808 30.7327C34.808 30.2695 34.9747 30.0544 35.1581 29.8725C35.3248 29.7567 35.5582 29.5251 36.075 29.5251ZM36.075 28.1024C35.3248 28.1024 34.6913 28.3837 34.1745 28.8468C33.6577 29.31 33.4243 29.9386 33.4243 30.7327C33.4243 31.5267 33.6577 32.1553 34.1745 32.6185C34.6913 33.1313 35.3248 33.3629 36.125 33.3629C36.9252 33.3629 37.5586 33.1313 38.0754 32.6185C38.5922 32.1057 38.8256 31.4771 38.8256 30.7327C38.8256 29.9883 38.5922 29.31 38.0754 28.8468C37.5253 28.3837 36.8918 28.1024 36.075 28.1024ZM44.4769 31.8741H40.2759V28.1024H53.4957V31.8079H49.2947V42.2957H44.4603C44.4769 42.3123 44.4769 31.8741 44.4769 31.8741ZM57.9301 41.7333C56.7631 41.1212 55.7629 40.2279 55.0627 39.1031C54.3793 37.9616 54.0292 36.7044 54.0292 35.2818C54.0292 33.8592 54.3793 32.602 55.0627 31.4605C55.7462 30.3191 56.7298 29.4589 57.9301 28.8303C59.1304 28.0859 60.514 27.8047 62.0644 27.8047C63.6148 27.8047 64.9984 28.1521 66.1987 28.7807C67.3656 29.3927 68.3659 30.286 69.066 31.4109C69.7495 32.5027 70.0996 33.8095 70.0996 35.2322C70.0996 36.6548 69.7495 37.912 69.066 39.0534C68.3825 40.1949 67.399 41.0551 66.1987 41.6837C64.9984 42.3123 63.6148 42.6597 62.0644 42.6597C60.514 42.6431 59.1304 42.3619 57.9301 41.7333ZM63.6648 38.3752C64.1649 38.0774 64.565 37.6308 64.815 37.118C65.0984 36.6052 65.2151 35.9766 65.2151 35.2322C65.2151 34.4878 65.0984 33.8592 64.815 33.3464C64.5316 32.8335 64.1315 32.3704 63.6648 32.0891C63.198 31.8079 62.6312 31.626 62.0477 31.626C60.8808 31.626 59.8139 32.2876 59.2804 33.3298C58.997 33.8426 58.8803 34.4712 58.8803 35.2156C58.8803 35.96 59.047 36.5886 59.2804 37.1014C59.5638 37.6143 59.9639 38.0774 60.4307 38.3587C60.8974 38.6399 61.4643 38.8219 62.0477 38.8219C62.6312 38.7722 63.2147 38.6564 63.6648 38.3752ZM71.9 28.1024H78.9684C80.5854 28.1024 81.9524 28.3837 83.2194 28.9626C84.3863 29.5085 85.3699 30.3522 86.0867 31.4109C86.7702 32.5027 87.1203 33.7434 87.1203 35.1825C87.1203 36.6052 86.7702 37.8624 86.0867 38.9542C85.4032 40.046 84.4696 40.84 83.2194 41.4024C82.0191 41.9649 80.5687 42.2626 78.9684 42.2626H71.9V28.1024ZM78.785 38.5903C79.8186 38.5903 80.6187 38.309 81.2522 37.7301C81.8857 37.1511 82.1691 36.3074 82.1691 35.2156C82.1691 34.1238 81.8857 33.3298 81.2522 32.7012C80.6187 32.1388 79.8186 31.841 78.785 31.841H76.7178V38.5737H78.785V38.5903ZM98.3896 39.8475H92.9383L91.9547 42.2957H87.0703L93.3384 28.0859H98.1062L104.308 42.3454H99.3065C99.3065 42.3619 98.3896 39.8475 98.3896 39.8475ZM97.0726 36.4232L95.6889 32.8335L94.3053 36.4232H97.0726ZM112.71 37.1676V42.2957H107.875V37.0518L102.474 28.0363H107.592L110.526 32.9493L113.46 28.0363H118.111C118.111 28.0528 112.71 37.1676 112.71 37.1676Z" fill="white"/>
</svg>
