<svg width="24" height="24" viewBox="0 0 24 24" fill="none" xmlns="http://www.w3.org/2000/svg">
<path fill-rule="evenodd" clip-rule="evenodd" d="M13.5 1.99805C13.5 1.16962 12.8284 0.498047 12 0.498047C11.1716 0.498047 10.5 1.16962 10.5 1.99805V10.498H2C1.17157 10.498 0.5 11.1696 0.5 11.998C0.5 12.8265 1.17157 13.498 2 13.498H10.5V21.998C10.5 22.8265 11.1716 23.498 12 23.498C12.8284 23.498 13.5 22.8265 13.5 21.998V13.498H22C22.8284 13.498 23.5 12.8265 23.5 11.998C23.5 11.1696 22.8284 10.498 22 10.498H13.5V1.99805Z" fill="#97979B"/>
</svg>
