<svg width="900" height="900" viewBox="0 0 900 900" fill="none" xmlns="http://www.w3.org/2000/svg">
<path fill-rule="evenodd" clip-rule="evenodd" d="M397.828 778C484.819 778 568.247 743.443 629.759 681.931C691.271 620.419 725.828 536.991 725.828 450C725.828 363.009 691.271 279.581 629.759 218.069C568.247 156.557 484.819 122 397.828 122L397.828 289.52C532.395 289.9 641.365 399.104 641.365 533.76C641.365 668.415 532.395 777.619 397.828 777.999V778ZM606 534C606 408.631 504.369 307 379 307C253.631 307 152 408.631 152 534C152 659.369 253.631 761 379 761C504.369 761 606 659.369 606 534Z" fill="black"/>
</svg>
