<svg width="900" height="900" viewBox="0 0 900 900" fill="none" xmlns="http://www.w3.org/2000/svg">
<path fill-rule="evenodd" clip-rule="evenodd" d="M573.069 173.363C529.782 198.696 515.228 254.323 540.561 297.61L636.446 461.449C661.779 504.735 717.407 519.289 760.693 493.956C803.98 468.623 818.534 412.996 793.201 369.709L697.316 205.87C671.983 162.584 616.355 148.029 573.069 173.363ZM325.997 341.697C300.664 298.41 315.218 242.783 358.505 217.449C401.791 192.116 457.419 206.67 482.752 249.957L662.847 557.685C688.181 600.972 673.627 656.599 630.34 681.933C587.053 707.266 531.426 692.712 506.092 649.425L325.997 341.697ZM106.451 377.41C81.1174 334.123 95.6715 278.495 138.958 253.162C182.245 227.829 237.872 242.383 263.206 285.67L407.044 531.446C432.377 574.733 417.823 630.36 374.537 655.694C331.25 681.027 275.622 666.473 250.289 623.186L106.451 377.41Z" fill="black"/>
</svg>
