<svg width="900" height="900" viewBox="0 0 900 900" fill="none" xmlns="http://www.w3.org/2000/svg">
<path fill-rule="evenodd" clip-rule="evenodd" d="M480 122C393.009 122 309.581 156.557 248.069 218.069C186.557 279.581 152 363.009 152 450C152 536.991 186.557 620.419 248.069 681.931C309.581 743.443 393.009 778 480 778L480 610.48C345.433 610.1 236.463 500.896 236.463 366.24C236.463 231.585 345.433 122.381 480 122.001V122ZM271.828 366C271.828 491.369 373.459 593 498.828 593C624.197 593 725.828 491.369 725.828 366C725.828 240.631 624.197 139 498.828 139C373.459 139 271.828 240.631 271.828 366Z" fill="black"/>
</svg>
