<svg width="136" height="27" viewBox="0 0 136 27" fill="none" xmlns="http://www.w3.org/2000/svg">
<path d="M34.1942 20.3231V7.44566H37.3624L37.6946 9.82185C38.0182 9.25974 38.41 8.7828 38.8699 8.39102C39.3298 7.99925 39.8664 7.69264 40.4796 7.47121C41.0928 7.24977 41.7571 7.13905 42.4725 7.13905V10.9205H41.2717C40.7606 10.9205 40.2837 10.9801 39.8408 11.0994C39.415 11.2186 39.0403 11.4145 38.7166 11.687C38.41 11.9425 38.1715 12.3002 38.0012 12.7601C37.8479 13.203 37.7712 13.7651 37.7712 14.4465V20.3231H34.1942Z" fill="white"/>
<path d="M49.7043 20.6297C48.4098 20.6297 47.26 20.3571 46.255 19.8121C45.2671 19.25 44.492 18.4749 43.9299 17.487C43.3678 16.482 43.0868 15.3237 43.0868 14.0121C43.0868 12.6835 43.3593 11.5082 43.9044 10.4862C44.4665 9.44711 45.2415 8.62949 46.2295 8.03332C47.2345 7.43714 48.4013 7.13905 49.7299 7.13905C51.0074 7.13905 52.1231 7.4201 53.077 7.98221C54.0479 8.54432 54.7974 9.30232 55.3254 10.2562C55.8705 11.2101 56.143 12.3088 56.143 13.5522C56.143 13.7225 56.1345 13.9099 56.1175 14.1143C56.1175 14.3187 56.1005 14.5402 56.0664 14.7786H45.9756V12.6068H52.5149C52.4638 11.8233 52.1742 11.2016 51.6462 10.7417C51.1352 10.2647 50.4964 10.0263 49.7299 10.0263C49.1507 10.0263 48.6227 10.1625 48.1458 10.4351C47.6688 10.7076 47.2941 11.1079 47.0215 11.6359C46.749 12.164 46.6127 12.8368 46.6127 13.6544V14.3954C46.6127 15.0597 46.7405 15.6474 46.996 16.1584C47.2515 16.6523 47.6092 17.0356 48.0691 17.3081C48.529 17.5807 49.0656 17.7169 49.6788 17.7169C50.292 17.7169 50.7945 17.5892 51.1863 17.3337C51.5951 17.0782 51.9017 16.746 52.1061 16.3372H55.7598C55.5213 17.1378 55.1125 17.8617 54.5334 18.509C53.9713 19.1563 53.2814 19.6758 52.4638 20.0676C51.6462 20.4423 50.7263 20.6297 49.7043 20.6297Z" fill="white"/>
<path d="M61.804 20.6297C60.7479 20.6297 59.8622 20.4594 59.1468 20.1187C58.4484 19.761 57.9289 19.2925 57.5882 18.7134C57.2645 18.1172 57.1027 17.4614 57.1027 16.746C57.1027 15.9795 57.2986 15.2982 57.6904 14.702C58.0822 14.1058 58.6868 13.6374 59.5045 13.2967C60.3221 12.956 61.3441 12.7857 62.5705 12.7857H65.7388C65.7388 12.1725 65.6536 11.67 65.4833 11.2782C65.33 10.8694 65.0745 10.5628 64.7168 10.3584C64.3761 10.154 63.9162 10.0518 63.337 10.0518C62.7068 10.0518 62.1702 10.1881 61.7274 10.4606C61.3015 10.7331 61.0375 11.142 60.9353 11.687H57.4604C57.5626 10.7672 57.8692 9.97515 58.3802 9.31084C58.8913 8.62949 59.5726 8.10145 60.4243 7.72671C61.293 7.33494 62.2724 7.13905 63.3626 7.13905C64.572 7.13905 65.6195 7.34345 66.5053 7.75226C67.4081 8.16107 68.0979 8.74873 68.5749 9.51524C69.0688 10.2818 69.3158 11.2271 69.3158 12.3513V20.3231H65.891L65.8921 18.3812C65.7217 18.7219 65.5003 19.0285 65.2278 19.3011C64.9723 19.5736 64.6742 19.8121 64.3335 20.0165C63.9928 20.2038 63.6096 20.3486 63.1837 20.4508C62.7749 20.5701 62.315 20.6297 61.804 20.6297ZM62.6727 17.8702C63.0986 17.8702 63.4818 17.8021 63.8225 17.6658C64.1632 17.5125 64.4527 17.2996 64.6912 17.0271C64.9297 16.7545 65.1256 16.4479 65.2789 16.1073C65.4322 15.7496 65.5344 15.3663 65.5855 14.9575V14.9319H63.0049C62.5109 14.9319 62.1021 15.0001 61.7785 15.1363C61.4718 15.2556 61.2419 15.4344 61.0886 15.6729C60.9353 15.8943 60.8586 16.1498 60.8586 16.4394C60.8586 16.746 60.9353 17.01 61.0886 17.2315C61.2419 17.4529 61.4548 17.6147 61.7274 17.7169C61.9999 17.8191 62.315 17.8702 62.6727 17.8702Z" fill="white"/>
<path d="M77.3057 20.6297C76.0111 20.6297 74.8613 20.3401 73.8564 19.761C72.8514 19.1818 72.0593 18.3898 71.4802 17.3848C70.9181 16.3798 70.637 15.23 70.637 13.9355C70.637 12.6068 70.9181 11.44 71.4802 10.4351C72.0593 9.41304 72.8514 8.61246 73.8564 8.03332C74.8613 7.43714 76.0196 7.13905 77.3312 7.13905C78.9835 7.13905 80.3717 7.58192 81.4959 8.46767C82.6372 9.33639 83.3611 10.5373 83.6677 12.0703H79.8607C79.7244 11.4911 79.4178 11.0398 78.9409 10.7161C78.481 10.3754 77.9274 10.2051 77.2801 10.2051C76.701 10.2051 76.1814 10.3584 75.7215 10.665C75.2787 10.9546 74.9295 11.3719 74.674 11.917C74.4185 12.4621 74.2907 13.1179 74.2907 13.8844C74.2907 14.4635 74.3588 14.983 74.4951 15.4429C74.6484 15.8858 74.8528 16.2691 75.1083 16.5927C75.3809 16.9164 75.7045 17.1633 76.0792 17.3337C76.454 17.504 76.8543 17.5892 77.2801 17.5892C77.723 17.5892 78.1148 17.5211 78.4554 17.3848C78.7961 17.2315 79.0942 17.0186 79.3497 16.746C79.6052 16.4564 79.7755 16.1158 79.8607 15.724H83.6677C83.3611 17.223 82.6372 18.4153 81.4959 19.3011C80.3547 20.1868 78.9579 20.6297 77.3057 20.6297Z" fill="white"/>
<path d="M90.4954 20.3231C89.5756 20.3231 88.7665 20.1783 88.0681 19.8887C87.3868 19.5992 86.8587 19.1222 86.484 18.4579C86.1093 17.7936 85.9219 16.8908 85.9219 15.7496V10.4351H84.7767V7.44566L85.9187 7.44638L85.9159 3.89414H89.499V7.44566H92.8461V10.4351H89.499V15.7751C89.499 16.3372 89.6182 16.729 89.8567 16.9504C90.1122 17.1719 90.538 17.2826 91.1342 17.2826H92.8205V20.3231H90.4954Z" fill="white"/>
<path d="M102.207 20.6297C101.543 20.6297 100.955 20.5445 100.444 20.3742C99.9331 20.2209 99.4817 19.9994 99.0899 19.7099C98.6982 19.4203 98.366 19.0881 98.0935 18.7134L98.094 20.3231H94.5164V1.92676H98.0935V9.20864C98.4852 8.61246 99.0133 8.11848 99.6776 7.72671C100.359 7.33494 101.194 7.13905 102.182 7.13905C103.357 7.13905 104.404 7.43714 105.324 8.03332C106.261 8.61246 106.994 9.41304 107.522 10.4351C108.067 11.44 108.339 12.5983 108.339 13.9099C108.339 15.1874 108.067 16.3372 107.522 17.3592C106.994 18.3812 106.27 19.1818 105.35 19.761C104.43 20.3401 103.382 20.6297 102.207 20.6297ZM101.338 17.5125C101.986 17.5125 102.565 17.3592 103.076 17.0526C103.587 16.746 103.987 16.3202 104.277 15.7751C104.566 15.23 104.711 14.6083 104.711 13.9099C104.711 13.1945 104.566 12.5643 104.277 12.0192C103.987 11.4741 103.587 11.0483 103.076 10.7417C102.565 10.418 101.986 10.2562 101.338 10.2562C100.674 10.2562 100.086 10.418 99.5754 10.7417C99.0814 11.0483 98.6896 11.4741 98.4001 12.0192C98.1105 12.5472 97.9657 13.169 97.9657 13.8844C97.9657 14.5998 98.1105 15.23 98.4001 15.7751C98.6896 16.3202 99.0814 16.746 99.5754 17.0526C100.086 17.3592 100.674 17.5125 101.338 17.5125Z" fill="white"/>
<path d="M109.889 20.3231V7.44566H113.466V20.3231H109.889Z" fill="white"/>
<path d="M130.515 20.6297C129.322 20.6297 128.292 20.4423 127.423 20.0676C126.554 19.6758 125.873 19.1563 125.379 18.509C124.885 17.8447 124.595 17.0952 124.51 16.2606H128.087C128.155 16.5672 128.283 16.8482 128.471 17.1037C128.675 17.3422 128.939 17.5381 129.263 17.6914C129.603 17.8447 130.004 17.9213 130.464 17.9213C130.906 17.9213 131.264 17.8617 131.537 17.7425C131.826 17.6062 132.039 17.4359 132.175 17.2315C132.329 17.0271 132.405 16.8056 132.405 16.5672C132.405 16.2265 132.303 15.9625 132.099 15.7751C131.894 15.5877 131.596 15.4344 131.204 15.3152C130.813 15.196 130.344 15.0852 129.799 14.983C129.186 14.8468 128.581 14.6935 127.985 14.5231C127.406 14.3528 126.878 14.1314 126.401 13.8588C125.941 13.5692 125.575 13.2115 125.302 12.7857C125.03 12.3599 124.894 11.8318 124.894 11.2016C124.894 10.4351 125.098 9.7452 125.507 9.13199C125.933 8.51877 126.537 8.03332 127.321 7.67561C128.121 7.3179 129.075 7.13905 130.182 7.13905C131.75 7.13905 132.984 7.49676 133.887 8.21217C134.807 8.91055 135.352 9.86443 135.522 11.0738H132.15C132.065 10.6991 131.852 10.4095 131.511 10.2051C131.17 10.0007 130.719 9.8985 130.157 9.8985C129.578 9.8985 129.126 10.0007 128.803 10.2051C128.496 10.4095 128.343 10.682 128.343 11.0227C128.343 11.2442 128.445 11.4486 128.649 11.6359C128.854 11.8063 129.143 11.9596 129.518 12.0958C129.91 12.2151 130.387 12.3343 130.949 12.4535C131.954 12.6579 132.831 12.8964 133.581 13.169C134.33 13.4245 134.918 13.7992 135.344 14.2932C135.769 14.7701 135.982 15.4685 135.982 16.3883C135.999 17.2059 135.778 17.9384 135.318 18.5857C134.875 19.2329 134.245 19.7354 133.427 20.0931C132.61 20.4508 131.639 20.6297 130.515 20.6297Z" fill="white"/>
<path d="M120.717 20.3231C119.797 20.3231 118.988 20.1783 118.29 19.8887C117.609 19.5992 117.081 19.1222 116.706 18.4579C116.331 17.7936 116.144 16.8908 116.144 15.7496V10.4351H114.999V7.44567L116.14 7.4464L116.138 3.89416H119.721V7.44567H123.068V10.4351H119.721V15.7751C119.721 16.3372 119.84 16.729 120.078 16.9504C120.334 17.1719 120.76 17.2826 121.356 17.2826H123.042V20.3231H120.717Z" fill="white"/>
<rect x="109.887" y="1.92676" width="3.57886" height="3.57901" fill="white"/>
<path d="M15.5602 4.37499C15.6955 4.26312 15.8515 4.17898 16.0192 4.12739C16.187 4.0758 16.3633 4.05776 16.5381 4.07431C16.7128 4.09086 16.8826 4.14167 17.0377 4.22384C17.1928 4.30601 17.3303 4.41793 17.4421 4.5532C18.4859 5.82002 20.5456 8.78763 21.3638 10.2106C23.2171 13.422 24.3595 16.7117 24.6678 19.4704C24.821 20.8479 24.7747 22.1596 24.4539 23.2841C24.1278 24.4157 23.4969 25.4404 22.4384 26.0517C21.157 26.7913 19.6761 26.6879 18.3235 26.1942C16.9655 25.6988 15.5361 25.1495 14.2031 23.9324C13.9452 23.6924 13.7925 23.3604 13.7781 23.0085C13.7637 22.6566 13.8888 22.3132 14.1262 22.053C14.3636 21.7928 14.6942 21.6369 15.0459 21.619C15.3977 21.6012 15.7423 21.723 16.0048 21.9578C17.181 23.0306 18.3146 23.3465 19.2377 23.6815C20.168 24.0201 20.7525 23.9399 21.1018 23.7367C21.394 23.5674 21.6899 23.2235 21.8823 22.5481C22.0784 21.8637 22.1408 20.9264 22.0107 19.768C21.7523 17.4531 20.7632 14.5162 19.047 11.5472C18.3043 10.2554 16.3311 7.41243 15.3838 6.26224C15.2719 6.12697 15.1878 5.971 15.1362 5.80321C15.0846 5.63543 15.0666 5.45913 15.0831 5.28438C15.0997 5.10962 15.1505 4.93984 15.2326 4.78473C15.3148 4.62961 15.4267 4.4922 15.562 4.38034" fill="#00D8FF"/>
<path d="M23.3654 19.031C23.3948 19.2041 23.3898 19.3812 23.3507 19.5524C23.3116 19.7235 23.2392 19.8853 23.1376 20.0284C23.036 20.1715 22.9072 20.2933 22.7586 20.3866C22.6099 20.48 22.4443 20.5432 22.2713 20.5725C20.6522 20.8412 16.7736 21.063 15.1324 21.0599C11.4258 21.0599 8.0044 20.4059 5.46149 19.2921C4.19092 18.7379 3.08074 18.041 2.26815 17.1999C1.44664 16.3552 0.876404 15.2931 0.876404 14.0723C0.876404 12.5932 1.70682 11.3635 2.80987 10.4368C3.91828 9.50836 5.42941 8.76523 7.14904 8.2199C7.48696 8.11261 7.85366 8.14396 8.16847 8.30706C8.32435 8.38781 8.46279 8.49848 8.5759 8.63275C8.68901 8.76701 8.77457 8.92224 8.82769 9.08957C8.88081 9.2569 8.90045 9.43305 8.8855 9.60798C8.87055 9.7829 8.82129 9.95316 8.74054 10.109C8.65979 10.2649 8.54912 10.4034 8.41487 10.5165C8.28061 10.6296 8.12539 10.7152 7.95807 10.7683C6.44337 11.2495 5.28151 11.8536 4.5295 12.4862C3.77037 13.1207 3.5494 13.6678 3.5494 14.0723C3.5494 14.4109 3.70087 14.8386 4.18914 15.343C4.68454 15.8544 5.46505 16.3766 6.53247 16.8435C8.66553 17.7773 11.7038 18.3868 15.1324 18.3868C16.7095 18.3868 20.4501 18.1702 21.824 17.9368C21.997 17.9074 22.1742 17.9124 22.3453 17.9515C22.5164 17.9906 22.6782 18.063 22.8213 18.1646C22.9645 18.2662 23.0862 18.395 23.1795 18.5437C23.2729 18.6923 23.3361 18.8579 23.3654 19.031Z" fill="#00D8FF"/>
<path d="M23.3654 19.031C23.3948 19.2041 23.3898 19.3812 23.3507 19.5524C23.3116 19.7235 23.2392 19.8853 23.1376 20.0284C23.036 20.1715 22.9072 20.2933 22.7586 20.3866C22.6099 20.48 22.4443 20.5432 22.2713 20.5725C20.6522 20.8412 16.7736 21.063 15.1324 21.0599C11.4258 21.0599 8.0044 20.4059 5.46149 19.2921C4.19092 18.7379 3.08074 18.041 2.26815 17.1999C1.44664 16.3552 0.876404 15.2931 0.876404 14.0723C0.876404 12.5932 1.70682 11.3635 2.80987 10.4368C3.91828 9.50836 5.42941 8.76523 7.14904 8.2199C7.48696 8.11261 7.85366 8.14396 8.16847 8.30706C8.32435 8.38781 8.46279 8.49848 8.5759 8.63275C8.68901 8.76701 8.77457 8.92224 8.82769 9.08957C8.88081 9.2569 8.90045 9.43305 8.8855 9.60798C8.87055 9.7829 8.82129 9.95316 8.74054 10.109C8.65979 10.2649 8.54912 10.4034 8.41487 10.5165C8.28061 10.6296 8.12539 10.7152 7.95807 10.7683C6.44337 11.2495 5.28151 11.8536 4.5295 12.4862C3.77037 13.1207 3.5494 13.6678 3.5494 14.0723C3.5494 14.4109 3.70087 14.8386 4.18914 15.343C4.68454 15.8544 5.46505 16.3766 6.53247 16.8435C8.66553 17.7773 11.7038 18.3868 15.1324 18.3868C16.7095 18.3868 20.4501 18.1702 21.824 17.9368C21.997 17.9074 22.1742 17.9124 22.3453 17.9515C22.5164 17.9906 22.6782 18.063 22.8213 18.1646C22.9645 18.2662 23.0862 18.395 23.1795 18.5437C23.2729 18.6923 23.3361 18.8579 23.3654 19.031Z" stroke="#00D8FF"/>
<path d="M7.01851 18.4978C6.68629 18.3744 6.41669 18.1241 6.26898 17.802C6.12128 17.4798 6.10757 17.1122 6.23086 16.7799C6.76903 15.3275 8.43764 11.7024 9.29835 10.2125C11.1516 7.00119 13.429 4.36725 15.6637 2.72059C16.7792 1.89904 17.9375 1.28422 19.0726 1.00086C20.2149 0.715728 21.4195 0.749588 22.4762 1.36085C23.7593 2.10042 24.4079 3.43343 24.6574 4.85376C24.9087 6.27766 24.7964 7.95639 24.4079 9.71889C24.3765 9.89618 24.3096 10.0653 24.2112 10.2161C24.1127 10.3669 23.9849 10.4962 23.8352 10.5964C23.6856 10.6965 23.5173 10.7654 23.3404 10.7988C23.1634 10.8323 22.9816 10.8297 22.8057 10.7911C22.6298 10.7525 22.4636 10.6788 22.3169 10.5744C22.1702 10.47 22.0461 10.337 21.9521 10.1834C21.8581 10.0299 21.7961 9.85889 21.7698 9.68076C21.7435 9.50263 21.7535 9.32102 21.7991 9.14684C22.1394 7.59285 22.1965 6.28479 22.0254 5.31532C21.8543 4.3423 21.4908 3.87717 21.1415 3.67579C20.8493 3.50649 20.402 3.42274 19.7213 3.59382C19.0299 3.76668 18.1888 4.18191 17.2496 4.87336C15.375 6.25271 13.3257 8.58013 11.6132 11.5491C10.8643 12.8389 9.26 16.3137 8.73636 17.7101C8.61296 18.0424 8.36267 18.312 8.04052 18.4597C7.71838 18.6074 7.35076 18.6211 7.01851 18.4978Z" fill="#00D8FF"/>
<path d="M7.01851 18.4978C6.68629 18.3744 6.41669 18.1241 6.26898 17.802C6.12128 17.4798 6.10757 17.1122 6.23086 16.7799C6.76903 15.3275 8.43764 11.7024 9.29835 10.2125C11.1516 7.00119 13.429 4.36725 15.6637 2.72059C16.7792 1.89904 17.9375 1.28422 19.0726 1.00086C20.2149 0.715728 21.4195 0.749588 22.4762 1.36085C23.7593 2.10042 24.4079 3.43343 24.6574 4.85376C24.9087 6.27766 24.7964 7.95639 24.4079 9.71889C24.3765 9.89618 24.3096 10.0653 24.2112 10.2161C24.1127 10.3669 23.9849 10.4962 23.8352 10.5964C23.6856 10.6965 23.5173 10.7654 23.3404 10.7988C23.1634 10.8323 22.9816 10.8297 22.8057 10.7911C22.6298 10.7525 22.4636 10.6788 22.3169 10.5744C22.1702 10.47 22.0461 10.337 21.9521 10.1834C21.8581 10.0299 21.7961 9.85889 21.7698 9.68076C21.7435 9.50263 21.7535 9.32102 21.7991 9.14684C22.1394 7.59285 22.1965 6.28479 22.0254 5.31532C21.8543 4.3423 21.4908 3.87717 21.1415 3.67579C20.8493 3.50649 20.402 3.42274 19.7213 3.59382C19.0299 3.76668 18.1888 4.18191 17.2496 4.87336C15.375 6.25271 13.3257 8.58013 11.6132 11.5491C10.8643 12.8389 9.26 16.3137 8.73636 17.7101C8.61296 18.0424 8.36267 18.312 8.04052 18.4597C7.71838 18.6074 7.35076 18.6211 7.01851 18.4978Z" stroke="#00D8FF"/>
<path d="M7.23904 17.6719L9.52736 15.8407C9.05013 17.2252 9.41498 17.7423 11.3586 18.129L9.07024 19.9602L7.23904 17.6719Z" fill="#00D8FF"/>
<path d="M5.57831 18.3281L4.47838 15.6115C5.66844 16.4649 6.26832 16.2633 7.19496 14.5116L8.29489 17.2282L5.57831 18.3281Z" fill="#00D8FF"/>
<path d="M16.5734 3.17383L19.4615 3.67279C18.1086 4.23345 17.9634 4.84338 18.9625 6.55477L16.0745 6.06185L16.5734 3.17383Z" fill="#00D8FF"/>
<path d="M23.6917 20.4033L21.8531 22.688C22.195 21.2817 21.5582 20.8124 19.577 20.8591L21.4053 18.5698L23.6917 20.4033Z" fill="#00D8FF"/>
<path d="M16.7997 5.22656L16.8039 8.1412C16.0065 6.91291 14.7529 6.95169 13.9038 8.19188L13.8691 5.26127L16.7997 5.22656Z" fill="#00D8FF"/>
<path d="M23.3192 17.8115L21.0926 15.9058C21.5238 17.3052 21.1434 17.8853 19.1881 18.2076L21.4134 20.0381L23.3192 17.8115Z" fill="#00D8FF"/>
<circle cx="15.2961" cy="13.7084" r="2.12343" fill="#00D8FF"/>
</svg>
