<svg width="675" height="675" viewBox="0 0 675 675" fill="none" xmlns="http://www.w3.org/2000/svg">
<path d="M341.41 162.748C343.945 160.652 346.868 159.075 350.012 158.108C353.156 157.141 356.46 156.803 359.735 157.114C363.01 157.424 366.191 158.376 369.098 159.916C372.005 161.455 374.58 163.553 376.676 166.088C396.236 189.827 434.833 245.439 450.166 272.105C484.897 332.284 506.304 393.932 512.081 445.629C514.953 471.444 514.085 496.023 508.074 517.096C501.962 538.302 490.14 557.504 470.303 568.959C446.292 582.818 418.54 580.881 393.193 571.631C367.745 562.347 345.835 556.081 320.855 533.272C316.023 528.776 313.161 522.554 312.892 515.959C312.622 509.364 314.967 502.929 319.416 498.053C323.864 493.178 330.058 490.255 336.65 489.921C343.242 489.587 349.699 491.868 354.618 496.269C376.659 516.374 377.69 517.258 409.236 525.831C426.724 530.46 438.711 529.385 445.257 525.578C450.733 522.405 456.277 515.96 459.884 503.303C463.557 490.479 464.726 472.913 462.288 451.206C457.446 407.825 438.911 352.789 406.751 297.152C392.833 272.945 355.856 219.668 338.104 198.114C336.007 195.579 334.431 192.656 333.464 189.512C332.497 186.368 332.159 183.064 332.469 179.79C332.779 176.515 333.732 173.333 335.271 170.426C336.811 167.52 338.909 164.945 341.444 162.848" fill="white"/>
<path d="M487.674 437.398C488.224 440.641 488.131 443.961 487.398 447.168C486.666 450.375 485.309 453.407 483.405 456.089C481.501 458.772 479.087 461.053 476.301 462.802C473.515 464.552 470.412 465.735 467.169 466.285C436.827 471.321 364.139 475.477 333.383 475.419C263.919 475.419 199.8 463.163 152.144 442.291C128.333 431.905 107.528 418.847 92.2991 403.084C76.9037 387.255 66.217 367.351 66.217 344.475C66.217 316.756 81.7794 293.713 102.451 276.348C123.223 258.949 151.543 245.023 183.77 234.803C190.103 232.793 196.975 233.38 202.874 236.437C205.796 237.95 208.39 240.024 210.51 242.54C212.63 245.056 214.233 247.965 215.229 251.101C216.224 254.236 216.592 257.537 216.312 260.815C216.032 264.093 215.109 267.284 213.595 270.205C212.082 273.126 210.008 275.721 207.492 277.841C204.976 279.96 202.067 281.564 198.931 282.559C170.545 291.576 148.771 302.897 134.678 314.753C120.452 326.642 116.311 336.894 116.311 344.475C116.311 350.82 119.149 358.835 128.3 368.286C137.584 377.871 152.211 387.655 172.215 396.405C212.19 413.904 269.129 425.326 333.383 425.326C362.938 425.326 433.038 421.268 458.786 416.893C462.029 416.342 465.349 416.436 468.556 417.169C471.763 417.901 474.795 419.258 477.477 421.162C480.16 423.066 482.441 425.48 484.19 428.266C485.94 431.052 487.123 434.155 487.674 437.398Z" fill="white"/>
<path d="M487.674 437.398C488.224 440.641 488.131 443.961 487.398 447.168C486.666 450.375 485.309 453.407 483.405 456.089C481.501 458.772 479.087 461.053 476.301 462.802C473.515 464.552 470.412 465.735 467.169 466.285C436.827 471.321 364.139 475.477 333.383 475.419C263.919 475.419 199.8 463.163 152.144 442.291C128.333 431.905 107.528 418.847 92.2991 403.084C76.9037 387.255 66.217 367.351 66.217 344.475C66.217 316.756 81.7794 293.713 102.451 276.348C123.223 258.949 151.543 245.023 183.77 234.803C190.103 232.793 196.975 233.38 202.874 236.437C205.796 237.95 208.39 240.024 210.51 242.54C212.63 245.056 214.233 247.965 215.229 251.101C216.224 254.236 216.592 257.537 216.312 260.815C216.032 264.093 215.109 267.284 213.595 270.205C212.082 273.126 210.008 275.721 207.492 277.841C204.976 279.96 202.067 281.564 198.931 282.559C170.545 291.576 148.771 302.897 134.678 314.753C120.452 326.642 116.311 336.894 116.311 344.475C116.311 350.82 119.149 358.835 128.3 368.286C137.584 377.871 152.211 387.655 172.215 396.405C212.19 413.904 269.129 425.326 333.383 425.326C362.938 425.326 433.038 421.268 458.786 416.893C462.029 416.342 465.349 416.436 468.556 417.169C471.763 417.901 474.795 419.258 477.477 421.162C480.16 423.066 482.441 425.48 484.19 428.266C485.94 431.052 487.123 434.155 487.674 437.398Z" stroke="white"/>
<path d="M181.32 427.4C175.094 425.088 170.041 420.397 167.273 414.36C164.505 408.323 164.248 401.433 166.559 395.207C176.644 367.989 207.915 300.056 224.045 272.138C258.777 211.959 301.457 162.6 343.335 131.742C364.24 116.347 385.948 104.825 407.221 99.5154C428.627 94.1721 451.203 94.8066 471.006 106.261C495.051 120.121 507.207 145.1 511.883 171.717C516.592 198.4 514.488 229.859 507.207 262.887C506.618 266.21 505.364 269.379 503.52 272.204C501.675 275.03 499.279 277.454 496.475 279.33C493.67 281.207 490.516 282.497 487.2 283.125C483.885 283.752 480.477 283.702 477.181 282.98C473.885 282.257 470.769 280.876 468.02 278.919C465.271 276.962 462.946 274.47 461.184 271.592C459.422 268.715 458.26 265.511 457.767 262.172C457.274 258.834 457.461 255.431 458.316 252.167C464.695 223.046 465.763 198.534 462.557 180.366C459.351 162.132 452.539 153.416 445.993 149.642C440.516 146.47 432.134 144.9 419.377 148.106C406.419 151.345 390.656 159.127 373.057 172.084C337.925 197.932 299.52 241.547 267.426 297.184C253.393 321.354 223.327 386.47 213.513 412.639C211.201 418.865 206.51 423.918 200.473 426.686C194.436 429.454 187.546 429.711 181.32 427.4Z" fill="white"/>
<path d="M181.32 427.4C175.094 425.088 170.041 420.397 167.273 414.36C164.505 408.323 164.248 401.433 166.559 395.207C176.644 367.989 207.915 300.056 224.045 272.138C258.777 211.959 301.457 162.6 343.335 131.742C364.24 116.347 385.948 104.825 407.221 99.5154C428.627 94.1721 451.203 94.8066 471.006 106.261C495.051 120.121 507.207 145.1 511.883 171.717C516.592 198.4 514.488 229.859 507.207 262.887C506.618 266.21 505.364 269.379 503.52 272.204C501.675 275.03 499.279 277.454 496.475 279.33C493.67 281.207 490.516 282.497 487.2 283.125C483.885 283.752 480.477 283.702 477.181 282.98C473.885 282.257 470.769 280.876 468.02 278.919C465.271 276.962 462.946 274.47 461.184 271.592C459.422 268.715 458.26 265.511 457.767 262.172C457.274 258.834 457.461 255.431 458.316 252.167C464.695 223.046 465.763 198.534 462.557 180.366C459.351 162.132 452.539 153.416 445.993 149.642C440.516 146.47 432.134 144.9 419.377 148.106C406.419 151.345 390.656 159.127 373.057 172.084C337.925 197.932 299.52 241.547 267.426 297.184C253.393 321.354 223.327 386.47 213.513 412.639C211.201 418.865 206.51 423.918 200.473 426.686C194.436 429.454 187.546 429.711 181.32 427.4Z" stroke="white"/>
<path d="M187.093 412.125L225.559 381.343C222.324 392.253 222.269 400.499 227.251 406.864C230.014 410.393 234.229 413.206 239.965 415.586C245.118 417.724 251.573 419.543 259.456 421.209L219.773 452.964L187.093 412.125Z" fill="white" stroke="white" stroke-width="2.61684"/>
<path d="M154.845 422.516L136.355 376.851C145.883 383.072 153.769 385.484 161.294 382.531C165.466 380.893 169.367 377.66 173.289 372.844C176.812 368.518 180.401 362.853 184.252 355.777L203.326 402.886L154.845 422.516Z" fill="white" stroke="white" stroke-width="2.61684"/>
<path d="M361.219 141.742L409.765 150.129C399.457 154.934 393.245 160.334 391.783 168.259C390.972 172.654 391.662 177.661 393.683 183.522C395.5 188.79 398.419 194.822 402.4 201.829L352.315 193.281L361.219 141.742Z" fill="white" stroke="white" stroke-width="2.61684"/>
<path d="M491.73 463.301L461.471 500.9C463.159 490.341 461.34 482.602 454.925 477.54C451.28 474.664 446.274 472.767 439.921 471.633C434.205 470.614 427.324 470.199 419.221 470.286L450.929 430.582L491.73 463.301Z" fill="white" stroke="white" stroke-width="2.61684"/>
<path d="M310.808 180.654L363.096 180.035L363.166 229.195C355.892 219.701 346.896 214.951 337.642 215.15C328.328 215.35 319.083 220.56 311.396 230.346L310.808 180.654Z" fill="white" stroke="white" stroke-width="2.61684"/>
<path d="M484.734 414.682L447.302 382.644C450.182 393.737 449.961 402.273 444.805 408.776C441.939 412.391 437.641 415.248 431.821 417.576C426.609 419.661 420.113 421.348 412.202 422.767L450.706 454.439L484.734 414.682Z" fill="white" stroke="white" stroke-width="2.61684"/>
<circle cx="336.227" cy="337.65" r="41.3792" fill="white" stroke="white" stroke-width="0.620908"/>
</svg>
