<svg width="301" height="89" viewBox="0 0 301 89" fill="none" xmlns="http://www.w3.org/2000/svg">
    <path d="M3.10426 87.662C3.51847 87.6604 3.85294 87.3233 3.85132 86.9091C3.84969 86.4949 3.5126 86.1604 3.09838 86.1621L3.10426 87.662ZM13.142 86.056C12.7279 86.0632 12.398 86.4048 12.4052 86.8189C12.4124 87.2331 12.754 87.563 13.1682 87.5558L13.142 86.056ZM19.001 87.4297C19.415 87.419 19.742 87.0746 19.7313 86.6605C19.7206 86.2465 19.3762 85.9195 18.9622 85.9302L19.001 87.4297ZM29.1061 85.588C28.6923 85.6053 28.3708 85.9548 28.3882 86.3687C28.4055 86.7825 28.755 87.104 29.1689 87.0866L29.1061 85.588ZM35.0488 86.8111C35.4625 86.7897 35.7804 86.4369 35.7589 86.0233C35.7374 85.6096 35.3847 85.2917 34.971 85.3132L35.0488 86.8111ZM45.0282 84.6977C44.615 84.727 44.3038 85.0857 44.333 85.4988C44.3623 85.912 44.721 86.2233 45.1341 86.194L45.0282 84.6977ZM51.0227 85.7419C51.4355 85.7077 51.7424 85.3453 51.7082 84.9325C51.674 84.5197 51.3116 84.2128 50.8988 84.247L51.0227 85.7419ZM60.9067 83.3064C60.4947 83.3499 60.1961 83.7191 60.2395 84.131C60.283 84.5429 60.6522 84.8416 61.0641 84.7981L60.9067 83.3064ZM66.9117 84.1386C67.3229 84.0892 67.6162 83.7157 67.5668 83.3045C67.5174 82.8932 67.1439 82.5999 66.7327 82.6493L66.9117 84.1386ZM76.7018 81.3158C76.292 81.3764 76.009 81.7578 76.0697 82.1675C76.1303 82.5773 76.5116 82.8603 76.9214 82.7996L76.7018 81.3158ZM82.7752 81.881C83.1838 81.8131 83.46 81.4268 83.3921 81.0182C83.3242 80.6096 82.938 80.3334 82.5293 80.4013L82.7752 81.881ZM92.3269 78.6098C91.9207 78.6912 91.6575 79.0864 91.7389 79.4926C91.8202 79.8987 92.2155 80.162 92.6216 80.0806L92.3269 78.6098ZM98.5666 78.821C98.9708 78.7306 99.2252 78.3296 99.1347 77.9254C99.0443 77.5212 98.6433 77.2668 98.2391 77.3572L98.5666 78.821ZM107.885 74.997C107.484 75.1038 107.247 75.5148 107.353 75.915C107.46 76.3152 107.871 76.5531 108.271 76.4463L107.885 74.997ZM114.024 74.8294C114.421 74.712 114.648 74.2947 114.53 73.8975C114.413 73.5003 113.996 73.2736 113.599 73.391L114.024 74.8294ZM123.063 70.3406C122.672 70.4776 122.466 70.9055 122.603 71.2964C122.74 71.6873 123.168 71.8932 123.559 71.7563L123.063 70.3406ZM129.238 69.6643C129.624 69.5148 129.816 69.0804 129.666 68.6941C129.517 68.3078 129.083 68.1159 128.696 68.2654L129.238 69.6643ZM137.85 64.4227C137.473 64.594 137.306 65.0386 137.477 65.4157C137.648 65.7929 138.093 65.9598 138.47 65.7885L137.85 64.4227ZM143.895 63.2084C144.266 63.0239 144.417 62.5737 144.232 62.2028C144.048 61.832 143.598 61.6809 143.227 61.8654L143.895 63.2084ZM151.987 57.1797C151.628 57.3856 151.503 57.8438 151.709 58.2033C151.915 58.5627 152.373 58.6871 152.733 58.4812L151.987 57.1797ZM157.897 55.4079C158.249 55.1904 158.358 54.7283 158.141 54.3758C157.923 54.0233 157.461 53.914 157.109 54.1316L157.897 55.4079ZM165.433 48.7108C165.091 48.9444 165.003 49.4111 165.236 49.7532C165.47 50.0952 165.937 50.1832 166.279 49.9496L165.433 48.7108ZM171.204 46.5099C171.541 46.2695 171.62 45.8012 171.38 45.4639C171.139 45.1265 170.671 45.0478 170.334 45.2882L171.204 46.5099ZM178.39 39.4308C178.057 39.6763 177.985 40.1457 178.231 40.4794C178.476 40.8131 178.946 40.8846 179.279 40.6391L178.39 39.4308ZM184.104 37.0961C184.439 36.8517 184.512 36.3825 184.267 36.048C184.023 35.7136 183.554 35.6405 183.219 35.8849L184.104 37.0961ZM191.359 30.0775C191.019 30.3127 190.933 30.7798 191.168 31.1207C191.403 31.4617 191.87 31.5474 192.211 31.3121L191.359 30.0775ZM197.165 27.9915C197.512 27.766 197.611 27.3015 197.385 26.9541C197.16 26.6066 196.695 26.5078 196.348 26.7334L197.165 27.9915ZM204.928 21.5208C204.567 21.7242 204.44 22.1816 204.643 22.5424C204.847 22.9033 205.304 23.0309 205.665 22.8274L204.928 21.5208ZM210.902 20.0209C211.271 19.8333 211.419 19.3818 211.231 19.0125C211.043 18.6433 210.592 18.496 210.223 18.6836L210.902 20.0209ZM219.348 14.4745C218.966 14.6336 218.785 15.0725 218.944 15.455C219.103 15.8375 219.542 16.0186 219.924 15.8596L219.348 14.4745ZM225.468 13.6996C225.857 13.5579 226.058 13.1275 225.916 12.7383C225.774 12.3491 225.344 12.1485 224.955 12.2902L225.468 13.6996ZM234.516 9.18957C234.118 9.30368 233.888 9.71897 234.002 10.1172C234.116 10.5153 234.531 10.7456 234.93 10.6315L234.516 9.18957ZM240.642 9.11278C241.044 9.01386 241.29 8.60759 241.191 8.20537C241.092 7.80314 240.686 7.55726 240.284 7.65619L240.642 9.11278ZM250.086 5.54664C249.679 5.62252 249.41 6.01413 249.486 6.42133C249.562 6.82854 249.953 7.09713 250.361 7.02126L250.086 5.54664ZM256.217 6.02213C256.627 5.95852 256.907 5.57514 256.843 5.16584C256.78 4.75655 256.396 4.47631 255.987 4.53993L256.217 6.02213ZM265.925 3.22593C265.513 3.27137 265.216 3.64197 265.262 4.05368C265.307 4.4654 265.678 4.76232 266.089 4.71688L265.925 3.22593ZM272.046 4.13087C272.458 4.09505 272.764 3.73148 272.728 3.31882C272.692 2.90616 272.329 2.60067 271.916 2.63649L272.046 4.13087ZM281.856 1.94839C281.442 1.97014 281.125 2.3231 281.146 2.73674C281.168 3.15038 281.521 3.46808 281.935 3.44632L281.856 1.94839ZM288.01 3.18381C288.424 3.16968 288.748 2.82263 288.734 2.40866C288.72 1.99469 288.373 1.67055 287.959 1.68468L288.01 3.18381ZM297.892 1.48089C297.478 1.48401 297.145 1.82233 297.148 2.23653C297.151 2.65073 297.489 2.98397 297.904 2.98084L297.892 1.48089ZM0 87.6681C1.04138 87.6681 2.07612 87.6661 3.10426 87.662L3.09838 86.1621C2.07222 86.1661 1.03944 86.1681 0 86.1681V87.6681ZM13.1682 87.5558C15.1379 87.5214 17.082 87.4794 19.001 87.4297L18.9622 85.9302C17.0475 85.9797 15.1076 86.0217 13.142 86.056L13.1682 87.5558ZM29.1689 87.0866C31.1573 87.0034 33.1171 86.9115 35.0488 86.8111L34.971 85.3132C33.0444 85.4132 31.0896 85.5049 29.1061 85.588L29.1689 87.0866ZM45.1341 86.194C47.1287 86.0528 49.0913 85.902 51.0227 85.7419L50.8988 84.247C48.9735 84.4066 47.0169 84.5569 45.0282 84.6977L45.1341 86.194ZM61.0641 84.7981C63.0483 84.5886 64.9972 84.3687 66.9117 84.1386L66.7327 82.6493C64.8255 82.8785 62.8838 83.0977 60.9067 83.3064L61.0641 84.7981ZM76.9214 82.7996C78.9123 82.505 80.8631 82.1986 82.7752 81.881L82.5293 80.4013C80.6262 80.7174 78.6841 81.0224 76.7018 81.3158L76.9214 82.7996ZM92.6216 80.0806C94.6499 79.6741 96.6309 79.2541 98.5666 78.821L98.2391 77.3572C96.3145 77.7878 94.3444 78.2055 92.3269 78.6098L92.6216 80.0806ZM108.271 76.4463C110.239 75.9213 112.155 75.3821 114.024 74.8294L113.599 73.391C111.743 73.9398 109.839 74.4755 107.885 74.997L108.271 76.4463ZM123.559 71.7563C125.507 71.0738 127.399 70.376 129.238 69.6643L128.696 68.2654C126.872 68.9713 124.996 69.6635 123.063 70.3406L123.559 71.7563ZM138.47 65.7885C140.334 64.9422 142.14 64.0815 143.895 63.2084L143.227 61.8654C141.488 62.7308 139.697 63.5839 137.85 64.4227L138.47 65.7885ZM152.733 58.4812C154.503 57.467 156.222 56.4417 157.897 55.4079L157.109 54.1316C155.447 55.1572 153.743 56.1741 151.987 57.1797L152.733 58.4812ZM166.279 49.9496C167.953 48.8061 169.592 47.6583 171.204 46.5099L170.334 45.2882C168.728 46.432 167.098 47.574 165.433 48.7108L166.279 49.9496ZM179.279 40.6391C180.894 39.4511 182.498 38.2693 184.104 37.0961L183.219 35.8849C181.611 37.06 180.004 38.2438 178.39 39.4308L179.279 40.6391ZM192.211 31.3121C193.839 30.1887 195.487 29.0807 197.165 27.9915L196.348 26.7334C194.657 27.8313 192.997 28.9474 191.359 30.0775L192.211 31.3121ZM205.665 22.8274C207.365 21.8691 209.107 20.9326 210.902 20.0209L210.223 18.6836C208.408 19.6056 206.646 20.5524 204.928 21.5208L205.665 22.8274ZM219.924 15.8596C221.715 15.1148 223.561 14.3941 225.468 13.6996L224.955 12.2902C223.027 12.9924 221.16 13.7212 219.348 14.4745L219.924 15.8596ZM234.93 10.6315C236.777 10.1021 238.68 9.5953 240.642 9.11278L240.284 7.65619C238.303 8.14317 236.383 8.6548 234.516 9.18957L234.93 10.6315ZM250.361 7.02126C252.26 6.66726 254.212 6.33387 256.217 6.02213L255.987 4.53993C253.967 4.85392 252.001 5.18983 250.086 5.54664L250.361 7.02126ZM266.089 4.71688C268.027 4.50296 270.012 4.30739 272.046 4.13087L271.916 2.63649C269.871 2.81399 267.875 3.01071 265.925 3.22593L266.089 4.71688ZM281.935 3.44632C283.917 3.34211 285.941 3.25443 288.01 3.18381L287.959 1.68468C285.881 1.75561 283.847 1.84368 281.856 1.94839L281.935 3.44632ZM297.904 2.98084C298.926 2.97312 299.958 2.96924 301 2.96924L301 1.46924C299.954 1.46924 298.918 1.47314 297.892 1.48089L297.904 2.98084ZM3.10719 88.412C3.93562 88.4088 4.60455 87.7346 4.60131 86.9062C4.59807 86.0778 3.92387 85.4088 3.09545 85.4121L3.10719 88.412ZM13.129 85.3061C12.3006 85.3205 11.6409 86.0037 11.6553 86.832C11.6697 87.6603 12.3529 88.3201 13.1812 88.3056L13.129 85.3061ZM19.0204 88.1794C19.8485 88.158 20.5025 87.4693 20.4811 86.6411C20.4596 85.813 19.7709 85.159 18.9428 85.1804L19.0204 88.1794ZM29.0747 84.8386C28.247 84.8733 27.6042 85.5724 27.6388 86.4001C27.6735 87.2278 28.3726 87.8707 29.2003 87.836L29.0747 84.8386ZM35.0877 87.5601C35.915 87.5172 36.5509 86.8117 36.5079 85.9844C36.4649 85.157 35.7594 84.5212 34.9321 84.5642L35.0877 87.5601ZM44.9752 83.9496C44.1489 84.0081 43.5264 84.7255 43.5849 85.5518C43.6434 86.3782 44.3608 87.0006 45.1871 86.9421L44.9752 83.9496ZM51.0847 86.4893C51.9103 86.4209 52.5241 85.6962 52.4557 84.8706C52.3872 84.045 51.6625 83.4312 50.8369 83.4996L51.0847 86.4893ZM60.8279 82.5605C60.0041 82.6475 59.4067 83.3859 59.4937 84.2097C59.5807 85.0336 60.319 85.6309 61.1429 85.544L60.8279 82.5605ZM67.0012 84.8832C67.8237 84.7844 68.4103 84.0375 68.3115 83.215C68.2126 82.3925 67.4657 81.8058 66.6432 81.9047L67.0012 84.8832ZM76.592 80.5739C75.7725 80.6951 75.2065 81.4578 75.3277 82.2773C75.449 83.0968 76.2117 83.6628 77.0312 83.5416L76.592 80.5739ZM82.8981 82.6208C83.7153 82.4851 84.2677 81.7125 84.132 80.8953C83.9962 80.0781 83.2237 79.5256 82.4064 79.6614L82.8981 82.6208ZM92.1795 77.8745C91.3672 78.0372 90.8407 78.8277 91.0035 79.6399C91.1663 80.4522 91.9567 80.9787 92.769 80.816L92.1795 77.8745ZM98.7303 79.5529C99.5387 79.3721 100.047 78.5701 99.8666 77.7617C99.6858 76.9532 98.8838 76.4444 98.0754 76.6253L98.7303 79.5529ZM107.691 74.2723C106.891 74.4859 106.415 75.3079 106.629 76.1083C106.842 76.9088 107.664 77.3845 108.465 77.1709L107.691 74.2723ZM114.237 75.5486C115.031 75.3137 115.485 74.4792 115.25 73.6848C115.015 72.8904 114.18 72.4369 113.386 72.6718L114.237 75.5486ZM122.815 69.6328C122.033 69.9067 121.621 70.7625 121.895 71.5443C122.169 72.3262 123.025 72.738 123.807 72.4641L122.815 69.6328ZM129.508 70.3637C130.281 70.0647 130.665 69.196 130.366 68.4234C130.067 67.6508 129.198 67.2669 128.426 67.566L129.508 70.3637ZM137.54 63.7398C136.785 64.0824 136.451 64.9715 136.794 65.7258C137.137 66.4801 138.026 66.8139 138.78 66.4714L137.54 63.7398ZM144.229 63.8799C144.971 63.5108 145.273 62.6104 144.904 61.8687C144.535 61.127 143.634 60.8249 142.893 61.1939L144.229 63.8799ZM151.614 56.5289C150.896 56.9407 150.647 57.8572 151.058 58.5761C151.47 59.2949 152.387 59.5438 153.106 59.132L151.614 56.5289ZM158.291 56.0461C158.995 55.611 159.214 54.6868 158.779 53.9818C158.344 53.2769 157.42 53.0582 156.715 53.4934L158.291 56.0461ZM165.01 48.0915C164.326 48.5586 164.15 49.492 164.617 50.1761C165.084 50.8602 166.018 51.0361 166.702 50.569L165.01 48.0915ZM171.639 47.1207C172.314 46.6401 172.471 45.7034 171.991 45.0287C171.51 44.354 170.573 44.1967 169.899 44.6773L171.639 47.1207ZM177.946 38.8267C177.279 39.3176 177.136 40.2565 177.627 40.9238C178.117 41.5911 179.056 41.7342 179.724 41.2433L177.946 38.8267ZM184.547 37.7016C185.216 37.2129 185.362 36.2745 184.873 35.6056C184.384 34.9366 183.446 34.7906 182.777 35.2793L184.547 37.7016ZM190.934 29.4602C190.252 29.9307 190.08 30.8648 190.551 31.5467C191.021 32.2285 191.955 32.3999 192.637 31.9294L190.934 29.4602ZM197.573 28.6206C198.268 28.1695 198.465 27.2405 198.014 26.5457C197.563 25.8508 196.634 25.6532 195.939 26.1043L197.573 28.6206ZM204.56 20.8675C203.838 21.2743 203.583 22.1891 203.99 22.9108C204.397 23.6324 205.311 23.8876 206.033 23.4808L204.56 20.8675ZM211.242 20.6896C211.98 20.3144 212.275 19.4115 211.9 18.6729C211.524 17.9343 210.622 17.6397 209.883 18.0149L211.242 20.6896ZM219.061 13.782C218.296 14.1001 217.933 14.978 218.251 15.743C218.569 16.5079 219.447 16.8701 220.212 16.5521L219.061 13.782ZM225.725 14.4044C226.503 14.1209 226.904 13.26 226.621 12.4816C226.337 11.7032 225.476 11.302 224.698 11.5855L225.725 14.4044ZM234.31 8.46859C233.513 8.6968 233.053 9.52739 233.281 10.3238C233.509 11.1201 234.34 11.5807 235.136 11.3525L234.31 8.46859ZM240.821 9.84108C241.625 9.64323 242.117 8.83071 241.919 8.02625C241.721 7.2218 240.909 6.73004 240.104 6.92789L240.821 9.84108ZM249.948 4.80933C249.134 4.96108 248.597 5.74431 248.749 6.55872C248.9 7.37313 249.684 7.91032 250.498 7.75857L249.948 4.80933ZM256.333 6.76323C257.151 6.636 257.712 5.86926 257.585 5.05066C257.457 4.23206 256.691 3.6716 255.872 3.79882L256.333 6.76323ZM265.842 2.48046C265.019 2.57134 264.425 3.31254 264.516 4.13596C264.607 4.95939 265.348 5.55323 266.172 5.46235L265.842 2.48046ZM272.111 4.87806C272.936 4.80642 273.547 4.07929 273.475 3.25397C273.404 2.42864 272.677 1.81766 271.851 1.8893L272.111 4.87806ZM281.817 1.19943C280.989 1.24293 280.354 1.94884 280.398 2.77613C280.441 3.60341 281.147 4.23879 281.974 4.19529L281.817 1.19943ZM288.035 3.93337C288.863 3.90511 289.512 3.21102 289.483 2.38307C289.455 1.55513 288.761 0.906857 287.933 0.93512L288.035 3.93337ZM297.887 0.730907C297.058 0.737163 296.392 1.41379 296.398 2.24219C296.404 3.0706 297.081 3.73708 297.909 3.73082L297.887 0.730907ZM0 88.4181C1.04235 88.4181 2.07807 88.4161 3.10719 88.412L3.09545 85.4121C2.07027 85.4161 1.03847 85.4181 0 85.4181V88.4181ZM13.1812 88.3056C15.153 88.2713 17.0992 88.2292 19.0204 88.1794L18.9428 85.1804C17.0302 85.2299 15.0924 85.2719 13.129 85.3061L13.1812 88.3056ZM29.2003 87.836C31.1912 87.7526 33.1535 87.6606 35.0877 87.5601L34.9321 84.5642C33.0081 84.6641 31.0558 84.7557 29.0747 84.8386L29.2003 87.836ZM45.1871 86.9421C47.1846 86.8007 49.1502 86.6497 51.0847 86.4893L50.8369 83.4996C48.9146 83.6589 46.961 83.809 44.9752 83.9496L45.1871 86.9421ZM61.1429 85.544C63.1306 85.3341 65.083 85.1138 67.0012 84.8832L66.6432 81.9047C64.7396 82.1334 62.8016 82.3522 60.8279 82.5605L61.1429 85.544ZM77.0312 83.5416C79.0264 83.2463 80.9816 82.9392 82.8981 82.6208L82.4064 79.6614C80.5077 79.9768 78.57 80.2812 76.592 80.5739L77.0312 83.5416ZM92.769 80.816C94.8026 80.4084 96.789 79.9872 98.7303 79.5529L98.0754 76.6253C96.1563 77.0546 94.1917 77.4712 92.1795 77.8745L92.769 80.816ZM108.465 77.1709C110.439 76.6443 112.362 76.1032 114.237 75.5486L113.386 72.6718C111.537 73.2187 109.64 73.7525 107.691 74.2723L108.465 77.1709ZM123.807 72.4641C125.763 71.779 127.662 71.0784 129.508 70.3637L128.426 67.566C126.609 68.2689 124.74 68.9583 122.815 69.6328L123.807 72.4641ZM138.78 66.4714C140.652 65.6214 142.466 64.7569 144.229 63.8799L142.893 61.1939C141.161 62.0554 139.379 62.9047 137.54 63.7398L138.78 66.4714ZM153.106 59.132C154.884 58.1135 156.609 57.0839 158.291 56.0461L156.715 53.4934C155.06 54.5149 153.362 55.5276 151.614 56.5289L153.106 59.132ZM166.702 50.569C168.381 49.4222 170.024 48.2715 171.639 47.1207L169.899 44.6773C168.296 45.8188 166.67 46.9579 165.01 48.0915L166.702 50.569ZM179.724 41.2433C181.34 40.0547 182.942 38.874 184.547 37.7016L182.777 35.2793C181.167 36.4553 179.559 37.6401 177.946 38.8267L179.724 41.2433ZM192.637 31.9294C194.261 30.8094 195.902 29.7054 197.573 28.6206L195.939 26.1043C194.241 27.2067 192.576 28.3267 190.934 29.4602L192.637 31.9294ZM206.033 23.4808C207.724 22.5275 209.457 21.5961 211.242 20.6896L209.883 18.0149C208.058 18.9421 206.287 19.894 204.56 20.8675L206.033 23.4808ZM220.212 16.5521C221.993 15.8116 223.828 15.0949 225.725 14.4044L224.698 11.5855C222.759 12.2915 220.882 13.0244 219.061 13.782L220.212 16.5521ZM235.136 11.3525C236.975 10.8257 238.868 10.3214 240.821 9.84108L240.104 6.92789C238.115 7.4171 236.185 7.93116 234.31 8.46859L235.136 11.3525ZM250.498 7.75857C252.39 7.40598 254.334 7.07385 256.333 6.76323L255.872 3.79882C253.844 4.11394 251.871 4.45111 249.948 4.80933L250.498 7.75857ZM266.172 5.46235C268.104 5.24909 270.083 5.05408 272.111 4.87806L271.851 1.8893C269.801 2.06729 267.798 2.26458 265.842 2.48046L266.172 5.46235ZM281.974 4.19529C283.951 4.09132 285.971 4.00384 288.035 3.93337L287.933 0.93512C285.851 1.00619 283.813 1.09447 281.817 1.19943L281.974 4.19529ZM297.909 3.73082C298.93 3.72312 299.96 3.71924 301 3.71924L301 0.719238C299.952 0.719238 298.915 0.723145 297.887 0.730907L297.909 3.73082Z" fill="#7B41FF"/>
</svg>
