<svg width="30" height="311" viewBox="0 0 30 311" fill="none" xmlns="http://www.w3.org/2000/svg">
<path d="M27.5008 3.10249C27.406 3.36117 27.538 3.65264 27.7957 3.7535C28.0534 3.85436 28.3392 3.72641 28.4341 3.46773L27.5008 3.10249ZM25.163 12.7102C25.2521 12.4493 25.1136 12.1608 24.8538 12.0658C24.594 11.9709 24.3112 12.1054 24.2222 12.3663L25.163 12.7102ZM22.3601 17.9494C22.2746 18.2116 22.4169 18.4982 22.6779 18.5896C22.9389 18.681 23.2198 18.5426 23.3052 18.2804L22.3601 17.9494ZM20.3693 27.6502C20.4487 27.386 20.3001 27.1026 20.0372 27.0172C19.7743 26.9318 19.4968 27.0768 19.4173 27.341L20.3693 27.6502ZM17.7603 32.989C17.6844 33.2543 17.8369 33.5357 18.1008 33.6174C18.3647 33.6992 18.6402 33.5504 18.7161 33.2851L17.7603 32.989ZM16.1219 42.7655C16.1917 42.4984 16.033 42.2205 15.7674 42.1448C15.5018 42.0691 15.2299 42.2243 15.1601 42.4915L16.1219 42.7655ZM13.7092 48.2018C13.643 48.4699 13.8054 48.7457 14.072 48.8177C14.3385 48.8897 14.6082 48.7307 14.6744 48.4626L13.7092 48.2018ZM12.427 58.0363C12.4871 57.7666 12.3185 57.4945 12.0506 57.4287C11.7826 57.3628 11.5167 57.5281 11.4566 57.7978L12.427 58.0363ZM10.2127 63.5675C10.1562 63.8381 10.3284 64.1079 10.5972 64.1701C10.8659 64.2323 11.1295 64.0633 11.1859 63.7927L10.2127 63.5675ZM9.28851 73.4415C9.33878 73.1696 9.16068 72.9037 8.8907 72.8477C8.62072 72.7917 8.36109 72.9667 8.31082 73.2387L9.28851 73.4415ZM7.27448 79.0648C7.22789 79.3374 7.40951 79.6009 7.68015 79.6532C7.95079 79.7055 8.20797 79.5268 8.25456 79.2541L7.27448 79.0648ZM6.70852 88.9589C6.74898 88.6851 6.56159 88.4258 6.28996 88.3796C6.01834 88.3335 5.76534 88.5181 5.72488 88.7919L6.70852 88.9589ZM4.89652 94.6713C4.85975 94.9457 5.05056 95.2025 5.32271 95.2449C5.59486 95.2873 5.84529 95.0993 5.88207 94.8248L4.89652 94.6713ZM4.68721 104.565C4.71787 104.29 4.52149 104.037 4.24858 104.001C3.97568 103.965 3.72958 104.159 3.69893 104.434L4.68721 104.565ZM3.07874 110.364C3.05177 110.64 3.25146 110.89 3.52476 110.922C3.79806 110.955 4.04147 110.758 4.06843 110.482L3.07874 110.364ZM3.21995 120.275C3.24084 119.998 3.03578 119.753 2.76195 119.726C2.48812 119.7 2.24921 119.903 2.22833 120.179L3.21995 120.275ZM1.81933 126.119C1.80212 126.396 2.01035 126.639 2.28444 126.661C2.55852 126.684 2.79466 126.478 2.81187 126.201L1.81933 126.119ZM2.30812 136.041C2.31927 135.764 2.10587 135.526 1.83147 135.51C1.55708 135.493 1.3256 135.704 1.31444 135.981L2.30812 136.041ZM1.11478 141.91C1.10726 142.188 1.3237 142.423 1.59822 142.436C1.87274 142.449 2.10138 142.234 2.10891 141.957L1.11478 141.91ZM1.94834 151.833C1.94985 151.556 1.72844 151.325 1.45382 151.318C1.1792 151.312 0.955364 151.531 0.95386 151.809L1.94834 151.833ZM0.959936 157.71C0.962007 157.988 1.1863 158.215 1.46092 158.218C1.73553 158.222 1.95648 157.999 1.95441 157.722L0.959936 157.71ZM2.135 167.622C2.12695 167.344 1.89789 167.121 1.62338 167.124C1.34888 167.127 1.13287 167.354 1.14093 167.632L2.135 167.622ZM1.35088 173.56C1.36249 173.837 1.59433 174.057 1.86871 174.051C2.14308 174.044 2.3561 173.814 2.34449 173.536L1.35088 173.56ZM2.86069 183.373C2.84318 183.096 2.60681 182.881 2.33275 182.894C2.05868 182.906 1.8507 183.141 1.86821 183.418L2.86069 183.373ZM2.28416 189.398C2.30524 189.675 2.54429 189.887 2.8181 189.871C3.09191 189.855 3.2968 189.617 3.27573 189.34L2.28416 189.398ZM4.12919 199.187C4.10225 198.91 3.85885 198.704 3.58556 198.726C3.31226 198.748 3.11254 198.99 3.13948 199.267L4.12919 199.187ZM3.75015 205.155C3.78058 205.432 4.02651 205.635 4.29944 205.61C4.57237 205.584 4.76896 205.339 4.73852 205.063L3.75015 205.155ZM5.9268 214.899C5.89051 214.624 5.64042 214.425 5.3682 214.457C5.09599 214.488 4.90473 214.737 4.94102 215.013L5.9268 214.899ZM5.75637 220.921C5.79617 221.196 6.04872 221.391 6.32044 221.356C6.59216 221.321 6.78017 221.069 6.74037 220.794L5.75637 220.921ZM8.25941 230.572C8.21376 230.298 7.95722 230.108 7.68642 230.149C7.41562 230.19 7.2331 230.446 7.27875 230.721L8.25941 230.572ZM8.28791 236.561C8.33706 236.835 8.59594 237.021 8.86613 236.977C9.13632 236.932 9.3155 236.674 9.26634 236.4L8.28791 236.561ZM11.1179 246.12C11.0629 245.847 10.8001 245.667 10.5311 245.718C10.262 245.768 10.0886 246.03 10.1436 246.303L11.1179 246.12ZM11.3692 252.18C11.4279 252.453 11.6929 252.629 11.9612 252.575C12.2295 252.521 12.3994 252.256 12.3407 251.984L11.3692 252.18ZM14.532 261.635C14.4673 261.364 14.1985 261.193 13.9316 261.253C13.6647 261.314 13.5008 261.582 13.5655 261.853L14.532 261.635ZM14.9935 267.656C15.062 267.927 15.3331 268.094 15.599 268.029C15.865 267.965 16.0251 267.694 15.9566 267.424L14.9935 267.656ZM18.4977 276.98C18.4229 276.712 18.148 276.551 17.8838 276.622C17.6196 276.693 17.466 276.968 17.5409 277.236L18.4977 276.98ZM19.19 282.986C19.2689 283.254 19.5461 283.41 19.8092 283.335C20.0722 283.261 20.2215 282.983 20.1426 282.716L19.19 282.986ZM23.0748 292.19C22.9887 291.925 22.7074 291.776 22.4467 291.858C22.1859 291.94 22.0443 292.222 22.1305 292.487L23.0748 292.19ZM24.0289 298.158C24.12 298.422 24.4038 298.565 24.6629 298.478C24.922 298.391 25.0582 298.107 24.9672 297.843L24.0289 298.158ZM28.3808 307.157C28.2789 306.897 27.9895 306.766 27.7345 306.864C27.4795 306.962 27.3554 307.253 27.4574 307.512L28.3808 307.157ZM28.5345 0.31403C28.1861 1.2442 27.8415 2.17369 27.5008 3.10249L28.4341 3.46773C28.774 2.54107 29.1177 1.61372 29.4654 0.685688L28.5345 0.31403ZM24.2222 12.3663C23.5863 14.2305 22.9656 16.0916 22.3601 17.9494L23.3052 18.2804C23.9094 16.4269 24.5286 14.5701 25.163 12.7102L24.2222 12.3663ZM19.4173 27.341C18.8498 29.2275 18.2976 31.1102 17.7603 32.989L18.7161 33.2851C19.2521 31.4107 19.8031 29.5323 20.3693 27.6502L19.4173 27.341ZM15.1601 42.4915C14.6614 44.3995 14.1779 46.303 13.7092 48.2018L14.6744 48.4626C15.142 46.5682 15.6244 44.6691 16.1219 42.7655L15.1601 42.4915ZM11.4566 57.7978C11.027 59.7264 10.6125 61.6497 10.2127 63.5675L11.1859 63.7927C11.5848 61.8793 11.9984 59.9605 12.427 58.0363L11.4566 57.7978ZM8.31082 73.2387C7.95058 75.187 7.60526 77.1291 7.27448 79.0648L8.25456 79.2541C8.58457 77.3229 8.9291 75.3853 9.28851 73.4415L8.31082 73.2387ZM5.72488 88.7919C5.43415 90.759 5.15816 92.7189 4.89652 94.6713L5.88207 94.8248C6.14311 92.8769 6.41846 90.9215 6.70852 88.9589L5.72488 88.7919ZM3.69893 104.434C3.4778 106.419 3.27122 108.396 3.07874 110.364L4.06843 110.482C4.26047 108.518 4.46658 106.546 4.68721 104.565L3.69893 104.434ZM2.22833 120.179C2.07803 122.169 1.94185 124.149 1.81933 126.119L2.81187 126.201C2.93412 124.235 3.07 122.26 3.21995 120.275L2.22833 120.179ZM1.31444 135.981C1.23448 137.969 1.16809 139.945 1.11478 141.91L2.10891 141.957C2.1621 139.996 2.22834 138.024 2.30812 136.041L1.31444 135.981ZM0.95386 151.809C0.943146 153.789 0.945349 155.756 0.959936 157.71L1.95441 157.722C1.93986 155.772 1.93765 153.809 1.94834 151.833L0.95386 151.809ZM1.14093 167.632C1.19867 169.623 1.26886 171.599 1.35088 173.56L2.34449 173.536C2.26265 171.58 2.19261 169.608 2.135 167.622L1.14093 167.632ZM1.86821 183.418C1.99513 185.429 2.13402 187.423 2.28416 189.398L3.27573 189.34C3.12592 187.369 2.98733 185.38 2.86069 183.373L1.86821 183.418ZM3.13948 199.267C3.33252 201.25 3.53635 203.213 3.75015 205.155L4.73852 205.063C4.52519 203.125 4.32181 201.166 4.12919 199.187L3.13948 199.267ZM4.94102 215.013C5.20335 217.007 5.47546 218.977 5.75637 220.921L6.74037 220.794C6.46007 218.854 6.18856 216.889 5.9268 214.899L4.94102 215.013ZM7.27875 230.721C7.60744 232.698 7.94422 234.645 8.28791 236.561L9.26634 236.4C8.92342 234.488 8.58738 232.545 8.25941 230.572L7.27875 230.721ZM10.1436 246.303C10.5468 248.302 10.9558 250.262 11.3692 252.18L12.3407 251.984C11.9283 250.07 11.5202 248.115 11.1179 246.12L10.1436 246.303ZM13.5655 261.853C14.0404 263.842 14.5172 265.776 14.9935 267.656L15.9566 267.424C15.4814 265.549 15.0058 263.619 14.532 261.635L13.5655 261.853ZM17.5409 277.236C18.0982 279.236 18.6492 281.153 19.19 282.986L20.1426 282.716C19.6033 280.888 19.0537 278.975 18.4977 276.98L17.5409 277.236ZM22.1305 292.487C22.7994 294.547 23.4355 296.44 24.0289 298.158L24.9672 297.843C24.3758 296.13 23.7417 294.244 23.0748 292.19L22.1305 292.487ZM27.4574 307.512C27.8032 308.393 28.0744 309.062 28.2595 309.512C28.3521 309.736 28.4231 309.906 28.4711 310.02C28.495 310.077 28.5133 310.12 28.5256 310.149C28.5318 310.163 28.5364 310.174 28.5396 310.182C28.5412 310.185 28.5424 310.188 28.5432 310.19C28.5436 310.191 28.544 310.192 28.5442 310.192C28.5443 310.193 28.5444 310.193 28.5444 310.193C28.5445 310.193 28.5445 310.193 28.5445 310.193C28.5445 310.193 28.5445 310.193 28.5445 310.193C28.5446 310.193 28.5446 310.193 28.9999 310C29.4552 309.807 29.4552 309.807 29.4552 309.807C29.4552 309.807 29.4552 309.807 29.4552 309.807C29.4552 309.807 29.4552 309.807 29.4552 309.807C29.4552 309.807 29.4551 309.807 29.455 309.806C29.4549 309.806 29.4546 309.805 29.4543 309.805C29.4536 309.803 29.4525 309.8 29.4511 309.797C29.4482 309.79 29.4437 309.78 29.4379 309.766C29.4261 309.738 29.4084 309.697 29.3849 309.641C29.338 309.53 29.268 309.362 29.1766 309.14C28.9936 308.696 28.7245 308.032 28.3808 307.157L27.4574 307.512ZM27.0342 2.91986C26.8445 3.43724 27.1084 4.02018 27.6239 4.22189C28.1393 4.42361 28.711 4.16772 28.9007 3.65035L27.0342 2.91986ZM25.6335 12.8821C25.8115 12.3603 25.5346 11.7833 25.015 11.5934C24.4954 11.4035 23.9298 11.6725 23.7518 12.1944L25.6335 12.8821ZM21.8875 17.7839C21.7166 18.3083 22.0012 18.8816 22.5232 19.0643C23.0452 19.2471 23.6069 18.9702 23.7778 18.4459L21.8875 17.7839ZM20.8452 27.8048C21.0042 27.2764 20.7068 26.7096 20.1811 26.5388C19.6554 26.3681 19.1003 26.658 18.9413 27.1864L20.8452 27.8048ZM17.2824 32.8409C17.1306 33.3716 17.4355 33.9343 17.9634 34.0979C18.4913 34.2614 19.0422 33.9638 19.194 33.4331L17.2824 32.8409ZM16.6028 42.9026C16.7425 42.3683 16.4251 41.8125 15.8939 41.6611C15.3627 41.5097 14.8188 41.8202 14.6792 42.3544L16.6028 42.9026ZM13.2266 48.0714C13.0942 48.6077 13.4191 49.1592 13.9521 49.3033C14.4852 49.4473 15.0246 49.1293 15.157 48.593L13.2266 48.0714ZM12.9122 58.1556C13.0324 57.6162 12.6953 57.072 12.1594 56.9403C11.6234 56.8085 11.0915 57.139 10.9714 57.6785L12.9122 58.1556ZM9.72601 63.4549C9.61319 63.9961 9.95748 64.5357 10.495 64.66C11.0325 64.7844 11.5598 64.4465 11.6726 63.9053L9.72601 63.4549ZM9.77735 73.5429C9.87791 72.999 9.5217 72.4673 8.98174 72.3553C8.44178 72.2433 7.92254 72.5934 7.82197 73.1373L9.77735 73.5429ZM6.78444 78.9701C6.69125 79.5154 7.05449 80.0423 7.59577 80.1469C8.13706 80.2515 8.65141 79.8942 8.7446 79.3488L6.78444 78.9701ZM7.20034 89.0424C7.28127 88.4948 6.90648 87.9761 6.36323 87.8839C5.81998 87.7917 5.31398 88.1608 5.23305 88.7084L7.20034 89.0424ZM4.40375 94.5946C4.33021 95.1434 4.71183 95.657 5.25613 95.7418C5.80043 95.8266 6.3013 95.4504 6.37484 94.9016L4.40375 94.5946ZM5.18134 104.631C5.24267 104.08 4.84992 103.575 4.3041 103.503C3.75829 103.43 3.26611 103.818 3.20478 104.368L5.18134 104.631ZM2.58389 110.305C2.52996 110.857 2.92934 111.357 3.47593 111.422C4.02252 111.487 4.50935 111.092 4.56328 110.541L2.58389 110.305ZM3.71576 120.322C3.75753 119.77 3.34741 119.279 2.79975 119.226C2.2521 119.173 1.77428 119.579 1.73252 120.131L3.71576 120.322ZM1.32305 126.078C1.28863 126.632 1.70511 127.117 2.25328 127.162C2.80145 127.208 3.27373 126.796 3.30815 126.242L1.32305 126.078ZM2.80496 136.071C2.82727 135.517 2.40046 135.041 1.85166 135.008C1.30287 134.975 0.8399 135.397 0.8176 135.951L2.80496 136.071ZM0.617715 141.887C0.602671 142.442 1.03556 142.912 1.58459 142.938C2.13364 142.964 2.59092 142.535 2.60597 141.98L0.617715 141.887ZM2.44559 151.846C2.44859 151.29 2.00579 150.829 1.45654 150.816C0.907305 150.802 0.459627 151.241 0.45662 151.796L2.44559 151.846ZM0.462695 157.704C0.466844 158.26 0.915442 158.715 1.46467 158.721C2.0139 158.728 2.45578 158.283 2.45164 157.727L0.462695 157.704ZM2.63204 167.616C2.61593 167.061 2.15781 166.616 1.6088 166.621C1.05979 166.627 0.627786 167.082 0.643891 167.637L2.63204 167.616ZM0.85407 173.571C0.877294 174.127 1.34097 174.566 1.88973 174.553C2.43849 174.54 2.86452 174.08 2.84129 173.525L0.85407 173.571ZM3.35692 183.351C3.32191 182.796 2.84918 182.367 2.30105 182.391C1.75292 182.416 1.33696 182.886 1.37197 183.441L3.35692 183.351ZM1.78838 189.427C1.83052 189.981 2.30863 190.405 2.85625 190.373C3.40388 190.341 3.81366 189.865 3.77152 189.311L1.78838 189.427ZM4.62404 199.147C4.57016 198.594 4.08337 198.181 3.53678 198.225C2.99018 198.269 2.59075 198.753 2.64463 199.307L4.62404 199.147ZM3.25596 205.202C3.31683 205.755 3.80869 206.161 4.35455 206.11C4.90042 206.059 5.29358 205.57 5.23271 205.017L3.25596 205.202ZM6.41969 214.842C6.34711 214.291 5.84692 213.894 5.30249 213.957C4.75806 214.02 4.37555 214.519 4.44813 215.07L6.41969 214.842ZM5.26437 220.984C5.34398 221.535 5.84906 221.925 6.39251 221.855C6.93596 221.785 7.31197 221.281 7.23237 220.73L5.26437 220.984ZM8.74974 230.498C8.65844 229.949 8.14536 229.57 7.60376 229.652C7.06215 229.734 6.69711 230.245 6.78842 230.795L8.74974 230.498ZM7.79868 236.641C7.897 237.19 8.41477 237.562 8.95514 237.473C9.49552 237.384 9.85388 236.867 9.75556 236.319L7.79868 236.641ZM11.6051 246.029C11.4949 245.483 10.9695 245.122 10.4314 245.223C9.89327 245.324 9.54634 245.849 9.65647 246.395L11.6051 246.029ZM10.8834 252.278C11.0008 252.823 11.5309 253.177 12.0674 253.068C12.604 252.96 12.9438 252.431 12.8265 251.886L10.8834 252.278ZM15.0153 261.526C14.8858 260.984 14.3482 260.642 13.8144 260.763C13.2806 260.883 12.9528 261.42 13.0823 261.962L15.0153 261.526ZM14.512 267.772C14.6489 268.313 15.1911 268.647 15.723 268.519C16.2549 268.39 16.5751 267.848 16.4382 267.308L14.512 267.772ZM18.9762 276.853C18.8265 276.316 18.2767 275.995 17.7483 276.136C17.2198 276.277 16.9128 276.827 17.0625 277.364L18.9762 276.853ZM18.7138 283.122C18.8715 283.657 19.4259 283.969 19.952 283.82C20.4781 283.67 20.7767 283.116 20.6189 282.581L18.7138 283.122ZM23.547 292.041C23.3747 291.511 22.8123 291.214 22.2907 291.378C21.7692 291.542 21.4861 292.105 21.6583 292.636L23.547 292.041ZM23.5598 298.316C23.7419 298.843 24.3095 299.129 24.8277 298.955C25.3459 298.781 25.6184 298.213 25.4363 297.685L23.5598 298.316ZM28.8425 306.979C28.6387 306.46 28.0599 306.198 27.5499 306.394C27.0399 306.59 26.7918 307.171 26.9957 307.69L28.8425 306.979ZM28.0691 0.128202C27.7202 1.05944 27.3753 1.99 27.0342 2.91986L28.9007 3.65035C29.2402 2.72476 29.5836 1.79848 29.9308 0.871517L28.0691 0.128202ZM23.7518 12.1944C23.1151 14.0608 22.4938 15.924 21.8875 17.7839L23.7778 18.4459C24.3812 16.5945 24.9997 14.7399 25.6335 12.8821L23.7518 12.1944ZM18.9413 27.1864C18.3732 29.0751 17.8203 30.96 17.2824 32.8409L19.194 33.4331C19.7294 31.5609 20.2797 29.6847 20.8452 27.8048L18.9413 27.1864ZM14.6792 42.3544C14.1799 44.2647 13.6958 46.1704 13.2266 48.0714L15.157 48.593C15.624 46.7008 16.1059 44.8039 16.6028 42.9026L14.6792 42.3544ZM10.9714 57.6785C10.5413 59.6094 10.1263 61.5349 9.72601 63.4549L11.6726 63.9053C12.071 61.9942 12.4841 60.0775 12.9122 58.1556L10.9714 57.6785ZM7.82197 73.1373C7.46132 75.0878 7.11559 77.0322 6.78444 78.9701L8.7446 79.3488C9.07423 77.4199 9.41836 75.4845 9.77735 73.5429L7.82197 73.1373ZM5.23305 88.7084C4.94199 90.6778 4.66568 92.6399 4.40375 94.5946L6.37484 94.9016C6.63558 92.9559 6.91061 91.0028 7.20034 89.0424L5.23305 88.7084ZM3.20478 104.368C2.98341 106.356 2.77658 108.335 2.58389 110.305L4.56328 110.541C4.7551 108.579 4.96098 106.609 5.18134 104.631L3.20478 104.368ZM1.73252 120.131C1.58206 122.123 1.44572 124.106 1.32305 126.078L3.30815 126.242C3.43025 124.279 3.56598 122.305 3.71576 120.322L1.73252 120.131ZM0.8176 135.951C0.737552 137.941 0.671093 139.92 0.617715 141.887L2.60597 141.98C2.65911 140.022 2.72527 138.052 2.80496 136.071L0.8176 135.951ZM0.45662 151.796C0.445893 153.778 0.448102 155.748 0.462695 157.704L2.45164 157.727C2.4371 155.78 2.43491 153.819 2.44559 151.846L0.45662 151.796ZM0.643891 167.637C0.701697 169.63 0.771963 171.608 0.85407 173.571L2.84129 173.525C2.75954 171.57 2.68958 169.601 2.63204 167.616L0.643891 167.637ZM1.37197 183.441C1.49902 185.454 1.63807 187.45 1.78838 189.427L3.77152 189.311C3.62186 187.342 3.48343 185.355 3.35692 183.351L1.37197 183.441ZM2.64463 199.307C2.83788 201.292 3.04193 203.257 3.25596 205.202L5.23271 205.017C5.0196 203.081 4.81645 201.124 4.62404 199.147L2.64463 199.307ZM4.44813 215.07C4.71075 217.067 4.98315 219.038 5.26437 220.984L7.23237 220.73C6.95238 218.793 6.68116 216.83 6.41969 214.842L4.44813 215.07ZM6.78842 230.795C7.11747 232.774 7.45462 234.723 7.79868 236.641L9.75556 236.319C9.41302 234.409 9.07735 232.469 8.74974 230.498L6.78842 230.795ZM9.65647 246.395C10.0601 248.396 10.4696 250.357 10.8834 252.278L12.8265 251.886C12.4145 249.974 12.0069 248.021 11.6051 246.029L9.65647 246.395ZM13.0823 261.962C13.5577 263.953 14.0351 265.89 14.512 267.772L16.4382 267.308C15.9635 265.435 15.4885 263.507 15.0153 261.526L13.0823 261.962ZM17.0625 277.364C17.6205 279.366 18.1722 281.286 18.7138 283.122L20.6189 282.581C20.0803 280.755 19.5314 278.845 18.9762 276.853L17.0625 277.364ZM21.6583 292.636C22.3283 294.699 22.9654 296.594 23.5598 298.316L25.4363 297.685C24.846 295.976 24.2129 294.092 23.547 292.041L21.6583 292.636ZM26.9957 307.69C27.3425 308.574 27.6149 309.245 27.801 309.697C27.8941 309.923 27.9656 310.094 28.0141 310.21C28.0384 310.267 28.0569 310.311 28.0695 310.34C28.0758 310.355 28.0806 310.366 28.0839 310.374C28.0855 310.378 28.0868 310.381 28.0877 310.383C28.0881 310.384 28.0885 310.385 28.0887 310.385C28.0889 310.386 28.089 310.386 28.0891 310.386C28.0891 310.386 28.0891 310.386 28.0892 310.386C28.0892 310.386 28.0892 310.386 28.0892 310.386C28.0892 310.387 28.0892 310.387 28.9999 310C29.9106 309.614 29.9106 309.614 29.9106 309.614C29.9106 309.614 29.9106 309.614 29.9106 309.614C29.9106 309.614 29.9106 309.614 29.9106 309.614C29.9106 309.614 29.9105 309.613 29.9105 309.613C29.9104 309.613 29.9101 309.613 29.9098 309.612C29.9092 309.61 29.9082 309.608 29.9068 309.605C29.904 309.598 29.8997 309.588 29.894 309.575C29.8825 309.548 29.865 309.507 29.8418 309.452C29.7954 309.341 29.726 309.175 29.6351 308.955C29.4532 308.513 29.1851 307.852 28.8425 306.979L26.9957 307.69Z" fill="#7B41FF"/>
</svg>
