<svg width="56" height="68" viewBox="0 0 56 68" fill="none" xmlns="http://www.w3.org/2000/svg">
<path d="M4.6325 25.9892C12.659 4.80781 23.4243 1.5 27.852 1.5C32.299 1.5 43.3833 4.8303 51.4013 25.9892C56.8976 40.4934 54.4304 50.5312 49.0936 56.9413C43.6765 63.4477 35.0749 66.5 27.852 66.5C20.631 66.5 12.1162 63.4494 6.78214 56.9495C1.52439 50.5426 -0.866929 40.5017 4.6325 25.9892Z" stroke="url(#paint0_linear_8849:616801)" stroke-width="3"/>
<path d="M4.6325 25.9892C12.659 4.80781 23.4243 1.5 27.852 1.5C32.299 1.5 43.3833 4.8303 51.4013 25.9892C56.8976 40.4934 54.4304 50.5312 49.0936 56.9413C43.6765 63.4477 35.0749 66.5 27.852 66.5C20.631 66.5 12.1162 63.4494 6.78214 56.9495C1.52439 50.5426 -0.866929 40.5017 4.6325 25.9892Z" stroke="#7B41FF" stroke-width="3"/>
<path d="M23.785 48.3919C23.082 48.4294 22.372 48.3351 21.6549 48.109C20.9379 47.8829 20.3641 47.5904 19.9337 47.2314C19.5018 46.8432 19.2911 46.4726 19.3016 46.1195C19.3102 45.1791 19.7831 44.6839 20.7205 44.6338L21.1183 44.6567C21.9462 44.7594 22.6971 44.7928 23.3708 44.7568C24.5718 44.6928 25.6762 44.4723 26.6843 44.0954C27.72 43.6876 28.529 43.1598 29.1114 42.5118C29.8878 41.6479 30.2627 40.967 30.2361 40.469C30.2064 39.9125 29.7674 39.3925 28.9191 38.909C28.3114 38.5301 27.5458 38.2185 26.6221 37.974C25.6984 37.7295 24.9444 37.6376 24.3602 37.6981C23.9239 37.7801 23.2092 37.5979 22.216 37.1516C22.0309 36.9852 21.8526 36.6716 21.6811 36.2107C21.5081 35.7206 21.3892 35.4185 21.3243 35.3044C21.2548 35.1025 21.5306 34.7647 22.1515 34.2909C22.7725 33.8172 24.0361 33.0007 25.9424 31.8415L27.8194 30.6839C28.6732 30.1683 29.3551 29.7354 29.8651 29.385C30.4045 29.0331 30.8136 28.7176 31.0924 28.4383C31.3943 28.0403 31.5414 27.7681 31.5336 27.6217C31.5258 27.4752 31.4316 27.3627 31.2512 27.2842C31.0692 27.1764 30.7562 27.0903 30.3121 27.0259C30.0469 27.0107 29.68 27.0155 29.2113 27.0405C28.3326 27.0874 27.8979 27.1987 27.9073 27.3745L27.7315 27.3839C27.5218 27.3069 26.9537 27.396 26.0273 27.651C25.1302 27.9045 24.6701 28.0906 24.6471 28.2093C24.6225 28.2988 24.2642 28.4648 23.5721 28.7073C22.88 28.9499 22.4608 29.075 22.3143 29.0829C22.1062 29.0352 21.8369 28.6677 21.5064 27.9803C21.176 27.293 21.0485 26.8298 21.1239 26.5907C21.1731 26.4119 21.5375 26.084 22.217 25.6071C22.8966 25.1302 23.5222 24.7443 24.094 24.4495C24.7013 24.2702 25.7041 24.0698 27.1023 23.8484C28.5282 23.596 29.5055 23.4705 30.0344 23.4716C31.4482 23.5431 32.5661 23.8506 33.3883 24.3943C34.2088 24.9086 34.766 25.7161 35.0597 26.8167C35.1339 27.1065 35.1749 27.3246 35.1827 27.471C35.239 28.5255 34.6401 29.6884 33.386 30.9597C32.5385 31.5924 32.1148 31.9088 32.1148 31.9088C31.3259 32.5384 30.6887 32.9836 30.2032 33.2445C29.9505 33.4636 29.3788 33.7585 28.4879 34.1291C27.8283 34.4287 27.5 34.6078 27.5031 34.6664C27.6804 34.6863 28.0204 34.7269 28.5231 34.7882C29.0257 34.8495 29.3842 34.9626 29.5987 35.1274C30.345 35.352 31.0869 35.7677 31.8243 36.3746C32.5616 36.9815 33.1656 37.5662 33.6363 38.1286C33.8987 38.6433 34.044 39.1643 34.0722 39.6916C34.1378 40.9218 33.7656 42.2048 32.9556 43.5405C32.1441 44.8469 31.128 45.8999 29.9076 46.6994C28.6855 47.4696 26.6447 48.0337 23.785 48.3919Z" fill="white"/>
<defs>
<linearGradient id="paint0_linear_8849:616801" x1="10.489" y1="55.8352" x2="43.4113" y2="46.777" gradientUnits="userSpaceOnUse">
<stop stop-color="#FF0099"/>
<stop offset="1" stop-color="#AF01FD"/>
</linearGradient>
</defs>
</svg>
