<svg width="77" height="39" viewBox="0 0 77 39" fill="none" xmlns="http://www.w3.org/2000/svg">
<g opacity="0.5">
<path fill-rule="evenodd" clip-rule="evenodd" d="M8.64139 15.2358C8.63597 15.2502 8.61299 15.3118 8.59034 15.3727C8.32566 16.084 8.2269 16.351 8.04852 16.8376C7.93382 17.1505 7.76584 17.6057 7.67521 17.8493C7.5846 18.0929 7.48014 18.3761 7.44309 18.4787C7.40604 18.5812 7.24475 19.0191 7.08466 19.4518C6.92457 19.8845 6.70378 20.4824 6.59399 20.7804C5.93657 22.5655 5.78793 22.9685 5.61921 23.4239C5.51632 23.7015 5.43213 23.9363 5.43213 23.9455C5.43213 23.96 5.59881 23.9618 6.66084 23.9593L7.88954 23.9563L7.95001 23.7931C7.98327 23.7034 8.08335 23.4333 8.17241 23.1929L8.33432 22.7559H9.67575H11.0172L11.2427 23.359L11.4682 23.9621H12.6993H13.9304L13.9224 23.9359C13.9179 23.9215 13.8674 23.7838 13.8101 23.63C13.7528 23.4761 13.6145 23.1011 13.5027 22.7967C13.391 22.4922 13.2113 22.0045 13.1034 21.7128C12.8644 21.0668 12.4008 19.8099 11.5193 17.4181C11.3563 16.9758 11.1655 16.4592 11.0953 16.2701C11.0252 16.081 10.9113 15.7716 10.8423 15.5825C10.7733 15.3934 10.7118 15.2322 10.7057 15.2241C10.697 15.2127 10.4767 15.2096 9.67296 15.2096H8.65123L8.64139 15.2358ZM14.2156 15.2174C14.2113 15.2216 14.2078 17.191 14.2078 19.5937V23.9622L15.3498 23.9593L16.4918 23.9563L16.4944 21.7478C16.4959 20.5331 16.4985 19.5281 16.5002 19.5146C16.5024 19.4979 16.5617 19.5869 16.6828 19.7884C16.7814 19.9526 16.9353 20.2076 17.0247 20.355C17.1142 20.5025 17.2536 20.7332 17.3346 20.8678C17.4156 21.0025 17.5724 21.2621 17.6831 21.4447C17.7938 21.6274 17.9916 21.9552 18.1226 22.1732C18.2537 22.3911 18.3716 22.5814 18.3847 22.596C18.4372 22.6545 18.6365 22.678 18.7524 22.6394C18.8251 22.6152 18.8247 22.6157 19.0344 22.2664C19.1268 22.1125 19.3514 21.7402 19.5336 21.4389C19.7158 21.1376 19.9789 20.7024 20.1183 20.4716C20.6684 19.5608 20.7111 19.4924 20.7143 19.5159C20.716 19.5287 20.7187 20.5331 20.7201 21.7478L20.7227 23.9563L21.8647 23.9593L23.0068 23.9622L23.0038 19.5888L23.0009 15.2154L21.9272 15.2124C21.2064 15.2104 20.8387 15.2135 20.8083 15.2217C20.7463 15.2384 20.6938 15.2879 20.639 15.3813C20.6136 15.4246 20.4237 15.7407 20.2172 16.0837C19.8324 16.7225 19.3671 17.4969 18.8815 18.3067C18.7307 18.5583 18.6046 18.7641 18.6014 18.7641C18.5983 18.7642 18.3725 18.3905 18.0998 17.9338C17.8271 17.4771 17.3629 16.6996 17.0682 16.206C16.7172 15.6182 16.5182 15.296 16.4913 15.272C16.4687 15.2519 16.4271 15.2296 16.399 15.2225C16.3426 15.2083 14.2296 15.2033 14.2156 15.2174ZM23.4833 19.5919V23.9627L26.0956 23.9589L28.708 23.9551L28.8417 23.9295C29.323 23.8371 29.7466 23.6161 30.1066 23.2696C30.7531 22.6474 31.0029 21.7144 30.7467 20.8795C30.5753 20.3214 30.2457 19.8531 29.807 19.5445C29.7683 19.5173 29.7367 19.4917 29.7367 19.4876C29.7367 19.4835 29.7633 19.4541 29.7959 19.4222C30.2814 18.9482 30.5499 18.2357 30.5037 17.544C30.4673 16.9982 30.2641 16.4918 29.9127 16.0707C29.6198 15.7199 29.0747 15.4001 28.5662 15.2809C28.3051 15.2196 28.3983 15.2217 25.8515 15.2214L23.4833 15.2212V19.5919ZM27.6076 17.0208C27.8891 17.1194 28.1227 17.365 28.1962 17.6395C28.2065 17.678 28.2181 17.7595 28.2218 17.8206C28.2381 18.0837 28.1415 18.3171 27.9366 18.5097C27.8288 18.6111 27.7306 18.6716 27.6038 18.715L27.5108 18.7467L26.6477 18.7501L25.7847 18.7534V17.8668V16.9802L26.6477 16.9836L27.5108 16.9869L27.6076 17.0208ZM9.87018 19.0439C9.96656 19.3676 10.0775 19.7426 10.1167 19.8772C10.1558 20.0118 10.2267 20.2514 10.2742 20.4097C10.3216 20.568 10.3605 20.7004 10.3605 20.704C10.3605 20.7076 10.0513 20.7105 9.67343 20.7105C9.11344 20.7105 8.98748 20.7077 8.99222 20.6953C8.99954 20.6762 9.38218 19.4119 9.522 18.9449C9.67938 18.4191 9.67801 18.4234 9.68683 18.44C9.69129 18.4485 9.7738 18.7202 9.87018 19.0439ZM27.6071 20.3678C27.7879 20.4052 27.9166 20.478 28.0571 20.6223C28.1642 20.7323 28.2326 20.8504 28.2736 20.996C28.3255 21.1802 28.3021 21.4442 28.2192 21.6097C28.0959 21.8559 27.8878 22.0234 27.627 22.0864C27.5395 22.1076 27.483 22.1089 26.6594 22.109L25.7847 22.1091V21.2291V20.3492H26.6511C27.3982 20.3492 27.5299 20.3518 27.6071 20.3678Z" fill="white" fill-opacity="0.4"/>
<path d="M31.9116 15.1777H68.0053C70.4159 15.1777 72.3701 17.1319 72.3701 19.5425V19.5425C72.3701 21.9531 70.4159 23.9073 68.0053 23.9073H31.9116V15.1777Z" fill="white" fill-opacity="0.12"/>
<path fill-rule="evenodd" clip-rule="evenodd" d="M35.1474 15.9697V16.394L35.0398 16.4381C33.9381 16.8896 33.1636 17.8889 32.9818 19.0935C32.9508 19.2989 32.9396 19.6759 32.9583 19.8871C33.0664 21.1087 33.7767 22.149 34.8623 22.6756C34.9391 22.7129 35.0347 22.7559 35.0747 22.7712L35.1474 22.7991V23.2222V23.6454H35.4559H35.7643V23.3088C35.7643 23.1237 35.7667 22.9699 35.7697 22.9669C35.7726 22.964 35.8342 22.9681 35.9065 22.9761C35.9787 22.9841 36.0837 22.9909 36.1397 22.9912L36.2415 22.9918V23.3186V23.6454H36.55C36.7196 23.6454 36.8578 23.6414 36.8571 23.6366C36.8563 23.6318 36.8563 23.475 36.8571 23.2881L36.8584 22.9483L36.9603 22.9283C37.456 22.8314 37.9592 22.5888 38.3948 22.2368C38.5433 22.1168 38.8048 21.8597 38.9258 21.7148L38.993 21.6341L38.9355 21.5818C38.9038 21.5531 38.7757 21.4452 38.6509 21.3421C38.5261 21.239 38.3486 21.0913 38.2566 21.014C37.8834 20.7003 37.5736 20.4474 37.5626 20.4474C37.5562 20.4474 37.5265 20.4776 37.4966 20.5145C37.1356 20.9597 36.7053 21.1754 36.2183 21.1553C35.8475 21.1401 35.53 20.9969 35.258 20.7223C35.1204 20.5834 35.0377 20.4666 34.9617 20.3039C34.845 20.054 34.8067 19.8803 34.8065 19.6012C34.8063 19.3305 34.8426 19.1618 34.9506 18.9316C35.1016 18.6099 35.3608 18.3387 35.6538 18.1957C35.8726 18.0889 36.0326 18.0517 36.2765 18.0509C36.4075 18.0504 36.4703 18.0559 36.5575 18.0752C36.747 18.1172 36.96 18.2095 37.1548 18.334C37.2057 18.3665 37.254 18.3932 37.2621 18.3932C37.2743 18.3932 37.811 17.9281 38.0286 17.729C38.0609 17.6995 38.1054 17.6596 38.1275 17.6403C38.3661 17.4325 38.6507 17.1763 38.6501 17.1699C38.6491 17.1596 38.5183 17.0485 38.3668 16.9293C38.0077 16.6468 37.5511 16.4173 37.1256 16.3055C37.0523 16.2863 36.9622 16.2646 36.9255 16.2573L36.8588 16.244L36.8557 15.8976L36.8526 15.5511L36.5471 15.548L36.2415 15.5449V15.8719V16.1989L36.1397 16.199C36.0431 16.1991 35.8657 16.2146 35.7963 16.2291L35.7643 16.2358V15.8905V15.5453H35.4559H35.1474V15.9697ZM67.7435 16.1475C67.417 16.1806 67.2436 16.2125 67.0184 16.2807C66.2528 16.5128 65.6229 16.9659 65.1691 17.6112C64.7254 18.2421 64.5087 19.0139 64.5595 19.7821C64.6073 20.5046 64.8549 21.1519 65.294 21.7016C65.5482 22.02 65.8012 22.2464 66.1457 22.464C66.6133 22.7592 67.0842 22.922 67.6417 22.9809C67.8111 22.9989 68.3055 22.9886 68.4651 22.9638C68.7906 22.9134 69.0602 22.8389 69.3018 22.7328C70.1275 22.3702 70.7438 21.7738 71.0967 20.9959C71.3214 20.5006 71.4144 20.0368 71.4007 19.4795C71.3876 18.9456 71.283 18.523 71.0436 18.0372C70.5478 17.0307 69.5586 16.3255 68.4244 16.1699C68.2971 16.1524 67.8425 16.1375 67.7435 16.1475ZM39.6402 19.5953V22.9918H40.6354H41.6305L41.6334 21.9617L41.6364 20.9317L42.2317 20.9287L42.827 20.9257L42.9838 21.2263C43.0701 21.3917 43.2026 21.6478 43.2784 21.7954C43.3541 21.9431 43.4885 22.2031 43.5771 22.3732C43.6656 22.5433 43.7732 22.7521 43.816 22.8371L43.894 22.9918H44.968C45.5586 22.9918 46.0419 22.9887 46.0419 22.9849C46.0419 22.9812 45.9928 22.8853 45.9328 22.7719C45.8728 22.6585 45.7385 22.4003 45.6343 22.1981C45.5302 21.9959 45.3627 21.6729 45.2622 21.4803C45.1616 21.2877 45.0373 21.0487 44.986 20.9492C44.7832 20.556 44.6721 20.3416 44.5959 20.1964C44.552 20.113 44.5046 20.0219 44.4905 19.994L44.4649 19.9433L44.5114 19.9075C44.6067 19.834 44.8289 19.5971 44.9126 19.4796C45.0853 19.2374 45.2222 18.9166 45.2761 18.6281C45.3092 18.4507 45.3118 18.1182 45.2814 17.9496C45.1633 17.2945 44.8216 16.8135 44.2471 16.4936C44.0227 16.3687 43.7398 16.2674 43.4887 16.222C43.3647 16.1996 43.3034 16.1989 41.5005 16.1989H39.6402V19.5953ZM45.0642 16.2044C45.0642 16.2075 45.5618 17.2111 46.1699 18.4347L47.2757 20.6594V21.8256V22.9918H48.2534H49.2311V21.8193V20.6469L50.3155 18.4783C50.9119 17.2856 51.4118 16.2862 51.4264 16.2573L51.4529 16.2048L50.3572 16.2018C49.7545 16.2001 49.2578 16.2028 49.2532 16.2076C49.2444 16.2171 49.0622 16.6017 48.6962 17.3836C48.3342 18.1569 48.2605 18.3115 48.2538 18.3112C48.2504 18.311 48.232 18.2755 48.213 18.2324C48.194 18.1892 48.1057 18.0016 48.0168 17.8154C47.8506 17.4676 47.5807 16.8974 47.489 16.7008C47.4605 16.6398 47.3948 16.5019 47.3429 16.3944L47.2485 16.1989H46.1564C45.5557 16.1989 45.0642 16.2014 45.0642 16.2044ZM52.1141 16.2064C52.1096 16.2108 52.106 17.7394 52.106 19.6031V22.9918H53.0836H54.0613L54.0643 21.9793L54.0672 20.9667L54.8238 20.9601C55.6424 20.9529 55.6653 20.9513 55.9412 20.879C56.8772 20.6337 57.5956 19.9373 57.7932 19.0836C57.8671 18.7644 57.86 18.3581 57.7749 18.0346C57.633 17.4953 57.2613 16.9883 56.7616 16.6526C56.4667 16.4546 56.1038 16.3087 55.7142 16.2316L55.5804 16.2051L53.8512 16.2017C52.9002 16.1999 52.1185 16.202 52.1141 16.2064ZM58.6124 17.0023V17.8056L58.6985 17.8893L58.7845 17.973H59.6529H60.5213V20.4824V22.9918H61.4932H62.4651V20.4824V17.973H63.3334H64.2018L64.2879 17.8893L64.3739 17.8056V17.0023V16.1989H61.4932H58.6124V17.0023ZM42.8334 17.8246C43.206 17.9561 43.3819 18.3503 43.2205 18.692C43.1696 18.7998 43.0508 18.9274 42.9469 18.9858C42.803 19.0667 42.7847 19.0687 42.1747 19.0694L41.6306 19.0701V18.436C41.6306 18.0872 41.6344 17.7979 41.6391 17.7932C41.6438 17.7885 41.8939 17.7864 42.1949 17.7885L42.7421 17.7924L42.8334 17.8246ZM55.3958 17.8929C55.5418 17.9557 55.6755 18.0867 55.7545 18.2442C55.8072 18.3493 55.823 18.4327 55.8163 18.5714C55.8113 18.6761 55.8069 18.6936 55.7631 18.7823C55.6729 18.9647 55.5087 19.1003 55.3301 19.1397C55.2995 19.1464 55.0327 19.1514 54.687 19.1515L54.0963 19.1518V18.5036V17.8553L54.7103 17.8587L55.3243 17.8621L55.3958 17.8929ZM68.3227 18.2135C68.6539 18.2687 68.9737 18.4687 69.1879 18.7544C69.6158 19.3252 69.5487 20.1206 69.0311 20.6142C68.4765 21.1431 67.6148 21.1318 67.0731 20.5886C66.913 20.428 66.8082 20.2611 66.7389 20.0564C66.6815 19.8866 66.6644 19.7825 66.6641 19.6012C66.6634 19.165 66.8458 18.7775 67.181 18.5024C67.498 18.2423 67.8941 18.1421 68.3227 18.2135Z" fill="white"/>
</g>
</svg>
