<svg width="272" height="140" viewBox="0 0 272 140" fill="none" xmlns="http://www.w3.org/2000/svg">
<g opacity="0.5">
<g clip-path="url(#clip0_12246_636778)">
<path d="M27.3195 78.0374L30.0755 77.598V52.1554L27 51.756L27.1598 49H46.4115L45.9322 56.7087L42.0978 56.5889L41.8582 51.756H35.9069V63.2191H38.5031L39.1022 60.583L41.7783 60.6629V68.5713H39.1022L38.4632 65.8553H35.867V77.9974H41.8582L42.4174 72.7252L46.4514 72.845L46.771 80.8732H27.1997L27.3195 78.0374Z" fill="white"/>
<path d="M48.5683 80.9123L48.6881 78.5557L50.8449 78.1164V62.06L48.3286 61.8203V59.4238L54.6393 58.5052L55.1186 59.8632V60.7818C56.6364 59.1842 58.4737 58.2256 60.8303 58.2256C64.2652 58.2256 66.8215 60.3025 66.8215 64.4165V78.0764L69.0981 78.5158L68.9783 80.8723H61.4693V65.6147C61.4693 63.418 60.6705 62.1798 58.6734 62.1798C57.9944 62.1798 57.5151 62.2996 56.9959 62.4993C56.6764 62.7789 56.3568 63.1783 56.0772 63.5378V78.1563L58.3539 78.5957L58.1941 80.9522H48.5683V80.9123Z" fill="white"/>
<path d="M169.231 80.9123L169.311 78.5557L171.468 78.1164V62.06L168.952 61.8203V59.4238L175.262 58.5052L175.742 59.8632V60.7818C177.259 59.1842 179.097 58.2256 181.453 58.2256C184.888 58.2256 187.445 60.3025 187.445 64.4165V78.0764L189.721 78.5158L189.601 80.8723H182.132V65.6147C182.132 63.418 181.333 62.1798 179.336 62.1798C178.657 62.1798 178.178 62.2996 177.659 62.4993C177.339 62.7789 177.02 63.1783 176.74 63.5378V78.1563L179.017 78.5957L178.857 80.9522H169.231V80.9123Z" fill="white"/>
<path d="M81.0005 80.4731C80.1218 80.8326 78.5641 81.232 76.527 81.232C73.851 81.232 71.3746 80.0338 71.3746 76.1195V62.0602L68.8184 61.6607L68.9382 58.8648L71.814 58.745L73.0521 54.4713L76.7268 54.3115V58.9048H80.6809L80.4014 61.7007L76.7667 62.1001V76.1595C76.7667 77.3178 77.4058 78.0766 78.604 78.0766H80.7608L81.0005 80.4731Z" fill="white"/>
<path d="M230.501 80.9129L230.581 78.5963L232.618 78.117V62.0605L230.222 61.8209V59.4244L236.772 58.5058L237.211 60.0635V60.5827C238.929 59.3046 241.246 58.4658 244.041 58.4658L245 59.3046L244.321 65.3757L240.726 65.2559L240.367 62.0206C239.528 62.1404 238.729 62.3801 238.05 62.8594V78.1569L240.327 78.6362L240.167 80.9528H230.501V80.9129Z" fill="white"/>
<path d="M136.439 80.9129L136.559 78.5963L138.596 78.117V62.0605L136.2 61.8209V59.4244L142.75 58.5058L143.189 60.0635V60.5827C144.907 59.3046 147.224 58.4658 150.019 58.4658L150.978 59.3046L150.219 65.3757L146.624 65.2559L146.265 62.0206C145.426 62.1404 144.627 62.3801 143.948 62.8594V78.1569L146.225 78.6362L146.065 80.9528H136.439V80.9129Z" fill="white"/>
<path d="M82.5985 80.9129L82.7184 78.5963L84.7554 78.117V62.0605L82.3589 61.8209V59.4244L88.9093 58.5058L89.3486 60.0635V60.5827C91.0661 59.3046 93.3827 58.4658 96.1387 58.4658L97.0973 59.3046L96.4182 65.3757L92.8235 65.2559L92.464 62.0206C91.6253 62.1404 90.8265 62.3801 90.1475 62.8594V78.1569L92.4241 78.6362L92.2643 80.9528H82.5985V80.9129Z" fill="white"/>
<path d="M103.288 71.1275C103.288 74.9619 104.966 77.9176 108.281 77.9176C109.998 77.9176 111.356 77.5581 112.954 76.7992L113.872 78.9161C112.235 80.2342 109.838 81.2327 106.843 81.2327C101.011 81.2327 97.6562 76.2001 97.6562 69.7296C97.6562 64.2177 100.093 58.1865 106.763 58.1865C112.594 58.1865 114.791 63.5786 114.791 69.5698L114.232 71.0077L103.288 71.1275ZM103.208 68.5713L109.918 68.2517C109.798 65.5757 109.239 61.3419 106.603 61.3419C105.964 61.3419 105.525 61.4617 104.726 61.8611C103.647 63.6984 103.208 67.0136 103.208 68.5713Z" fill="white"/>
<path d="M196.112 71.1275C196.112 74.9619 197.789 77.9176 201.104 77.9176C202.822 77.9176 204.18 77.5581 205.778 76.7992L206.696 78.9161C205.059 80.2342 202.662 81.2327 199.666 81.2327C193.835 81.2327 190.48 76.2001 190.48 69.7296C190.48 64.2177 192.916 58.1865 199.587 58.1865C205.418 58.1865 207.615 63.5786 207.615 69.5698L207.056 71.0077L196.112 71.1275ZM196.032 68.5713L202.742 68.2517C202.622 65.5757 202.063 61.3419 199.427 61.3419C198.788 61.3419 198.348 61.4617 197.55 61.8611C196.471 63.6984 196.032 67.0136 196.032 68.5713Z" fill="white"/>
<path d="M157.129 71.1275C157.129 74.9619 158.806 77.9176 162.121 77.9176C163.839 77.9176 165.197 77.5581 166.795 76.7992L167.713 78.9161C166.076 80.2342 163.679 81.2327 160.684 81.2327C154.852 81.2327 151.497 76.2001 151.497 69.7296C151.497 64.2177 153.933 58.1865 160.604 58.1865C166.435 58.1865 168.632 63.5786 168.632 69.5698L168.073 71.0077L157.129 71.1275ZM157.049 68.5713L163.759 68.2517C163.639 65.5757 163.08 61.3419 160.444 61.3419C159.805 61.3419 159.366 61.4617 158.567 61.8611C157.488 63.6984 157.009 67.0136 157.049 68.5713Z" fill="white"/>
<path d="M222.712 80.9125L222.153 78.9953C220.675 80.3932 219.238 81.232 217.001 81.232C213.566 81.232 210.49 79.5145 210.49 74.7615V61.501L207.974 61.2613V59.1444L215.243 58.3057L215.803 60.2229V74.1224C215.803 76.5589 216.801 77.837 218.758 77.837C219.317 77.837 220.036 77.7571 220.675 77.5175C221.035 77.158 221.394 76.7186 221.674 76.2793V61.501L219.078 61.2613V59.1444L226.427 58.3057L226.986 60.2229V78.1166L229.263 78.5559L228.983 80.9125H222.712Z" fill="white"/>
<path d="M125.695 78.0365C124.537 78.0365 123.618 77.8368 122.899 77.4374V63.3381C123.219 62.8588 123.578 62.4194 123.938 62.02C124.617 61.7804 125.216 61.7005 125.935 61.7005C128.93 61.7005 129.45 64.736 129.45 70.1681C129.45 75.4004 128.651 76.8383 128.451 77.4374C127.612 77.8368 126.734 78.0365 125.695 78.0365ZM134.642 69.2095C134.642 62.4594 132.645 58.2256 127.652 58.2256C124.337 58.2256 122.779 60.1428 122.14 60.9416V60.1827L121.581 58.2655L115.071 59.1842V61.5008L117.587 61.8203V89.0603L115.43 89.4997L115.31 91.7763H124.936L125.096 89.4997L122.819 89.0603V80.433C123.738 80.9522 125.016 81.2718 126.414 81.2718C134.562 81.2718 134.642 73.0039 134.642 69.2095Z" fill="white"/>
</g>
</g>
<defs>
<clipPath id="clip0_12246_636778">
<rect width="218" height="42.7772" fill="white" transform="translate(27 49)"/>
</clipPath>
</defs>
</svg>
