<svg width="900" height="900" viewBox="0 0 900 900" fill="none" xmlns="http://www.w3.org/2000/svg">
<path d="M475.571 192.584H385.831C375.538 192.584 370.392 195.154 370.392 200.296V798H269.072C247.2 798 232.726 794.787 225.649 788.36C219.216 781.29 216 766.829 216 744.978V155.95C216 133.456 219.216 118.674 225.649 111.604C232.726 104.535 247.2 101 269.072 101H475.571V192.584ZM529.608 495.292H621.278C647.654 495.292 664.701 501.397 672.421 513.609C680.14 525.177 684 543.815 684 569.523V712.201C684 754.618 672.742 780.647 650.227 790.288C639.291 795.429 625.46 798 608.734 798H408.99V707.38H490.045C516.421 707.38 529.608 698.061 529.608 679.423V495.292ZM517.064 101H608.734C634.466 101 650.87 106.784 657.946 118.353C665.666 129.921 669.526 148.881 669.526 175.231V360.326C669.526 397.603 662.771 424.596 649.262 441.306C636.396 458.016 609.056 466.371 567.241 466.371H408.99V374.787H480.396C496.478 374.787 506.449 370.931 510.309 363.219C514.812 355.506 517.064 343.616 517.064 327.549V101Z" fill="black"/>
</svg>
