<svg width="32" height="32" viewBox="0 0 32 32" fill="none" xmlns="http://www.w3.org/2000/svg">
<path d="M32 16C32 7.16344 24.8366 0 16 0C7.16344 0 0 7.16344 0 16C0 24.8366 7.16344 32 16 32C24.8366 32 32 24.8366 32 16Z" fill="#6178EE"/>
<path fill-rule="evenodd" clip-rule="evenodd" d="M21.7824 15.6434L16.3259 7.10938V13.3251L21.7824 15.6434ZM10.6677 15.6473L16.1243 7.11328V13.329L10.6677 15.6473ZM10.7966 15.8019L16.1193 13.5211V18.7299L10.7966 15.8019ZM16.324 13.5211L21.6468 15.8019L16.324 18.7299V13.5211ZM16.2232 19.3571L16.2222 19.3582V19.3572L10.667 16.1658L16.2222 23.7778V23.7748L16.2232 23.7777L21.7817 16.1657L16.2232 19.3571Z" fill="white"/>
</svg>
