<svg width="330" height="170" viewBox="0 0 330 170" fill="none" xmlns="http://www.w3.org/2000/svg">
<path fill-rule="evenodd" clip-rule="evenodd" d="M31.4452 63.8229L26.6912 65.1468V82.1089V99.0709H31.478H36.2648V80.7762C36.2648 70.7141 36.25 62.4854 36.232 62.4902C36.214 62.4951 34.06 63.0948 31.4452 63.8229ZM152.525 65.8165L148.197 67.0305L148.158 78.9523C148.118 91.0051 148.168 92.7706 148.599 94.4286C149.054 96.1831 149.98 97.499 151.243 98.1864C152.876 99.0751 156.031 99.4735 159.416 99.2187C160.526 99.1351 161.471 99.0234 161.516 98.9704C161.613 98.8569 163.37 92.3614 163.316 92.3169C163.295 92.3003 162.748 92.3703 162.098 92.4725C160.576 92.7119 158.992 92.6313 158.182 92.2729C157.692 92.0562 157.514 91.8849 157.311 91.4373C157.068 90.9037 157.055 90.5334 157.052 84.3499L157.049 77.8254H159.406H161.763L161.959 77.1369C162.55 75.0526 163.344 72.1795 163.344 72.1217C163.344 72.0851 161.928 72.055 160.197 72.055H157.049V68.3174C157.049 66.2617 157.005 64.5849 156.951 64.5911C156.897 64.5973 154.905 65.1487 152.525 65.8165ZM43.4777 72.3055L39.3467 73.456L39.3132 86.2635L39.2798 99.0709H43.7394H48.199L48.2009 91.1694C48.203 82.7395 48.2299 82.3285 48.8635 81.0869C49.281 80.2682 50.1168 79.4427 50.9344 79.0411C51.6127 78.7081 51.7999 78.6779 53.1825 78.6779C54.4808 78.6779 54.7649 78.7176 55.2241 78.9635C56.0446 79.4026 56.6683 80.1829 57.0072 81.1941C57.3049 82.082 57.307 82.1406 57.35 90.581L57.3931 99.0743L61.8123 99.0398L66.2314 99.0053L66.269 90.8088C66.309 82.0794 66.206 79.3203 65.7768 77.6447C64.958 74.447 63.0197 72.4642 59.9157 71.6493C58.4521 71.265 55.9239 71.1689 54.5847 71.4466C53.2281 71.7279 51.7605 72.3274 50.696 73.0352C49.8684 73.5852 48.6426 74.765 48.1713 75.4648C47.9602 75.7782 47.9502 75.6905 47.9435 73.4648C47.9382 71.6886 47.8979 71.1391 47.7727 71.1461C47.6826 71.1509 45.7498 71.6727 43.4777 72.3055ZM171.279 71.6768C170.269 71.963 168.365 72.4971 167.049 72.8638L164.656 73.5304V86.3007V99.0709H169.049H173.442V85.104C173.442 74.0126 173.409 71.139 173.278 71.1467C173.188 71.1521 172.288 71.3906 171.279 71.6768ZM180.59 72.3043L176.524 73.4436L176.491 86.2572L176.457 99.0709H180.851H185.245L185.247 91.7596C185.247 87.7384 185.302 83.9745 185.368 83.3954C185.618 81.2306 186.448 79.8584 187.959 79.1151C188.81 78.6963 188.911 78.6779 190.358 78.6779C191.726 78.6779 191.923 78.7088 192.452 79.0057C193.185 79.4169 193.833 80.2563 194.101 81.1426C194.455 82.3078 194.55 84.5888 194.554 91.9563L194.557 99.0709H198.95H203.343L203.343 89.6612C203.342 79.6264 203.295 78.7188 202.682 76.8843C201.778 74.1742 199.855 72.3745 197.088 71.648C195.616 71.2612 193.096 71.1684 191.708 71.4497C189.181 71.9617 186.755 73.3989 185.637 75.0474C185.385 75.4175 185.136 75.7218 185.082 75.7237C185.027 75.7255 184.983 74.6943 184.983 73.4321C184.983 71.676 184.945 71.1403 184.819 71.1511C184.729 71.1588 182.826 71.6777 180.59 72.3043ZM228.589 72.2946L224.523 73.4321L224.458 74.3501L224.392 75.2681L224.095 74.7902C223.932 74.5274 223.391 73.928 222.893 73.4584C220.873 71.5528 218.166 70.8848 214.825 71.4675C209.057 72.4734 205.315 77.6056 205.311 84.5172C205.309 89.4161 207.003 93.5528 209.877 95.6632C211.389 96.7738 212.765 97.34 214.803 97.6903C218.215 98.2768 220.979 97.5277 223.07 95.4495C223.424 95.0969 223.888 94.5726 224.1 94.2841L224.487 93.7595L224.423 95.989C224.372 97.7634 224.303 98.3925 224.085 99.0709C223.24 101.698 221.65 102.833 218.974 102.719C217.88 102.672 217.584 102.606 216.837 102.247C215.815 101.754 214.999 100.928 214.535 99.9135C214.356 99.5222 214.147 99.202 214.071 99.202C213.994 99.202 212.204 99.6827 210.093 100.27L206.254 101.338L206.436 101.854C207.942 106.123 212.32 108.501 218.687 108.51C225.472 108.52 230.458 105.59 232.201 100.57C232.928 98.4767 232.896 99.1615 232.945 84.6122C232.983 73.693 232.96 71.139 232.823 71.1471C232.73 71.1526 230.825 71.6691 228.589 72.2946ZM103.822 71.47C97.9685 72.4982 93.4985 76.7041 92.2592 82.3499C91.6369 85.1846 92.011 89.0909 93.1713 91.8784C94.5822 95.2674 97.7855 98.0238 101.575 99.1093C106.962 100.652 113.646 99.5879 118.358 96.4366C119.498 95.6737 119.528 95.6411 119.394 95.2955C119.007 94.2983 117.181 89.3103 117.181 89.2509C117.181 89.213 116.761 89.6094 116.248 90.1319C114.733 91.6741 112.946 92.7382 110.793 93.3801C109.418 93.7898 106.709 93.9566 105.5 93.7057C104.486 93.4951 103.268 92.8916 102.583 92.2601C102.039 91.7588 101.312 90.6321 101.448 90.5007C101.482 90.4678 105.493 89.3401 110.362 87.9947C115.23 86.6492 119.406 85.4881 119.64 85.4144C120.062 85.2816 120.066 85.2722 120.066 84.4476C120.066 81.6715 119.007 78.3603 117.444 76.2517C115.728 73.937 113.37 72.4403 110.195 71.6501C108.746 71.2894 105.39 71.1946 103.822 71.47ZM131.148 71.3546C127.609 71.7792 125.034 72.7754 123.336 74.3771C121.845 75.7832 121.187 77.3922 121.203 79.5959C121.219 81.9266 121.699 83.1609 123.139 84.5794C124.701 86.1168 125.959 86.6143 131.27 87.7953C135.32 88.696 136.233 88.9684 136.955 89.4917C137.496 89.8834 137.904 90.6667 137.899 91.3032C137.89 92.4003 136.924 93.3742 135.379 93.8436C134.053 94.2463 132.126 94.1562 130.986 93.6382C129.643 93.0276 128.523 91.5836 128.257 90.1203C128.208 89.8498 128.106 89.6285 128.03 89.6285C127.859 89.6285 120.678 91.6086 120.603 91.6764C120.464 91.8018 120.928 93.2875 121.398 94.228C122.838 97.1052 125.841 98.9085 130.361 99.6113C130.938 99.701 132.384 99.7745 133.574 99.7745C134.764 99.7745 136.21 99.701 136.787 99.6113C143.171 98.6188 146.689 95.3295 146.689 90.3526C146.689 88.2788 146.034 86.7152 144.539 85.2204C142.973 83.6534 141.757 83.1696 137.312 82.3441C132.931 81.5307 131.31 80.9755 130.448 79.9936C129.639 79.0717 130.008 77.9357 131.315 77.3272C131.982 77.0172 132.221 76.9785 133.443 76.9829C135.31 76.9896 136.161 77.2629 137.07 78.1484C137.599 78.6636 137.795 78.9727 137.962 79.5521L138.177 80.2951L139.056 80.0437C139.539 79.9054 141.279 79.4237 142.922 78.9732L145.909 78.1542L145.83 77.7604C145.786 77.5437 145.549 76.9336 145.303 76.4048C143.802 73.1803 139.217 71.2238 133.312 71.2882C132.338 71.2988 131.365 71.3288 131.148 71.3546ZM65.7724 72.1534C65.7724 72.2074 67.7838 78.286 70.2422 85.6613L74.7121 99.0709H79.8158C82.6228 99.0709 84.9196 99.052 84.9196 99.0291C84.9196 99.006 86.9539 92.9274 89.4403 85.5211L93.961 72.055H89.4464H84.9319L84.7979 72.5468C83.5908 76.9739 80.0032 89.7184 79.944 89.7888C79.9002 89.841 78.9946 86.7427 77.9315 82.9037C76.8684 79.0647 75.7562 75.0533 75.4598 73.9894L74.9211 72.055H70.3467C67.8308 72.055 65.7724 72.0992 65.7724 72.1534ZM107.196 77.307C108.876 77.5795 110.293 78.6422 111.083 80.2214C111.859 81.7741 112.307 81.5 106.253 83.1785C103.343 83.985 100.894 84.6449 100.81 84.6449C100.595 84.6449 100.618 83.4733 100.855 82.3537C101.432 79.6291 103.218 77.6998 105.515 77.3191C105.909 77.2538 106.26 77.1939 106.296 77.1859C106.332 77.1781 106.737 77.2326 107.196 77.307ZM221.591 78.5177C223.454 79.4296 224.593 81.8024 224.587 84.7548C224.58 87.8476 223.226 90.1561 221.029 90.8235C219.735 91.2168 218.114 91.1395 217.085 90.6357C215.19 89.7087 214.187 87.6238 214.204 84.6449C214.217 82.1152 214.839 80.3295 216.099 79.1961C217.078 78.3158 217.818 78.0802 219.474 78.1213C220.671 78.151 220.948 78.203 221.591 78.5177ZM248.326 81.0493C247.01 81.3966 245.96 82.0057 244.973 82.9947C243.557 84.4144 242.776 86.019 242.417 88.2471C242.217 89.4832 242.328 92.1321 242.624 93.2349C242.919 94.3324 243.746 95.9845 244.431 96.8469C246.663 99.6565 251.276 100.401 254.16 98.4166C255.007 97.8338 255.881 96.7875 256.39 95.7457C256.873 94.7574 257.274 93.4244 257.132 93.281C257.085 93.2341 256.626 93.0784 256.112 92.9348L255.176 92.6736L255.035 93.3784C254.697 95.0575 253.598 96.5597 252.219 97.2246C251.215 97.7091 250.44 97.8241 249.433 97.6383C247.132 97.2143 245.381 95.342 244.701 92.5792C244.399 91.3512 244.398 88.9594 244.699 87.74C245.218 85.6333 246.534 83.8433 248.094 83.1233C248.836 82.7803 249.05 82.7434 250.293 82.7437C251.428 82.744 251.779 82.7941 252.286 83.0283C253.445 83.5631 254.492 84.8952 254.877 86.326C254.993 86.7578 255.08 86.8727 255.251 86.8229C255.373 86.7873 255.828 86.6591 256.26 86.5379C256.693 86.4168 257.062 86.3055 257.08 86.2906C257.097 86.2756 257.017 85.9434 256.901 85.5525C256.191 83.1603 254.648 81.6381 252.331 81.0427C251.353 80.7911 249.292 80.7945 248.326 81.0493ZM265.375 81.0493C263.203 81.6223 261.498 83.0593 260.487 85.1695C259.6 87.0218 259.419 87.8817 259.425 90.2186C259.43 91.799 259.485 92.3837 259.707 93.1923C260.112 94.6724 260.865 96.0925 261.767 97.0764C263.277 98.724 265.017 99.4925 267.277 99.5096C269.665 99.5275 271.168 98.9408 272.734 97.3785C273.892 96.2244 274.632 94.9023 275.104 93.1463C275.516 91.6144 275.515 88.7376 275.101 87.2023C274.223 83.9396 272.2 81.7612 269.38 81.0413C268.401 80.7912 266.338 80.7953 265.375 81.0493ZM284.473 80.9805C283.095 81.3229 281.776 82.2833 280.909 83.5761L280.326 84.4455V82.7643V81.0832L279.902 81.1762C279.669 81.2273 279.241 81.3379 278.951 81.4219L278.424 81.5746L278.39 90.328L278.357 99.0815L279.439 99.0435L280.522 99.0053L280.591 93.0382C280.655 87.4091 280.675 87.025 280.936 86.2562C281.735 83.9078 283.084 82.8168 285.329 82.704C286.336 82.6534 286.546 82.6845 287.189 82.9788C288.023 83.3609 288.598 84.0531 288.943 85.0927C289.136 85.6747 289.17 86.6075 289.212 92.4153L289.261 99.0709H290.293H291.325L291.373 93.0054C291.415 87.5834 291.445 86.8635 291.658 86.2187C292.457 83.7941 293.582 82.8113 295.682 82.7048C297.219 82.6269 298.12 82.8922 298.872 83.6441C299.932 84.7037 299.918 84.5959 299.967 92.2841L300.01 99.0709H301.053H302.096V92.4003C302.096 88.4681 302.041 85.4439 301.963 85.0331C301.672 83.4979 300.7 82.0677 299.538 81.4667C297.864 80.5999 295.286 80.6246 293.52 81.5241C292.829 81.8758 291.787 82.8708 291.378 83.5681L291.043 84.1396L290.662 83.4416C290.13 82.4678 289.451 81.8152 288.464 81.3286C287.705 80.9543 287.486 80.9092 286.3 80.8832C285.575 80.8672 284.752 80.911 284.473 80.9805ZM269.61 83.1051C271.22 83.8475 272.551 85.7049 273.034 87.8838C273.293 89.051 273.303 91.23 273.054 92.4039C272.309 95.9204 269.53 98.1728 266.579 97.6531C263.563 97.1218 261.571 94.1987 261.558 90.2842C261.55 87.841 262.214 85.8108 263.485 84.398C264.635 83.1178 265.751 82.6629 267.604 82.7176C268.628 82.7478 268.986 82.8169 269.61 83.1051ZM237.048 97.2349V99.0709H238.425H239.802V97.2349V95.3988H238.425H237.048V97.2349Z" fill="white"/>
<path fill-rule="evenodd" clip-rule="evenodd" d="M169.508 61.835C167.236 62.4724 165.156 63.0582 164.885 63.1368L164.393 63.2796V67.2112V71.1428L164.753 71.0524C164.951 71.0029 167.061 70.4223 169.442 69.7624L173.77 68.5625L173.805 64.6044C173.824 62.4274 173.795 60.6529 173.739 60.6612C173.684 60.6693 171.78 61.1975 169.508 61.835Z" fill="white" fill-opacity="0.6"/>
</svg>
