<svg width="56" height="68" viewBox="0 0 56 68" fill="none" xmlns="http://www.w3.org/2000/svg">
<path d="M4.6325 25.9892C12.659 4.80781 23.4243 1.5 27.852 1.5C32.299 1.5 43.3833 4.8303 51.4013 25.9892C56.8976 40.4934 54.4304 50.5312 49.0936 56.9413C43.6765 63.4477 35.0749 66.5 27.852 66.5C20.631 66.5 12.1162 63.4494 6.78214 56.9495C1.52439 50.5426 -0.866929 40.5017 4.6325 25.9892Z" stroke="url(#paint0_linear_8849:616745)" stroke-width="3"/>
<path d="M4.6325 25.9892C12.659 4.80781 23.4243 1.5 27.852 1.5C32.299 1.5 43.3833 4.8303 51.4013 25.9892C56.8976 40.4934 54.4304 50.5312 49.0936 56.9413C43.6765 63.4477 35.0749 66.5 27.852 66.5C20.631 66.5 12.1162 63.4494 6.78214 56.9495C1.52439 50.5426 -0.866929 40.5017 4.6325 25.9892Z" stroke="#7B41FF" stroke-width="3"/>
<path d="M28.0581 48.9478C27.9441 49.0126 27.8138 49.049 27.6674 49.0568C27.3452 49.074 26.9458 49.0218 26.4694 48.9004C26.0222 48.7774 25.6906 48.6188 25.4746 48.4247C25.291 48.2876 25.1514 48.1482 25.0557 48.0064C24.96 47.8646 24.9028 47.618 24.8841 47.2665C24.8591 46.7978 24.9249 46.104 25.0815 45.185C25.1904 44.4742 25.3525 43.6578 25.5677 42.7357C25.7813 41.7843 25.925 41.1744 25.9988 40.9061C26.2269 40.7764 26.6776 39.313 27.3509 36.5158C27.7058 34.9106 28.1171 33.2584 28.5846 31.5591C28.7814 30.8436 28.9698 30.246 29.1499 29.7664C29.3576 29.256 29.4877 28.9406 29.54 28.8203C29.3412 28.9484 28.8874 29.2517 28.1785 29.7301C27.4697 30.2085 26.7501 30.761 26.0198 31.3875C25.7085 31.6097 25.1877 32.034 24.4574 32.6605C23.6716 33.3487 23.0938 33.8054 22.7239 34.0308L22.0074 34.6418C21.9227 34.7051 21.7678 34.8309 21.5429 35.0191C21.3472 35.2058 21.1777 35.3323 21.0344 35.3987C20.9203 35.4636 20.8194 35.4983 20.7315 35.503C20.6143 35.5093 20.4948 35.4716 20.373 35.39C19.9441 35.0603 19.5522 34.5966 19.1972 33.9986C18.8422 33.4007 18.7447 32.9506 18.9048 32.6483C18.9619 32.6159 19.5112 32.1753 20.5528 31.3266C21.5389 30.5396 22.1876 30.035 22.4989 29.8128C22.5575 29.8097 22.7131 29.6986 22.9658 29.4794C23.2169 29.231 23.4557 29.0274 23.6823 28.8684C23.7639 28.7466 24.4249 28.1972 25.6653 27.2204L27.9026 25.3826C28.8657 24.7144 29.7749 24.1371 30.6302 23.6509C31.5148 23.1631 32.0164 22.9307 32.1352 22.9537C32.3125 22.9736 32.7204 23.1869 33.359 23.5934C33.996 23.9707 34.3354 24.2757 34.3772 24.5085C34.442 24.6225 34.4768 24.7235 34.4815 24.8114C34.4924 25.0164 34.3948 25.3888 34.1886 25.9285C33.9546 26.4992 33.5401 27.8138 32.9449 29.8724C32.379 31.9295 31.9516 33.5532 31.6626 34.7436C31.4982 35.5161 31.2406 36.4699 30.8899 37.6049C30.8161 37.8732 30.7046 38.261 30.5554 38.7683C30.4339 39.2448 30.3279 39.7351 30.2373 40.2394C30.0081 40.8978 29.7628 41.8069 29.5015 42.9664C29.2403 44.126 29.0429 45.1059 28.9093 45.9061C28.734 46.4736 28.5879 47.0395 28.4711 47.6039C28.3067 48.3764 28.1691 48.8244 28.0581 48.9478Z" fill="white"/>
<defs>
<linearGradient id="paint0_linear_8849:616745" x1="10.489" y1="55.8352" x2="43.4113" y2="46.777" gradientUnits="userSpaceOnUse">
<stop stop-color="#FF0099"/>
<stop offset="1" stop-color="#AF01FD"/>
</linearGradient>
</defs>
</svg>
