<svg width="334" height="120" viewBox="0 0 334 120" fill="none" xmlns="http://www.w3.org/2000/svg">
    <path d="M3.19992 104.633C3.59662 104.753 4.01482 104.528 4.13399 104.131C4.25317 103.734 4.02819 103.316 3.63149 103.197L3.19992 104.633ZM13.2659 105.943C12.8659 105.835 12.4543 106.072 12.3465 106.472C12.2386 106.872 12.4754 107.283 12.8754 107.391L13.2659 105.943ZM18.7324 108.916C19.1342 109.017 19.5416 108.773 19.6424 108.371C19.7432 107.969 19.4992 107.562 19.0975 107.461L18.7324 108.916ZM28.832 109.751C28.4275 109.662 28.0275 109.918 27.9386 110.323C27.8498 110.727 28.1058 111.127 28.5103 111.216L28.832 109.751ZM34.4504 112.464C34.8565 112.545 35.2518 112.282 35.3332 111.876C35.4146 111.47 35.1514 111.075 34.7452 110.993L34.4504 112.464ZM44.5664 112.805C44.1579 112.737 43.771 113.012 43.7022 113.42C43.6333 113.829 43.9086 114.216 44.3171 114.285L44.5664 112.805ZM50.3218 115.238C50.7315 115.299 51.1131 115.017 51.1741 114.607C51.2352 114.197 50.9526 113.816 50.5429 113.755L50.3218 115.238ZM60.4582 115.071C60.0468 115.023 59.6744 115.318 59.6265 115.729C59.5786 116.141 59.8733 116.513 60.2847 116.561L60.4582 115.071ZM66.309 117.203C66.7213 117.243 67.0878 116.941 67.1277 116.529C67.1675 116.117 66.8656 115.75 66.4533 115.71L66.309 117.203ZM76.4381 116.51C76.0247 116.484 75.6683 116.798 75.6421 117.211C75.6158 117.624 75.9297 117.981 76.343 118.007L76.4381 116.51ZM82.37 118.329C82.7838 118.347 83.1338 118.026 83.1518 117.612C83.1698 117.199 82.8488 116.849 82.435 116.831L82.37 118.329ZM92.4612 117.096C92.047 117.092 91.7081 117.425 91.7041 117.839C91.7001 118.253 92.0327 118.592 92.4469 118.596L92.4612 117.096ZM98.459 118.593C98.8732 118.588 99.2054 118.249 99.2009 117.835C99.1964 117.42 98.857 117.088 98.4428 117.093L98.459 118.593ZM108.48 116.812C108.066 116.831 107.746 117.181 107.765 117.595C107.784 118.009 108.134 118.329 108.548 118.31L108.48 116.812ZM114.58 117.975C114.993 117.947 115.306 117.59 115.279 117.177C115.252 116.764 114.894 116.451 114.481 116.478L114.58 117.975ZM124.448 115.646C124.036 115.688 123.736 116.055 123.777 116.468C123.819 116.88 124.187 117.18 124.599 117.138L124.448 115.646ZM130.63 116.465C131.042 116.415 131.334 116.041 131.284 115.63C131.234 115.219 130.86 114.926 130.448 114.977L130.63 116.465ZM140.366 113.589C139.957 113.653 139.678 114.037 139.742 114.446C139.807 114.855 140.191 115.135 140.6 115.07L140.366 113.589ZM146.556 114.067C146.964 113.993 147.235 113.604 147.162 113.196C147.089 112.788 146.699 112.517 146.291 112.59L146.556 114.067ZM156.127 110.649C155.722 110.736 155.465 111.135 155.552 111.54C155.64 111.945 156.038 112.203 156.443 112.115L156.127 110.649ZM162.324 110.784C162.727 110.688 162.977 110.284 162.881 109.881C162.785 109.478 162.381 109.229 161.978 109.324L162.324 110.784ZM171.683 106.842C171.284 106.952 171.049 107.365 171.158 107.764C171.268 108.163 171.68 108.399 172.08 108.289L171.683 106.842ZM177.906 106.626C178.303 106.508 178.53 106.091 178.412 105.694C178.294 105.297 177.877 105.07 177.48 105.188L177.906 106.626ZM187.033 102.175C186.64 102.307 186.428 102.732 186.56 103.125C186.691 103.517 187.116 103.729 187.509 103.598L187.033 102.175ZM193.216 101.626C193.606 101.487 193.809 101.057 193.67 100.667C193.531 100.277 193.102 100.074 192.712 100.213L193.216 101.626ZM202.096 96.6833C201.71 96.8357 201.522 97.2714 201.674 97.6566C201.826 98.0418 202.262 98.2305 202.647 98.0782L202.096 96.6833ZM208.241 95.801C208.623 95.6409 208.803 95.2015 208.643 94.8194C208.483 94.4374 208.043 94.2574 207.661 94.4174L208.241 95.801ZM216.834 90.3957C216.457 90.5682 216.292 91.0134 216.465 91.39C216.637 91.7665 217.082 91.9319 217.459 91.7593L216.834 90.3957ZM222.937 89.1832C223.31 89.0033 223.467 88.555 223.287 88.1819C223.107 87.8088 222.658 87.6522 222.285 87.8322L222.937 89.1832ZM231.242 83.3312C230.874 83.5232 230.733 83.9764 230.925 84.3434C231.116 84.7104 231.57 84.8524 231.937 84.6604L231.242 83.3312ZM237.253 81.8145C237.616 81.6155 237.749 81.1597 237.55 80.7964C237.351 80.4331 236.895 80.2999 236.532 80.4989L237.253 81.8145ZM245.239 75.5467C244.882 75.7572 244.764 76.217 244.974 76.5738C245.185 76.9305 245.645 77.0491 246.001 76.8386L245.239 75.5467ZM251.192 73.7091C251.545 73.4918 251.655 73.0298 251.437 72.6772C251.22 72.3245 250.758 72.2147 250.405 72.4319L251.192 73.7091ZM258.857 67.0415C258.511 67.2697 258.416 67.7349 258.644 68.0806C258.872 68.4263 259.337 68.5215 259.683 68.2933L258.857 67.0415ZM264.683 64.9258C265.024 64.6912 265.111 64.2243 264.876 63.8829C264.641 63.5416 264.174 63.455 263.833 63.6896L264.683 64.9258ZM272.003 57.8868C271.669 58.1318 271.597 58.6012 271.842 58.9351C272.087 59.2691 272.556 59.3411 272.89 59.0961L272.003 57.8868ZM277.741 55.4665C278.07 55.2152 278.134 54.7446 277.883 54.4153C277.631 54.0859 277.161 54.0226 276.831 54.2738L277.741 55.4665ZM284.707 48.0716C284.385 48.3329 284.337 48.8052 284.598 49.1267C284.859 49.4481 285.331 49.4968 285.653 49.2356L284.707 48.0716ZM290.303 45.3835C290.62 45.1164 290.66 44.6432 290.393 44.3266C290.125 44.0101 289.652 43.9701 289.336 44.2373L290.303 45.3835ZM296.896 37.6525C296.588 37.9294 296.562 38.4036 296.839 38.7116C297.116 39.0197 297.59 39.045 297.898 38.7681L296.896 37.6525ZM302.345 34.6961C302.648 34.4135 302.664 33.9389 302.382 33.6361C302.099 33.3333 301.624 33.3168 301.322 33.5994L302.345 34.6961ZM308.536 26.6515C308.242 26.9435 308.241 27.4184 308.533 27.7121C308.825 28.0059 309.3 28.0072 309.593 27.7152L308.536 26.6515ZM313.855 23.395C314.143 23.0974 314.135 22.6225 313.838 22.3345C313.54 22.0465 313.065 22.0544 312.777 22.3521L313.855 23.395ZM319.623 15.0395C319.345 15.3465 319.368 15.8208 319.676 16.0988C319.983 16.3768 320.457 16.3533 320.735 16.0463L319.623 15.0395ZM324.752 11.5179C325.023 11.2052 324.99 10.7315 324.678 10.4598C324.365 10.1881 323.891 10.2214 323.619 10.5341L324.752 11.5179ZM330.056 2.85619C329.796 3.17834 329.846 3.65057 330.168 3.91094C330.49 4.17131 330.963 4.12123 331.223 3.79908L330.056 2.85619ZM0.278095 103.742C1.2535 104.044 2.22745 104.341 3.19992 104.633L3.63149 103.197C2.66309 102.906 1.69321 102.61 0.721844 102.309L0.278095 103.742ZM12.8754 107.391C14.8339 107.919 16.7863 108.427 18.7324 108.916L19.0975 107.461C17.1599 106.975 15.216 106.469 13.2659 105.943L12.8754 107.391ZM28.5103 111.216C30.4971 111.652 32.4772 112.068 34.4504 112.464L34.7452 110.993C32.781 110.599 30.8099 110.185 28.832 109.751L28.5103 111.216ZM44.3171 114.285C46.326 114.623 48.3276 114.941 50.3218 115.238L50.5429 113.755C48.5581 113.459 46.5659 113.142 44.5664 112.805L44.3171 114.285ZM60.2847 116.561C62.3006 116.796 64.3088 117.01 66.309 117.203L66.4533 115.71C64.4629 115.518 62.4645 115.305 60.4582 115.071L60.2847 116.561ZM76.343 118.007C78.3604 118.135 80.3694 118.242 82.37 118.329L82.435 116.831C80.4445 116.744 78.4455 116.638 76.4381 116.51L76.343 118.007ZM92.4469 118.596C94.4599 118.616 96.464 118.614 98.459 118.593L98.4428 117.093C96.458 117.114 94.4641 117.116 92.4612 117.096L92.4469 118.596ZM108.548 118.31C110.568 118.219 112.579 118.107 114.58 117.975L114.481 116.478C112.49 116.609 110.49 116.721 108.48 116.812L108.548 118.31ZM124.599 117.138C126.62 116.934 128.63 116.71 130.63 116.465L130.448 114.977C128.459 115.22 126.459 115.443 124.448 115.646L124.599 117.138ZM140.6 115.07C142.597 114.755 144.582 114.421 146.556 114.067L146.291 112.59C144.327 112.942 142.352 113.275 140.366 113.589L140.6 115.07ZM156.443 112.115C158.416 111.69 160.376 111.246 162.324 110.784L161.978 109.324C160.04 109.784 158.089 110.226 156.127 110.649L156.443 112.115ZM172.08 108.289C174.035 107.753 175.977 107.198 177.906 106.626L177.48 105.188C175.56 105.757 173.628 106.309 171.683 106.842L172.08 108.289ZM187.509 103.598C189.424 102.958 191.327 102.3 193.216 101.626L192.712 100.213C190.832 100.884 188.939 101.538 187.033 102.175L187.509 103.598ZM202.647 98.0782C204.526 97.3352 206.39 96.5759 208.241 95.801L207.661 94.4174C205.82 95.1885 203.965 95.9441 202.096 96.6833L202.647 98.0782ZM217.459 91.7593C219.3 90.9156 221.126 90.0567 222.937 89.1832L222.285 87.8322C220.483 88.7014 218.666 89.5561 216.834 90.3957L217.459 91.7593ZM231.937 84.6604C233.725 83.7253 235.497 82.7764 237.253 81.8145L236.532 80.4989C234.784 81.4563 233.021 82.4006 231.242 83.3312L231.937 84.6604ZM246.001 76.8386C247.749 75.8076 249.479 74.7642 251.192 73.7091L250.405 72.4319C248.7 73.4821 246.978 74.5206 245.239 75.5467L246.001 76.8386ZM259.683 68.2933C261.368 67.1813 263.034 66.0585 264.683 64.9258L263.833 63.6896C262.193 64.817 260.534 65.9346 258.857 67.0415L259.683 68.2933ZM272.89 59.0961C274.527 57.8949 276.144 56.6847 277.741 55.4665L276.831 54.2738C275.242 55.4865 273.632 56.6911 272.003 57.8868L272.89 59.0961ZM285.653 49.2356C287.224 47.9581 288.775 46.6738 290.303 45.3835L289.336 44.2373C287.814 45.5216 286.271 46.8 284.707 48.0716L285.653 49.2356ZM297.898 38.7681C299.404 37.415 300.886 36.0573 302.345 34.6961L301.322 33.5994C299.87 34.9542 298.394 36.3056 296.896 37.6525L297.898 38.7681ZM309.593 27.7152C311.04 26.2764 312.461 24.836 313.855 23.395L312.777 22.3521C311.39 23.786 309.976 25.2196 308.536 26.6515L309.593 27.7152ZM320.735 16.0463C322.104 14.5344 323.443 13.0244 324.752 11.5179L323.619 10.5341C322.317 12.0329 320.985 13.5352 319.623 15.0395L320.735 16.0463ZM331.223 3.79908C331.853 3.01936 332.475 2.24126 333.088 1.465L331.912 0.535C331.302 1.30693 330.683 2.08073 330.056 2.85619L331.223 3.79908ZM2.98413 105.352C3.77753 105.59 4.61392 105.14 4.85228 104.347C5.09063 103.553 4.64068 102.717 3.84728 102.479L2.98413 105.352ZM13.4611 105.219C12.6613 105.003 11.838 105.477 11.6223 106.277C11.4067 107.076 11.8803 107.9 12.6801 108.115L13.4611 105.219ZM18.5499 109.643C19.3534 109.845 20.1682 109.357 20.3698 108.553C20.5715 107.75 20.0835 106.935 19.28 106.733L18.5499 109.643ZM28.9929 109.019C28.1838 108.841 27.3838 109.353 27.2061 110.162C27.0284 110.971 27.5403 111.771 28.3495 111.949L28.9929 109.019ZM34.303 113.199C35.1153 113.362 35.9057 112.836 36.0686 112.023C36.2314 111.211 35.7049 110.421 34.8927 110.258L34.303 113.199ZM44.6911 112.066C43.8742 111.928 43.1003 112.479 42.9626 113.296C42.8249 114.113 43.3755 114.886 44.1924 115.024L44.6911 112.066ZM50.2112 115.98C51.0306 116.102 51.7938 115.537 51.9159 114.717C52.0381 113.898 51.4728 113.135 50.6535 113.013L50.2112 115.98ZM60.545 114.326C59.7222 114.23 58.9774 114.82 58.8815 115.643C58.7857 116.465 59.375 117.21 60.1979 117.306L60.545 114.326ZM66.2368 117.95C67.0614 118.03 67.7945 117.426 67.8742 116.601C67.9539 115.777 67.3501 115.043 66.5255 114.964L66.2368 117.95ZM76.4856 115.762C75.6588 115.709 74.9461 116.337 74.8936 117.164C74.8411 117.99 75.4688 118.703 76.2955 118.756L76.4856 115.762ZM82.3375 119.079C83.1651 119.114 83.8652 118.473 83.9011 117.645C83.937 116.817 83.2952 116.117 82.4675 116.081L82.3375 119.079ZM92.4684 116.346C91.64 116.339 90.9621 117.004 90.9541 117.832C90.9462 118.66 91.6113 119.338 92.4397 119.346L92.4684 116.346ZM98.4671 119.343C99.2955 119.334 99.9598 118.655 99.9508 117.827C99.9419 116.998 99.2631 116.334 98.4347 116.343L98.4671 119.343ZM108.446 116.063C107.619 116.1 106.978 116.801 107.016 117.629C107.053 118.457 107.754 119.097 108.582 119.06L108.446 116.063ZM114.629 118.723C115.456 118.669 116.082 117.954 116.027 117.128C115.973 116.301 115.258 115.675 114.432 115.73L114.629 118.723ZM124.373 114.9C123.549 114.983 122.948 115.719 123.031 116.543C123.114 117.367 123.85 117.968 124.674 117.885L124.373 114.9ZM130.721 117.21C131.544 117.109 132.129 116.361 132.028 115.539C131.928 114.717 131.18 114.132 130.357 114.232L130.721 117.21ZM140.25 112.848C139.431 112.977 138.873 113.745 139.002 114.563C139.131 115.381 139.899 115.94 140.717 115.811L140.25 112.848ZM146.688 114.805C147.504 114.659 148.046 113.879 147.9 113.064C147.754 112.248 146.974 111.706 146.159 111.852L146.688 114.805ZM155.969 109.916C155.16 110.09 154.645 110.888 154.819 111.698C154.994 112.508 155.792 113.023 156.601 112.849L155.969 109.916ZM162.498 111.514C163.304 111.322 163.802 110.514 163.611 109.708C163.419 108.902 162.611 108.403 161.805 108.595L162.498 111.514ZM171.485 106.119C170.686 106.338 170.216 107.163 170.435 107.962C170.654 108.761 171.479 109.231 172.278 109.012L171.485 106.119ZM178.12 107.345C178.914 107.11 179.367 106.275 179.131 105.481C178.895 104.686 178.061 104.233 177.266 104.469L178.12 107.345ZM186.795 101.464C186.01 101.727 185.586 102.577 185.848 103.362C186.111 104.148 186.961 104.572 187.746 104.309L186.795 101.464ZM193.468 102.332C194.248 102.054 194.655 101.195 194.376 100.415C194.098 99.635 193.24 99.2283 192.459 99.5068L193.468 102.332ZM201.82 95.9859C201.049 96.2906 200.672 97.162 200.977 97.9324C201.281 98.7028 202.153 99.0803 202.923 98.7756L201.82 95.9859ZM208.531 96.4927C209.295 96.1727 209.655 95.2938 209.335 94.5297C209.015 93.7656 208.136 93.4056 207.372 93.7256L208.531 96.4927ZM216.522 89.7139C215.768 90.059 215.438 90.9493 215.783 91.7024C216.128 92.4555 217.018 92.7863 217.771 92.4411L216.522 89.7139ZM223.263 89.8588C224.009 89.4989 224.322 88.6022 223.962 87.8561C223.602 87.1099 222.706 86.7968 221.959 87.1567L223.263 89.8588ZM230.894 82.6666C230.16 83.0506 229.876 83.9569 230.26 84.691C230.644 85.4251 231.55 85.7089 232.284 85.325L230.894 82.6666ZM237.613 82.4723C238.339 82.0742 238.606 81.1626 238.208 80.4361C237.81 79.7095 236.898 79.4432 236.172 79.8412L237.613 82.4723ZM244.858 74.9008C244.144 75.3217 243.907 76.2414 244.328 76.9549C244.749 77.6684 245.669 77.9056 246.382 77.4846L244.858 74.9008ZM251.585 74.3477C252.291 73.9132 252.51 72.9892 252.076 72.2838C251.642 71.5785 250.718 71.3589 250.012 71.7933L251.585 74.3477ZM258.444 66.4155C257.752 66.8719 257.562 67.8023 258.018 68.4937C258.474 69.1851 259.405 69.3756 260.096 68.9193L258.444 66.4155ZM265.107 65.544C265.79 65.0748 265.963 64.1409 265.494 63.4582C265.025 62.7754 264.091 62.6023 263.408 63.0715L265.107 65.544ZM271.559 57.2821C270.891 57.7722 270.747 58.711 271.237 59.3789C271.727 60.0467 272.666 60.1909 273.334 59.7007L271.559 57.2821ZM278.196 56.0628C278.855 55.5603 278.981 54.619 278.479 53.9604C277.976 53.3017 277.035 53.1751 276.376 53.6775L278.196 56.0628ZM284.234 47.4896C283.591 48.0121 283.493 48.9569 284.016 49.5997C284.538 50.2426 285.483 50.3401 286.126 49.8176L284.234 47.4896ZM290.787 45.9567C291.42 45.4223 291.5 44.4759 290.966 43.8429C290.431 43.2098 289.485 43.1298 288.852 43.6642L290.787 45.9567ZM296.394 37.0947C295.778 37.6484 295.728 38.5968 296.281 39.213C296.835 39.8291 297.784 39.8797 298.4 39.326L296.394 37.0947ZM302.857 35.2445C303.462 34.6793 303.495 33.7301 302.93 33.1244C302.365 32.5187 301.416 32.4859 300.81 33.0511L302.857 35.2445ZM308.007 26.1196C307.419 26.7037 307.417 27.6534 308.001 28.2409C308.585 28.8284 309.535 28.8311 310.122 28.2471L308.007 26.1196ZM314.394 23.9165C314.97 23.3212 314.955 22.3715 314.359 21.7955C313.764 21.2195 312.814 21.2352 312.238 21.8306L314.394 23.9165ZM319.067 14.5361C318.511 15.1502 318.558 16.0987 319.172 16.6548C319.786 17.2108 320.735 17.1638 321.291 16.5497L319.067 14.5361ZM325.318 12.0098C325.861 11.3844 325.795 10.437 325.169 9.89365C324.544 9.35032 323.597 9.41682 323.053 10.0422L325.318 12.0098ZM329.473 2.38475C328.952 3.02905 329.053 3.9735 329.697 4.49424C330.341 5.01498 331.286 4.91482 331.806 4.27052L329.473 2.38475ZM0.0562199 104.458C1.03365 104.761 2.00962 105.059 2.98413 105.352L3.84728 102.479C2.88092 102.188 1.91306 101.893 0.943719 101.593L0.0562199 104.458ZM12.6801 108.115C14.6429 108.645 16.5995 109.154 18.5499 109.643L19.28 106.733C17.3467 106.248 15.407 105.744 13.4611 105.219L12.6801 108.115ZM28.3495 111.949C30.3407 112.386 32.3252 112.803 34.303 113.199L34.8927 110.258C32.9329 109.865 30.9663 109.452 28.9929 109.019L28.3495 111.949ZM44.1924 115.024C46.206 115.364 48.2123 115.682 50.2112 115.98L50.6535 113.013C48.6734 112.718 46.6859 112.402 44.6911 112.066L44.1924 115.024ZM60.1979 117.306C62.2187 117.541 64.2317 117.756 66.2368 117.95L66.5255 114.964C64.5399 114.772 62.5464 114.559 60.545 114.326L60.1979 117.306ZM76.2955 118.756C78.3179 118.884 80.3319 118.991 82.3375 119.079L82.4675 116.081C80.482 115.995 78.488 115.889 76.4856 115.762L76.2955 118.756ZM92.4397 119.346C94.4578 119.366 96.467 119.364 98.4671 119.343L98.4347 116.343C96.455 116.364 94.4661 116.366 92.4684 116.346L92.4397 119.346ZM108.582 119.06C110.607 118.968 112.623 118.856 114.629 118.723L114.432 115.73C112.446 115.861 110.451 115.972 108.446 116.063L108.582 119.06ZM124.674 117.885C126.701 117.68 128.716 117.455 130.721 117.21L130.357 114.232C128.373 114.475 126.378 114.697 124.373 114.9L124.674 117.885ZM140.717 115.811C142.719 115.495 144.709 115.16 146.688 114.805L146.159 111.852C144.2 112.203 142.23 112.535 140.25 112.848L140.717 115.811ZM156.601 112.849C158.579 112.422 160.544 111.977 162.498 111.514L161.805 108.595C159.871 109.054 157.926 109.494 155.969 109.916L156.601 112.849ZM172.278 109.012C174.238 108.475 176.185 107.919 178.12 107.345L177.266 104.469C175.352 105.037 173.425 105.587 171.485 106.119L172.278 109.012ZM187.746 104.309C189.667 103.668 191.574 103.008 193.468 102.332L192.459 99.5068C190.585 100.176 188.697 100.829 186.795 101.464L187.746 104.309ZM202.923 98.7756C204.806 98.0308 206.676 97.2696 208.531 96.4927L207.372 93.7256C205.535 94.4948 203.684 95.2485 201.82 95.9859L202.923 98.7756ZM217.771 92.4411C219.617 91.5953 221.448 90.7343 223.263 89.8588L221.959 87.1567C220.162 88.0237 218.349 88.8763 216.522 89.7139L217.771 92.4411ZM232.284 85.325C234.076 84.3876 235.853 83.4365 237.613 82.4723L236.172 79.8412C234.428 80.7962 232.669 81.7383 230.894 82.6666L232.284 85.325ZM246.382 77.4846C248.134 76.4512 249.868 75.4052 251.585 74.3477L250.012 71.7933C248.311 72.841 246.593 73.8771 244.858 74.9008L246.382 77.4846ZM260.096 68.9193C261.785 67.8046 263.455 66.6792 265.107 65.544L263.408 63.0715C261.772 64.1963 260.117 65.3112 258.444 66.4155L260.096 68.9193ZM273.334 59.7007C274.975 58.4968 276.595 57.2838 278.196 56.0628L276.376 53.6775C274.79 54.8874 273.185 56.0892 271.559 57.2821L273.334 59.7007ZM286.126 49.8176C287.701 48.5372 289.255 47.2499 290.787 45.9567L288.852 43.6642C287.334 44.9455 285.794 46.221 284.234 47.4896L286.126 49.8176ZM298.4 39.326C299.909 37.9697 301.395 36.6088 302.857 35.2445L300.81 33.0511C299.362 34.4027 297.89 35.7509 296.394 37.0947L298.4 39.326ZM310.122 28.2471C311.573 26.8049 312.997 25.3609 314.394 23.9165L312.238 21.8306C310.854 23.261 309.444 24.6911 308.007 26.1196L310.122 28.2471ZM321.291 16.5497C322.663 15.034 324.006 13.5202 325.318 12.0098L323.053 10.0422C321.755 11.5371 320.426 13.0356 319.067 14.5361L321.291 16.5497ZM331.806 4.27052C332.438 3.48867 333.062 2.70843 333.677 1.93L331.323 0.0700005C330.715 0.839767 330.098 1.61142 329.473 2.38475L331.806 4.27052Z" fill="#7B41FF"/>
</svg>
