<svg width="315" height="541" viewBox="0 0 315 541" fill="none" xmlns="http://www.w3.org/2000/svg">
    <path d="M11.643 116.286C11.4299 116.642 10.9692 116.757 10.614 116.544C10.2589 116.33 10.1438 115.87 10.357 115.514L11.643 116.286ZM302 228.03L301.289 227.792L301.289 227.792L302 228.03ZM23.3559 528.985C22.9914 529.181 22.5364 529.045 22.3398 528.681C22.1433 528.316 22.2795 527.861 22.6441 527.665L23.3559 528.985ZM11.9517 112.881C12.1676 112.527 12.6291 112.416 12.9826 112.632C13.3361 112.847 13.4477 113.309 13.2318 113.663L11.9517 112.881ZM18.5751 105.164C18.35 105.511 17.8857 105.611 17.5379 105.386C17.1902 105.161 17.0908 104.696 17.3159 104.348L18.5751 105.164ZM20.5689 99.4103C20.7996 99.0662 21.2655 98.9743 21.6095 99.205C21.9536 99.4356 22.0455 99.9015 21.8148 100.246L20.5689 99.4103ZM27.4471 92.0956C27.2067 92.4329 26.7384 92.5115 26.4011 92.2712C26.0637 92.0308 25.9851 91.5625 26.2255 91.2251L27.4471 92.0956ZM29.7779 86.334C30.0244 86.0011 30.4941 85.931 30.827 86.1775C31.1599 86.424 31.2299 86.8936 30.9835 87.2265L29.7779 86.334ZM36.9312 79.4469C36.6745 79.7719 36.2029 79.8273 35.8778 79.5706C35.5527 79.3139 35.4974 78.8422 35.7541 78.5172L36.9312 79.4469ZM39.5349 73.827C39.7982 73.5072 40.2708 73.4613 40.5906 73.7245C40.9105 73.9877 40.9564 74.4603 40.6932 74.7802L39.5349 73.827ZM47.1611 67.194C46.8868 67.5043 46.4129 67.5336 46.1025 67.2592C45.7921 66.9849 45.7629 66.511 46.0372 66.2006L47.1611 67.194ZM49.9694 61.8472C50.2504 61.5429 50.7249 61.524 51.0293 61.805C51.3336 62.086 51.3525 62.5605 51.0715 62.8648L49.9694 61.8472ZM58.0176 55.6302C57.7248 55.9232 57.25 55.9234 56.957 55.6306C56.6639 55.3379 56.6638 54.863 56.9565 54.57L58.0176 55.6302ZM61.2144 50.4116C61.5143 50.1259 61.989 50.1374 62.2747 50.4373C62.5605 50.7371 62.549 51.2119 62.2491 51.4976L61.2144 50.4116ZM69.5592 44.8262C69.2471 45.0986 68.7734 45.0665 68.5009 44.7545C68.2285 44.4425 68.2606 43.9687 68.5726 43.6963L69.5592 44.8262ZM73.1599 39.8005C73.4794 39.5368 73.9521 39.582 74.2158 39.9014C74.4795 40.2209 74.4343 40.6936 74.1149 40.9573L73.1599 39.8005ZM81.8343 34.887C81.5026 35.135 81.0326 35.0672 80.7845 34.7355C80.5365 34.4038 80.6043 33.9338 80.936 33.6857L81.8343 34.887ZM85.8477 30.1295C86.1869 29.8919 86.6546 29.9742 86.8923 30.3135C87.1299 30.6527 87.0475 31.1204 86.7083 31.3581L85.8477 30.1295ZM94.8709 25.9549C94.5195 26.1742 94.0568 26.067 93.8376 25.7156C93.6183 25.3642 93.7255 24.9016 94.0769 24.6823L94.8709 25.9549ZM99.2958 21.5492C99.6546 21.3422 100.113 21.4653 100.32 21.8241C100.527 22.1829 100.404 22.6415 100.045 22.8485L99.2958 21.5492ZM108.678 18.1987C108.307 18.3842 107.857 18.2343 107.671 17.864C107.486 17.4936 107.635 17.043 108.006 16.8575L108.678 18.1987ZM113.486 14.2407C113.864 14.0694 114.308 14.2362 114.479 14.6134C114.651 14.9905 114.484 15.4351 114.107 15.6064L113.486 14.2407ZM123.168 11.8356C122.781 11.9822 122.348 11.7869 122.201 11.3995C122.055 11.0121 122.25 10.5792 122.638 10.4326L123.168 11.8356ZM128.354 8.40269C128.747 8.2722 129.172 8.4851 129.302 8.87822C129.433 9.27134 129.22 9.69582 128.827 9.82631L128.354 8.40269ZM138.258 7.05574C137.856 7.15841 137.448 6.91634 137.345 6.51505C137.242 6.11376 137.485 5.70522 137.886 5.60255L138.258 7.05574ZM143.78 4.23164C144.185 4.14673 144.583 4.40656 144.667 4.81198C144.752 5.2174 144.492 5.61488 144.087 5.69979L143.78 4.23164ZM153.797 4.03921C153.386 4.0937 153.009 3.805 152.955 3.39439C152.9 2.98377 153.189 2.60673 153.6 2.55224L153.797 4.03921ZM159.589 1.8971C160.001 1.86157 160.365 2.16732 160.4 2.58001C160.436 2.9927 160.13 3.35604 159.717 3.39157L159.589 1.8971ZM169.574 2.92619C169.16 2.92961 168.821 2.59661 168.818 2.18241C168.814 1.76821 169.147 1.42966 169.562 1.42624L169.574 2.92619ZM175.564 1.51812C175.978 1.53423 176.301 1.88283 176.284 2.29673C176.268 2.71063 175.92 3.0331 175.506 3.01698L175.564 1.51812ZM185.355 3.79085C184.943 3.74211 184.649 3.36914 184.698 2.9578C184.747 2.54647 185.12 2.25253 185.531 2.30128L185.355 3.79085ZM191.462 3.14712C191.871 3.21529 192.147 3.60177 192.079 4.01033C192.01 4.4189 191.624 4.69484 191.215 4.62666L191.462 3.14712ZM200.895 6.6372C200.493 6.53707 200.248 6.13008 200.348 5.72815C200.449 5.32622 200.856 5.08155 201.258 5.18168L200.895 6.6372ZM207.037 6.76603C207.434 6.88485 207.659 7.30285 207.54 7.69965C207.421 8.09646 207.003 8.32181 206.607 8.20299L207.037 6.76603ZM215.961 11.4034C215.575 11.2543 215.382 10.8202 215.531 10.4337C215.68 10.0473 216.114 9.8548 216.501 10.0039L215.961 11.4034ZM222.046 12.2892C222.425 12.4557 222.598 12.8982 222.431 13.2775C222.265 13.6567 221.822 13.8292 221.443 13.6627L222.046 12.2892ZM230.343 17.9747C229.977 17.7804 229.838 17.3263 230.033 16.9605C230.227 16.5947 230.681 16.4557 231.047 16.6501L230.343 17.9747ZM236.275 19.5767C236.632 19.7868 236.75 20.2466 236.54 20.6035C236.33 20.9604 235.87 21.0794 235.513 20.8692L236.275 19.5767ZM243.851 26.1926C243.51 25.9574 243.424 25.4903 243.66 25.1494C243.895 24.8084 244.362 24.7227 244.703 24.958L243.851 26.1926ZM249.562 28.464C249.893 28.7134 249.958 29.1836 249.709 29.5144C249.46 29.8451 248.989 29.9111 248.659 29.6617L249.562 28.464ZM256.346 35.885C256.033 35.6135 256 35.1398 256.271 34.827C256.543 34.5142 257.016 34.4807 257.329 34.7521L256.346 35.885ZM261.78 38.7751C262.081 39.059 262.096 39.5337 261.812 39.8353C261.528 40.1369 261.053 40.1513 260.751 39.8674L261.78 38.7751ZM267.723 46.8782C267.44 46.5751 267.457 46.1005 267.76 45.8182C268.064 45.5359 268.538 45.5529 268.82 45.856L267.723 46.8782ZM272.829 50.333C273.1 50.6469 273.064 51.1205 272.75 51.3907C272.436 51.661 271.963 51.6257 271.693 51.3118L272.829 50.333ZM277.899 59.0008C277.649 58.6704 277.714 58.2001 278.045 57.9502C278.375 57.7003 278.845 57.7656 279.095 58.096L277.899 59.0008ZM282.631 62.9588C282.868 63.2983 282.786 63.7659 282.446 64.0032C282.106 64.2405 281.639 64.1576 281.402 63.8181L282.631 62.9588ZM286.811 72.0883C286.595 71.7349 286.706 71.2733 287.06 71.0572C287.413 70.8412 287.875 70.9525 288.091 71.3059L286.811 72.0883ZM291.126 76.48C291.329 76.841 291.201 77.2983 290.84 77.5013C290.479 77.7044 290.022 77.5764 289.819 77.2154L291.126 76.48ZM294.413 85.9843C294.232 85.6118 294.387 85.163 294.759 84.9818C295.131 84.8005 295.58 84.9556 295.762 85.328L294.413 85.9843ZM298.285 90.7546C298.453 91.1332 298.282 91.5763 297.903 91.7443C297.525 91.9123 297.081 91.7416 296.913 91.363L298.285 90.7546ZM300.669 100.54C300.523 100.152 300.72 99.7196 301.107 99.5739C301.495 99.4282 301.928 99.6245 302.073 100.012L300.669 100.54ZM304.077 105.636C304.209 106.029 303.998 106.454 303.606 106.586C303.213 106.719 302.788 106.508 302.656 106.115L304.077 105.636ZM305.558 115.611C305.448 115.212 305.683 114.799 306.082 114.689C306.482 114.58 306.894 114.814 307.004 115.214L305.558 115.611ZM308.486 120.984C308.583 121.387 308.334 121.792 307.931 121.888C307.528 121.984 307.124 121.736 307.027 121.333L308.486 120.984ZM309.066 131.05C308.992 130.643 309.263 130.253 309.67 130.179C310.078 130.105 310.468 130.376 310.542 130.783L309.066 131.05ZM311.507 136.664C311.567 137.073 311.284 137.455 310.874 137.515C310.464 137.575 310.083 137.292 310.023 136.882L311.507 136.664ZM311.201 146.742C311.163 146.33 311.466 145.965 311.879 145.927C312.291 145.889 312.657 146.192 312.694 146.605L311.201 146.742ZM313.145 152.546C313.17 152.959 312.855 153.314 312.441 153.339C312.028 153.364 311.672 153.049 311.648 152.635L313.145 152.546ZM311.976 162.564C311.973 162.15 312.307 161.812 312.721 161.81C313.135 161.807 313.473 162.14 313.476 162.555L311.976 162.564ZM313.422 168.508C313.411 168.922 313.067 169.249 312.653 169.239C312.239 169.229 311.912 168.885 311.922 168.471L313.422 168.508ZM311.418 178.402C311.45 177.989 311.811 177.68 312.224 177.712C312.637 177.743 312.946 178.104 312.914 178.517L311.418 178.402ZM312.37 184.436C312.326 184.848 311.956 185.146 311.544 185.102C311.132 185.058 310.834 184.688 310.878 184.276L312.37 184.436ZM309.567 194.151C309.632 193.742 310.016 193.462 310.425 193.527C310.835 193.592 311.114 193.976 311.049 194.385L309.567 194.151ZM310.036 200.228C309.959 200.635 309.567 200.902 309.16 200.826C308.753 200.749 308.485 200.357 308.562 199.95L310.036 200.228ZM306.482 209.682C306.578 209.279 306.983 209.031 307.386 209.127C307.788 209.223 308.037 209.628 307.941 210.031L306.482 209.682ZM306.477 215.792C306.369 216.192 305.958 216.429 305.558 216.322C305.158 216.214 304.921 215.803 305.028 215.403L306.477 215.792ZM302.227 224.925C302.353 224.53 302.775 224.313 303.169 224.439C303.564 224.565 303.782 224.987 303.655 225.381L302.227 224.925ZM301.737 231.135C301.602 231.526 301.175 231.734 300.783 231.599C300.392 231.464 300.184 231.037 300.319 230.646L301.737 231.135ZM296.905 240.081C297.051 239.694 297.484 239.499 297.872 239.646C298.259 239.792 298.454 240.225 298.308 240.613L296.905 240.081ZM296.119 246.244C295.965 246.628 295.529 246.816 295.144 246.663C294.759 246.509 294.572 246.073 294.725 245.688L296.119 246.244ZM290.874 254.958C291.039 254.578 291.48 254.403 291.86 254.567C292.241 254.731 292.416 255.173 292.251 255.553L290.874 254.958ZM289.809 261.079C289.639 261.456 289.194 261.624 288.817 261.453C288.44 261.283 288.272 260.838 288.442 260.461L289.809 261.079ZM284.185 269.552C284.366 269.18 284.814 269.024 285.187 269.205C285.56 269.385 285.715 269.834 285.535 270.207L284.185 269.552ZM282.856 275.623C282.67 275.993 282.219 276.141 281.849 275.955C281.479 275.768 281.33 275.317 281.517 274.947L282.856 275.623ZM276.882 283.852C277.078 283.487 277.533 283.35 277.898 283.546C278.263 283.742 278.4 284.196 278.204 284.561L276.882 283.852ZM275.307 289.865C275.105 290.227 274.649 290.357 274.287 290.156C273.925 289.954 273.794 289.498 273.996 289.136L275.307 289.865ZM269.012 297.849C269.222 297.492 269.681 297.373 270.038 297.583C270.396 297.793 270.515 298.252 270.305 298.61L269.012 297.849ZM267.205 303.798C266.99 304.152 266.529 304.265 266.174 304.05C265.82 303.835 265.708 303.374 265.923 303.02L267.205 303.798ZM260.616 311.54C260.839 311.191 261.303 311.088 261.652 311.311C262.001 311.534 262.103 311.998 261.881 312.347L260.616 311.54ZM258.593 317.421C258.365 317.767 257.9 317.863 257.554 317.635C257.208 317.408 257.112 316.943 257.339 316.597L258.593 317.421ZM251.737 324.922C251.972 324.58 252.439 324.494 252.78 324.729C253.121 324.964 253.207 325.431 252.972 325.772L251.737 324.922ZM249.51 330.733C249.271 331.071 248.803 331.151 248.465 330.912C248.127 330.673 248.046 330.205 248.286 329.867L249.51 330.733ZM242.411 337.996C242.657 337.663 243.127 337.592 243.46 337.838C243.793 338.084 243.864 338.553 243.618 338.887L242.411 337.996ZM239.994 343.736C239.744 344.066 239.274 344.132 238.944 343.882C238.613 343.632 238.548 343.161 238.798 342.831L239.994 343.736ZM232.67 350.772C232.926 350.446 233.397 350.39 233.723 350.646C234.048 350.902 234.105 351.374 233.848 351.7L232.67 350.772ZM230.079 356.434C229.819 356.757 229.347 356.808 229.024 356.548C228.701 356.288 228.651 355.816 228.91 355.494L230.079 356.434ZM222.545 363.252C222.811 362.934 223.284 362.892 223.601 363.158C223.919 363.423 223.962 363.896 223.696 364.214L222.545 363.252ZM219.795 368.833C219.526 369.148 219.052 369.185 218.737 368.916C218.422 368.647 218.385 368.174 218.654 367.859L219.795 368.833ZM212.067 375.44C212.342 375.13 212.816 375.101 213.126 375.375C213.436 375.649 213.465 376.123 213.191 376.434L212.067 375.44ZM209.17 380.937C208.893 381.245 208.419 381.269 208.111 380.992C207.803 380.714 207.779 380.24 208.056 379.932L209.17 380.937ZM201.263 387.342C201.545 387.039 202.02 387.022 202.323 387.304C202.626 387.587 202.643 388.061 202.36 388.364L201.263 387.342ZM198.231 392.753C197.946 393.054 197.471 393.066 197.171 392.781C196.87 392.495 196.858 392.021 197.143 391.72L198.231 392.753ZM190.156 398.963C190.446 398.667 190.921 398.662 191.217 398.952C191.513 399.242 191.517 399.716 191.228 400.012L190.156 398.963ZM186.999 404.289C186.706 404.582 186.231 404.583 185.938 404.29C185.645 403.998 185.644 403.523 185.937 403.23L186.999 404.289ZM178.768 410.309C179.065 410.02 179.54 410.027 179.829 410.323C180.118 410.62 180.111 411.095 179.814 411.384L178.768 410.309ZM175.493 415.552C175.194 415.838 174.719 415.828 174.433 415.528C174.147 415.229 174.157 414.754 174.457 414.468L175.493 415.552ZM167.118 421.387C167.422 421.105 167.896 421.122 168.178 421.425C168.46 421.729 168.443 422.203 168.139 422.485L167.118 421.387ZM163.729 426.551C163.423 426.831 162.949 426.81 162.669 426.504C162.39 426.198 162.411 425.724 162.717 425.444L163.729 426.551ZM155.224 432.202C155.533 431.926 156.007 431.954 156.282 432.264C156.558 432.573 156.53 433.047 156.221 433.322L155.224 432.202ZM151.728 437.287C151.417 437.56 150.943 437.528 150.67 437.217C150.397 436.905 150.428 436.431 150.74 436.158L151.728 437.287ZM143.1 442.758C143.415 442.489 143.889 442.527 144.158 442.842C144.426 443.158 144.389 443.631 144.073 443.9L143.1 442.758ZM139.494 447.773C139.177 448.039 138.704 447.998 138.438 447.681C138.171 447.363 138.213 446.89 138.53 446.624L139.494 447.773ZM130.764 453.059C131.084 452.797 131.557 452.844 131.819 453.165C132.081 453.485 132.034 453.958 131.713 454.22L130.764 453.059ZM127.042 458.012C126.719 458.272 126.247 458.221 125.987 457.898C125.727 457.576 125.778 457.104 126.101 456.844L127.042 458.012ZM118.23 463.104C118.556 462.848 119.028 462.905 119.283 463.23C119.539 463.556 119.483 464.028 119.157 464.283L118.23 463.104ZM114.382 468.005C114.054 468.259 113.583 468.199 113.33 467.871C113.076 467.543 113.136 467.072 113.464 466.819L114.382 468.005ZM105.522 472.887C105.853 472.637 106.323 472.703 106.572 473.034C106.822 473.364 106.756 473.835 106.425 474.084L105.522 472.887ZM101.531 477.749C101.199 477.996 100.729 477.927 100.482 477.594C100.235 477.262 100.304 476.792 100.637 476.545L101.531 477.749ZM92.5568 482.475C92.8922 482.232 93.3612 482.306 93.6043 482.642C93.8473 482.977 93.7725 483.446 93.4371 483.689L92.5568 482.475ZM88.5199 487.226C88.1827 487.467 87.7143 487.389 87.4737 487.051C87.233 486.714 87.3112 486.246 87.6484 486.005L88.5199 487.226ZM79.4212 491.804C79.7612 491.567 80.2286 491.651 80.4652 491.991C80.7018 492.331 80.6179 492.799 80.2779 493.035L79.4212 491.804ZM75.3756 496.421C75.034 496.655 74.5672 496.568 74.333 496.226C74.0989 495.884 74.186 495.417 74.5277 495.183L75.3756 496.421ZM66.2113 500.808C66.5558 500.578 67.0215 500.671 67.2514 501.015C67.4814 501.36 67.3885 501.826 67.0439 502.056L66.2113 500.808ZM61.9261 505.443C61.5798 505.67 61.1149 505.574 60.8876 505.228C60.6603 504.881 60.7567 504.416 61.103 504.189L61.9261 505.443ZM52.6692 509.648C53.0184 509.425 53.4821 509.527 53.7049 509.877C53.9277 510.226 53.8252 510.689 53.476 510.912L52.6692 509.648ZM48.371 514.14C48.02 514.36 47.5571 514.254 47.3372 513.903C47.1173 513.552 47.2236 513.089 47.5746 512.869L48.371 514.14ZM39.019 518.143C39.3732 517.928 39.8344 518.042 40.0491 518.396C40.2638 518.75 40.1507 519.211 39.7964 519.426L39.019 518.143ZM34.6043 522.538C34.2479 522.749 33.7879 522.631 33.5767 522.275C33.3656 521.919 33.4834 521.459 33.8398 521.247L34.6043 522.538ZM25.2384 526.226C25.5994 526.023 26.0567 526.151 26.2598 526.512C26.4629 526.873 26.3349 527.33 25.9739 527.533L25.2384 526.226ZM10.357 115.514C10.8874 114.631 11.4189 113.753 11.9517 112.881L13.2318 113.663C12.7011 114.531 12.1715 115.406 11.643 116.286L10.357 115.514ZM17.3159 104.348C18.396 102.68 19.4804 101.034 20.5689 99.4103L21.8148 100.246C20.7308 101.862 19.6509 103.502 18.5751 105.164L17.3159 104.348ZM26.2255 91.2251C27.4053 89.5694 28.5895 87.9391 29.7779 86.334L30.9835 87.2265C29.8005 88.8243 28.6217 90.4472 27.4471 92.0956L26.2255 91.2251ZM35.7541 78.5172C37.0102 76.9267 38.2706 75.3634 39.5349 73.827L40.6932 74.7802C39.4352 76.3087 38.1812 77.8642 36.9312 79.4469L35.7541 78.5172ZM46.0372 66.2006C47.3442 64.7218 48.655 63.2708 49.9694 61.8472L51.0715 62.8648C49.7646 64.2803 48.461 65.7232 47.1611 67.194L46.0372 66.2006ZM56.9565 54.57C58.3723 53.1531 59.7917 51.7671 61.2144 50.4116L62.2491 51.4976C60.8354 52.8445 59.4248 54.2219 58.0176 55.6302L56.9565 54.57ZM68.5726 43.6963C70.0986 42.3637 71.6279 41.0653 73.1599 39.8005L74.1149 40.9573C72.5936 42.2131 71.0749 43.5026 69.5592 44.8262L68.5726 43.6963ZM80.936 33.6857C82.5709 32.4632 84.2083 31.2779 85.8477 30.1295L86.7083 31.3581C85.0817 32.4975 83.4569 33.6736 81.8343 34.887L80.936 33.6857ZM94.0769 24.6823C95.8152 23.5977 97.555 22.5535 99.2958 21.5492L100.045 22.8485C98.3197 23.8441 96.5947 24.8794 94.8709 25.9549L94.0769 24.6823ZM108.006 16.8575C109.833 15.9426 111.66 15.0705 113.486 14.2407L114.107 15.6064C112.298 16.4283 110.488 17.2922 108.678 18.1987L108.006 16.8575ZM122.638 10.4326C124.545 9.71099 126.451 9.03456 128.354 8.40269L128.827 9.82631C126.943 10.4516 125.057 11.1212 123.168 11.8356L122.638 10.4326ZM137.886 5.60255C139.854 5.09893 141.819 4.64221 143.78 4.23164L144.087 5.69979C142.148 6.10583 140.205 6.55756 138.258 7.05574L137.886 5.60255ZM153.6 2.55224C155.602 2.28649 157.599 2.06838 159.589 1.8971L159.717 3.39157C157.751 3.56088 155.777 3.77648 153.797 4.03921L153.6 2.55224ZM169.562 1.42624C171.571 1.40963 173.573 1.44055 175.564 1.51812L175.506 3.01698C173.538 2.94033 171.56 2.90977 169.574 2.92619L169.562 1.42624ZM185.531 2.30128C187.52 2.53695 189.497 2.81921 191.462 3.14712L191.215 4.62666C189.274 4.30264 187.32 4.02373 185.355 3.79085L185.531 2.30128ZM201.258 5.18168C203.198 5.66516 205.125 6.1936 207.037 6.76603L206.607 8.20299C204.717 7.63724 202.813 7.11499 200.895 6.6372L201.258 5.18168ZM216.501 10.0039C218.366 10.7233 220.215 11.4854 222.046 12.2892L221.443 13.6627C219.633 12.868 217.805 12.1146 215.961 11.4034L216.501 10.0039ZM231.047 16.6501C232.809 17.5862 234.552 18.5621 236.275 19.5767L235.513 20.8692C233.809 19.8657 232.086 18.9005 230.343 17.9747L231.047 16.6501ZM244.703 24.958C246.344 26.0904 247.964 27.2594 249.562 28.464L248.659 29.6617C247.078 28.4697 245.475 27.313 243.851 26.1926L244.703 24.958ZM257.329 34.7521C258.836 36.06 260.32 37.4014 261.78 38.7751L260.751 39.8674C259.307 38.5074 257.838 37.1796 256.346 35.885L257.329 34.7521ZM268.82 45.856C270.182 47.3184 271.519 48.811 272.829 50.333L271.693 51.3118C270.395 49.8044 269.071 48.3263 267.723 46.8782L268.82 45.856ZM279.095 58.096C280.301 59.6901 281.48 61.3113 282.631 62.9588L281.402 63.8181C280.261 62.1859 279.093 60.5799 277.899 59.0008L279.095 58.096ZM288.091 71.3059C289.131 73.0069 290.143 74.7318 291.126 76.48L289.819 77.2154C288.844 75.483 287.842 73.7737 286.811 72.0883L288.091 71.3059ZM295.762 85.328C296.632 87.1161 297.473 88.9252 298.285 90.7546L296.913 91.363C296.109 89.5496 295.275 87.7565 294.413 85.9843L295.762 85.328ZM302.073 100.012C302.771 101.869 303.439 103.744 304.077 105.636L302.656 106.115C302.023 104.239 301.361 102.38 300.669 100.54L302.073 100.012ZM307.004 115.214C307.528 117.122 308.023 119.045 308.486 120.984L307.027 121.333C306.568 119.41 306.078 117.503 305.558 115.611L307.004 115.214ZM310.542 130.783C310.894 132.73 311.216 134.691 311.507 136.664L310.023 136.882C309.734 134.925 309.415 132.981 309.066 131.05L310.542 130.783ZM312.694 146.605C312.876 148.574 313.026 150.555 313.145 152.546L311.648 152.635C311.53 150.66 311.38 148.696 311.201 146.742L312.694 146.605ZM313.476 162.555C313.489 164.53 313.471 166.515 313.422 168.508L311.922 168.471C311.971 166.493 311.989 164.524 311.976 162.564L313.476 162.555ZM312.914 178.517C312.763 180.483 312.582 182.456 312.37 184.436L310.878 184.276C311.089 182.311 311.269 180.353 311.418 178.402L312.914 178.517ZM311.049 194.385C310.741 196.327 310.404 198.275 310.036 200.228L308.562 199.95C308.927 198.012 309.262 196.078 309.567 194.151L311.049 194.385ZM307.941 210.031C307.482 211.948 306.995 213.868 306.477 215.792L305.028 215.403C305.542 213.492 306.027 211.585 306.482 209.682L307.941 210.031ZM303.655 225.381C303.348 226.343 303.034 227.305 302.711 228.268L301.289 227.792C301.609 226.835 301.922 225.88 302.227 224.925L303.655 225.381ZM302.711 228.268C302.391 229.225 302.066 230.181 301.737 231.135L300.319 230.646C300.646 229.696 300.97 228.745 301.289 227.792L302.711 228.268ZM298.308 240.613C297.594 242.497 296.864 244.374 296.119 246.244L294.725 245.688C295.468 243.826 296.194 241.958 296.905 240.081L298.308 240.613ZM292.251 255.553C291.452 257.402 290.638 259.244 289.809 261.079L288.442 260.461C289.268 258.634 290.079 256.8 290.874 254.958L292.251 255.553ZM285.535 270.207C284.656 272.02 283.763 273.825 282.856 275.623L281.517 274.947C282.42 273.157 283.309 271.358 284.185 269.552L285.535 270.207ZM278.204 284.561C277.251 286.337 276.285 288.105 275.307 289.865L273.996 289.136C274.971 287.382 275.933 285.621 276.882 283.852L278.204 284.561ZM270.305 298.61C269.283 300.347 268.25 302.077 267.205 303.798L265.923 303.02C266.964 301.304 267.994 299.581 269.012 297.849L270.305 298.61ZM261.881 312.347C260.795 314.047 259.699 315.738 258.593 317.421L257.339 316.597C258.442 314.919 259.535 313.234 260.616 311.54L261.881 312.347ZM252.972 325.772C251.828 327.434 250.674 329.088 249.51 330.733L248.286 329.867C249.445 328.227 250.596 326.578 251.737 324.922L252.972 325.772ZM243.618 338.887C242.419 340.512 241.21 342.128 239.994 343.736L238.798 342.831C240.011 341.228 241.215 339.616 242.411 337.996L243.618 338.887ZM233.848 351.7C232.599 353.287 231.342 354.865 230.079 356.434L228.91 355.494C230.171 353.929 231.424 352.355 232.67 350.772L233.848 351.7ZM223.696 364.214C222.402 365.763 221.101 367.303 219.795 368.833L218.654 367.859C219.957 366.333 221.254 364.797 222.545 363.252L223.696 364.214ZM213.191 376.434C211.856 377.945 210.515 379.446 209.17 380.937L208.056 379.932C209.398 378.445 210.735 376.947 212.067 375.44L213.191 376.434ZM202.36 388.364C200.987 389.838 199.611 391.301 198.231 392.753L197.143 391.72C198.52 390.271 199.893 388.811 201.263 387.342L202.36 388.364ZM191.228 400.012C189.82 401.449 188.411 402.874 186.999 404.289L185.937 403.23C187.345 401.818 188.752 400.396 190.156 398.963L191.228 400.012ZM179.814 411.384C178.375 412.784 176.934 414.174 175.493 415.552L174.457 414.468C175.895 413.093 177.332 411.706 178.768 410.309L179.814 411.384ZM168.139 422.485C166.669 423.853 165.198 425.208 163.729 426.551L162.717 425.444C164.183 424.104 165.65 422.751 167.118 421.387L168.139 422.485ZM156.221 433.322C154.721 434.657 153.223 435.978 151.728 437.287L150.74 436.158C152.232 434.852 153.727 433.533 155.224 432.202L156.221 433.322ZM144.073 443.9C142.543 445.204 141.016 446.496 139.494 447.773L138.53 446.624C140.049 445.349 141.573 444.06 143.1 442.758L144.073 443.9ZM131.713 454.22C130.149 455.499 128.592 456.763 127.042 458.012L126.101 456.844C127.648 455.597 129.203 454.336 130.764 453.059L131.713 454.22ZM119.157 464.283C117.555 465.541 115.964 466.782 114.382 468.005L113.464 466.819C115.043 465.597 116.632 464.359 118.23 463.104L119.157 464.283ZM106.425 474.084C104.78 475.325 103.149 476.547 101.531 477.749L100.637 476.545C102.251 475.345 103.88 474.126 105.522 472.887L106.425 474.084ZM93.4371 483.689C91.7794 484.891 90.1399 486.07 88.5199 487.226L87.6484 486.005C89.2655 484.851 90.9021 483.674 92.5568 482.475L93.4371 483.689ZM80.2779 493.035C78.6183 494.19 76.9837 495.319 75.3756 496.421L74.5277 495.183C76.1329 494.083 77.7646 492.957 79.4212 491.804L80.2779 493.035ZM67.0439 502.056C65.2978 503.221 63.591 504.35 61.9261 505.443L61.103 504.189C62.7648 503.098 64.4683 501.971 66.2113 500.808L67.0439 502.056ZM53.476 510.912C51.7097 512.039 50.0067 513.115 48.371 514.14L47.5746 512.869C49.2069 511.846 50.9064 510.772 52.6692 509.648L53.476 510.912ZM39.7964 519.426C37.9213 520.562 36.1871 521.6 34.6043 522.538L33.8398 521.247C35.4184 520.312 37.1482 519.277 39.019 518.143L39.7964 519.426ZM25.9739 527.533C25.1198 528.014 24.4662 528.376 24.0257 528.619C23.8055 528.74 23.6385 528.831 23.5264 528.892C23.4703 528.923 23.4279 528.946 23.3995 528.961C23.3852 528.969 23.3745 528.975 23.3672 528.979C23.3636 528.981 23.3608 528.982 23.3589 528.983C23.358 528.984 23.3573 528.984 23.3568 528.984C23.3565 528.985 23.3563 528.985 23.3562 528.985C23.3561 528.985 23.3561 528.985 23.356 528.985C23.356 528.985 23.356 528.985 23.356 528.985C23.356 528.985 23.3559 528.985 23 528.325C22.6441 527.665 22.644 527.665 22.644 527.665C22.644 527.665 22.644 527.665 22.644 527.665C22.6441 527.665 22.6441 527.665 22.6441 527.665C22.6442 527.664 22.6443 527.664 22.6445 527.664C22.6449 527.664 22.6455 527.664 22.6463 527.663C22.648 527.662 22.6505 527.661 22.6539 527.659C22.6607 527.656 22.671 527.65 22.6847 527.643C22.7122 527.628 22.7536 527.605 22.8088 527.575C22.919 527.515 23.084 527.425 23.3023 527.305C23.7388 527.064 24.3883 526.704 25.2384 526.226L25.9739 527.533ZM12.2861 116.672C11.8597 117.383 10.9383 117.613 10.228 117.187C9.51773 116.76 9.28755 115.839 9.7139 115.128L12.2861 116.672ZM302 228.03L300.578 227.554L300.578 227.554L302 228.03ZM23.7119 529.645C22.9827 530.038 22.0729 529.766 21.6797 529.037C21.2865 528.307 21.5589 527.398 22.2881 527.004L23.7119 529.645ZM11.3116 112.49C11.7434 111.783 12.6666 111.56 13.3736 111.991C14.0806 112.423 14.3036 113.346 13.8718 114.053L11.3116 112.49ZM19.2047 105.571C18.7545 106.267 17.8258 106.465 17.1304 106.015C16.4349 105.565 16.2361 104.636 16.6863 103.941L19.2047 105.571ZM19.946 98.9926C20.4073 98.3045 21.3391 98.1207 22.0272 98.582C22.7153 99.0433 22.8991 99.9751 22.4378 100.663L19.946 98.9926ZM28.0579 92.5308C27.5772 93.2055 26.6405 93.3627 25.9658 92.882C25.2912 92.4012 25.134 91.4646 25.6147 90.7899L28.0579 92.5308ZM29.1751 85.8877C29.6681 85.2219 30.6074 85.0818 31.2732 85.5747C31.939 86.0677 32.0792 87.007 31.5862 87.6728L29.1751 85.8877ZM37.5198 79.9117C37.0063 80.5618 36.0631 80.6726 35.413 80.1592C34.7628 79.6457 34.6521 78.7024 35.1655 78.0523L37.5198 79.9117ZM38.9558 73.3504C39.4822 72.7108 40.4275 72.6189 41.0672 73.1454C41.7069 73.6718 41.7987 74.6171 41.2723 75.2567L38.9558 73.3504ZM47.7231 67.6906C47.1745 68.3114 46.2265 68.3698 45.6058 67.8212C44.9851 67.2726 44.9266 66.3246 45.4752 65.7039L47.7231 67.6906ZM49.4184 61.3384C49.9804 60.7298 50.9294 60.692 51.538 61.254C52.1467 61.8159 52.1845 62.7649 51.6225 63.3736L49.4184 61.3384ZM58.5481 56.1604C57.9626 56.7464 57.0128 56.7467 56.4268 56.1612C55.8408 55.5756 55.8404 54.6259 56.426 54.0399L58.5481 56.1604ZM60.697 49.8686C61.2968 49.2972 62.2463 49.3201 62.8177 49.9199C63.3892 50.5197 63.3662 51.4692 62.7664 52.0406L60.697 49.8686ZM70.0524 45.3911C69.4284 45.936 68.4809 45.8718 67.936 45.2478C67.3911 44.6238 67.4552 43.6762 68.0793 43.1314L70.0524 45.3911ZM72.6825 39.2221C73.3213 38.6947 74.2668 38.7851 74.7942 39.424C75.3216 40.0628 75.2312 41.0083 74.5923 41.5357L72.6825 39.2221ZM82.2835 35.4876C81.62 35.9837 80.68 35.8481 80.1839 35.1847C79.6878 34.5212 79.8234 33.5812 80.4869 33.0851L82.2835 35.4876ZM85.4174 29.5152C86.0959 29.0399 87.0313 29.2047 87.5066 29.8832C87.9818 30.5617 87.8171 31.4971 87.1386 31.9724L85.4174 29.5152ZM95.2679 26.5912C94.5651 27.0297 93.6398 26.8155 93.2013 26.1126C92.7628 25.4098 92.977 24.4845 93.6799 24.046L95.2679 26.5912ZM98.921 20.8996C99.6386 20.4856 100.556 20.7317 100.97 21.4493C101.384 22.1668 101.138 23.0842 100.42 23.4981L98.921 20.8996ZM109.013 18.8693C108.273 19.2403 107.371 18.9406 107 18.1998C106.629 17.4591 106.929 16.5579 107.67 16.1869L109.013 18.8693ZM113.176 13.5579C113.93 13.2152 114.82 13.5489 115.162 14.3032C115.505 15.0574 115.171 15.9466 114.417 16.2892L113.176 13.5579ZM123.434 12.537C122.659 12.8302 121.793 12.4397 121.5 11.6649C121.207 10.8901 121.597 10.0243 122.372 9.73116L123.434 12.537ZM128.118 7.69088C128.904 7.42989 129.753 7.8557 130.014 8.64195C130.275 9.42819 129.849 10.2771 129.063 10.5381L128.118 7.69088ZM138.444 7.78234C137.641 7.98768 136.824 7.50352 136.619 6.70095C136.413 5.89837 136.897 5.0813 137.7 4.87596L138.444 7.78234ZM143.626 3.49756C144.437 3.32775 145.232 3.84741 145.401 4.65825C145.571 5.46908 145.052 6.26406 144.241 6.43386L143.626 3.49756ZM153.896 4.78269C153.074 4.89167 152.32 4.31428 152.211 3.49305C152.102 2.67182 152.68 1.91774 153.501 1.80876L153.896 4.78269ZM159.524 1.14986C160.35 1.07881 161.077 1.69031 161.148 2.51568C161.219 3.34106 160.607 4.06776 159.782 4.13881L159.524 1.14986ZM169.58 3.67616C168.752 3.68301 168.075 3.01701 168.068 2.18861C168.061 1.36021 168.727 0.683108 169.555 0.676262L169.58 3.67616ZM175.593 0.768684C176.421 0.800922 177.066 1.49812 177.034 2.32592C177.002 3.15372 176.304 3.79865 175.477 3.76641L175.593 0.768684ZM185.266 4.53564C184.444 4.43815 183.856 3.69221 183.953 2.86954C184.051 2.04687 184.797 1.459 185.619 1.55649L185.266 4.53564ZM191.586 2.40734C192.403 2.5437 192.955 3.31665 192.818 4.13378C192.682 4.9509 191.909 5.50278 191.092 5.36643L191.586 2.40734ZM200.714 7.36496C199.91 7.16471 199.42 6.35071 199.621 5.54685C199.821 4.74299 200.635 4.25367 201.439 4.45392L200.714 7.36496ZM207.252 6.04755C208.046 6.28519 208.496 7.12118 208.259 7.91479C208.021 8.7084 207.185 9.15911 206.391 8.92148L207.252 6.04755ZM215.691 12.1031C214.918 11.805 214.533 10.9368 214.831 10.1638C215.13 9.3909 215.998 9.00599 216.771 9.3041L215.691 12.1031ZM222.347 11.6025C223.106 11.9355 223.451 12.8204 223.118 13.5789C222.785 14.3375 221.9 14.6825 221.141 14.3494L222.347 11.6025ZM229.991 18.6371C229.259 18.2484 228.982 17.3402 229.37 16.6087C229.759 15.8771 230.667 15.5991 231.399 15.9877L229.991 18.6371ZM236.655 18.9304C237.369 19.3508 237.607 20.2702 237.187 20.9841C236.766 21.6979 235.847 21.9358 235.133 21.5154L236.655 18.9304ZM243.425 26.8099C242.743 26.3395 242.572 25.4053 243.042 24.7235C243.513 24.0416 244.447 23.8702 245.129 24.3407L243.425 26.8099ZM250.013 27.8651C250.675 28.3639 250.807 29.3044 250.308 29.9659C249.809 30.6274 248.869 30.7593 248.207 30.2606L250.013 27.8651ZM255.854 36.4515C255.229 35.9085 255.162 34.9611 255.705 34.3354C256.248 33.7098 257.195 33.6427 257.821 34.1857L255.854 36.4515ZM262.294 38.229C262.897 38.7968 262.926 39.7461 262.358 40.3494C261.79 40.9526 260.841 40.9813 260.237 40.4135L262.294 38.229ZM267.174 47.3893C266.609 46.783 266.643 45.8339 267.249 45.2693C267.856 44.7048 268.805 44.7386 269.369 45.3449L267.174 47.3893ZM273.398 49.8436C273.938 50.4714 273.867 51.4185 273.24 51.9591C272.612 52.4996 271.665 52.4289 271.124 51.8012L273.398 49.8436ZM277.301 59.4532C276.801 58.7925 276.931 57.8517 277.592 57.352C278.253 56.8523 279.194 56.9828 279.693 57.6436L277.301 59.4532ZM283.246 62.5292C283.72 63.2082 283.555 64.1434 282.876 64.618C282.197 65.0925 281.261 64.9268 280.787 64.2478L283.246 62.5292ZM286.171 72.4795C285.739 71.7727 285.962 70.8495 286.669 70.4173C287.375 69.9852 288.299 70.2079 288.731 70.9147L286.171 72.4795ZM291.78 76.1122C292.186 76.8342 291.93 77.7488 291.208 78.155C290.486 78.5612 289.572 78.3051 289.165 77.5831L291.78 76.1122ZM293.738 86.3125C293.376 85.5675 293.686 84.6698 294.431 84.3074C295.176 83.9449 296.073 84.2549 296.436 84.9999L293.738 86.3125ZM298.97 90.4504C299.306 91.2076 298.965 92.0939 298.207 92.4299C297.45 92.7658 296.564 92.4244 296.228 91.6671L298.97 90.4504ZM299.967 100.804C299.676 100.028 300.068 99.1633 300.844 98.8719C301.619 98.5805 302.484 98.9729 302.775 99.7484L299.967 100.804ZM304.788 105.396C305.052 106.182 304.63 107.032 303.845 107.297C303.06 107.562 302.21 107.14 301.945 106.355L304.788 105.396ZM304.835 115.81C304.615 115.011 305.085 114.186 305.883 113.966C306.682 113.747 307.508 114.216 307.727 115.015L304.835 115.81ZM309.216 120.81C309.408 121.615 308.911 122.425 308.106 122.617C307.3 122.81 306.491 122.313 306.298 121.507L309.216 120.81ZM308.328 131.184C308.18 130.369 308.722 129.588 309.537 129.441C310.352 129.293 311.133 129.835 311.28 130.65L308.328 131.184ZM312.249 136.554C312.369 137.374 311.803 138.136 310.983 138.257C310.164 138.378 309.401 137.811 309.281 136.991L312.249 136.554ZM310.454 146.811C310.378 145.986 310.985 145.256 311.81 145.18C312.635 145.104 313.365 145.711 313.441 146.536L310.454 146.811ZM313.894 152.501C313.943 153.328 313.313 154.038 312.486 154.088C311.659 154.137 310.949 153.507 310.899 152.68L313.894 152.501ZM311.226 162.569C311.221 161.741 311.888 161.065 312.716 161.06C313.545 161.054 314.22 161.721 314.226 162.55L311.226 162.569ZM314.171 168.526C314.151 169.354 313.463 170.009 312.635 169.989C311.807 169.968 311.152 169.28 311.172 168.452L314.171 168.526ZM310.671 178.345C310.734 177.519 311.455 176.9 312.281 176.964C313.107 177.027 313.725 177.748 313.662 178.574L310.671 178.345ZM313.116 184.516C313.027 185.34 312.288 185.936 311.464 185.848C310.641 185.759 310.044 185.02 310.133 184.196L313.116 184.516ZM308.827 194.033C308.956 193.215 309.725 192.657 310.543 192.786C311.361 192.916 311.919 193.684 311.79 194.503L308.827 194.033ZM310.773 200.367C310.62 201.181 309.835 201.716 309.021 201.563C308.207 201.409 307.671 200.625 307.825 199.811L310.773 200.367ZM305.752 209.508C305.945 208.702 306.754 208.205 307.56 208.398C308.366 208.59 308.863 209.4 308.67 210.205L305.752 209.508ZM307.201 215.987C306.986 216.787 306.163 217.261 305.363 217.046C304.563 216.831 304.089 216.008 304.304 215.208L307.201 215.987ZM301.512 224.697C301.764 223.907 302.608 223.472 303.398 223.724C304.187 223.976 304.622 224.82 304.37 225.61L301.512 224.697ZM302.446 231.379C302.176 232.163 301.322 232.578 300.539 232.308C299.755 232.038 299.34 231.184 299.61 230.401L302.446 231.379ZM296.203 239.816C296.497 239.041 297.363 238.651 298.137 238.944C298.912 239.238 299.302 240.103 299.009 240.878L296.203 239.816ZM296.815 246.522C296.508 247.291 295.636 247.666 294.866 247.359C294.097 247.052 293.722 246.18 294.029 245.41L296.815 246.522ZM290.186 254.661C290.515 253.9 291.397 253.55 292.158 253.879C292.918 254.207 293.268 255.09 292.94 255.851L290.186 254.661ZM290.493 261.387C290.152 262.142 289.263 262.478 288.508 262.137C287.753 261.795 287.418 260.907 287.759 260.152L290.493 261.387ZM283.51 269.225C283.871 268.48 284.769 268.168 285.514 268.53C286.26 268.891 286.571 269.788 286.21 270.534L283.51 269.225ZM283.526 275.961C283.153 276.7 282.251 276.998 281.511 276.625C280.772 276.251 280.474 275.349 280.847 274.61L283.526 275.961ZM276.222 283.497C276.613 282.767 277.523 282.493 278.253 282.885C278.982 283.277 279.257 284.186 278.865 284.916L276.222 283.497ZM275.962 290.229C275.56 290.953 274.646 291.214 273.922 290.811C273.198 290.409 272.938 289.495 273.34 288.771L275.962 290.229ZM268.365 297.469C268.785 296.755 269.704 296.516 270.419 296.936C271.133 297.356 271.371 298.276 270.951 298.99L268.365 297.469ZM267.846 304.187C267.416 304.895 266.493 305.121 265.785 304.691C265.077 304.261 264.852 303.339 265.281 302.63L267.846 304.187ZM259.984 311.136C260.43 310.438 261.358 310.233 262.056 310.679C262.754 311.125 262.959 312.052 262.513 312.751L259.984 311.136ZM259.219 317.833C258.764 318.525 257.834 318.717 257.142 318.262C256.45 317.807 256.258 316.877 256.713 316.185L259.219 317.833ZM251.119 324.496C251.589 323.814 252.523 323.642 253.205 324.112C253.888 324.581 254.06 325.515 253.59 326.198L251.119 324.496ZM250.123 331.166C249.644 331.842 248.708 332.003 248.032 331.524C247.355 331.046 247.195 330.11 247.673 329.434L250.123 331.166ZM241.808 337.551C242.3 336.884 243.239 336.742 243.905 337.234C244.572 337.726 244.713 338.665 244.222 339.332L241.808 337.551ZM240.592 344.189C240.093 344.849 239.152 344.98 238.491 344.48C237.83 343.98 237.7 343.039 238.2 342.379L240.592 344.189ZM232.08 350.308C232.593 349.657 233.536 349.545 234.187 350.057C234.838 350.569 234.95 351.512 234.438 352.163L232.08 350.308ZM230.663 356.905C230.143 357.55 229.199 357.652 228.554 357.132C227.908 356.613 227.807 355.668 228.326 355.023L230.663 356.905ZM221.969 362.771C222.501 362.136 223.447 362.051 224.082 362.582C224.718 363.113 224.803 364.059 224.271 364.695L221.969 362.771ZM220.365 369.32C219.827 369.95 218.88 370.025 218.25 369.487C217.62 368.949 217.545 368.002 218.083 367.372L220.365 369.32ZM211.505 374.944C212.054 374.323 213.002 374.264 213.623 374.813C214.243 375.362 214.302 376.31 213.753 376.93L211.505 374.944ZM209.727 381.439C209.172 382.054 208.224 382.103 207.609 381.549C206.993 380.994 206.945 380.045 207.499 379.43L209.727 381.439ZM200.714 386.83C201.279 386.224 202.228 386.191 202.834 386.756C203.44 387.32 203.474 388.27 202.909 388.876L200.714 386.83ZM198.775 393.27C198.204 393.871 197.255 393.895 196.654 393.324C196.053 392.754 196.029 391.805 196.599 391.204L198.775 393.27ZM189.62 398.438C190.2 397.846 191.15 397.836 191.742 398.416C192.333 398.996 192.343 399.945 191.763 400.537L189.62 398.438ZM187.53 404.819C186.945 405.405 185.995 405.407 185.408 404.821C184.822 404.236 184.821 403.287 185.406 402.7L187.53 404.819ZM178.245 409.771C178.839 409.194 179.788 409.207 180.366 409.8C180.944 410.394 180.931 411.344 180.337 411.922L178.245 409.771ZM176.012 416.094C175.413 416.667 174.464 416.645 173.891 416.047C173.318 415.448 173.34 414.498 173.938 413.926L176.012 416.094ZM166.608 420.837C167.214 420.273 168.163 420.308 168.727 420.915C169.291 421.522 169.257 422.471 168.65 423.035L166.608 420.837ZM164.235 427.105C163.624 427.664 162.675 427.621 162.116 427.01C161.557 426.399 161.599 425.45 162.211 424.891L164.235 427.105ZM154.725 431.641C155.344 431.091 156.292 431.146 156.843 431.765C157.393 432.384 157.338 433.332 156.719 433.883L154.725 431.641ZM152.222 437.851C151.599 438.397 150.651 438.334 150.106 437.711C149.56 437.087 149.623 436.14 150.246 435.594L152.222 437.851ZM142.614 442.187C143.244 441.65 144.191 441.725 144.728 442.356C145.266 442.986 145.19 443.933 144.56 444.47L142.614 442.187ZM139.977 448.347C139.342 448.88 138.396 448.797 137.863 448.163C137.331 447.528 137.413 446.582 138.048 446.05L139.977 448.347ZM130.289 452.478C130.93 451.954 131.875 452.049 132.399 452.69C132.924 453.331 132.829 454.276 132.188 454.801L130.289 452.478ZM127.512 458.596C126.867 459.116 125.923 459.014 125.403 458.369C124.883 457.724 124.985 456.779 125.63 456.26L127.512 458.596ZM117.767 462.514C118.419 462.002 119.362 462.116 119.873 462.767C120.385 463.419 120.272 464.362 119.62 464.873L117.767 462.514ZM114.841 468.599C114.185 469.105 113.243 468.985 112.736 468.33C112.23 467.675 112.35 466.733 113.005 466.226L114.841 468.599ZM105.07 472.288C105.731 471.789 106.672 471.921 107.171 472.582C107.67 473.243 107.538 474.184 106.877 474.683L105.07 472.288ZM101.979 478.351C101.314 478.845 100.374 478.706 99.8801 478.041C99.386 477.377 99.5244 476.437 100.189 475.943L101.979 478.351ZM92.1167 481.867C92.7875 481.381 93.7254 481.531 94.2115 482.202C94.6977 482.872 94.548 483.81 93.8773 484.296L92.1167 481.867ZM88.9556 487.837C88.2814 488.318 87.3446 488.162 86.8633 487.487C86.3819 486.813 86.5383 485.876 87.2126 485.395L88.9556 487.837ZM78.9928 491.188C79.6728 490.715 80.6076 490.883 81.0808 491.563C81.554 492.243 81.3863 493.178 80.7063 493.651L78.9928 491.188ZM75.7996 497.039C75.1162 497.508 74.1826 497.333 73.7143 496.65C73.246 495.966 73.4204 495.033 74.1038 494.565L75.7996 497.039ZM65.7949 500.184C66.484 499.724 67.4154 499.91 67.8752 500.599C68.3351 501.288 68.1493 502.22 67.4603 502.679L65.7949 500.184ZM62.3377 506.07C61.6451 506.525 60.7152 506.332 60.2606 505.639C59.806 504.947 59.9989 504.017 60.6914 503.562L62.3377 506.07ZM52.2658 509.015C52.9642 508.57 53.8916 508.775 54.3372 509.473C54.7827 510.172 54.5777 511.099 53.8793 511.545L52.2658 509.015ZM48.7692 514.776C48.0671 515.215 47.1415 515.003 46.7017 514.301C46.2618 513.599 46.4744 512.673 47.1764 512.233L48.7692 514.776ZM38.6302 517.502C39.3387 517.072 40.2611 517.299 40.6905 518.007C41.1199 518.715 40.8937 519.638 40.1852 520.067L38.6302 517.502ZM34.9865 523.183C34.2738 523.605 33.3537 523.37 32.9315 522.657C32.5092 521.944 32.7448 521.024 33.4575 520.602L34.9865 523.183ZM24.8706 525.572C25.5926 525.166 26.5072 525.422 26.9134 526.144C27.3196 526.866 27.0636 527.781 26.3416 528.187L24.8706 525.572ZM9.7139 115.128C10.2453 114.243 10.7779 113.364 11.3116 112.49L13.8718 114.053C13.3421 114.921 12.8136 115.794 12.2861 116.672L9.7139 115.128ZM16.6863 103.941C17.7686 102.269 18.8552 100.62 19.946 98.9926L22.4378 100.663C21.3561 102.277 20.2783 103.913 19.2047 105.571L16.6863 103.941ZM25.6147 90.7899C26.7971 89.1305 27.984 87.4965 29.1751 85.8877L31.5862 87.6728C30.406 89.2669 29.2299 90.8861 28.0579 92.5308L25.6147 90.7899ZM35.1655 78.0523C36.4247 76.458 37.6882 74.8908 38.9558 73.3504L41.2723 75.2567C40.0176 76.7814 38.7667 78.333 37.5198 79.9117L35.1655 78.0523ZM45.4752 65.7039C46.7858 64.2211 48.1003 62.766 49.4184 61.3384L51.6225 63.3736C50.3193 64.785 49.0194 66.2239 47.7231 67.6906L45.4752 65.7039ZM56.426 54.0399C57.8461 52.6187 59.2699 51.2283 60.697 49.8686L62.7664 52.0406C61.3573 53.3832 59.9511 54.7564 58.5481 56.1604L56.426 54.0399ZM68.0793 43.1314C69.6105 41.7943 71.145 40.4913 72.6825 39.2221L74.5923 41.5357C73.0765 42.7871 71.5631 44.0721 70.0524 45.3911L68.0793 43.1314ZM80.4869 33.0851C82.1279 31.8579 83.7715 30.6681 85.4174 29.5152L87.1386 31.9724C85.5184 33.1073 83.8999 34.2789 82.2835 35.4876L80.4869 33.0851ZM93.6799 24.046C95.4254 22.9569 97.1726 21.9083 98.921 20.8996L100.42 23.4981C98.702 24.4894 96.9844 25.5202 95.2679 26.5912L93.6799 24.046ZM107.67 16.1869C109.505 15.2678 111.341 14.3916 113.176 13.5579L114.417 16.2892C112.616 17.1072 110.815 17.967 109.013 18.8693L107.67 16.1869ZM122.372 9.73116C124.289 9.00589 126.205 8.32602 128.118 7.69088L129.063 10.5381C127.189 11.1602 125.312 11.8263 123.434 12.537L122.372 9.73116ZM137.7 4.87596C139.679 4.36962 141.655 3.9104 143.626 3.49756L144.241 6.43386C142.313 6.83764 140.38 7.28687 138.444 7.78234L137.7 4.87596ZM153.501 1.80876C155.515 1.5415 157.523 1.32214 159.524 1.14986L159.782 4.13881C157.826 4.30713 155.864 4.52147 153.896 4.78269L153.501 1.80876ZM169.555 0.676262C171.577 0.659556 173.59 0.690662 175.593 0.768684L175.477 3.76641C173.52 3.69022 171.555 3.65984 169.58 3.67616L169.555 0.676262ZM185.619 1.55649C187.62 1.79356 189.609 2.07749 191.586 2.40734L191.092 5.36643C189.162 5.04435 187.22 4.76712 185.266 4.53564L185.619 1.55649ZM201.439 4.45392C203.391 4.94025 205.329 5.47178 207.252 6.04755L206.391 8.92148C204.513 8.35906 202.62 7.83991 200.714 7.36496L201.439 4.45392ZM216.771 9.3041C218.647 10.0277 220.506 10.7942 222.347 11.6025L221.141 14.3494C219.341 13.5593 217.524 12.8102 215.691 12.1031L216.771 9.3041ZM231.399 15.9877C233.17 16.9291 234.923 17.9103 236.655 18.9304L235.133 21.5154C233.438 20.5175 231.724 19.5577 229.991 18.6371L231.399 15.9877ZM245.129 24.3407C246.779 25.4791 248.407 26.6542 250.013 27.8651L248.207 30.2606C246.635 29.0749 245.04 27.9243 243.425 26.8099L245.129 24.3407ZM257.821 34.1857C259.335 35.5003 260.827 36.8483 262.294 38.229L260.237 40.4135C258.8 39.0604 257.339 37.7394 255.854 36.4515L257.821 34.1857ZM269.369 45.3449C270.738 46.8144 272.081 48.3143 273.398 49.8436L271.124 51.8012C269.833 50.3011 268.516 48.8302 267.174 47.3893L269.369 45.3449ZM279.693 57.6436C280.905 59.2452 282.089 60.874 283.246 62.5292L280.787 64.2478C279.651 62.6232 278.489 61.0248 277.301 59.4532L279.693 57.6436ZM288.731 70.9147C289.775 72.6234 290.792 74.3562 291.78 76.1122L289.165 77.5831C288.195 75.8586 287.197 74.1572 286.171 72.4795L288.731 70.9147ZM296.436 84.9999C297.31 86.7959 298.155 88.613 298.97 90.4504L296.228 91.6671C295.427 89.8619 294.597 88.0767 293.738 86.3125L296.436 84.9999ZM302.775 99.7484C303.476 101.613 304.147 103.496 304.788 105.396L301.945 106.355C301.315 104.487 300.656 102.636 299.967 100.804L302.775 99.7484ZM307.727 115.015C308.254 116.931 308.75 118.863 309.216 120.81L306.298 121.507C305.84 119.593 305.352 117.694 304.835 115.81L307.727 115.015ZM311.28 130.65C311.634 132.605 311.957 134.573 312.249 136.554L309.281 136.991C308.994 135.043 308.676 133.107 308.328 131.184L311.28 130.65ZM313.441 146.536C313.623 148.513 313.774 150.502 313.894 152.501L310.899 152.68C310.781 150.713 310.633 148.756 310.454 146.811L313.441 146.536ZM314.226 162.55C314.239 164.533 314.221 166.525 314.171 168.526L311.172 168.452C311.221 166.483 311.239 164.521 311.226 162.569L314.226 162.55ZM313.662 178.574C313.511 180.548 313.329 182.529 313.116 184.516L310.133 184.196C310.342 182.239 310.522 180.288 310.671 178.345L313.662 178.574ZM311.79 194.503C311.481 196.452 311.142 198.407 310.773 200.367L307.825 199.811C308.189 197.88 308.523 195.954 308.827 194.033L311.79 194.503ZM308.67 210.205C308.21 212.129 307.721 214.056 307.201 215.987L304.304 215.208C304.816 213.304 305.299 211.404 305.752 209.508L308.67 210.205ZM304.37 225.61C304.062 226.574 303.746 227.54 303.422 228.506L300.578 227.554C300.897 226.601 301.208 225.648 301.512 224.697L304.37 225.61ZM303.422 228.506C303.101 229.466 302.776 230.423 302.446 231.379L299.61 230.401C299.937 229.454 300.259 228.504 300.578 227.554L303.422 228.506ZM299.009 240.878C298.294 242.767 297.562 244.648 296.815 246.522L294.029 245.41C294.769 243.553 295.494 241.688 296.203 239.816L299.009 240.878ZM292.94 255.851C292.139 257.704 291.323 259.549 290.493 261.387L287.759 260.152C288.583 258.329 289.392 256.498 290.186 254.661L292.94 255.851ZM286.21 270.534C285.329 272.35 284.434 274.159 283.526 275.961L280.847 274.61C281.749 272.823 282.636 271.028 283.51 269.225L286.21 270.534ZM278.865 284.916C277.91 286.695 276.942 288.466 275.962 290.229L273.34 288.771C274.313 287.021 275.274 285.263 276.222 283.497L278.865 284.916ZM270.951 298.99C269.928 300.73 268.893 302.463 267.846 304.187L265.281 302.63C266.321 300.918 267.349 299.198 268.365 297.469L270.951 298.99ZM262.513 312.751C261.426 314.453 260.328 316.147 259.219 317.833L256.713 316.185C257.814 314.51 258.904 312.827 259.984 311.136L262.513 312.751ZM253.59 326.198C252.444 327.862 251.288 329.518 250.123 331.166L247.673 329.434C248.831 327.796 249.98 326.15 251.119 324.496L253.59 326.198ZM244.222 339.332C243.02 340.96 241.81 342.579 240.592 344.189L238.2 342.379C239.411 340.778 240.614 339.169 241.808 337.551L244.222 339.332ZM234.438 352.163C233.187 353.753 231.928 355.334 230.663 356.905L228.326 355.023C229.585 353.461 230.836 351.889 232.08 350.308L234.438 352.163ZM224.271 364.695C222.975 366.246 221.673 367.788 220.365 369.32L218.083 367.372C219.385 365.848 220.68 364.314 221.969 362.771L224.271 364.695ZM213.753 376.93C212.416 378.443 211.074 379.946 209.727 381.439L207.499 379.43C208.839 377.944 210.175 376.449 211.505 374.944L213.753 376.93ZM202.909 388.876C201.535 390.351 200.156 391.815 198.775 393.27L196.599 391.204C197.975 389.756 199.346 388.298 200.714 386.83L202.909 388.876ZM191.763 400.537C190.354 401.975 188.943 403.402 187.53 404.819L185.406 402.7C186.813 401.29 188.218 399.869 189.62 398.438L191.763 400.537ZM180.337 411.922C178.896 413.323 177.454 414.714 176.012 416.094L173.938 413.926C175.375 412.552 176.81 411.167 178.245 409.771L180.337 411.922ZM168.65 423.035C167.178 424.403 165.706 425.76 164.235 427.105L162.211 424.891C163.676 423.551 165.141 422.2 166.608 420.837L168.65 423.035ZM156.719 433.883C155.218 435.218 153.719 436.541 152.222 437.851L150.246 435.594C151.737 434.289 153.23 432.971 154.725 431.641L156.719 433.883ZM144.56 444.47C143.028 445.776 141.5 447.069 139.977 448.347L138.048 446.05C139.565 444.776 141.088 443.488 142.614 442.187L144.56 444.47ZM132.188 454.801C130.623 456.081 129.064 457.346 127.512 458.596L125.63 456.26C127.176 455.014 128.729 453.754 130.289 452.478L132.188 454.801ZM119.62 464.873C118.017 466.132 116.424 467.374 114.841 468.599L113.005 466.226C114.583 465.005 116.17 463.768 117.767 462.514L119.62 464.873ZM106.877 474.683C105.231 475.925 103.597 477.148 101.979 478.351L100.189 475.943C101.802 474.744 103.43 473.526 105.07 472.288L106.877 474.683ZM93.8773 484.296C92.218 485.499 90.5771 486.679 88.9556 487.837L87.2126 485.395C88.8283 484.242 90.4634 483.066 92.1167 481.867L93.8773 484.296ZM80.7063 493.651C79.0452 494.807 77.4091 495.936 75.7996 497.039L74.1038 494.565C75.7075 493.466 77.3377 492.34 78.9928 491.188L80.7063 493.651ZM67.4603 502.679C65.7125 503.846 64.0042 504.976 62.3377 506.07L60.6914 503.562C62.3516 502.472 64.0536 501.346 65.7949 500.184L67.4603 502.679ZM53.8793 511.545C52.1113 512.673 50.4066 513.75 48.7692 514.776L47.1764 512.233C48.807 511.212 50.5048 510.139 52.2658 509.015L53.8793 511.545ZM40.1852 520.067C38.3078 521.205 36.5715 522.244 34.9865 523.183L33.4575 520.602C35.034 519.668 36.7617 518.634 38.6302 517.502L40.1852 520.067ZM26.3416 528.187C25.4855 528.669 24.8299 529.032 24.3875 529.276C24.1662 529.397 23.9983 529.489 23.8852 529.551C23.8286 529.582 23.7858 529.605 23.7568 529.621C23.7424 529.629 23.7314 529.634 23.7239 529.639C23.7201 529.641 23.7172 529.642 23.7152 529.643C23.7142 529.644 23.7135 529.644 23.7129 529.644C23.7126 529.645 23.7124 529.645 23.7122 529.645C23.7122 529.645 23.7121 529.645 23.712 529.645C23.712 529.645 23.712 529.645 23.712 529.645C23.7119 529.645 23.7119 529.645 23 528.325C22.2881 527.004 22.2881 527.004 22.2881 527.004C22.2881 527.004 22.2881 527.004 22.2881 527.004C22.2881 527.004 22.2881 527.004 22.2881 527.004C22.2881 527.004 22.2882 527.004 22.2884 527.004C22.2887 527.004 22.2893 527.004 22.29 527.003C22.2916 527.003 22.294 527.001 22.2972 526.999C22.3038 526.996 22.3138 526.99 22.3273 526.983C22.3544 526.969 22.3953 526.946 22.4499 526.917C22.5592 526.857 22.7233 526.767 22.9405 526.648C23.3751 526.408 24.0226 526.049 24.8706 525.572L26.3416 528.187Z" fill="#7B41FF"/>
    <path d="M53.1386 530.309C41.6628 527.075 19.1949 532.798 3.56114 539.277C2.57281 539.687 1.66616 538.54 2.37964 537.763C11.1205 528.243 24.441 516.991 36.3808 499.85" stroke="#7B41FF" stroke-width="3" stroke-linecap="round" stroke-linejoin="round" stroke-dasharray="8 10"/>
</svg>
