<svg width="79" height="41" viewBox="0 0 79 41" fill="none" xmlns="http://www.w3.org/2000/svg">
<path opacity="0.4" fill-rule="evenodd" clip-rule="evenodd" d="M22.071 16.1456C22.0054 16.1571 21.9177 16.1771 21.8761 16.1901C21.8344 16.2031 21.7665 16.2355 21.7252 16.2621C21.6838 16.2886 21.6241 16.3414 21.5925 16.3793C21.5609 16.4172 21.5208 16.4765 21.5033 16.5112C21.4859 16.5458 21.4623 16.6135 21.451 16.6615C21.4396 16.7096 21.4301 16.8239 21.4298 16.9157C21.4295 17.0074 21.4387 17.1253 21.4501 17.1778C21.4616 17.2302 21.4892 17.3052 21.5115 17.3446C21.5337 17.3839 21.5704 17.4366 21.593 17.4618C21.6156 17.4869 21.6709 17.5314 21.7159 17.5605C21.7609 17.5897 21.8359 17.6282 21.8827 17.6461C21.9294 17.6641 22.0276 17.6894 22.1008 17.7023C22.1741 17.7152 22.3 17.7258 22.3807 17.7258C22.4614 17.7258 22.5909 17.7148 22.6685 17.7014C22.7461 17.688 22.8489 17.6624 22.897 17.6446C22.945 17.6268 23.0094 17.5968 23.0399 17.5779C23.0705 17.5591 23.1229 17.519 23.1563 17.4888C23.1898 17.4586 23.2338 17.401 23.2542 17.3608C23.2746 17.3205 23.304 17.245 23.3195 17.193C23.3387 17.1282 23.3476 17.0457 23.3474 16.9316C23.3472 16.8398 23.3378 16.7254 23.3264 16.6774C23.3149 16.6293 23.2859 16.5506 23.2618 16.5024C23.2377 16.4542 23.1826 16.3817 23.1394 16.3413C23.0962 16.3009 23.04 16.2571 23.0146 16.2441C22.9892 16.231 22.9327 16.2081 22.889 16.1932C22.8454 16.1783 22.7489 16.156 22.6746 16.1438C22.6003 16.1316 22.4609 16.1222 22.3648 16.1231C22.2687 16.124 22.1365 16.1341 22.071 16.1456ZM54.2804 16.275C54.2746 16.2808 54.2698 17.9249 54.2698 19.9285V23.5715H55.1912H56.1125V22.8437V22.1159L56.4091 21.8886C56.6608 21.6956 56.7082 21.665 56.7228 21.6862C56.7322 21.6998 56.7886 21.7883 56.8481 21.8828C56.9075 21.9772 57.1259 22.3332 57.3334 22.674C57.5409 23.0147 57.7494 23.356 57.7968 23.4325L57.8829 23.5715H58.9197C59.49 23.5715 59.9562 23.5661 59.9557 23.5596C59.9552 23.553 59.9249 23.5005 59.8882 23.4428C59.8516 23.3851 59.7515 23.2314 59.6657 23.1013C59.5799 22.9711 59.3613 22.6323 59.1799 22.3483C58.9985 22.0644 58.7534 21.682 58.6354 21.4985C58.5173 21.315 58.3387 21.0362 58.2385 20.879C58.1384 20.7217 58.0444 20.5748 58.0298 20.5525L58.0032 20.5119L58.3609 20.0759C58.5576 19.8361 58.788 19.5542 58.8729 19.4494C58.9579 19.3446 59.1697 19.0837 59.3437 18.8696C59.5176 18.6555 59.6929 18.441 59.7332 18.393C59.7735 18.3449 59.8161 18.2931 59.8279 18.2778C59.8483 18.2514 59.7985 18.25 58.8323 18.25H57.8152L57.4219 18.7464C57.2056 19.0194 56.9312 19.3643 56.8121 19.5129C56.6931 19.6614 56.5343 19.8687 56.4592 19.9735C56.3842 20.0784 56.2608 20.2589 56.1852 20.3746C56.1068 20.4946 56.0371 20.5851 56.0231 20.5851C56.0036 20.5851 56.0004 20.5726 56.0076 20.5255C56.0126 20.4928 56.0311 20.3337 56.0487 20.1721C56.0662 20.0105 56.0877 19.7031 56.0964 19.489C56.1051 19.275 56.1123 18.4619 56.1124 17.6821L56.1125 16.2644H55.2017C54.7008 16.2644 54.2862 16.2691 54.2804 16.275ZM11.9999 16.6313C11.8819 16.6392 11.6782 16.6636 11.5472 16.6856C11.4161 16.7077 11.2176 16.7544 11.106 16.7895C10.9943 16.8246 10.8155 16.8947 10.7085 16.9453C10.6016 16.9958 10.4284 17.0947 10.3237 17.1649C10.1959 17.2506 10.073 17.3519 9.94938 17.4734C9.84818 17.5729 9.72558 17.7044 9.67694 17.7655C9.62831 17.8267 9.53577 17.9661 9.47129 18.0753C9.40683 18.1845 9.3373 18.3131 9.31681 18.3612C9.2963 18.4093 9.25637 18.4988 9.22808 18.5603C9.19977 18.6217 9.16535 18.7111 9.15159 18.7588C9.13782 18.8066 9.1111 18.9029 9.0922 18.9728C9.07331 19.0427 9.04055 19.2035 9.01941 19.3302C8.99828 19.4569 8.97315 19.6947 8.96357 19.8588C8.95096 20.0747 8.95095 20.2435 8.96351 20.4703C8.97304 20.6427 8.99469 20.8837 9.01163 21.0061C9.02856 21.1284 9.06417 21.3187 9.09078 21.429C9.11741 21.5394 9.17799 21.7292 9.22544 21.8509C9.27289 21.9726 9.35941 22.1562 9.41774 22.2589C9.47607 22.3616 9.56304 22.4971 9.61102 22.5598C9.659 22.6226 9.78014 22.7541 9.88022 22.8521C9.99048 22.9601 10.1263 23.0732 10.2249 23.1391C10.3143 23.1989 10.4825 23.292 10.5987 23.3459C10.7148 23.3999 10.8935 23.4694 10.9958 23.5005C11.0981 23.5315 11.2926 23.5758 11.428 23.599C11.657 23.6381 11.7081 23.6411 12.1587 23.6413C12.5791 23.6416 12.6768 23.6368 12.8974 23.6054C13.0372 23.5855 13.2623 23.5409 13.3978 23.5063C13.5332 23.4716 13.7423 23.406 13.8624 23.3604L14.0808 23.2776L14.0808 22.5039L14.0808 21.7302L13.9736 21.7718C13.9146 21.7946 13.7234 21.8616 13.5487 21.9206C13.3739 21.9797 13.1309 22.0499 13.0086 22.0768C12.8863 22.1036 12.6933 22.133 12.5797 22.142C12.4661 22.1511 12.3053 22.154 12.2223 22.1485C12.1393 22.1431 12.0008 22.1211 11.9147 22.0997C11.8285 22.0784 11.7001 22.0319 11.6295 21.9963C11.5588 21.9608 11.4576 21.895 11.4045 21.8501C11.3514 21.8053 11.2706 21.7201 11.2249 21.6608C11.1793 21.6016 11.1108 21.4908 11.0727 21.4146C11.0346 21.3384 10.9818 21.2046 10.9554 21.1172C10.9289 21.0299 10.894 20.8726 10.8778 20.7678C10.8542 20.6158 10.8484 20.4918 10.8493 20.1562C10.8502 19.7954 10.8554 19.7069 10.8855 19.5367C10.9048 19.4275 10.95 19.2495 10.9858 19.1412C11.0216 19.033 11.0704 18.9114 11.0943 18.8712C11.1181 18.831 11.1619 18.7555 11.1915 18.7035C11.2211 18.6515 11.3073 18.5464 11.3831 18.47C11.4888 18.3634 11.5499 18.3165 11.6452 18.2685C11.7136 18.2342 11.8209 18.1907 11.8836 18.1721C11.9464 18.1534 12.0644 18.1339 12.1458 18.1287C12.2271 18.1235 12.3821 18.127 12.4901 18.1364C12.5982 18.1458 12.7661 18.1722 12.8634 18.1952C12.9607 18.2181 13.1333 18.2697 13.2469 18.3097C13.3604 18.3498 13.5348 18.4175 13.6344 18.4601C13.734 18.5027 13.8203 18.5319 13.8261 18.5248C13.832 18.5178 13.8556 18.4621 13.8786 18.4009C13.9015 18.3398 14.0072 18.0645 14.1133 17.7893C14.2195 17.5141 14.3191 17.2604 14.3347 17.2254C14.3502 17.1905 14.3675 17.1469 14.3731 17.1286C14.3823 17.0984 14.36 17.0857 14.1327 16.9915C13.995 16.9344 13.7679 16.8548 13.6281 16.8147C13.4863 16.774 13.2475 16.7211 13.088 16.695C12.9307 16.6694 12.7199 16.644 12.6194 16.6387C12.5189 16.6335 12.3867 16.6264 12.3255 16.623C12.2644 16.6197 12.1178 16.6234 11.9999 16.6313ZM17.4802 18.1803C17.4321 18.1837 17.3106 18.1976 17.2102 18.2112C17.1097 18.2247 16.9453 18.2579 16.8448 18.285C16.7443 18.312 16.587 18.3674 16.4952 18.4082C16.4033 18.4489 16.2683 18.5207 16.1951 18.5676C16.1219 18.6146 16.0033 18.7035 15.9314 18.7652C15.8595 18.827 15.7511 18.9382 15.6904 19.0125C15.6297 19.0867 15.5459 19.2027 15.5042 19.2701C15.4625 19.3375 15.3959 19.4662 15.3563 19.556C15.3166 19.6459 15.2606 19.8051 15.2318 19.91C15.203 20.0148 15.164 20.2007 15.1451 20.323C15.1183 20.4966 15.1106 20.6185 15.1102 20.879C15.1097 21.1439 15.1167 21.26 15.1443 21.4429C15.1635 21.5696 15.2013 21.7554 15.2285 21.8559C15.2556 21.9564 15.3113 22.1146 15.3522 22.2076C15.3932 22.3006 15.4611 22.4329 15.5032 22.5015C15.5453 22.5702 15.6194 22.6764 15.6678 22.7375C15.7162 22.7987 15.8167 22.9084 15.8913 22.9813C15.9687 23.0571 16.1037 23.1643 16.2062 23.2316C16.305 23.2963 16.4551 23.3806 16.5398 23.4189C16.6246 23.4572 16.7689 23.5103 16.8607 23.537C16.9524 23.5636 17.1025 23.5984 17.1943 23.6142C17.3256 23.6368 17.4456 23.6429 17.7582 23.6426C18.0647 23.6422 18.1934 23.6357 18.3221 23.6138C18.4138 23.5983 18.5725 23.5606 18.6746 23.5303C18.7767 23.4999 18.9368 23.4392 19.0303 23.3954C19.1239 23.3516 19.2726 23.266 19.3609 23.2052C19.4492 23.1445 19.5611 23.0572 19.6097 23.0114C19.6583 22.9656 19.7449 22.8709 19.8022 22.8011C19.8595 22.7312 19.9466 22.609 19.9959 22.5295C20.0451 22.4501 20.1143 22.3143 20.1496 22.2277C20.1849 22.1412 20.2378 21.9846 20.2671 21.8797C20.2965 21.7749 20.3328 21.6105 20.3478 21.5144C20.3628 21.4183 20.3797 21.2431 20.3853 21.1252C20.391 21.0072 20.3906 20.8142 20.3845 20.6963C20.3784 20.5783 20.3582 20.3977 20.3397 20.2948C20.3211 20.1919 20.2822 20.0275 20.2532 19.9294C20.2242 19.8314 20.1753 19.689 20.1445 19.613C20.1137 19.5371 20.0519 19.4143 20.0072 19.3403C19.9625 19.2662 19.8795 19.1499 19.8229 19.0818C19.7663 19.0137 19.72 18.9532 19.72 18.9475C19.72 18.9417 19.6574 18.8817 19.581 18.8142C19.5045 18.7466 19.3741 18.6469 19.2911 18.5926C19.2081 18.5384 19.0713 18.4613 18.9871 18.4215C18.903 18.3817 18.76 18.3271 18.6694 18.3003C18.5789 18.2735 18.4226 18.2367 18.3221 18.2187C18.1967 18.1962 18.0498 18.184 17.8535 18.18C17.6962 18.1767 17.5283 18.1769 17.4802 18.1803ZM27.6228 18.185C27.5529 18.1915 27.4349 18.2096 27.3607 18.2253C27.2864 18.2409 27.1649 18.2752 27.0907 18.3013C27.0164 18.3275 26.8985 18.3816 26.8286 18.4214C26.7587 18.4613 26.6503 18.5391 26.5878 18.5944C26.5253 18.6497 26.436 18.745 26.3894 18.8061C26.3118 18.9077 26.2997 18.9172 26.2468 18.9172H26.189L26.1309 18.7544C26.0989 18.6648 26.0474 18.5183 26.0164 18.4287C25.9665 18.2847 25.9556 18.2657 25.9217 18.2639C25.9006 18.2628 25.8726 18.2619 25.8595 18.2619C25.8464 18.2619 25.5533 18.2628 25.2082 18.2639L24.5808 18.2659V20.9187V23.5715H25.4942H26.4076L26.4076 22.257C26.4076 21.5104 26.4144 20.867 26.4234 20.7678C26.4322 20.6717 26.4472 20.543 26.4568 20.4818C26.4665 20.4207 26.4888 20.317 26.5065 20.2515C26.5242 20.186 26.5546 20.0963 26.5741 20.0522C26.5936 20.008 26.6419 19.9294 26.6814 19.8774C26.721 19.8254 26.7845 19.7605 26.8227 19.7332C26.8608 19.7058 26.9206 19.6715 26.9555 19.6569C26.9903 19.6423 27.0511 19.6232 27.0905 19.6143C27.1299 19.6055 27.2193 19.5982 27.2892 19.5982C27.3653 19.5981 27.4449 19.6083 27.4877 19.6235C27.5271 19.6374 27.5914 19.6707 27.6307 19.6974C27.6701 19.7241 27.7211 19.7722 27.7443 19.8044C27.7674 19.8366 27.8054 19.9092 27.8287 19.9659C27.8521 20.0225 27.886 20.1367 27.9042 20.2197C27.936 20.3656 27.9373 20.4242 27.944 21.9711L27.9508 23.5715H28.8555H29.7603L29.7554 21.6613L29.7504 19.7511L29.7145 19.5806C29.6948 19.4868 29.6544 19.3438 29.6247 19.2629C29.595 19.1819 29.5441 19.0657 29.5116 19.0045C29.479 18.9434 29.4185 18.8505 29.3771 18.798C29.3358 18.7456 29.2488 18.6551 29.1838 18.5968C29.1188 18.5385 29.0124 18.4585 28.9472 18.4189C28.882 18.3793 28.7718 18.326 28.7023 18.3004C28.6327 18.2747 28.5008 18.2384 28.4091 18.2196C28.2953 18.1964 28.164 18.1836 27.9961 18.1793C27.8606 18.176 27.6927 18.1785 27.6228 18.185ZM32.7616 18.1795C32.7397 18.1833 32.6575 18.1942 32.5789 18.2037C32.5002 18.2132 32.3558 18.2387 32.2578 18.2603C32.1598 18.282 32.0169 18.325 31.9401 18.3559C31.8633 18.3869 31.7791 18.4231 31.7529 18.4365C31.7266 18.4499 31.6659 18.4863 31.6178 18.5175C31.5698 18.5486 31.4814 18.6159 31.4214 18.667C31.3614 18.7181 31.2818 18.7974 31.2446 18.8431C31.2073 18.8889 31.1469 18.9857 31.1104 19.0584C31.0739 19.131 31.0256 19.2522 31.003 19.3278C30.9667 19.4496 30.9619 19.4941 30.961 19.7194C30.9602 19.9085 30.9672 20.006 30.9883 20.1006C31.0039 20.1705 31.0389 20.2849 31.0661 20.3548C31.0933 20.4247 31.1438 20.5282 31.1782 20.5849C31.2127 20.6416 31.281 20.7323 31.3301 20.7864C31.3791 20.8406 31.4657 20.9199 31.5225 20.9627C31.5793 21.0054 31.6948 21.0809 31.7791 21.1305C31.8634 21.18 31.9957 21.2498 32.073 21.2855C32.1503 21.3212 32.2671 21.3719 32.3327 21.398C32.3982 21.4242 32.4589 21.451 32.4677 21.4576C32.4764 21.4642 32.5801 21.5073 32.698 21.5533C32.816 21.5994 32.9892 21.6761 33.0829 21.7239C33.2042 21.7856 33.2714 21.8311 33.3155 21.8812C33.3508 21.9213 33.3822 21.9762 33.3883 22.0084C33.3941 22.0396 33.3941 22.0877 33.3883 22.1154C33.3824 22.143 33.3623 22.1824 33.3436 22.2028C33.3249 22.2232 33.2846 22.2509 33.254 22.2642C33.2234 22.2776 33.1555 22.2982 33.1031 22.3099C33.0488 22.3221 32.9116 22.3316 32.7842 22.3319C32.6612 22.3322 32.4825 22.3216 32.3871 22.3083C32.2916 22.295 32.142 22.2689 32.0547 22.2503C31.9673 22.2318 31.7886 22.1863 31.6575 22.1493C31.5265 22.1123 31.3178 22.0427 31.1938 21.9946C31.0697 21.9465 30.9643 21.9111 30.9595 21.9159C30.9546 21.9208 30.9507 22.2482 30.9507 22.6436V23.3625L31.0023 23.3786C31.0307 23.3875 31.1468 23.4232 31.2604 23.458C31.374 23.4928 31.542 23.5366 31.6337 23.5552C31.7255 23.5738 31.8791 23.5999 31.9752 23.6132C32.0882 23.6289 32.339 23.6405 32.6844 23.6461C33.1348 23.6534 33.2496 23.6505 33.4151 23.6277C33.5231 23.6128 33.6972 23.5788 33.802 23.5523C33.9069 23.5257 34.057 23.4773 34.1356 23.4447C34.2142 23.4122 34.3429 23.3442 34.4215 23.2937C34.5002 23.2432 34.6074 23.1618 34.6597 23.1127C34.7121 23.0636 34.7921 22.9721 34.8374 22.9094C34.8828 22.8467 34.9451 22.7409 34.9759 22.6741C35.0067 22.6074 35.0506 22.4696 35.0734 22.3679C35.1089 22.2096 35.1149 22.1461 35.1145 21.9281C35.1141 21.7604 35.1051 21.627 35.0881 21.5382C35.0739 21.4639 35.0421 21.3511 35.0174 21.2875C34.9927 21.2238 34.942 21.1204 34.9047 21.0576C34.8674 20.9948 34.7792 20.8854 34.7086 20.8144C34.6381 20.7434 34.5268 20.6498 34.4613 20.6063C34.3957 20.5628 34.2814 20.4947 34.2071 20.4549C34.1328 20.4151 33.997 20.35 33.9053 20.3104C33.8135 20.2708 33.6634 20.2087 33.5717 20.1724C33.48 20.136 33.2905 20.0565 33.1507 19.9957C33.011 19.9349 32.8629 19.8604 32.8216 19.8303C32.7804 19.8001 32.7353 19.7533 32.7213 19.7262C32.7073 19.6991 32.6953 19.6575 32.6946 19.6337C32.6939 19.6099 32.7033 19.5701 32.7155 19.5451C32.7277 19.5202 32.7556 19.4869 32.7774 19.4711C32.7993 19.4552 32.8598 19.4313 32.9118 19.418C32.9639 19.4046 33.0675 19.3937 33.1422 19.3938C33.2168 19.3938 33.3422 19.405 33.4208 19.4186C33.4994 19.4322 33.6198 19.4575 33.6884 19.4748C33.7569 19.4922 33.9002 19.5341 34.0067 19.5679C34.1132 19.6017 34.2846 19.6631 34.3875 19.7043C34.4915 19.7459 34.5801 19.7729 34.587 19.7651C34.5938 19.7574 34.682 19.5546 34.783 19.3143C34.884 19.074 34.992 18.8187 35.023 18.7469C35.054 18.6751 35.0742 18.6132 35.068 18.6094C35.0618 18.6055 34.9496 18.5598 34.8186 18.5078C34.6876 18.4557 34.4696 18.3806 34.3342 18.3409C34.1987 18.3011 33.9736 18.2496 33.8338 18.2264C33.6194 18.1908 33.5188 18.1833 33.1905 18.1783C32.9764 18.1752 32.7834 18.1756 32.7616 18.1795ZM39.1314 18.1853C39.0746 18.1921 38.9648 18.2165 38.8872 18.2394C38.8097 18.2623 38.6846 18.3142 38.6092 18.3548C38.5339 18.3955 38.4132 18.4786 38.3412 18.5396C38.2691 18.6007 38.1584 18.7145 38.0952 18.7925C37.993 18.9187 37.9751 18.934 37.934 18.9298C37.8898 18.9253 37.8837 18.9145 37.7983 18.6868C37.7492 18.5558 37.695 18.4072 37.6781 18.3567C37.6564 18.2923 37.6375 18.2624 37.6149 18.2569C37.5972 18.2526 37.261 18.2511 36.8678 18.2535L36.153 18.2579L36.149 22.0664L36.145 25.8748H37.0592H37.9733L37.9674 24.6795C37.9617 23.5412 37.9598 23.4746 37.9271 23.2855C37.9082 23.1763 37.8927 23.0781 37.8926 23.0671C37.8925 23.0562 37.911 23.0473 37.9337 23.0473C37.9621 23.0473 38.0078 23.0775 38.0806 23.1445C38.1387 23.198 38.2401 23.2829 38.3058 23.3332C38.3716 23.3834 38.4753 23.4494 38.5362 23.4799C38.5971 23.5103 38.6934 23.5501 38.7502 23.5683C38.807 23.5864 38.9142 23.6133 38.9885 23.6281C39.0957 23.6493 39.1791 23.6532 39.3935 23.6467C39.626 23.6397 39.6846 23.6325 39.8145 23.5948C39.8975 23.5707 40.0364 23.5156 40.1231 23.4723C40.2176 23.4252 40.3323 23.3506 40.4094 23.2862C40.4801 23.2271 40.5886 23.1188 40.6504 23.0455C40.7122 22.9722 40.8062 22.8372 40.8592 22.7455C40.9123 22.6537 40.9881 22.4965 41.0276 22.396C41.0671 22.2955 41.1208 22.1311 41.147 22.0306C41.1732 21.9302 41.2107 21.7407 41.2304 21.6097C41.2611 21.4047 41.2661 21.3059 41.2665 20.9028C41.2668 20.5355 41.2607 20.3896 41.2382 20.2277C41.2223 20.1141 41.1848 19.9211 41.1547 19.7988C41.1246 19.6765 41.0675 19.4942 41.0279 19.3937C40.9883 19.2933 40.9138 19.136 40.8623 19.0443C40.8109 18.9525 40.7224 18.8217 40.6657 18.7536C40.609 18.6855 40.5068 18.5832 40.4387 18.5264C40.3706 18.4695 40.2541 18.3912 40.1798 18.3523C40.1056 18.3134 39.9669 18.2599 39.8717 18.2333C39.7239 18.1921 39.6646 18.1841 39.4666 18.1789C39.3391 18.1755 39.1882 18.1784 39.1314 18.1853ZM44.3258 18.1858C44.2603 18.193 44.1407 18.2106 44.06 18.2249C43.9793 18.2392 43.8521 18.2686 43.7772 18.2903C43.7024 18.312 43.5616 18.3661 43.4644 18.4105C43.3672 18.4549 43.2264 18.5325 43.1515 18.5829C43.0766 18.6333 42.9653 18.7198 42.9041 18.7751C42.843 18.8305 42.7458 18.9333 42.6882 19.0037C42.6307 19.0741 42.5438 19.1995 42.4951 19.2825C42.4464 19.3655 42.3767 19.5085 42.3401 19.6002C42.3036 19.692 42.25 19.8599 42.2211 19.9735C42.1922 20.0871 42.1562 20.2658 42.1411 20.3707C42.1211 20.5101 42.1138 20.6637 42.1141 20.9425C42.1144 21.2581 42.1204 21.3593 42.1489 21.5303C42.1678 21.6438 42.2048 21.8118 42.2312 21.9036C42.2576 21.9953 42.3087 22.1383 42.3448 22.2213C42.3809 22.3043 42.4548 22.4436 42.5091 22.531C42.5633 22.6184 42.6594 22.7487 42.7225 22.8207C42.7857 22.8927 42.8914 22.9964 42.9575 23.0511C43.0236 23.1058 43.1458 23.1927 43.2292 23.2441C43.3125 23.2956 43.4626 23.3725 43.5628 23.4149C43.663 23.4574 43.8131 23.5108 43.8964 23.5335C43.9797 23.5563 44.13 23.5886 44.2305 23.6052C44.331 23.6219 44.5276 23.6422 44.6674 23.6503C44.8278 23.6596 45.0445 23.6593 45.2551 23.6495C45.4386 23.6409 45.6852 23.6203 45.8031 23.6036C45.9211 23.5869 46.1212 23.5446 46.2479 23.5095C46.3746 23.4744 46.5676 23.4071 46.6768 23.3599L46.8754 23.274L46.8795 22.6188C46.8828 22.0964 46.8796 21.9653 46.8636 21.9719C46.8526 21.9765 46.765 22.0138 46.6689 22.0548C46.5728 22.0958 46.4441 22.1467 46.3829 22.1679C46.3218 22.1891 46.2038 22.2235 46.1208 22.2442C46.0378 22.2649 45.8698 22.2976 45.7475 22.3169C45.5704 22.3448 45.4556 22.3521 45.1836 22.3526C44.8825 22.3532 44.8273 22.3492 44.7169 22.3191C44.6481 22.3004 44.539 22.2597 44.4746 22.2287C44.402 22.1938 44.3171 22.1347 44.2517 22.0737C44.1935 22.0194 44.1218 21.9375 44.0924 21.8916C44.0629 21.8456 44.0251 21.7634 44.0083 21.7089C43.9915 21.6543 43.9716 21.57 43.9641 21.5215C43.9566 21.4731 43.9533 21.4248 43.9568 21.4143C43.9616 21.3996 44.3396 21.3952 45.5979 21.3952H47.2328L47.2322 20.9783C47.2319 20.7489 47.2253 20.4688 47.2175 20.3557C47.2098 20.2427 47.1877 20.064 47.1685 19.9586C47.1492 19.8532 47.1049 19.6848 47.0699 19.5843C47.035 19.4839 46.992 19.3731 46.9743 19.3381C46.9567 19.3032 46.9134 19.2281 46.8781 19.1713C46.8428 19.1145 46.7637 19.0082 46.7023 18.9351C46.6409 18.8619 46.5224 18.7471 46.4391 18.6798C46.3558 18.6126 46.2179 18.5201 46.1327 18.4742C46.0476 18.4283 45.8939 18.3623 45.7912 18.3275C45.6885 18.2927 45.5045 18.2465 45.3822 18.2249C45.2027 18.1932 45.0908 18.1844 44.8024 18.1792C44.6058 18.1756 44.3913 18.1786 44.3258 18.1858ZM50.3859 18.1804C50.3423 18.1837 50.1993 18.1977 50.0682 18.2115C49.9372 18.2253 49.7253 18.257 49.5974 18.282C49.4695 18.307 49.2605 18.3605 49.133 18.4011C49.0055 18.4416 48.8207 18.5107 48.7222 18.5547C48.6238 18.5986 48.5407 18.637 48.5375 18.64C48.5344 18.643 48.564 18.7155 48.6035 18.8012C48.6429 18.8868 48.6933 18.9998 48.7154 19.0522C48.7375 19.1046 48.7998 19.2512 48.8539 19.3778C48.9079 19.5045 48.9769 19.6597 49.0071 19.7226L49.0621 19.837L49.1442 19.8041C49.1894 19.786 49.3072 19.7403 49.406 19.7025C49.5048 19.6647 49.6477 19.6156 49.7237 19.5934C49.7996 19.5711 49.9404 19.5358 50.0365 19.5149C50.1326 19.494 50.2612 19.4717 50.3224 19.4654C50.3836 19.459 50.4919 19.4543 50.5633 19.4549C50.6507 19.4556 50.7253 19.4669 50.7923 19.4895C50.8469 19.5079 50.9217 19.5436 50.9584 19.5689C50.9951 19.5941 51.0473 19.6493 51.0744 19.6916C51.1015 19.7338 51.1344 19.7987 51.1474 19.8357C51.1605 19.8727 51.176 19.9664 51.1818 20.0438L51.1924 20.1846L51.0275 20.1938C50.9367 20.1989 50.7338 20.207 50.5766 20.2119C50.4193 20.2167 50.2013 20.2278 50.0921 20.2366C49.9829 20.2453 49.8006 20.2673 49.687 20.2853C49.5734 20.3034 49.4047 20.339 49.312 20.3644C49.2194 20.3898 49.0763 20.438 48.9941 20.4714C48.912 20.5049 48.7876 20.5652 48.7178 20.6054C48.648 20.6457 48.5408 20.7209 48.4794 20.7725C48.4181 20.8242 48.3369 20.9075 48.2989 20.9578C48.261 21.008 48.1959 21.1216 48.1541 21.2103C48.1124 21.2989 48.0618 21.4393 48.0417 21.5223C48.0106 21.6503 48.0051 21.7154 48.005 21.9512C48.005 22.1499 48.0128 22.27 48.0325 22.3722C48.0477 22.4508 48.0787 22.5723 48.1014 22.6422C48.1241 22.7121 48.1695 22.8229 48.2023 22.8884C48.2351 22.9539 48.2949 23.05 48.3352 23.1019C48.3756 23.1538 48.4625 23.2411 48.5285 23.2959C48.5944 23.3507 48.7141 23.4305 48.7944 23.4733C48.8851 23.5216 49.0006 23.5666 49.0993 23.5924C49.1866 23.6151 49.3367 23.6402 49.4328 23.6481C49.5293 23.6561 49.7036 23.6569 49.822 23.6499C49.94 23.643 50.0971 23.6261 50.1711 23.6124C50.2452 23.5988 50.3732 23.5651 50.4555 23.5377C50.5378 23.5103 50.665 23.4533 50.7381 23.4111C50.8112 23.3689 50.9318 23.2831 51.0061 23.2206C51.0803 23.158 51.1463 23.0977 51.1527 23.0865C51.1591 23.0753 51.2094 23.0186 51.2645 22.9604C51.3197 22.9022 51.3718 22.857 51.3805 22.8599C51.3892 22.8628 51.4769 23.0223 51.5755 23.2143L51.7547 23.5635L52.3857 23.5677L53.0167 23.5718L53.0107 21.6694L53.0046 19.767L52.9619 19.5923C52.9384 19.4962 52.8937 19.3532 52.8624 19.2746C52.8312 19.196 52.7736 19.0787 52.7344 19.014C52.6952 18.9493 52.6232 18.8512 52.5744 18.796C52.5257 18.7407 52.4207 18.6462 52.3413 18.5859C52.2618 18.5256 52.1432 18.4493 52.0777 18.4164C52.0122 18.3835 51.8871 18.3321 51.7997 18.3022C51.7123 18.2723 51.5587 18.2334 51.4582 18.2158C51.3146 18.1907 51.1887 18.1829 50.8704 18.1791C50.6477 18.1765 50.4296 18.1771 50.3859 18.1804ZM62.6412 18.1803C62.6019 18.1839 62.4982 18.1979 62.4109 18.2115C62.3235 18.225 62.1734 18.2582 62.0773 18.2853C61.9812 18.3123 61.826 18.3686 61.7325 18.4104C61.639 18.4522 61.5067 18.5238 61.4386 18.5696C61.3705 18.6155 61.2626 18.6999 61.1987 18.7573C61.1348 18.8146 61.0316 18.9221 60.9694 18.996C60.9072 19.07 60.8162 19.1987 60.7672 19.282C60.7182 19.3653 60.6479 19.5121 60.611 19.6082C60.5742 19.7043 60.523 19.8651 60.4975 19.9656C60.4719 20.0661 60.4383 20.2305 60.4228 20.3309C60.4012 20.471 60.3947 20.6099 60.3948 20.9266C60.3949 21.2783 60.4001 21.3703 60.4299 21.5461C60.4491 21.6597 60.4853 21.8241 60.5104 21.9115C60.5355 21.9989 60.5889 22.1481 60.629 22.2432C60.6692 22.3383 60.7396 22.4741 60.7855 22.545C60.8314 22.6159 60.9253 22.7383 60.9941 22.8169C61.063 22.8956 61.1729 23.0045 61.2384 23.0591C61.3039 23.1136 61.4336 23.2036 61.5268 23.2591C61.6199 23.3146 61.7675 23.3896 61.8549 23.4257C61.9423 23.4618 62.0817 23.5094 62.1647 23.5315C62.2477 23.5536 62.4013 23.5864 62.5062 23.6045C62.611 23.6225 62.8112 23.6435 62.951 23.6511C63.1039 23.6594 63.338 23.6587 63.5387 23.6494C63.7222 23.6409 63.9688 23.62 64.0867 23.603C64.2047 23.586 64.4014 23.5443 64.5239 23.5103C64.6464 23.4763 64.7822 23.4323 64.8257 23.4124C64.8692 23.3926 64.9584 23.3539 65.024 23.3264L65.1431 23.2765L65.1472 22.6223L65.1514 21.9681L65.0202 22.0247C64.948 22.0558 64.8139 22.1083 64.7221 22.1414C64.6304 22.1744 64.4839 22.2195 64.3965 22.2416C64.3091 22.2637 64.1394 22.2972 64.0193 22.316C63.8604 22.3409 63.7177 22.3511 63.4951 22.3532C63.2928 22.3552 63.1489 22.3489 63.0701 22.3345C63.0046 22.3226 62.9045 22.2954 62.8477 22.2742C62.7909 22.253 62.7003 22.2069 62.6463 22.1717C62.5923 22.1365 62.5169 22.0743 62.4788 22.0335C62.4407 21.9926 62.3864 21.9187 62.3582 21.8692C62.3299 21.8197 62.2934 21.74 62.2769 21.6922C62.2604 21.6443 62.2419 21.5579 62.2357 21.5002L62.2245 21.3952H63.8643H65.504L65.4964 20.7717C65.4892 20.1747 65.4871 20.1395 65.4465 19.9418C65.4233 19.8282 65.3976 19.7174 65.3896 19.6955C65.3815 19.6737 65.3499 19.5915 65.3195 19.5129C65.289 19.4342 65.2261 19.3015 65.1796 19.2178C65.1331 19.1342 65.0415 19.0037 64.9761 18.9279C64.9107 18.852 64.7947 18.7398 64.7183 18.6786C64.6419 18.6173 64.5061 18.527 64.4165 18.4779C64.3269 18.4288 64.1713 18.3606 64.0709 18.3263C63.9704 18.292 63.7881 18.2463 63.6658 18.2248C63.4841 18.1928 63.3765 18.1846 63.078 18.1797C62.8771 18.1764 62.6805 18.1767 62.6412 18.1803ZM69.5353 18.1858C69.4872 18.1931 69.3979 18.2147 69.3367 18.2339C69.2756 18.253 69.1604 18.3028 69.0807 18.3444C69.001 18.3861 68.8795 18.4632 68.8106 18.5159C68.7418 18.5685 68.6352 18.6643 68.5739 18.7286C68.5125 18.793 68.424 18.9047 68.3773 18.9767C68.3043 19.0892 68.286 19.1078 68.248 19.1078C68.2054 19.1078 68.2012 19.1001 68.1331 18.8973C68.0943 18.7815 68.0284 18.5885 67.9866 18.4683L67.9107 18.2497L67.2338 18.2538L66.5569 18.2579L66.5528 20.9147L66.5488 23.5715H67.4613H68.3738L68.3795 22.1537C68.385 20.7591 68.3857 20.7341 68.4193 20.6169C68.4381 20.5513 68.4735 20.4546 68.498 20.402C68.5225 20.3493 68.5671 20.274 68.5973 20.2346C68.6274 20.1952 68.6851 20.1369 68.7256 20.105C68.766 20.0731 68.8414 20.0283 68.8932 20.0053C68.9449 19.9824 69.048 19.9486 69.1223 19.9301C69.2382 19.9014 69.3045 19.8967 69.5909 19.8969C69.8252 19.897 69.9588 19.9042 70.0396 19.9209C70.103 19.9341 70.1548 19.9405 70.1549 19.9353C70.1549 19.9301 70.1728 19.74 70.1946 19.5129C70.2164 19.2857 70.2524 18.9042 70.2747 18.6651C70.2969 18.4259 70.3124 18.2276 70.3091 18.2243C70.3058 18.221 70.268 18.211 70.225 18.202C70.182 18.1931 70.0289 18.1828 69.8848 18.1792C69.7406 18.1755 69.5833 18.1785 69.5353 18.1858ZM21.4673 20.9188V23.5717L22.3767 23.5676L23.2862 23.5635L23.2902 20.9147L23.2942 18.2659H22.3808H21.4673V20.9188ZM44.9269 19.4181C44.9735 19.424 45.0549 19.4464 45.1078 19.4679C45.1607 19.4894 45.2323 19.5297 45.267 19.5576C45.3018 19.5854 45.363 19.6511 45.403 19.7035C45.4431 19.7559 45.4918 19.8423 45.5112 19.8955C45.5307 19.9486 45.5542 20.0474 45.5636 20.115C45.5731 20.1826 45.5807 20.241 45.5807 20.2447C45.5807 20.2485 45.2233 20.2515 44.7865 20.2515C44.0555 20.2515 43.9922 20.2494 43.9922 20.225C43.9922 20.2104 44.0004 20.1519 44.0103 20.0949C44.0202 20.0379 44.0489 19.9413 44.0741 19.8802C44.0993 19.8192 44.1492 19.7312 44.185 19.6848C44.2209 19.6383 44.2921 19.5723 44.3434 19.5381C44.3947 19.5039 44.4718 19.4641 44.5148 19.4499C44.5579 19.4356 44.6384 19.4181 44.6937 19.411C44.7491 19.4039 44.8052 19.4002 44.8183 19.4027C44.8314 19.4052 44.8802 19.4122 44.9269 19.4181ZM63.3739 19.4646C63.4305 19.4872 63.5113 19.5343 63.5535 19.5691C63.5956 19.604 63.6566 19.6699 63.689 19.7156C63.7233 19.7641 63.7651 19.8551 63.7893 19.9338C63.8121 20.0081 63.8348 20.1099 63.8398 20.1602L63.8487 20.2515H63.0541H62.2594L62.267 20.2158C62.2712 20.1961 62.2829 20.1371 62.293 20.0847C62.3031 20.0323 62.3319 19.9375 62.357 19.874C62.3822 19.8106 62.4296 19.7241 62.4624 19.6818C62.4952 19.6394 62.5593 19.5786 62.6048 19.5465C62.6502 19.5144 62.7181 19.4767 62.7557 19.4626C62.7932 19.4486 62.8525 19.4313 62.8874 19.4243C62.9224 19.4172 63.023 19.4141 63.111 19.4174C63.2364 19.4221 63.2933 19.4323 63.3739 19.4646ZM18.0141 19.5617C18.0568 19.5762 18.1254 19.6125 18.1664 19.6425C18.2075 19.6725 18.2657 19.7307 18.2958 19.7718C18.3259 19.8129 18.3733 19.9056 18.4012 19.978C18.4291 20.0503 18.4654 20.1754 18.482 20.256C18.4986 20.3365 18.5201 20.515 18.5297 20.6526C18.5424 20.8356 18.5423 20.9722 18.5293 21.1609C18.5196 21.3029 18.4981 21.4834 18.4817 21.562C18.4653 21.6407 18.4305 21.7635 18.4044 21.835C18.3782 21.9065 18.3349 21.9968 18.3081 22.0358C18.2813 22.0747 18.2279 22.1344 18.1893 22.1683C18.1479 22.2048 18.0757 22.2454 18.0125 22.2677C17.9273 22.2977 17.8747 22.3052 17.7525 22.3045C17.6252 22.3038 17.5793 22.2962 17.4808 22.2594C17.3848 22.2235 17.3437 22.1965 17.2648 22.1177C17.207 22.0599 17.1497 21.9828 17.1238 21.9281C17.0998 21.8774 17.0636 21.7705 17.0434 21.6906C17.0231 21.6107 16.9951 21.4636 16.9813 21.3637C16.966 21.254 16.956 21.0713 16.956 20.9024C16.956 20.7467 16.9664 20.544 16.9794 20.445C16.9923 20.3472 17.0172 20.2095 17.0348 20.139C17.0523 20.0686 17.0891 19.9639 17.1165 19.9064C17.1493 19.8379 17.2003 19.7687 17.265 19.7051C17.3278 19.6434 17.392 19.5973 17.4418 19.5782C17.4848 19.5618 17.5485 19.5425 17.5835 19.5355C17.6184 19.5284 17.7121 19.5255 17.7917 19.5291C17.8713 19.5326 17.9713 19.5473 18.0141 19.5617ZM39.0044 19.6536C39.0524 19.6768 39.1097 19.7118 39.1316 19.7314C39.1535 19.751 39.1949 19.7996 39.2235 19.8395C39.2521 19.8794 39.2928 19.9617 39.314 20.0225C39.3351 20.0833 39.3642 20.1972 39.3786 20.2757C39.3954 20.3667 39.4079 20.5458 39.4131 20.7706C39.4183 20.9881 39.4143 21.1917 39.4029 21.3028C39.3927 21.4017 39.3702 21.5425 39.353 21.6158C39.3357 21.6891 39.2997 21.7949 39.273 21.851C39.2438 21.9121 39.1901 21.9866 39.1389 22.037C39.0728 22.1021 39.0301 22.1287 38.9492 22.1552C38.8918 22.1741 38.8067 22.1895 38.76 22.1895C38.7133 22.1895 38.6366 22.1822 38.5895 22.1734C38.5425 22.1645 38.465 22.1383 38.4173 22.115C38.3696 22.0917 38.3011 22.0424 38.265 22.0053C38.229 21.9682 38.1738 21.889 38.1425 21.8293C38.1112 21.7697 38.0711 21.6637 38.0534 21.5938C38.0358 21.5239 38.0141 21.406 38.0053 21.3317C37.9965 21.2574 37.9851 21.1072 37.98 20.9978C37.9749 20.8884 37.9781 20.7133 37.9872 20.6086C37.9963 20.5039 38.0154 20.354 38.0297 20.2753C38.0441 20.1967 38.0768 20.079 38.1024 20.0137C38.1281 19.9484 38.1733 19.8619 38.203 19.8215C38.2327 19.781 38.2865 19.7284 38.3225 19.7046C38.3585 19.6808 38.4176 19.6502 38.4539 19.6368C38.4902 19.6233 38.5663 19.6078 38.6231 19.6023C38.6799 19.5968 38.7693 19.5966 38.8217 19.6018C38.8748 19.6071 38.9557 19.63 39.0044 19.6536ZM51.2012 21.3714C51.204 21.4675 51.1979 21.6094 51.1877 21.6867C51.1769 21.7682 51.1518 21.8651 51.1282 21.9171C51.1057 21.9664 51.0584 22.0413 51.023 22.0835C50.9876 22.1257 50.9248 22.1851 50.8833 22.2155C50.8418 22.246 50.7659 22.2873 50.7147 22.3074C50.6634 22.3275 50.5868 22.3491 50.5444 22.3555C50.5021 22.3619 50.4176 22.3666 50.3566 22.366C50.2956 22.3654 50.2083 22.3541 50.1625 22.3408C50.1166 22.3274 50.0481 22.2908 50.0102 22.2594C49.9722 22.228 49.9276 22.1726 49.9111 22.1363C49.8945 22.1 49.8755 22.0283 49.8689 21.977C49.8622 21.9256 49.8631 21.839 49.8708 21.7846C49.8785 21.7301 49.8997 21.6506 49.9179 21.6079C49.9361 21.5652 49.9809 21.4993 50.0176 21.4614C50.0542 21.4235 50.1306 21.369 50.1874 21.3403C50.2442 21.3116 50.33 21.2769 50.378 21.2631C50.4261 21.2493 50.544 21.2304 50.6401 21.221C50.7362 21.2117 50.8613 21.2018 50.9181 21.1991C50.9749 21.1964 51.0607 21.1947 51.1087 21.1954L51.1961 21.1967L51.2012 21.3714Z" fill="white"/>
</svg>
