<svg width="138" height="72" viewBox="0 0 138 72" fill="none" xmlns="http://www.w3.org/2000/svg">
<path fill-rule="evenodd" clip-rule="evenodd" d="M66.271 26.8201C62.4991 28.2008 59.8657 32.0822 59.8657 36.2614C59.8657 44.8911 69.8636 49.51 76.4112 43.9052C78.7937 41.8658 79.9313 39.4846 79.9425 36.5119C79.955 33.3155 78.8553 30.7851 76.5844 28.7866C73.6389 26.1937 69.9196 25.4846 66.271 26.8201ZM28.1129 26.5623C28.1129 26.5623 28.09 31.2123 28.084 36.3692V45.9606L32.8547 46.0037V36.283V26.5623C31.2741 26.5623 29.6935 26.5623 28.1129 26.5623ZM38.4586 36.2614V45.9606H40.8295H43.2004V42.2965V38.6323H46.2179H49.2354V36.2614V33.8905H46.2179H43.2004V30.2264V26.5623H40.8295H38.4586V36.2614ZM50.9597 36.2614V45.9606H53.3306H55.7015V36.2614V26.5623H53.3306H50.9597V36.2614ZM84.1524 32.7706V39.0634H86.5233H88.8942V35.1838V31.3041H91.0922C94.9529 31.3041 97.5156 33.2819 97.5156 36.2614C97.5156 39.241 94.9529 41.2188 91.0922 41.2188H88.8942V43.6449V46.0714L92.235 45.8731C95.8237 45.6606 97.4643 45.0247 99.4184 43.0909C104.044 38.5125 102.768 30.6842 96.8781 27.5033C95.9164 26.9839 94.0826 26.758 89.8641 26.639L84.1524 26.4778V32.7706ZM106.137 36.2614V46.0037H110.918V36.2614V26.5912L106.137 26.5192V36.2614ZM72.0655 31.511C76.3021 33.7017 76.0685 39.3889 71.6672 41.2123C66.9495 43.1664 62.5862 36.9641 65.9042 33.0206C67.7293 30.8519 69.8067 30.3428 72.0655 31.511ZM113.034 45.9606H118.638V41.2188H113.034V45.9606Z" fill="white"/>
<circle cx="23.1555" cy="29.3938" r="2.80197" fill="white" fill-opacity="0.4"/>
</svg>
