<svg width="203" height="105" viewBox="0 0 203 105" fill="none" xmlns="http://www.w3.org/2000/svg">
<g opacity="0.4" clip-path="url(#clip0_11012:707851)">
<path d="M19.7563 37.998H31.736C34.0178 37.998 35.7292 38.5685 36.9969 39.5193C38.3913 40.6602 39.1519 42.3082 39.1519 44.3365C39.1519 46.6817 38.2012 48.1395 36.2996 49.0269V49.1537C38.835 49.9777 40.2929 52.2595 40.2929 54.985C40.2929 57.5838 39.2787 59.6121 37.6307 60.8798C36.2363 61.8939 34.4615 62.3376 32.0529 62.3376H19.7563V37.998ZM30.5317 47.5057C31.7994 47.5057 32.7501 46.8085 32.7501 45.3506C32.7501 43.9562 31.7994 43.2589 30.4683 43.2589H26.3483V47.4423H30.5317V47.5057ZM31.1021 56.9499C32.56 56.9499 33.6375 56.0626 33.6375 54.478C33.6375 52.7666 32.4966 52.006 31.1021 52.006H26.4117V57.0133H31.1021V56.9499Z" fill="white"/>
<path d="M41.3704 37.998H47.6454V62.401H41.3704V37.998Z" fill="white"/>
<path d="M48.9133 53.7181C48.9133 48.2036 52.4629 44.5273 57.9773 44.5273C63.4917 44.5273 66.9779 48.267 66.9779 53.7181C66.9779 59.2325 63.4917 62.9088 57.9773 62.9088C52.4629 62.9088 48.9133 59.2325 48.9133 53.7181ZM60.7028 53.7181C60.7028 50.6756 59.752 48.7741 57.8505 48.7741C55.949 48.7741 55.0616 50.6756 55.0616 53.7181C55.0616 56.7605 55.949 58.7254 57.8505 58.7254C59.752 58.662 60.7028 56.7605 60.7028 53.7181Z" fill="white"/>
<path d="M67.6748 53.7181C67.6748 48.2036 71.2243 44.5273 76.7387 44.5273C82.2532 44.5273 85.6759 48.2036 85.6759 53.7181C85.6759 59.2325 82.1898 62.9088 76.6754 62.9088C71.2243 62.9088 67.6748 59.2325 67.6748 53.7181ZM79.4643 53.7181C79.4643 50.6756 78.5135 48.7741 76.612 48.7741C74.7105 48.7741 73.8231 50.6756 73.8231 53.7181C73.8231 56.7605 74.7105 58.7254 76.612 58.7254C78.5135 58.662 79.4643 56.7605 79.4643 53.7181Z" fill="white"/>
<path d="M86.9438 44.9719H92.7752V47.5707H92.902C94.0429 45.5424 95.6275 44.4648 98.1629 44.4648C100.381 44.4648 102.029 45.5424 102.853 47.4439H102.98C104.375 45.1621 106.213 44.4648 108.368 44.4648C112.424 44.4648 114.136 47.4439 114.136 51.4371V62.3392H108.051V52.5146C108.051 50.7399 107.48 49.599 105.959 49.599C104.438 49.599 103.677 50.9934 103.677 52.895V62.3392H97.5924V52.5146C97.5924 50.7399 97.0219 49.599 95.5007 49.599C93.9795 49.599 93.2189 50.9934 93.2189 52.895V62.3392H86.9438C86.9438 62.3392 86.9438 44.9719 86.9438 44.9719Z" fill="white"/>
<path d="M121.805 60.0558H121.742V62.3376H115.91V37.998H121.995V46.7451H122.122C123.263 45.2239 124.848 44.3999 127.066 44.3999C131.44 44.3999 133.975 48.3297 133.975 53.5906C133.975 59.4853 131.249 62.9081 126.686 62.9081C124.784 62.9081 122.819 62.0207 121.805 60.0558ZM127.7 53.5272C127.7 50.7383 126.686 48.9001 124.848 48.9001C122.946 48.9001 121.805 50.7383 121.805 53.5272C121.805 56.3161 123.009 58.1542 124.848 58.1542C126.686 58.1542 127.7 56.3795 127.7 53.5272Z" fill="white"/>
<path d="M134.672 53.6556C134.672 48.2045 138.285 44.4648 143.483 44.4648C146.081 44.4648 148.046 45.2888 149.567 46.7467C151.596 48.7116 152.483 51.754 152.42 55.3036H140.757C141.011 57.4586 142.025 58.5995 143.863 58.5995C144.94 58.5995 145.891 58.0925 146.271 56.9515H152.166C151.152 60.9448 148.046 62.9097 143.673 62.9097C138.285 62.8463 134.672 59.17 134.672 53.6556ZM140.757 51.8174H146.335C146.208 49.7257 145.067 48.6482 143.609 48.6482C141.898 48.5848 140.947 49.7891 140.757 51.8174Z" fill="white"/>
<path d="M159.329 47.9512H159.455C160.723 45.5426 162.371 44.5918 164.463 44.5918C164.97 44.5918 165.287 44.6552 165.477 44.7819V50.1062H165.35C161.737 49.4724 159.646 51.1838 159.646 55.1136V62.4028H153.497V44.9721H159.329V47.9512Z" fill="white"/>
<path d="M166.111 62.4015H172.005C172.259 63.1621 173.02 63.8594 174.477 63.8594C176.442 63.8594 177.139 62.6551 177.139 60.8169V59.5492H177.013C176.062 60.6901 174.731 61.5141 172.829 61.5141C169.09 61.5141 165.794 58.7252 165.794 53.2742C165.794 48.2668 168.456 44.4004 172.512 44.4004C174.858 44.4004 176.252 45.3512 177.203 46.809H177.33V44.9075H183.161V59.9929C183.161 62.7818 182.21 64.9369 180.752 66.2046C179.231 67.5357 177.076 68.1061 174.604 68.1061C169.914 68.1695 166.681 66.268 166.111 62.4015ZM177.393 53.0207C177.393 50.8656 176.379 49.0908 174.604 49.0908C172.893 49.0908 171.815 50.6121 171.815 53.0207C171.815 55.3659 172.893 57.0139 174.604 57.0139C176.315 57.0139 177.393 55.3025 177.393 53.0207Z" fill="white"/>
</g>
<defs>
<clipPath id="clip0_11012:707851">
<rect width="163.405" height="30.1709" fill="white" transform="translate(19.7563 37.998)"/>
</clipPath>
</defs>
</svg>
