<svg width="179" height="92" viewBox="0 0 179 92" fill="none" xmlns="http://www.w3.org/2000/svg">
<path fill-rule="evenodd" clip-rule="evenodd" d="M82.6843 51.8743C81.4234 52.2623 80.8415 53.7172 81.5204 54.784C81.7144 55.075 82.1023 55.463 82.3933 55.56C82.6843 55.657 82.6843 55.657 83.2662 55.657C83.7512 55.657 83.8482 55.657 84.1391 55.56C84.5271 55.366 84.9151 54.978 85.109 54.5901C85.594 53.6202 85.109 52.4563 84.1391 51.9713C83.8482 51.7773 83.7512 51.7773 83.3632 51.7773C82.9752 51.7773 82.8783 51.7773 82.6843 51.8743ZM77.4468 51.9713C75.798 52.2623 74.7311 53.3292 74.2461 55.075C74.1491 55.366 74.1491 55.657 74.1491 56.0449V56.7239H73.4702H72.7913V58.1787V59.6336H73.4702H74.1491V63.1252V66.6169H75.9919H77.8348V63.1252V59.6336H79.0956H80.3565V58.1787V56.7239H79.0956H77.8348V56.4329C77.9317 55.754 78.2227 55.269 78.8047 55.172C79.1926 55.075 79.7746 55.075 80.1625 55.269C80.3565 55.366 80.4535 55.366 80.4535 55.366C80.4535 55.366 80.4535 54.6871 80.4535 53.8141V52.2623L80.1625 52.1653C79.7746 51.9713 79.2896 51.9713 78.6107 51.9713C78.1257 51.8743 77.7378 51.9713 77.4468 51.9713ZM92.1893 56.5299C91.4134 56.7239 90.8315 57.1118 90.4435 57.5968L90.2495 57.8877V57.3058V56.7239H88.4067H86.5639V61.6704V66.6169H88.4067H90.2495V63.9011C90.2495 62.3493 90.2495 61.0884 90.2495 60.8944C90.3465 60.5065 90.5405 60.1185 90.7345 59.9245C91.2194 59.5366 92.0923 59.6336 92.4803 60.1185C92.7713 60.5065 92.7713 60.5065 92.7713 63.6102V66.5199H94.6141H96.4569V63.2222C96.4569 59.7306 96.4569 59.3426 96.2629 58.6637C96.069 58.0817 95.875 57.5968 95.39 57.2088C95.0021 56.8208 94.6141 56.5299 94.0322 56.4329C93.5472 56.4329 92.5773 56.4329 92.1893 56.5299ZM101.403 56.4329C100.821 56.5299 99.9486 56.8208 99.4636 57.2088C98.3967 57.9847 97.7178 59.1486 97.4268 60.6035C97.3298 61.1854 97.3298 62.2523 97.4268 62.8343C97.6208 63.7072 97.9118 64.5801 98.3967 65.162C99.0757 66.0349 99.9486 66.6169 101.015 66.8109C101.597 66.9078 102.567 66.9078 103.052 66.7139C103.634 66.5199 104.022 66.3259 104.507 65.9379L104.895 65.55V66.0349V66.5199H106.738H108.581V61.5734V56.6269H106.738H104.895V57.1118V57.5968L104.604 57.4998C104.119 57.0148 103.44 56.6269 102.664 56.5299C102.373 56.4329 101.694 56.4329 101.403 56.4329ZM115.467 56.5299C114.788 56.6269 114.109 57.1118 113.721 57.5968L113.527 57.7908V57.2088V56.6269H111.684H109.842V61.5734V66.5199H111.684H113.527V63.7072C113.527 60.7005 113.527 60.7005 113.721 60.2155C113.915 59.8276 114.303 59.6336 114.691 59.6336C115.079 59.6336 115.273 59.7306 115.564 59.9245C115.952 60.3125 115.952 60.2155 115.952 63.5132V66.4229H117.795H119.638V62.8343C119.638 59.2456 119.638 59.2456 119.541 58.8576C119.444 58.6637 119.347 58.2757 119.25 57.9847C119.056 57.5968 118.959 57.4998 118.668 57.2088C118.28 56.8208 117.989 56.6269 117.601 56.4329C116.922 56.4329 116.146 56.3359 115.467 56.5299ZM125.069 56.5299C123.42 56.8208 122.159 57.5968 121.383 58.9546C121.189 59.3426 120.995 59.8276 120.802 60.3125C120.705 60.7975 120.705 60.8944 120.705 61.6704C120.705 62.5433 120.705 62.8342 120.995 63.5132C121.577 65.162 122.935 66.4229 124.778 66.8109C125.069 66.9078 125.36 66.9078 126.039 66.9078C127.009 66.9078 127.397 66.8109 128.076 66.5199L128.464 66.3259V64.6771V63.0282L128.173 63.2222C127.688 63.5132 127.397 63.6102 126.815 63.6102C126.233 63.6102 125.942 63.6102 125.554 63.4162C125.166 63.2222 124.875 62.9312 124.681 62.5433C124.584 62.2523 124.584 62.2523 124.584 61.7674C124.584 61.3794 124.584 61.2824 124.681 60.9914C124.972 60.2155 125.651 59.8276 126.621 59.7306C127.3 59.7306 127.591 59.7306 128.561 60.2155C128.561 60.2155 128.561 59.4396 128.561 58.5667V56.9178L128.27 56.8208C127.203 56.4329 126.039 56.3359 125.069 56.5299ZM133.41 56.5299C130.598 57.0148 128.852 59.4396 129.046 62.2523C129.143 63.2222 129.434 64.0951 129.919 64.7741C130.598 65.841 131.664 66.5199 133.022 66.8109C133.604 66.9078 135.156 66.9078 135.835 66.8109C136.805 66.6169 137.678 66.1319 138.357 65.453C138.648 65.162 139.133 64.4831 139.133 64.4831C139.133 64.4831 138.454 64.1921 137.581 63.9011L136.029 63.3192L135.835 63.5132C135.544 63.8042 135.35 63.9011 134.962 63.9981C133.895 64.2891 132.828 63.7072 132.634 62.7373V62.5433H136.029H139.424V61.6704C139.424 61.0884 139.424 60.7005 139.327 60.5065C139.133 59.3426 138.648 58.5667 137.969 57.7908C137.29 57.1118 136.514 56.7239 135.447 56.5299C135.059 56.4329 133.895 56.4329 133.41 56.5299ZM81.4234 61.6704V66.6169H83.2662H85.109V61.6704V56.7239H83.2662H81.4234V61.6704ZM134.865 59.2456C135.156 59.3426 135.253 59.4396 135.544 59.6336C135.738 59.8275 135.932 60.0215 135.932 60.3125V60.5065H134.283C132.44 60.5065 132.537 60.5065 132.731 60.1185C133.022 59.4396 133.895 59.0516 134.865 59.2456ZM103.537 59.7306C104.022 59.8276 104.604 60.3125 104.798 60.7975C105.283 61.8643 104.798 63.1252 103.634 63.5132C103.246 63.6102 102.664 63.6102 102.276 63.5132C101.694 63.3192 101.112 62.8343 101.015 62.2523C100.918 61.9613 100.918 61.8643 100.918 61.5734C100.918 61.1854 100.918 61.0884 101.112 60.7975C101.5 59.9245 102.47 59.5366 103.537 59.7306Z" fill="white"/>
<path fill-rule="evenodd" clip-rule="evenodd" d="M72.5974 50.2253H75.895H78.9987V45.3758C78.9987 42.1751 78.9987 40.4293 78.9987 40.2353C79.0957 39.7504 79.1927 39.2654 79.4837 38.8774C79.8716 38.1985 80.5506 37.9075 81.3265 38.0045C82.3934 38.1015 83.0723 38.6835 83.2663 39.9443C83.2663 40.1383 83.2663 42.0781 83.2663 45.1818V50.1283H86.37H89.4737V44.3089C89.4737 39.3624 89.4737 38.3925 89.3767 37.9075C89.1827 36.1617 88.6008 34.8038 87.5339 33.8339C86.661 32.961 85.5941 32.4761 84.3332 32.2821C83.8482 32.1851 82.4904 32.2821 82.1024 32.3791C80.9385 32.6701 80.0656 33.058 79.2897 33.9309L78.8047 34.3189V29.6634V25.0078H75.7011H72.5974V37.6166V50.2253ZM138.745 25.2018C138.551 25.5898 132.246 40.8172 132.246 40.8172C132.246 40.8172 133.895 40.8172 135.932 40.8172H139.618L142.915 32.961C144.758 28.5965 146.213 25.0078 146.213 25.0078C146.213 25.0078 144.564 25.0078 142.527 25.0078H138.842L138.745 25.2018ZM59.2127 32.3791C57.8548 32.5731 56.7879 32.961 55.721 33.64C53.5872 34.9978 52.2294 37.3256 51.8414 40.0413C51.6474 41.3022 51.7444 42.854 52.0354 44.0179C52.8113 47.0246 54.8481 49.3524 57.4669 50.2253C58.4368 50.5163 58.8247 50.6133 59.9886 50.6133C60.8615 50.6133 61.1525 50.6133 61.4435 50.5163C62.7043 50.2253 63.5773 49.7404 64.3532 48.9644L64.7411 48.5765V49.3524V50.1283H67.7478H70.7545V41.3992V32.6701H67.7478H64.7411V33.446V34.2219L64.4502 33.9309C63.7712 33.155 62.8013 32.6701 61.5405 32.3791C61.1525 32.2821 60.9585 32.2821 60.1826 32.2821C59.6976 32.3791 59.3097 32.3791 59.2127 32.3791ZM98.7848 32.3791C97.1359 32.5731 95.3901 33.349 94.1292 34.3189C91.7045 36.3557 90.4436 39.5564 90.9285 42.854C91.4135 46.5397 94.0322 49.3524 97.7179 50.3223C98.4938 50.5163 99.2697 50.6133 100.24 50.6133C101.985 50.6133 103.246 50.3223 104.604 49.6434C107.32 48.2855 109.066 45.8607 109.454 42.854C109.551 42.0781 109.551 40.8172 109.454 40.1383C109.26 38.6835 108.678 37.2286 107.805 36.0647C107.417 35.5798 106.641 34.7069 106.156 34.3189C104.798 33.252 103.246 32.5731 101.5 32.3791C100.822 32.2821 99.4637 32.2821 98.7848 32.3791ZM118.571 32.3791C116.922 32.5731 115.273 33.252 114.012 34.3189C113.527 34.7069 112.654 35.5798 112.363 36.0647C111.491 37.2286 111.006 38.6835 110.715 40.1383C110.618 40.8172 110.618 42.1751 110.715 42.854C111.297 46.7337 114.109 49.7404 117.989 50.5163C118.765 50.7103 119.153 50.7103 120.026 50.7103C121.674 50.7103 123.129 50.4193 124.487 49.6434C128.076 47.8006 130.016 43.727 129.143 39.5564C128.367 35.6768 125.263 32.864 121.287 32.3791C120.608 32.2821 119.25 32.2821 118.571 32.3791ZM31.7644 32.767C31.7644 32.767 33.4132 36.7436 35.45 41.5932C37.4868 46.4427 39.1357 50.4193 39.1357 50.4193C39.1357 50.4193 38.5537 51.8742 37.7778 53.62C37.0019 55.3658 36.4199 56.7237 36.4199 56.8207C36.4199 56.9177 37.8748 56.8207 39.7176 56.8207H43.0153L47.9618 44.8908C50.6775 38.2955 52.9083 32.961 52.9083 32.864C52.9083 32.864 52.2294 32.767 49.6106 32.864H46.313L44.2762 37.9075C43.4033 40.6233 42.5303 42.951 42.5303 42.951C42.5303 42.951 41.6574 40.6233 40.4935 37.9075L38.5537 32.864H35.1591C33.3163 32.767 31.7644 32.767 31.7644 32.767ZM62.2194 38.0045C63.4803 38.2955 64.4502 39.2654 64.8381 40.5263C64.9351 41.0112 64.9351 41.8841 64.8381 42.3691C64.5472 43.63 63.5773 44.5999 62.3164 44.8908C61.8314 44.9878 60.9585 44.9878 60.4736 44.8908C59.4067 44.5999 58.4368 43.824 58.0488 42.854C57.5638 41.7872 57.7578 40.4293 58.3398 39.4594C59.2127 38.1985 60.6675 37.7136 62.2194 38.0045ZM100.919 38.1015C102.276 38.2955 103.343 39.3624 103.634 40.7203C103.731 41.2052 103.731 41.9811 103.634 42.4661C103.343 43.727 102.373 44.5999 101.21 44.9878C100.822 45.0848 99.7547 45.0848 99.3667 44.9878C98.3968 44.6969 97.6209 44.0179 97.1359 43.145C96.845 42.5631 96.845 42.2721 96.845 41.5932C96.845 41.0112 96.9419 40.7203 97.1359 40.2353C97.4269 39.6534 97.8149 39.0714 98.3968 38.6835C98.9787 38.1015 99.9486 37.9075 100.919 38.1015ZM120.608 38.1015C121.771 38.2955 122.741 39.0714 123.129 40.1383C123.323 40.6233 123.42 40.9142 123.42 41.4962C123.42 42.1751 123.323 42.4661 123.129 43.048C122.741 43.9209 121.868 44.5999 120.899 44.8908C120.511 44.9878 119.444 44.9878 119.056 44.8908C117.892 44.5999 116.922 43.63 116.631 42.3691C116.534 41.8841 116.534 41.0112 116.631 40.5263C117.019 38.9744 118.377 37.9075 119.929 37.9075C120.123 38.0045 120.414 38.0045 120.608 38.1015ZM133.798 42.3691C131.955 42.5631 130.598 43.9209 130.21 45.6668C130.113 46.1517 130.113 47.0246 130.21 47.5096C130.598 49.0614 131.761 50.1283 133.313 50.5163C133.507 50.5163 133.895 50.6133 134.186 50.6133C135.35 50.6133 136.32 50.2253 137.096 49.4494C137.969 48.5765 138.26 47.7036 138.26 46.5397C138.26 45.0848 137.581 43.824 136.417 43.145C135.641 42.4661 134.574 42.2721 133.798 42.3691Z" fill="white" fill-opacity="0.4"/>
</svg>
