<svg width="89" height="46" viewBox="0 0 89 46" fill="none" xmlns="http://www.w3.org/2000/svg">
<g opacity="0.5">
<path fill-rule="evenodd" clip-rule="evenodd" d="M36.0982 24.9819H37.7228H39.2518V22.5928C39.2518 21.016 39.2518 20.1559 39.2518 20.0604C39.2996 19.8215 39.3473 19.5826 39.4907 19.3914C39.6818 19.057 40.0163 18.9136 40.3986 18.9614C40.9242 19.0092 41.2586 19.2959 41.3542 19.917C41.3542 20.0126 41.3542 20.9682 41.3542 22.4973V24.9341H42.8832H44.4122V22.0672C44.4122 19.6303 44.4122 19.1525 44.3645 18.9136C44.2689 18.0535 43.9822 17.3846 43.4566 16.9068C43.0266 16.4767 42.501 16.2378 41.8798 16.1422C41.6409 16.0945 40.9719 16.1422 40.7808 16.19C40.2074 16.3334 39.7774 16.5245 39.3951 16.9545L39.1562 17.1457V14.8521V12.5586H37.6272H36.0982V18.7703V24.9819ZM68.6855 12.6542C68.59 12.8453 65.4841 20.3471 65.4841 20.3471C65.4841 20.3471 66.2964 20.3471 67.2998 20.3471H69.1156L70.7401 16.4767C71.648 14.3265 72.3647 12.5586 72.3647 12.5586C72.3647 12.5586 71.5524 12.5586 70.549 12.5586H68.7333L68.6855 12.6542ZM29.5042 16.19C28.8353 16.2856 28.3097 16.4767 27.7841 16.8112C26.7329 17.4801 26.0639 18.6269 25.8728 19.9648C25.7773 20.586 25.825 21.3505 25.9684 21.9239C26.3506 23.4051 27.3541 24.5519 28.6442 24.9819C29.122 25.1253 29.3131 25.1731 29.8865 25.1731C30.3165 25.1731 30.4599 25.173 30.6032 25.1253C31.2244 24.9819 31.6544 24.743 32.0367 24.3608L32.2278 24.1696V24.5519V24.9341H33.7091H35.1903V20.6338V16.3334H33.7091H32.2278V16.7156V17.0979L32.0845 16.9545C31.75 16.5723 31.2722 16.3334 30.651 16.19C30.4599 16.1422 30.3643 16.1422 29.9821 16.1422C29.7432 16.19 29.552 16.19 29.5042 16.19ZM48.9993 16.19C48.187 16.2856 47.3269 16.6678 46.7058 17.1457C45.5112 18.1491 44.8901 19.7259 45.129 21.3505C45.3679 23.1662 46.658 24.5519 48.4737 25.0297C48.856 25.1253 49.2382 25.1731 49.716 25.1731C50.5761 25.1731 51.1973 25.0297 51.8662 24.6952C53.2041 24.0263 54.0642 22.8317 54.2553 21.3505C54.3031 20.9682 54.3031 20.3471 54.2553 20.0126C54.1598 19.2959 53.8731 18.5791 53.443 18.0057C53.2519 17.7668 52.8697 17.3368 52.6308 17.1457C51.9618 16.6201 51.1973 16.2856 50.3372 16.19C50.0027 16.1422 49.3338 16.1422 48.9993 16.19ZM58.7469 16.19C57.9346 16.2856 57.1223 16.6201 56.5011 17.1457C56.2622 17.3368 55.8321 17.7668 55.6888 18.0057C55.2588 18.5791 55.0199 19.2959 54.8765 20.0126C54.8287 20.3471 54.8287 21.016 54.8765 21.3505C55.1632 23.2618 56.5489 24.743 58.4602 25.1253C58.8424 25.2208 59.0336 25.2208 59.4636 25.2208C60.2759 25.2208 60.9926 25.0775 61.6616 24.6952C63.4295 23.7874 64.3851 21.7805 63.9551 19.7259C63.5728 17.8146 62.0438 16.4289 60.0848 16.19C59.7503 16.1422 59.0813 16.1422 58.7469 16.19ZM15.9819 16.3812C15.9819 16.3812 16.7942 18.3402 17.7977 20.7293C18.8011 23.1184 19.6134 25.0775 19.6134 25.0775C19.6134 25.0775 19.3267 25.7942 18.9444 26.6543C18.5622 27.5144 18.2755 28.1833 18.2755 28.2311C18.2755 28.2789 18.9922 28.2311 19.9001 28.2311H21.5246L23.9615 22.3539C25.2994 19.1047 26.3984 16.4767 26.3984 16.4289C26.3984 16.4289 26.0639 16.3812 24.7738 16.4289H23.1492L22.1458 18.9136C21.7158 20.2515 21.2857 21.3983 21.2857 21.3983C21.2857 21.3983 20.8557 20.2515 20.2823 18.9136L19.3267 16.4289H17.6543C16.7464 16.3812 15.9819 16.3812 15.9819 16.3812ZM30.9855 18.9614C31.6067 19.1047 32.0845 19.5826 32.2756 20.2037C32.3234 20.4426 32.3234 20.8727 32.2756 21.1116C32.1323 21.7327 31.6544 22.2106 31.0333 22.3539C30.7944 22.4017 30.3643 22.4017 30.1254 22.3539C29.5998 22.2106 29.122 21.8283 28.9309 21.3505C28.692 20.8249 28.7875 20.1559 29.0742 19.6781C29.5042 19.057 30.221 18.818 30.9855 18.9614ZM50.0505 19.0092C50.7195 19.1047 51.2451 19.6303 51.3884 20.2993C51.4362 20.5382 51.4362 20.9204 51.3884 21.1594C51.2451 21.7805 50.7673 22.2106 50.1939 22.4017C50.0027 22.4495 49.4771 22.4495 49.286 22.4017C48.8082 22.2583 48.4259 21.9239 48.187 21.4938C48.0437 21.2071 48.0437 21.0638 48.0437 20.7293C48.0437 20.4426 48.0915 20.2993 48.187 20.0604C48.3304 19.7737 48.5215 19.487 48.8082 19.2959C49.0949 19.0092 49.5727 18.9136 50.0505 19.0092ZM59.7503 19.0092C60.3237 19.1047 60.8015 19.487 60.9926 20.0126C61.0882 20.2515 61.136 20.3948 61.136 20.6815C61.136 21.016 61.0882 21.1594 60.9926 21.4461C60.8015 21.8761 60.3714 22.2106 59.8936 22.3539C59.7025 22.4017 59.1769 22.4017 58.9858 22.3539C58.4124 22.2106 57.9346 21.7327 57.7912 21.1116C57.7434 20.8727 57.7434 20.4426 57.7912 20.2037C57.9823 19.4392 58.6513 18.9136 59.4158 18.9136C59.5114 18.9614 59.6547 18.9614 59.7503 19.0092ZM66.2486 21.1116C65.3408 21.2071 64.6718 21.8761 64.4807 22.7362C64.4329 22.9751 64.4329 23.4051 64.4807 23.644C64.6718 24.4085 65.2452 24.9341 66.0097 25.1253C66.1053 25.1253 66.2964 25.1731 66.4398 25.1731C67.0131 25.1731 67.491 24.9819 67.8732 24.5997C68.3033 24.1696 68.4466 23.7396 68.4466 23.1662C68.4466 22.4495 68.1121 21.8283 67.5388 21.4938C67.1565 21.1594 66.6309 21.0638 66.2486 21.1116Z" fill="white" fill-opacity="0.4"/>
<path fill-rule="evenodd" clip-rule="evenodd" d="M34.952 26.1437C34.8244 26.2215 34.6694 26.3828 34.6077 26.5022C34.546 26.6215 34.4956 26.8431 34.4958 26.9945C34.4959 27.146 34.5619 27.3779 34.6423 27.5098C34.7227 27.6418 34.9009 27.7967 35.0383 27.8541C35.1756 27.9115 35.3717 27.9584 35.4739 27.9584C35.576 27.9584 35.7721 27.9115 35.9094 27.8541C36.0468 27.7967 36.225 27.6418 36.3054 27.5098C36.3878 27.3748 36.4517 27.1432 36.4517 26.98C36.4517 26.8201 36.3883 26.5862 36.3102 26.4582C36.2324 26.3305 36.0711 26.1756 35.9517 26.1139C35.8324 26.0522 35.6108 26.0018 35.4594 26.002C35.3079 26.0021 35.0795 26.0659 34.952 26.1437ZM39.376 26.0771C39.2104 26.1099 38.9495 26.2013 38.7963 26.2802C38.6431 26.3592 38.4154 26.5327 38.2903 26.6657C38.1652 26.7987 38.0103 27.0119 37.9462 27.1393C37.882 27.2667 37.7928 27.6173 37.748 27.9183L37.6666 28.4657H37.3493H37.032V29.1904V29.9152H37.3581H37.6843V31.6545V33.3938H38.5902H39.4961V31.6574V29.921L40.094 29.8999L40.6919 29.8789L40.7126 29.1723L40.7333 28.4657H40.1147C39.4999 28.4657 39.4961 28.4646 39.4961 28.2809C39.4961 28.1793 39.5452 28.0012 39.6052 27.8851C39.6779 27.7445 39.8062 27.6466 39.9898 27.5916C40.184 27.5334 40.3441 27.5308 40.5329 27.5829L40.8006 27.6569V26.9077V26.1586L40.4346 26.0802C40.2334 26.037 39.9806 26.0052 39.873 26.0096C39.7653 26.014 39.5417 26.0443 39.376 26.0771ZM31.8865 29.8065V33.3938H32.7561H33.6258V29.8065V26.2191H32.7561H31.8865V29.8065ZM61.6726 29.8065V33.3938H62.5422H63.4119V29.8065V26.2191H62.5422H61.6726V29.8065ZM51.9613 27.7048V28.4657H51.6352H51.309V29.1904V29.9152H51.6352H51.9613V30.9545C51.9613 31.642 51.996 32.1093 52.0639 32.3347C52.1203 32.5222 52.2499 32.785 52.3518 32.9186C52.4537 33.0523 52.6929 33.2383 52.8834 33.3321C53.1753 33.4759 53.3316 33.5011 53.8818 33.4933C54.2405 33.4883 54.6237 33.4483 54.7334 33.4045C54.9319 33.3252 54.9327 33.3224 54.9327 32.6085V31.8921L54.5058 31.9001C54.18 31.9063 54.0427 31.8755 53.926 31.7701C53.7869 31.6445 53.7731 31.5549 53.7731 30.7766V29.9213L54.3348 29.9001L54.8964 29.8789L54.9171 29.1723L54.9379 28.4657H54.3555H53.7731V27.7048V26.9438H52.8672H51.9613V27.7048ZM42.7066 28.4515C42.4993 28.5254 42.1959 28.6786 42.0324 28.792C41.8689 28.9053 41.6383 29.1202 41.5199 29.2697C41.4016 29.419 41.2329 29.6988 41.145 29.8913C41.0152 30.1758 40.9858 30.3702 40.988 30.9298C40.9902 31.4677 41.0264 31.7089 41.1537 32.0329C41.2459 32.2673 41.4491 32.5837 41.6215 32.761C41.789 32.9335 42.0811 33.1495 42.2704 33.2412C42.4597 33.3328 42.8449 33.4435 43.1265 33.487C43.5087 33.5462 43.7664 33.5444 44.143 33.4798C44.4205 33.4322 44.8024 33.3148 44.9917 33.2189C45.181 33.1229 45.4762 32.8923 45.6476 32.7063C45.819 32.5203 45.9474 32.3564 45.933 32.3419C45.9185 32.3275 45.5752 32.1864 45.1701 32.0286C44.449 31.7476 44.4308 31.7444 44.3083 31.8798C44.2395 31.9559 44.058 32.0556 43.9051 32.1014C43.6942 32.1646 43.5581 32.1641 43.3425 32.0995C43.1859 32.0526 42.9739 31.9145 42.8714 31.7926C42.7688 31.6707 42.6848 31.5245 42.6848 31.4677C42.6848 31.3814 42.9695 31.3646 44.4348 31.3646H46.1847L46.1394 30.8277C46.1144 30.5325 46.0233 30.1021 45.937 29.8712C45.8435 29.6212 45.6486 29.311 45.4553 29.1044C45.2768 28.9135 44.9499 28.6689 44.7289 28.5608C44.4074 28.4035 44.2031 28.3595 43.7053 28.3406C43.2366 28.3229 42.9906 28.3502 42.7066 28.4515ZM48.0285 28.3996C47.8784 28.435 47.6308 28.5276 47.4782 28.6055C47.3255 28.6834 47.0995 28.8622 46.9759 29.003C46.8523 29.1438 46.717 29.3821 46.6752 29.5327C46.6333 29.6833 46.5991 29.888 46.5991 29.9876C46.5991 30.0873 46.6328 30.2898 46.6738 30.4376C46.7149 30.5854 46.8486 30.8065 46.971 30.9289C47.0934 31.0513 47.287 31.1998 47.4014 31.2589C47.5157 31.318 47.9099 31.4469 48.2775 31.5452C48.6449 31.6436 48.987 31.7655 49.0376 31.8161C49.0986 31.8771 49.1068 31.9448 49.0621 32.0169C49.0122 32.0971 48.8753 32.1225 48.5393 32.1138C48.2534 32.1064 47.8862 32.0301 47.5522 31.9088C47.2597 31.8026 47.0107 31.7263 46.999 31.7394C46.9872 31.7525 46.8423 32.0336 46.6769 32.3641L46.3763 32.9649L46.7718 33.1398C46.9893 33.2361 47.4371 33.3694 47.7667 33.4362C48.1756 33.5191 48.5285 33.5438 48.8773 33.5141C49.1585 33.4901 49.5494 33.4156 49.746 33.3484C49.9613 33.2748 50.2257 33.104 50.411 32.9188C50.5881 32.7417 50.7512 32.493 50.7959 32.3322C50.8386 32.1787 50.8736 31.9377 50.8738 31.7967C50.874 31.6557 50.8008 31.3951 50.7111 31.2178C50.6008 30.9995 50.4372 30.8274 50.2052 30.6855C50.0167 30.5702 49.5444 30.3813 49.1558 30.2657C48.7671 30.1502 48.419 30.0255 48.382 29.9885C48.3407 29.9472 48.3507 29.8782 48.4076 29.8095C48.4657 29.7394 48.6207 29.6977 48.823 29.6977C49.0004 29.6977 49.392 29.7804 49.6932 29.8816C49.9944 29.9827 50.2541 30.0521 50.2704 30.0358C50.2867 30.0195 50.4124 29.7397 50.5498 29.4141L50.7995 28.822L50.4563 28.6736C50.2676 28.592 49.9013 28.4799 49.6422 28.4243C49.3831 28.3688 48.9754 28.326 48.7363 28.3293C48.4971 28.3327 48.1787 28.3643 48.0285 28.3996ZM65.7528 28.4515C65.5455 28.5254 65.2421 28.6786 65.0786 28.792C64.9151 28.9053 64.6845 29.1202 64.5661 29.2697C64.4478 29.419 64.2791 29.6988 64.1912 29.8913C64.0614 30.1758 64.032 30.3702 64.0342 30.9298C64.0363 31.4677 64.0726 31.7089 64.1999 32.0329C64.2921 32.2673 64.4953 32.5837 64.6676 32.761C64.8352 32.9335 65.1273 33.1495 65.3166 33.2412C65.5058 33.3328 65.8911 33.4435 66.1727 33.487C66.5549 33.5462 66.8126 33.5444 67.1892 33.4798C67.4667 33.4322 67.8486 33.3148 68.0379 33.2189C68.2272 33.1229 68.5224 32.8923 68.6938 32.7063C68.8652 32.5203 68.9936 32.3564 68.9792 32.3419C68.9647 32.3275 68.6214 32.1864 68.2162 32.0286C67.4951 31.7476 67.477 31.7444 67.3545 31.8798C67.2857 31.9559 67.1042 32.0556 66.9512 32.1014C66.7404 32.1646 66.6043 32.1641 66.3886 32.0995C66.2321 32.0526 66.0201 31.9145 65.9176 31.7926C65.8149 31.6707 65.731 31.5245 65.731 31.4677C65.731 31.3814 66.0157 31.3646 67.481 31.3646H69.2309L69.1856 30.8277C69.1606 30.5325 69.0695 30.1021 68.9831 29.8712C68.8897 29.6212 68.6948 29.311 68.5015 29.1044C68.323 28.9135 67.9961 28.6689 67.7751 28.5608C67.4535 28.4035 67.2492 28.3595 66.7515 28.3406C66.2828 28.3229 66.0368 28.3502 65.7528 28.4515ZM34.5679 30.9298V33.3938H35.4739H36.3798V30.9298V28.4657H35.4739H34.5679V30.9298ZM55.295 28.5098C55.295 28.5341 55.7555 29.6487 56.3183 30.9867L57.3416 33.4196L57.1099 33.9683C56.9825 34.2702 56.8156 34.673 56.7391 34.8636L56.5999 35.21L57.5231 35.1897L58.4463 35.1694L59.8291 31.8357L61.2119 28.502L60.3775 28.4814C59.9186 28.4701 59.5065 28.4749 59.4617 28.4921C59.4169 28.5093 59.1379 29.1463 58.8414 29.9077C58.5451 30.6692 58.2824 31.2921 58.2577 31.2921C58.233 31.2921 57.9721 30.6563 57.6779 29.8791L57.1431 28.4661L56.219 28.4659C55.7108 28.4658 55.295 28.4856 55.295 28.5098ZM43.8663 29.7026C44.0515 29.754 44.1881 29.8549 44.2827 30.0102C44.3603 30.1373 44.4237 30.2657 44.4239 30.2956C44.424 30.3256 44.0328 30.35 43.5545 30.35C43.0762 30.35 42.6848 30.3321 42.6848 30.3101C42.6848 30.2883 42.731 30.1811 42.7874 30.0721C42.8438 29.963 42.966 29.8366 43.0592 29.7911C43.1522 29.7456 43.2773 29.6922 43.3371 29.6725C43.3969 29.6528 43.4784 29.6343 43.5183 29.6314C43.5581 29.6285 43.7147 29.6605 43.8663 29.7026ZM66.9125 29.7026C67.0976 29.754 67.2342 29.8549 67.3289 30.0102C67.4064 30.1373 67.4699 30.2657 67.4701 30.2956C67.4702 30.3256 67.079 30.35 66.6007 30.35C66.1224 30.35 65.731 30.3321 65.731 30.3101C65.731 30.2883 65.7772 30.1811 65.8336 30.0721C65.8899 29.963 66.0122 29.8366 66.1053 29.7911C66.1984 29.7456 66.3235 29.6922 66.3833 29.6725C66.4431 29.6528 66.5246 29.6343 66.5645 29.6314C66.6043 29.6285 66.7609 29.6605 66.9125 29.7026Z" fill="white"/>
</g>
</svg>
