<svg width="179" height="92" viewBox="0 0 179 92" fill="none" xmlns="http://www.w3.org/2000/svg">
<path opacity="0.5" fill-rule="evenodd" clip-rule="evenodd" d="M26.9583 27.5062C23.634 29.0408 12.6974 35.4043 11.563 36.4638C11.3817 36.6332 11.3277 36.7654 11.2854 37.1434C11.0127 39.5795 11.0108 53.1404 11.2827 55.1908C11.3104 55.3996 11.3816 55.6327 11.4408 55.7088C11.5155 55.8048 11.5369 55.8112 11.5106 55.7298C11.4883 55.6604 13.9664 52.056 17.5637 46.9255L23.6545 38.2386L27.1099 38.2183L30.5654 38.1978V42.3397V46.4815L28.0582 49.978C25.7459 53.2026 25.0681 54.1737 25.4366 53.7341C25.5087 53.6481 26.6625 52.0457 28.0005 50.1733C29.3385 48.3009 30.5114 46.6809 30.6071 46.5733C30.8208 46.3328 39.6847 33.5627 39.6775 33.5056C39.667 33.4231 35.4831 31.0079 32.8349 29.5557C30.5788 28.3184 28.3727 27.2377 28.0182 27.196C27.7701 27.1669 27.5601 27.2283 26.9583 27.5062ZM44.3306 36.7638C44.2621 36.8432 41.505 40.7736 38.2036 45.498L32.2012 54.088L28.7209 54.0675L25.2407 54.0472L25.2408 49.9792C25.2408 46.1412 25.2491 45.9001 25.3859 45.714C26.3349 44.4242 30.4898 38.5674 30.4699 38.5475C30.4553 38.533 29.2841 40.1436 27.8671 42.1267C26.4501 44.1099 25.2491 45.7741 25.1982 45.825C25.1473 45.876 23.1233 48.7681 20.7003 52.2519C18.2774 55.7358 16.267 58.6053 16.2327 58.6285C16.1665 58.6734 20.3113 61.0228 24.3437 63.2261C27.0983 64.7312 27.8529 65.121 28.0122 65.121C28.408 65.121 33.9953 62.113 38.6653 59.3856C42.3272 57.2471 44.2841 55.9609 44.4717 55.5695C44.7101 55.0722 44.769 53.3137 44.7679 46.7299C44.7668 40.5734 44.6927 37.7384 44.5107 36.8812C44.4578 36.6323 44.449 36.6265 44.3306 36.7638Z" fill="white"/>
<path fill-rule="evenodd" clip-rule="evenodd" d="M160.517 38.4429C159.858 38.5369 158.818 38.8714 158.17 39.1974C156.562 40.0065 155.461 41.1316 154.682 42.7624C154.148 43.8792 154.032 44.4552 154.026 46.0263C154.02 47.6004 154.155 48.3026 154.684 49.4399C156.308 52.9339 160.307 54.6705 163.938 53.4585C165.142 53.0567 166.295 52.3799 167.182 51.5544L167.633 51.134L166.708 50.1058C166.199 49.5403 165.75 49.0576 165.711 49.0332C165.671 49.0087 165.472 49.1275 165.269 49.297C163.516 50.7583 161.562 51.0946 159.835 50.2319C158.797 49.7132 157.862 48.4932 157.544 47.2425C157.392 46.6466 157.393 45.4285 157.546 44.7822C157.885 43.3403 159.022 42.0695 160.391 41.5991C162.064 41.0245 163.811 41.4851 165.236 42.8763C165.471 43.1056 165.685 43.2716 165.711 43.2453C165.738 43.2188 166.171 42.6805 166.673 42.0487L167.585 40.9003L167.259 40.5641C166.617 39.9007 165.461 39.2041 164.325 38.7962C163.218 38.3987 161.769 38.2642 160.517 38.4429ZM113.586 38.5151C112.471 38.7034 111.446 39.1875 110.776 39.8438C109.834 40.765 109.478 42.1192 109.808 43.5209C109.959 44.1584 110.21 44.5898 110.739 45.119C111.414 45.794 112.195 46.1592 114.617 46.9333C116.084 47.4023 116.632 47.6547 117.082 48.0691C117.594 48.5412 117.771 48.9212 117.769 49.5479C117.768 50.1549 117.627 50.5241 117.253 50.8978C115.828 52.3225 112.451 51.8838 110.211 49.9829L109.715 49.5626L109.264 50.4694L108.813 51.3761L109.113 51.6338C110.198 52.5658 111.665 53.2811 113.101 53.5783C113.912 53.7462 115.402 53.7455 116.221 53.5768C118.647 53.0772 120.025 51.5884 120.03 49.4621C120.034 48.1874 119.757 47.4949 118.931 46.7067C118.331 46.1352 117.539 45.7541 115.483 45.0495C113.658 44.4238 113.12 44.1838 112.677 43.7975C112.192 43.3746 112.001 42.9668 111.999 42.3481C111.997 41.7371 112.216 41.2867 112.668 40.9734C113.904 40.117 116.521 40.3491 118.449 41.4859C118.67 41.6157 118.867 41.722 118.889 41.722C118.91 41.722 119.12 41.3122 119.355 40.8114C119.853 39.7518 119.902 39.8827 118.804 39.3454C117.479 38.6975 116.308 38.4297 114.863 38.4443C114.362 38.4493 113.787 38.4812 113.586 38.5151ZM56.7043 46.1068V53.6221L57.7413 53.6003L58.7782 53.5784V47.8459C58.7782 44.6929 58.7962 42.1133 58.8181 42.1133C58.8401 42.1133 58.9067 42.1925 58.9664 42.2894C59.026 42.3863 60.8887 44.9757 63.1057 48.0437L67.1368 53.6219L68.1618 53.6002L69.1869 53.5784V46.1046V38.6307H68.1695H67.1521V44.3633C67.1521 47.5162 67.1342 50.0958 67.1123 50.0958C67.0903 50.0958 67.0232 50.0166 66.9632 49.9198C66.9031 49.8229 65.0389 47.2345 62.8205 44.1676L58.7868 38.5916H57.7456H56.7043V46.1068ZM73.139 46.1046V53.6176H78.3849H83.6307L83.6087 52.6589L83.5867 51.7002L79.3998 51.6827L75.2129 51.6651L75.1922 49.3153L75.1715 46.9654H78.8508H82.5302V46.0263V45.0872H78.852H75.1738V42.7785V40.4698H79.2824H83.3911V39.5307V38.5916H78.265H73.139V46.1046ZM85.8954 38.6292C85.8954 38.6616 87.5282 43.615 90.133 51.485L90.8388 53.6176H91.8855H92.9321L93.3219 52.385C93.5363 51.707 94.3847 48.9865 95.2073 46.3394C96.8573 41.029 96.7825 41.2603 96.8152 41.3698C96.8281 41.4129 97.6752 44.1863 98.6978 47.5328L100.557 53.6176H101.623H102.688L105.136 46.2148C106.482 42.1432 107.603 38.7613 107.627 38.6995C107.664 38.6044 107.503 38.5904 106.588 38.6089L105.506 38.6307L103.607 44.9217C102.563 48.3817 101.699 51.222 101.687 51.2335C101.675 51.2449 100.802 48.4054 99.7475 44.9235L97.8301 38.5927L96.7962 38.5921L95.7622 38.5916L95.6823 38.8851C95.6383 39.0465 94.7787 41.9048 93.7721 45.2369C92.0662 50.8839 91.9363 51.2771 91.8573 51.0282C91.8107 50.8813 90.9945 48.1902 90.0436 45.0481C89.0926 41.9059 88.2604 39.1678 88.1943 38.9633L88.0741 38.5916H86.9848C86.3856 38.5916 85.8954 38.6086 85.8954 38.6292ZM126.826 46.0996V53.6176H130.564C132.626 53.6176 134.601 53.5817 134.967 53.5376C137.16 53.2731 138.709 52.2113 139.199 50.6365C139.365 50.1036 139.398 48.9626 139.264 48.3829C138.991 47.1959 138.025 46.1516 136.871 45.7947L136.432 45.6588L136.956 45.4139C138.279 44.7944 139.057 43.2915 138.814 41.8231C138.62 40.6559 137.931 39.7929 136.737 39.2231C135.541 38.6522 135.496 38.6476 130.915 38.6127L126.826 38.5816V46.0996ZM140.912 40.0394V41.4872H143.143H145.373V47.5524V53.6176H147.056H148.738V47.5524V41.4872H150.969H153.199V40.0394V38.5916H147.056H140.912V40.0394ZM134.632 41.6257C135.722 42.208 135.671 43.8027 134.544 44.4059C134.239 44.5689 134.109 44.5798 132.206 44.6028L130.191 44.6273V43.0134V41.3995L132.245 41.4238C134.207 41.447 134.314 41.4562 134.632 41.6257ZM134.724 47.461C135.561 47.7833 135.94 48.3233 135.889 49.1216C135.845 49.8128 135.597 50.1621 134.911 50.5002L134.382 50.7611L132.286 50.7863L130.191 50.8115V49.0384V47.2653L132.284 47.2963C134.017 47.3221 134.437 47.3505 134.724 47.461Z" fill="white"/>
</svg>
