<svg width="20" height="20" viewBox="0 0 20 20" fill="none" xmlns="http://www.w3.org/2000/svg">
<path d="M10.0007 6.75005C8.20575 6.75005 6.75067 8.20512 6.75067 10C6.75067 11.795 8.20575 13.25 10.0007 13.25C11.7956 13.25 13.2507 11.795 13.2507 10C13.2507 8.20512 11.7956 6.75005 10.0007 6.75005Z" fill="white"/>
<path fill-rule="evenodd" clip-rule="evenodd" d="M4.77021 1.08151C8.21833 0.696136 11.783 0.696136 15.2312 1.08151C17.1296 1.29369 18.6607 2.78947 18.8836 4.69452C19.2958 8.21952 19.2958 11.7806 18.8836 15.3056C18.6607 17.2106 17.1296 18.7064 15.2312 18.9186C11.783 19.304 8.21833 19.304 4.77021 18.9186C2.87181 18.7064 1.34062 17.2106 1.1178 15.3056C0.705523 11.7806 0.705523 8.21952 1.1178 4.69452C1.34062 2.78947 2.87181 1.29369 4.77021 1.08151ZM15.0007 4.00005C14.4484 4.00005 14.0007 4.44776 14.0007 5.00005C14.0007 5.55233 14.4484 6.00005 15.0007 6.00005C15.553 6.00005 16.0007 5.55233 16.0007 5.00005C16.0007 4.44776 15.553 4.00005 15.0007 4.00005ZM5.25067 10C5.25067 7.37669 7.37732 5.25005 10.0007 5.25005C12.624 5.25005 14.7507 7.37669 14.7507 10C14.7507 12.6234 12.624 14.75 10.0007 14.75C7.37732 14.75 5.25067 12.6234 5.25067 10Z" fill="white"/>
</svg>
