<svg width="189" height="52" viewBox="0 0 189 52" fill="none" xmlns="http://www.w3.org/2000/svg">
<g clip-path="url(#clip0)">
<path d="M39.4255 10.6333C36.3942 9.2347 33.1748 8.2154 29.8145 7.64648C29.3915 8.38134 28.9215 9.37692 28.5925 10.1592C25.0184 9.63767 21.47 9.63767 17.9452 10.1592C17.6162 9.37692 17.1227 8.38134 16.7232 7.64648C13.3394 8.2154 10.1201 9.2347 7.10985 10.6333C1.02366 19.6885 -0.62127 28.5303 0.201191 37.2536C4.24299 40.2167 8.14384 42.0183 11.9765 43.2036C12.9165 41.9235 13.7624 40.5486 14.4909 39.1027C13.1045 38.5811 11.7885 37.9411 10.5196 37.1825C10.8486 36.9456 11.1776 36.6848 11.4831 36.4241C19.1437 39.9561 27.4411 39.9561 35.0077 36.4241C35.3367 36.6848 35.6422 36.9456 35.9712 37.1825C34.7022 37.9411 33.3863 38.5811 31.9998 39.1027C32.7283 40.5486 33.5743 41.9235 34.5142 43.2036C38.3445 42.0183 42.2689 40.2167 46.2895 37.2536C47.2999 27.1555 44.6892 18.3848 39.4255 10.6333ZM15.5483 31.8727C13.2454 31.8727 11.3655 29.763 11.3655 27.1792C11.3655 24.5954 13.1984 22.4856 15.5483 22.4856C17.8747 22.4856 19.778 24.5954 19.731 27.1792C19.731 29.763 17.8747 31.8727 15.5483 31.8727ZM30.9895 31.8727C28.6865 31.8727 26.8042 29.763 26.8042 27.1792C26.8042 24.5954 28.6395 22.4856 30.9895 22.4856C33.3158 22.4856 35.2192 24.5954 35.1722 27.1792C35.1722 29.763 33.3393 31.8727 30.9895 31.8727Z" fill="#5865F2"/>
<path d="M62.5742 15.0898H72.5637C74.9605 15.0898 77.0049 15.4691 78.6734 16.2276C80.3417 16.9862 81.5872 18.0293 82.4097 19.3804C83.2321 20.7316 83.6551 22.2723 83.6551 24.0266C83.6551 25.7333 83.2322 27.2741 82.3627 28.6726C81.4932 30.0476 80.1774 31.1616 78.4149 31.9676C76.6525 32.7736 74.467 33.1766 71.8587 33.1766H62.5742V15.0898ZM71.7412 28.5778C73.3625 28.5778 74.608 28.1748 75.4775 27.3453C76.347 26.5392 76.7935 25.4014 76.7935 24.0029C76.7935 22.6991 76.394 21.656 75.6185 20.8738C74.843 20.0916 73.6682 19.6886 72.0937 19.6886H68.9683V28.5778H71.7412Z" fill="#5865F2"/>
<path d="M99.2129 33.154C97.8264 32.7984 96.5811 32.2769 95.4766 31.5657V27.2751C96.3226 27.9389 97.4269 28.4604 98.8369 28.8871C100.247 29.3138 101.61 29.5272 102.926 29.5272C103.537 29.5272 104.007 29.456 104.312 29.2901C104.618 29.1242 104.782 28.9345 104.782 28.6975C104.782 28.4367 104.688 28.2233 104.524 28.0574C104.359 27.8914 104.03 27.7492 103.537 27.607L100.458 26.9197C98.6959 26.5167 97.4504 25.924 96.6984 25.2128C95.9466 24.5017 95.5941 23.5299 95.5941 22.3446C95.5941 21.3489 95.9231 20.472 96.5574 19.7371C97.2154 19.0022 98.1319 18.4333 99.3304 18.0303C100.529 17.6274 101.915 17.4141 103.537 17.4141C104.97 17.4141 106.286 17.5563 107.484 17.8882C108.683 18.1962 109.67 18.5992 110.445 19.0733V23.1269C109.646 22.6528 108.706 22.2735 107.672 21.989C106.615 21.7045 105.534 21.5623 104.43 21.5623C102.832 21.5623 102.033 21.8468 102.033 22.392C102.033 22.6528 102.15 22.8424 102.409 22.9846C102.667 23.1269 103.114 23.2454 103.772 23.3876L106.333 23.8618C108.001 24.1461 109.247 24.6676 110.069 25.4025C110.892 26.1374 111.291 27.204 111.291 28.65C111.291 30.2146 110.61 31.4709 109.247 32.3717C107.884 33.2962 105.957 33.7465 103.466 33.7465C102.009 33.6991 100.599 33.5094 99.2129 33.154Z" fill="#5865F2"/>
<path d="M117.641 32.609C116.184 31.8742 115.056 30.9024 114.327 29.6697C113.575 28.437 113.223 27.0385 113.223 25.4739C113.223 23.9331 113.599 22.5345 114.374 21.3256C115.15 20.0929 116.278 19.1447 117.758 18.4337C119.238 17.7462 121.024 17.3906 123.092 17.3906C125.654 17.3906 127.769 17.9359 129.46 19.0262V23.7435C128.873 23.3405 128.168 22.9849 127.369 22.7478C126.57 22.4871 125.724 22.3686 124.831 22.3686C123.233 22.3686 122.011 22.653 121.095 23.2457C120.202 23.8383 119.755 24.5969 119.755 25.545C119.755 26.4695 120.178 27.2281 121.071 27.8208C121.941 28.4132 123.21 28.7214 124.855 28.7214C125.701 28.7214 126.547 28.6029 127.369 28.3421C128.192 28.0814 128.92 27.797 129.507 27.4178V31.9927C127.627 33.1306 125.442 33.6995 122.975 33.6995C120.883 33.6995 119.121 33.3202 117.641 32.609Z" fill="#5865F2"/>
<path d="M136.157 32.609C134.676 31.8742 133.548 30.9024 132.773 29.646C131.997 28.3895 131.598 26.991 131.598 25.4265C131.598 23.8857 131.997 22.4871 132.773 21.2782C133.548 20.0692 134.676 19.121 136.133 18.4337C137.59 17.7462 139.352 17.3906 141.375 17.3906C143.396 17.3906 145.159 17.7225 146.616 18.4337C148.073 19.121 149.201 20.0692 149.976 21.2782C150.752 22.4871 151.128 23.862 151.128 25.4265C151.128 26.9673 150.752 28.3895 149.976 29.646C149.201 30.9024 148.096 31.8979 146.616 32.609C145.135 33.3202 143.396 33.6995 141.375 33.6995C139.376 33.6995 137.637 33.3202 136.157 32.609ZM143.937 28.034C144.548 27.4178 144.877 26.5643 144.877 25.545C144.877 24.5021 144.571 23.6961 143.937 23.0797C143.302 22.4634 142.456 22.1552 141.399 22.1552C140.295 22.1552 139.446 22.4634 138.812 23.0797C138.201 23.6961 137.872 24.5021 137.872 25.545C137.872 26.588 138.177 27.4178 138.812 28.034C139.446 28.674 140.295 28.9822 141.399 28.9822C142.456 28.9585 143.326 28.6503 143.937 28.034Z" fill="#5865F2"/>
<path d="M166.851 18.3369V23.9076C166.193 23.4809 165.347 23.2676 164.313 23.2676C162.95 23.2676 161.892 23.6943 161.164 24.5238C160.435 25.3535 160.059 26.6574 160.059 28.4114V33.1525H153.785V18.0761H159.942V22.8883C160.271 21.134 160.835 19.8304 161.587 19.0007C162.339 18.171 163.326 17.7207 164.524 17.7207C165.417 17.7207 166.193 17.9341 166.851 18.3369Z" fill="#5865F2"/>
<path d="M188.004 14.5684V33.1765H181.73V29.7867C181.189 31.0668 180.39 32.0388 179.309 32.7024C178.226 33.3662 176.886 33.698 175.288 33.698C173.878 33.698 172.633 33.3425 171.575 32.655C170.518 31.9677 169.696 30.9957 169.132 29.7867C168.568 28.5542 168.286 27.1792 168.286 25.6622C168.262 24.0739 168.568 22.6517 169.202 21.3953C169.813 20.139 170.706 19.1671 171.834 18.4559C172.962 17.7447 174.254 17.3892 175.711 17.3892C178.696 17.3892 180.696 18.693 181.73 21.3242V14.5684H188.004ZM180.79 27.9141C181.424 27.2978 181.753 26.4681 181.753 25.4726C181.753 24.5006 181.448 23.7183 180.813 23.1258C180.179 22.5332 179.333 22.225 178.273 22.225C177.215 22.225 176.369 22.5332 175.735 23.1495C175.1 23.7657 174.795 24.548 174.795 25.5437C174.795 26.5392 175.1 27.3215 175.735 27.9378C176.369 28.5542 177.192 28.8623 178.249 28.8623C179.309 28.8623 180.155 28.5542 180.79 27.9141Z" fill="#5865F2"/>
<path d="M89.4382 18.9789C91.2404 18.9789 92.7046 17.6521 92.7046 16.0158C92.7046 14.3793 91.2404 13.0527 89.4382 13.0527C87.6334 13.0527 86.1719 14.3793 86.1719 16.0158C86.1719 17.6521 87.6334 18.9789 89.4382 18.9789Z" fill="#5865F2"/>
<path d="M92.7046 21.0156C90.7071 21.8926 88.2162 21.9163 86.1719 21.0156V33.1761H92.7046V21.0156Z" fill="#5865F2"/>
</g>
<defs>
<clipPath id="clip0">
<rect width="188" height="52" fill="white" transform="translate(0.00390625)"/>
</clipPath>
</defs>
</svg>
