<svg width="100" height="51" viewBox="0 0 100 51" fill="none" xmlns="http://www.w3.org/2000/svg">
<g clip-path="url(#clip0_11012:707867)">
<path d="M18.9196 30.1261L15.258 31.6998V31.5424C14.552 31.7212 13.7699 31.8241 13.0291 31.8573C9.58551 31.8241 6.85224 30.0425 6.82043 27.9225V27.1354C7.95145 28.7613 10.2538 29.8507 13.0291 29.8113C13.9679 29.8507 14.9284 29.7038 15.7354 29.4965L16.0539 28.7095C15.0966 28.9918 14.0519 29.1883 13.0291 29.1817C9.58551 29.1883 6.85224 27.4066 6.82043 25.2472V24.6176C7.95145 26.1205 10.2489 27.2102 13.0291 27.1358C14.2798 27.2102 15.5029 26.9502 16.5313 26.5061L16.6907 25.7191C15.6859 26.2431 14.3837 26.5475 13.0291 26.5061C9.58551 26.5475 6.85224 24.7658 6.82043 22.5717V21.9421C7.95145 23.48 10.2538 24.5694 13.0291 24.6176C14.6064 24.5694 16.1017 24.1572 17.3275 23.5158L17.4869 22.5713C16.3743 23.3866 14.75 23.9119 13.0291 23.988C9.58551 23.9119 6.85256 22.13 6.82043 19.8961C6.85224 17.7715 9.58551 15.9899 13.0291 15.9617C15.0819 15.9899 16.9885 16.7015 18.1237 17.8502L18.2343 18.0322L19.037 18.0355L18.9196 17.8502C17.7906 16.3332 15.5325 15.332 13.0291 15.332C9.21889 15.332 6.18359 17.4081 6.18359 19.8961V28.0799C6.31739 30.5085 9.28349 32.4865 13.0291 32.4865C15.5029 32.4865 17.7263 31.5247 18.9196 30.1261Z" fill="white" fill-opacity="0.4"/>
<path d="M17.4302 35.6642L18.7157 30.2636L15.0203 31.8521L17.2699 22.4806H12.9314L14.0562 17.8742H27.8737L26.7489 22.4806H22.2504L21.2863 25.022L26.2669 22.9571L17.4302 35.6642ZM19.6798 29.1516L19.0371 32.3286L24.339 24.3868L20.0008 26.2931L21.9291 21.8454H26.2669L27.0703 18.5097H14.5382L13.7348 21.8454H18.073L15.9841 30.7404L19.6798 29.1523V29.1516ZM37.3928 20.9164C37.3547 21.443 37.1603 21.8575 36.8094 22.1605C36.4585 22.4632 35.9961 22.6144 35.4223 22.6144C34.7949 22.6144 34.3008 22.4032 33.9413 21.9805C33.5816 21.5581 33.4016 20.978 33.4016 20.2405V19.9411C33.4016 19.4705 33.4845 19.0557 33.6505 18.697C33.8164 18.3385 34.0535 18.0631 34.3614 17.8716C34.6697 17.6797 35.0278 17.584 35.436 17.584C36.0007 17.584 36.4559 17.7355 36.8012 18.0382C37.1462 18.3405 37.3456 18.7655 37.3997 19.3125H36.391C36.3664 18.9964 36.2782 18.7671 36.127 18.6248C35.9755 18.4825 35.7453 18.4113 35.436 18.4113C35.0996 18.4113 34.8481 18.5317 34.6811 18.7727C34.5139 19.0137 34.4283 19.3876 34.4237 19.8942V20.2641C34.4237 20.7931 34.5041 21.1797 34.6641 21.424C34.8248 21.6683 35.0773 21.7906 35.4226 21.7906C35.7341 21.7906 35.9666 21.7195 36.1201 21.5772C36.2739 21.4348 36.3618 21.2145 36.3841 20.9164H37.3928V20.9164ZM42.6016 20.2104C42.6016 20.6924 42.5163 21.1148 42.3458 21.4778C42.1756 21.8411 41.9319 22.1212 41.6145 22.3186C41.2974 22.5157 40.9337 22.6144 40.5235 22.6144C40.1179 22.6144 39.7558 22.517 39.4374 22.3219C39.1193 22.1268 38.8724 21.8483 38.6976 21.4863C38.5228 21.1243 38.4343 20.7078 38.432 20.2369V19.9949C38.432 19.5129 38.5189 19.0888 38.6927 18.7225C38.8665 18.3559 39.1118 18.0746 39.4292 17.8781C39.7463 17.682 40.109 17.584 40.5169 17.584C40.9249 17.584 41.2876 17.6824 41.6047 17.8781C41.9218 18.0746 42.1674 18.3559 42.3409 18.7222C42.5147 19.0888 42.6016 19.5119 42.6016 19.9916V20.2104V20.2104ZM41.5794 19.9883C41.5794 19.4748 41.4876 19.0849 41.304 18.818C41.12 18.5514 40.8577 18.4179 40.5169 18.4179C40.1782 18.4179 39.9172 18.5497 39.7332 18.8131C39.5496 19.0764 39.4564 19.4623 39.4545 19.9716V20.2104C39.4545 20.7101 39.5463 21.098 39.7299 21.3735C39.9135 21.6493 40.1782 21.7874 40.5235 21.7874C40.8619 21.7874 41.122 21.6545 41.304 21.3889C41.4853 21.1233 41.5771 20.736 41.5794 20.2271V19.9883ZM44.9315 22.5472H43.9228V17.6512H44.9315V22.5472ZM50.3725 22.5472H49.3634L47.3998 19.3259V22.5472H46.3911V17.6512H47.3998L49.367 20.8793V17.6512H50.3725V22.5472ZM55.3661 18.4684H53.8665V22.5472H52.8578V18.4684H51.3782V17.6512H55.3661V18.4684V18.4684ZM59.4114 20.4255H57.4747V21.7369H59.7476V22.5472H56.4657V17.6512H59.741V18.4684H57.4747V19.6352H59.4114V20.4255V20.4255ZM61.8729 21.7369H64.0149V22.5472H60.8641V17.6512H61.8729V21.7372V21.7369ZM68.0635 20.4251H66.1267V21.7369H68.3996V22.5472H65.118V17.6512H68.393V18.4684H66.1267V19.6352H68.0635V20.4255V20.4251ZM73.39 21.9284C73.2083 22.1458 72.9515 22.3147 72.6197 22.4344C72.2881 22.5544 71.9205 22.6147 71.5169 22.6147C71.0932 22.6147 70.7216 22.5219 70.4022 22.337C70.0828 22.152 69.8362 21.8838 69.6624 21.5316C69.4886 21.1797 69.3998 20.7662 69.3952 20.291V19.9578C69.3952 19.4692 69.4775 19.0462 69.6424 18.6888C69.807 18.3313 70.0448 18.0575 70.355 17.8683C70.6656 17.6788 71.0292 17.584 71.4463 17.584C72.0268 17.584 72.481 17.7224 72.8082 17.9995C73.1355 18.2762 73.3293 18.6793 73.39 19.2082H72.4078C72.3632 18.9278 72.2639 18.7229 72.1104 18.5927C71.9569 18.4628 71.7454 18.3979 71.4765 18.3979C71.1335 18.3979 70.8725 18.5268 70.6928 18.7845C70.5137 19.0423 70.4229 19.4256 70.4206 19.9346V20.2471C70.4206 20.7606 70.5183 21.1482 70.7131 21.4106C70.9082 21.6729 71.1942 21.8041 71.5706 21.8041C71.9494 21.8041 72.2199 21.7234 72.3809 21.5621V20.718H71.4631V19.9749H73.39V21.9284V21.9284ZM76.544 20.755H75.7405V22.5472H74.7315V17.6512H76.5509C77.129 17.6512 77.5753 17.7801 77.8888 18.0382C78.203 18.2959 78.3597 18.6599 78.3597 19.1308C78.3597 19.465 78.2876 19.7434 78.1429 19.9664C77.9983 20.1894 77.7789 20.3671 77.4855 20.4993L78.5447 22.4999V22.5472H77.4618L76.544 20.755V20.755ZM75.7405 19.9378H76.5538C76.8073 19.9378 77.0034 19.8732 77.1424 19.7444C77.2815 19.6155 77.351 19.4381 77.351 19.2115C77.351 18.9806 77.2854 18.799 77.1542 18.6668C77.0231 18.5346 76.8221 18.4684 76.5509 18.4684H75.7402V19.9378H75.7405ZM82.4152 21.5381H80.6463L80.3102 22.5472H79.2376L81.0602 17.6512H81.9948L83.8272 22.5472H82.7549L82.4152 21.5385V21.5381ZM80.9188 20.7216H82.1427L81.5275 18.8885L80.9188 20.7216ZM85.8181 20.8223V22.5472H84.8094V17.6512H86.7192C87.0868 17.6512 87.4102 17.7184 87.6892 17.8532C87.9686 17.9877 88.1831 18.1785 88.3333 18.4264C88.4835 18.674 88.5586 18.956 88.5586 19.2722C88.5586 19.7519 88.3946 20.13 88.066 20.4068C87.7374 20.6839 87.2829 20.8223 86.7025 20.8223H85.8181V20.8223ZM85.8181 20.0051H86.7192C86.9861 20.0051 87.1895 19.9424 87.3295 19.8168C87.4698 19.6912 87.5397 19.5119 87.5397 19.279C87.5397 19.039 87.4692 18.8449 87.3278 18.697C87.1868 18.5494 86.9917 18.473 86.7428 18.4684H85.8181V20.0051ZM93.7605 22.5472H92.7518V20.4491H90.7849V22.5472H89.7758V17.6512H90.7849V19.6352H92.7518V17.6512H93.7605V22.5472Z" fill="white"/>
<path d="M36.1759 27.0822H35.0852V30.0893H34.4825V27.0822H33.4016V26.5923H36.1759V27.0822V27.0822ZM37.3499 27.7741C37.5404 27.5531 37.7814 27.4426 38.0729 27.4426C38.6271 27.4426 38.9078 27.7587 38.9157 28.3913V30.0893H38.3323V28.4129C38.3323 28.2335 38.2936 28.1066 38.2159 28.0322C38.1382 27.9578 38.0241 27.9207 37.8736 27.9207C37.6397 27.9207 37.4653 28.0247 37.3499 28.2326V30.0893H36.7661V26.4001H37.3499V27.7741ZM40.8469 30.1372C40.477 30.1372 40.1772 30.0208 39.9474 29.7879C39.7178 29.5551 39.6027 29.2445 39.6027 28.8573V28.7851C39.6027 28.5257 39.6529 28.2939 39.7529 28.0899C39.8454 27.8943 39.9915 27.7289 40.1743 27.6131C40.3555 27.4993 40.5657 27.4401 40.7796 27.4426C41.1335 27.4426 41.407 27.5554 41.5998 27.781C41.7926 28.007 41.8893 28.3264 41.8893 28.7395V28.975H40.191C40.2087 29.1895 40.2805 29.359 40.4061 29.4839C40.5317 29.6089 40.6898 29.6715 40.8803 29.6715C41.1479 29.6715 41.3656 29.5633 41.5339 29.3469L41.8487 29.6472C41.7444 29.8028 41.6004 29.9277 41.4316 30.0089C41.2578 30.0942 41.063 30.1372 40.8469 30.1372V30.1372ZM40.7773 27.9105C40.617 27.9105 40.4878 27.9669 40.3894 28.0791C40.291 28.1909 40.2281 28.347 40.2008 28.5474H41.3125V28.5041C41.3001 28.3086 41.2479 28.1611 41.1568 28.0611C41.0653 27.961 40.939 27.9109 40.7773 27.9109V27.9105ZM44.1658 30.0893V27.923H43.7693V27.4905H44.1658V27.2527C44.1658 26.9645 44.2458 26.7418 44.4059 26.5851C44.5662 26.428 44.7902 26.3496 45.0784 26.3496C45.1811 26.3496 45.2899 26.364 45.405 26.3929L45.3906 26.8494C45.317 26.8357 45.2422 26.8292 45.1673 26.83C44.8886 26.83 44.7495 26.9733 44.7495 27.2599V27.4905H45.2775V27.923H44.7495V30.0893H44.1658ZM47.4753 29.8348C47.3041 30.0365 47.0604 30.1372 46.745 30.1372C46.4633 30.1372 46.2498 30.0549 46.1052 29.8899C45.9602 29.725 45.8878 29.4866 45.8878 29.174V27.4905H46.4715V29.1668C46.4715 29.4967 46.6082 29.662 46.882 29.662C47.1654 29.662 47.3569 29.5603 47.4559 29.357V27.4905H48.0396V30.0893H47.4897L47.4753 29.8348ZM49.5622 26.8589V27.4905H50.0213V27.923H49.5622V29.3734C49.5622 29.4728 49.5819 29.5446 49.6212 29.5885C49.6606 29.6325 49.7304 29.6545 49.8311 29.6545C49.8986 29.6545 49.9665 29.6466 50.0354 29.6305V30.0821C49.9103 30.1177 49.7811 30.1363 49.651 30.1372C49.2028 30.1372 48.9788 29.8899 48.9788 29.3951V27.9227H48.5512V27.4905H48.9785V26.8592H49.5622V26.8589ZM52.2377 29.8348C52.0662 30.0365 51.8229 30.1372 51.5074 30.1372C51.2254 30.1372 51.0123 30.0549 50.8673 29.8899C50.7224 29.725 50.6499 29.4866 50.6499 29.174V27.4905H51.2336V29.1668C51.2336 29.4967 51.3707 29.662 51.6445 29.662C51.9278 29.662 52.119 29.5603 52.2184 29.357V27.4905H52.8021V30.0893H52.2522L52.2377 29.8348V29.8348ZM54.954 28.0237C54.8754 28.0108 54.7958 28.0044 54.7162 28.0047C54.4486 28.0047 54.2686 28.107 54.1758 28.3119V30.0893H53.5921V27.4905H54.1495L54.1636 27.781C54.3047 27.5554 54.5001 27.4426 54.7497 27.4426C54.8329 27.4426 54.9018 27.4537 54.9562 27.476L54.954 28.0237V28.0237ZM56.6182 30.1372C56.2483 30.1372 55.9486 30.0208 55.7187 29.7879C55.4891 29.5551 55.374 29.2445 55.374 28.8573V28.7851C55.374 28.5257 55.4242 28.2939 55.5242 28.0899C55.6167 27.8943 55.7628 27.7289 55.9456 27.6131C56.1268 27.4993 56.337 27.4401 56.551 27.4426C56.9048 27.4426 57.1783 27.5554 57.3711 27.781C57.5639 28.007 57.6607 28.3264 57.6607 28.7395V28.975H55.9623C55.98 29.1895 56.0518 29.359 56.1774 29.4839C56.303 29.6089 56.4611 29.6715 56.6516 29.6715C56.9192 29.6715 57.137 29.5633 57.3052 29.3469L57.62 29.6472C57.5157 29.8028 57.3717 29.9277 57.2029 30.0089C57.0291 30.0942 56.8343 30.1372 56.6182 30.1372V30.1372ZM56.5487 27.9105C56.3883 27.9105 56.2591 27.9669 56.1607 28.0791C56.0623 28.1909 55.9994 28.347 55.9722 28.5474H57.0838V28.5041C57.0714 28.3086 57.0192 28.1611 56.9281 28.0611C56.8366 27.961 56.7103 27.9109 56.5487 27.9109V27.9105ZM59.6223 28.7658C59.6223 28.5113 59.6728 28.2821 59.7738 28.0778C59.8664 27.8827 60.0142 27.7189 60.1988 27.6069C60.3815 27.4974 60.591 27.4426 60.8284 27.4426C61.1787 27.4426 61.4633 27.5554 61.682 27.781C61.9004 28.007 62.0188 28.3063 62.0362 28.6795L62.0388 28.8163C62.0388 29.0724 61.9896 29.3016 61.8912 29.5033C61.7994 29.6976 61.6522 29.8605 61.4682 29.9716C61.2849 30.0821 61.0731 30.1372 60.833 30.1372C60.4664 30.1372 60.1729 30.0152 59.9525 29.7712C59.7328 29.5269 59.6223 29.2013 59.6223 28.7946V28.7658V28.7658ZM60.206 28.8163C60.206 29.0839 60.2614 29.2931 60.372 29.4443C60.4821 29.5958 60.6359 29.6715 60.833 29.6715C61.0298 29.6715 61.1832 29.5944 61.2928 29.4406C61.4026 29.2872 61.4574 29.0622 61.4574 28.7658C61.4574 28.5034 61.401 28.2952 61.2882 28.1414C61.1751 27.9876 61.0219 27.9109 60.8281 27.9109C60.6379 27.9109 60.4864 27.9863 60.3743 28.1378C60.2621 28.2893 60.206 28.5152 60.206 28.8166V28.8163ZM62.9347 30.0893V27.923H62.5382V27.4905H62.9347V27.2527C62.9347 26.9645 63.0147 26.7418 63.1748 26.5851C63.3351 26.428 63.5591 26.3496 63.8473 26.3496C63.95 26.3496 64.0588 26.364 64.1739 26.3929L64.1595 26.8494C64.086 26.8357 64.0113 26.8292 63.9365 26.83C63.6578 26.83 63.5184 26.9733 63.5184 27.2599V27.4905H64.0467V27.923H63.5184V30.0893H62.9347V30.0893ZM66.6403 27.4905L66.657 27.762C66.8397 27.5488 67.0895 27.4426 67.4063 27.4426C67.7539 27.4426 67.9917 27.5754 68.1199 27.8413C68.3088 27.5754 68.5744 27.4426 68.9171 27.4426C69.2037 27.4426 69.4172 27.5216 69.5572 27.6803C69.6972 27.8387 69.769 28.0725 69.7723 28.3814V30.0893H69.1886V28.3985C69.1886 28.2335 69.1525 28.1125 69.0804 28.0358C69.0082 27.9587 68.8892 27.9204 68.7229 27.9204C68.5898 27.9204 68.4813 27.9561 68.3973 28.0273C68.3117 28.1007 68.2502 28.1982 68.2206 28.307L68.2232 30.0893H67.6395V28.3791C67.6313 28.0735 67.4755 27.9204 67.1712 27.9204C66.9374 27.9204 66.7715 28.0155 66.6741 28.2063V30.0893H66.0903V27.4905H66.6403ZM70.459 28.7661C70.459 28.5113 70.5095 28.2821 70.6102 28.0778C70.7029 27.8826 70.8507 27.7189 71.0355 27.6069C71.2178 27.4974 71.4277 27.4426 71.6648 27.4426C72.0153 27.4426 72.3 27.5554 72.5184 27.781C72.7371 28.007 72.8552 28.3063 72.8725 28.6795L72.8752 28.8163C72.8752 29.0724 72.826 29.3016 72.7276 29.5033C72.6357 29.6976 72.4886 29.8605 72.3046 29.9716C72.1213 30.0821 71.9097 30.1372 71.6694 30.1372C71.3027 30.1372 71.0093 30.0152 70.7892 29.7712C70.5692 29.5269 70.459 29.2013 70.459 28.7946V28.7658V28.7661ZM71.0427 28.8163C71.0427 29.0839 71.0978 29.2931 71.2083 29.4443C71.3188 29.5958 71.4726 29.6715 71.6694 29.6715C71.8661 29.6715 72.0196 29.5944 72.1295 29.4406C72.239 29.2872 72.2941 29.0622 72.2941 28.7658C72.2941 28.5034 72.2373 28.2952 72.1245 28.1414C72.0117 27.9876 71.8583 27.9109 71.6648 27.9109C71.4743 27.9109 71.3227 27.9863 71.2106 28.1378C71.0988 28.2893 71.0427 28.5152 71.0427 28.8166V28.8163ZM74.1072 27.4905L74.1239 27.7908C74.3161 27.5587 74.5682 27.4426 74.8804 27.4426C75.4215 27.4426 75.697 27.7525 75.7068 28.3719V30.0893H75.1231V28.4057C75.1231 28.2408 75.0873 28.1184 75.0162 28.0394C74.945 27.9601 74.8286 27.9204 74.6666 27.9204C74.4315 27.9204 74.2561 28.027 74.1406 28.2398V30.0893H73.5569V27.4905H74.1072V27.4905ZM77.6422 30.1372C77.2727 30.1372 76.9726 30.0208 76.7431 29.7879C76.5132 29.5551 76.3984 29.2445 76.3984 28.8573V28.7851C76.3984 28.5257 76.4482 28.2939 76.5483 28.0899C76.6408 27.8942 76.7871 27.7289 76.97 27.6131C77.1511 27.4994 77.3611 27.4402 77.575 27.4426C77.9292 27.4426 78.2023 27.5554 78.3955 27.781C78.5883 28.007 78.6847 28.3264 78.6847 28.7395V28.975H76.9867C77.0044 29.1895 77.0759 29.359 77.2015 29.4839C77.3274 29.6089 77.4855 29.6715 77.676 29.6715C77.9433 29.6715 78.1613 29.5633 78.3292 29.3469L78.644 29.6472C78.5398 29.8028 78.3959 29.9277 78.2273 30.0089C78.0535 30.0942 77.8587 30.1372 77.6422 30.1372V30.1372ZM77.5727 27.9105C77.4127 27.9105 77.2835 27.9669 77.1848 28.0791C77.0864 28.1909 77.0234 28.347 76.9962 28.5474H78.1082V28.5041C78.0954 28.3086 78.0436 28.1611 77.9521 28.0611C77.861 27.961 77.7344 27.9109 77.5727 27.9109V27.9105ZM80.2122 29.2534L80.7405 27.4905H81.3626L80.3296 30.4831C80.1712 30.9203 79.9023 31.139 79.5229 31.139C79.4277 31.1375 79.3331 31.1229 79.2419 31.0957V30.6441L79.3524 30.6514C79.4996 30.6514 79.6104 30.6245 79.6849 30.571C79.7593 30.5172 79.8184 30.4271 79.8613 30.3008L79.9456 30.0772L79.033 27.4905H79.6623L80.2122 29.2534Z" fill="white" fill-opacity="0.4"/>
</g>
<defs>
<clipPath id="clip0_11012:707867">
<rect width="87.8844" height="20.3315" fill="white" transform="translate(6.18359 15.332)"/>
</clipPath>
</defs>
</svg>
