<svg width="90" height="47" viewBox="0 0 90 47" fill="none" xmlns="http://www.w3.org/2000/svg">
<g opacity="0.5">
<g opacity="0.4" clip-path="url(#clip0_11012:707863)">
<path fill-rule="evenodd" clip-rule="evenodd" d="M21.0896 32.7219H22.2444V25.4735H21.0896V32.7219ZM25.7096 32.6133H26.8889V28.039L31.8703 32.7219V25.5822H30.6917V30.0789L25.7096 25.4735V32.6133ZM35.0102 30.8584C35.6774 31.373 36.4764 31.6702 37.3346 31.6702C38.1684 31.6702 38.7531 31.384 38.7531 30.7553C38.7531 30.2065 38.3832 29.9892 37.7277 29.7493L36.6668 29.3831C35.6902 29.0413 34.951 28.5377 34.951 27.3828C34.951 26.148 36.0711 25.4735 37.4182 25.4735C38.2404 25.4735 38.9912 25.6792 39.5753 26.0455V27.2687C38.9674 26.8231 38.2996 26.5136 37.442 26.5136C36.7028 26.5136 36.1541 26.7883 36.1541 27.3603C36.1541 27.8742 36.5002 28.0805 37.1081 28.2862L38.288 28.6976C39.4325 29.0974 39.9562 29.7151 39.9562 30.7327C39.9562 32.0133 38.8245 32.7219 37.3346 32.7219C36.3573 32.7219 35.5229 32.4473 35.0102 32.1048V30.8584V30.8584ZM42.6517 32.7219H43.8072V25.4735H42.6517V32.7219ZM50.3304 31.6245C51.8198 31.6245 52.617 30.6442 52.617 29.0974C52.617 27.5391 51.8198 26.5594 50.3304 26.5594H48.8582V31.6245H50.3304V31.6245ZM47.6569 25.4735H50.3768C52.4668 25.4735 53.8182 26.8896 53.8182 29.0974C53.8182 31.3052 52.4668 32.7219 50.3768 32.7219H47.6575V25.4735H47.6569ZM60.7486 25.4735V26.5594H57.6729V28.3033H60.4306V29.3782H57.6729V31.6245H60.7486V32.7219H56.5131V25.4735H60.7486ZM65.0073 28.755H66.3301C67.1114 28.755 67.5539 28.3186 67.5539 27.6453C67.5539 26.9727 67.112 26.5362 66.3301 26.5362H65.0073V28.7544V28.755ZM65.0073 29.7823V32.7219H63.8293V25.4735H66.3527C67.792 25.4735 68.721 26.2292 68.721 27.6453C68.721 28.8618 68.2021 29.5583 67.1034 29.7353L69.6048 32.7219H68.2681L65.846 29.7823H65.0067H65.0073ZM67.6803 16.3195C67.6803 17.4737 68.4188 17.9773 69.3955 18.3203L70.4569 18.686C71.1119 18.9258 71.4818 19.1438 71.4818 19.6919C71.4818 20.3206 70.8976 20.6069 70.0632 20.6069C69.205 20.6069 68.4066 20.3096 67.7395 19.795V21.0409C68.2522 21.3839 69.086 21.6586 70.0632 21.6586C71.5526 21.6586 72.6855 20.9493 72.6855 19.6687C72.6855 18.6518 72.1605 18.0341 71.0167 17.6343L69.8368 17.2228C69.2288 17.0165 68.8833 16.8108 68.8833 16.2963C68.8833 15.7249 69.4315 15.4509 70.17 15.4509C71.0289 15.4509 71.696 15.7591 72.304 16.2047V14.9821C71.7198 14.6159 70.9691 14.4102 70.1462 14.4102C68.7991 14.4102 67.679 15.0846 67.679 16.3195H67.6803ZM52.6628 14.4102V21.6586H56.8983V20.5623H53.8237V18.313H56.5815V17.2399H53.8237V15.4954H56.8983V14.4102H52.6628ZM36.2078 17.6916H37.6184C38.4522 17.6916 38.924 17.2552 38.924 16.5819C38.924 15.9093 38.4522 15.4729 37.6184 15.4729H36.2084V17.6916H36.2078ZM36.2078 18.7189V21.6586H34.9504V14.4102H37.6428C39.178 14.4102 40.1686 15.1658 40.1686 16.5819C40.1686 17.7984 39.6162 18.4949 38.4437 18.6719L41.1111 21.6586H39.6858L37.102 18.7189H36.2078V18.7189ZM45.0377 17.5622L47.9493 14.4102H49.4759L46.1975 17.8809L49.5827 21.6586H48.0201L45.0377 18.3417V21.6586H43.8072V14.4102H45.0377V17.5622ZM59.5938 14.4102H65.7545V15.4967H63.2995V21.6586H62.0482V15.4967H59.5938V14.4102ZM27.7685 19.6901L28.9771 16.9128L30.1856 19.6901H27.7685ZM31.0426 21.6586H32.2555L28.9826 14.4102L25.7096 21.6586H26.9121L27.315 20.732H30.6392L31.0426 21.6586V21.6586ZM22.2084 17.539V21.6586H23.3993V14.4102L19.7418 18.2733L16.0837 14.4102V21.6586H17.2752V17.539L19.7418 20.1436L22.2084 17.539Z" fill="white"/>
</g>
</g>
<defs>
<clipPath id="clip0_11012:707863">
<rect width="56.7665" height="18.3118" fill="white" transform="translate(16.0837 14.4102)"/>
</clipPath>
</defs>
</svg>
