<svg width="18" height="19" viewBox="0 0 18 19" fill="none" xmlns="http://www.w3.org/2000/svg">
<path d="M1.7416 9.76796C1.7416 5.94198 1.54515 3.88366 2.61454 2.69464C3.68539 1.50643 5.60279 1.65175 9.04616 1.65175C12.4895 1.65175 14.4122 1.48349 15.4816 2.6717C16.5517 3.86154 16.3507 5.94198 16.3507 9.76796C16.3507 13.5939 16.5748 15.6602 15.5046 16.8485C14.436 18.0375 12.4895 17.8842 9.04616 17.8842C5.60279 17.8842 3.70765 18.0145 2.63754 16.8255C1.56815 15.6381 1.7416 13.5939 1.7416 9.76796Z" stroke="white" stroke-width="1.5"/>
<path d="M12.2927 8.14395C13.1892 8.14395 13.9159 7.4172 13.9159 6.5207C13.9159 5.62421 13.1892 4.89746 12.2927 4.89746C11.3962 4.89746 10.6694 5.62421 10.6694 6.5207C10.6694 7.4172 11.3962 8.14395 12.2927 8.14395Z" stroke="white" stroke-width="1.5"/>
<path d="M3.88184 10.3554L4.02212 10.217C4.38321 9.88149 4.86236 9.70239 5.35501 9.71881C5.84767 9.73523 6.31382 9.94584 6.65177 10.3047L8.80013 12.5853C9.2376 13.0496 9.95264 13.1121 10.4631 12.7314C10.8195 12.466 11.2582 12.3352 11.7017 12.3621C12.1452 12.389 12.5649 12.5718 12.8866 12.8783L13.9449 14.0127" stroke="white" stroke-width="1.5" stroke-linecap="round"/>
</svg>
