<svg width="56" height="68" viewBox="0 0 56 68" fill="none" xmlns="http://www.w3.org/2000/svg">
<path d="M4.6325 25.9892C12.659 4.80781 23.4243 1.5 27.852 1.5C32.299 1.5 43.3833 4.8303 51.4013 25.9892C56.8976 40.4934 54.4304 50.5312 49.0936 56.9413C43.6765 63.4477 35.0749 66.5 27.852 66.5C20.631 66.5 12.1162 63.4494 6.78214 56.9495C1.52439 50.5426 -0.866929 40.5017 4.6325 25.9892Z" stroke="url(#paint0_linear_8849:616754)" stroke-width="3"/>
<path d="M4.6325 25.9892C12.659 4.80781 23.4243 1.5 27.852 1.5C32.299 1.5 43.3833 4.8303 51.4013 25.9892C56.8976 40.4934 54.4304 50.5312 49.0936 56.9413C43.6765 63.4477 35.0749 66.5 27.852 66.5C20.631 66.5 12.1162 63.4494 6.78214 56.9495C1.52439 50.5426 -0.866929 40.5017 4.6325 25.9892Z" stroke="#7B41FF" stroke-width="3"/>
<path d="M20.4275 46.4299C20.2486 46.3807 19.8961 46.1057 19.37 45.6051C18.8424 45.0751 18.5122 44.6668 18.3794 44.3801C18.3485 44.3524 18.3292 44.2653 18.3214 44.1188C18.3104 43.9138 18.3419 43.6771 18.4157 43.4088C18.4895 43.1405 18.5703 43.004 18.6582 42.9993C18.7508 43.0825 18.9148 42.8534 19.1503 42.3121C19.4151 41.7692 19.5574 41.4091 19.5773 41.2318C19.6004 41.1131 19.6828 41.0059 19.8246 40.9102C19.9941 40.7836 20.1073 40.7041 20.1643 40.6717C20.2983 40.4296 20.4901 40.1697 20.7396 39.892C21.0169 39.5834 21.1964 39.3682 21.278 39.2464C21.3874 39.0937 21.5945 38.8476 21.8996 38.5082C22.203 38.1395 22.4795 37.8163 22.7291 37.5387C23.3977 36.8567 23.8837 36.3314 24.1872 35.9627C25.6229 34.2411 26.363 33.247 26.4075 32.9802C26.4352 32.9494 26.4907 32.8877 26.5738 32.7951C26.657 32.7025 26.7695 32.6084 26.9113 32.5127C27.335 32.1964 27.7271 31.8376 28.0876 31.4365C28.1521 30.9925 28.517 30.4002 29.1825 29.6597C29.3997 29.325 29.586 28.9625 29.7414 28.5724C29.9246 28.1513 30.0523 27.792 30.1245 27.4944C30.1968 27.1968 30.172 27.0072 30.0501 26.9256C29.9282 26.844 29.5104 26.7194 28.7964 26.5518C28.2906 26.4319 27.8767 26.3806 27.5544 26.3978C27.1151 26.4212 26.6527 26.5634 26.1672 26.8243C25.7095 27.0543 25.1277 27.4379 24.422 27.9749C24.0166 28.0846 23.6999 28.2044 23.4718 28.334C22.9539 28.5379 22.621 28.6291 22.4729 28.6076C22.3835 28.583 22.2447 28.4582 22.0564 28.2333C21.8682 28.0083 21.6969 27.8265 21.5426 27.6879L21.0025 25.822L22.3247 25.0024C24.4188 23.5101 26.1542 22.7272 27.531 22.6537C27.8825 22.635 28.2217 22.6609 28.5486 22.7316C28.8122 22.7176 29.0774 22.7328 29.3441 22.7773C29.6109 22.8218 29.7743 22.8572 29.8345 22.8833C30.2137 22.8337 30.8144 23.0807 31.6365 23.6244C32.4586 24.168 33.0171 24.7257 33.312 25.2975C33.7256 25.8923 33.9512 26.5412 33.9887 27.2442C34.0496 28.3866 33.6759 29.6403 32.8674 31.0053C32.2636 31.8013 31.341 32.952 30.0994 34.4576C28.8579 35.9633 28.0969 36.841 27.8165 37.091C27.4743 37.2855 26.6679 38.1363 25.397 39.6435C24.1246 41.1214 23.547 41.8572 23.6641 41.851C23.6411 41.9697 23.8161 41.9457 24.189 41.7789C24.5913 41.6106 24.8641 41.4932 25.0074 41.4268C25.6687 41.1565 26.5365 40.9046 27.6109 40.671C28.6837 40.4082 29.5277 40.2603 30.1429 40.2275C30.4358 40.2119 30.6424 40.2303 30.7627 40.2826C30.8275 40.3966 30.8746 40.4529 30.9039 40.4513C30.9609 40.4189 30.9886 40.388 30.987 40.3587C31.0101 40.24 31.212 40.1705 31.5928 40.1502C32.2665 40.1142 33.0644 40.2039 33.9865 40.419C34.2841 40.4913 34.5393 40.5952 34.7522 40.7307C34.9651 40.8662 35.0746 40.9926 35.0809 41.1097C35.1117 41.1375 35.1603 41.223 35.2267 41.3663C35.3209 41.4788 35.4458 41.619 35.6017 41.7869C35.8454 41.9502 35.9743 42.1636 35.9883 42.4273C36.0024 42.6909 35.8538 42.9338 35.5425 43.156C35.2313 43.3783 34.7974 43.5042 34.2408 43.5339C33.8307 43.5558 33.507 43.5437 33.2695 43.4976C32.5079 43.5382 31.8805 43.6158 31.3872 43.7302C31.3025 43.7935 31.0265 43.8523 30.5594 43.9066C30.1201 43.93 29.7832 43.948 29.5489 43.9605C29.4008 43.939 29.195 43.9353 28.9314 43.9494C28.2577 43.9853 27.3167 44.2411 26.1083 44.7168C25.4779 45.0148 24.4406 45.3933 22.9963 45.8522C21.5521 46.3111 20.6958 46.5037 20.4275 46.4299Z" fill="white"/>
<defs>
<linearGradient id="paint0_linear_8849:616754" x1="10.489" y1="55.8352" x2="43.4113" y2="46.777" gradientUnits="userSpaceOnUse">
<stop stop-color="#FF0099"/>
<stop offset="1" stop-color="#AF01FD"/>
</linearGradient>
</defs>
</svg>
