<svg width="73" height="37" viewBox="0 0 73 37" fill="none" xmlns="http://www.w3.org/2000/svg">
<path opacity="0.4" fill-rule="evenodd" clip-rule="evenodd" d="M33.8188 4.14546C33.6984 4.1644 33.4849 4.19763 33.3444 4.21932C33.2039 4.241 32.974 4.29051 32.8335 4.3293C32.693 4.3681 32.5287 4.41713 32.4685 4.43823C32.4083 4.45933 32.3262 4.4884 32.286 4.50288C32.2459 4.51732 32.0652 4.60043 31.8846 4.68756C31.7039 4.7747 31.4658 4.91284 31.3554 4.99449C31.245 5.07617 31.089 5.21073 31.0087 5.29348C30.9284 5.37626 30.8259 5.49202 30.781 5.55075C30.736 5.60951 30.6395 5.74469 30.5665 5.8512C30.4934 5.95771 30.3858 6.16266 30.3274 6.30661C30.2689 6.45057 30.1813 6.70893 30.1327 6.88079C30.084 7.05264 30.0182 7.42341 29.9863 7.7047C29.9494 8.031 29.931 8.46773 29.9357 8.91133L29.943 9.60654L29.8292 9.83064C29.7667 9.9539 29.6989 10.1267 29.6787 10.2146C29.6585 10.3025 29.6415 10.6026 29.641 10.8816C29.6405 11.1606 29.6655 11.5603 29.6966 11.7698C29.7277 11.9794 29.7853 12.3023 29.8247 12.4875C29.8641 12.6727 29.9367 12.907 29.986 13.0083C30.0353 13.1095 30.1532 13.2699 30.2479 13.3648C30.3425 13.4596 30.4408 13.5372 30.4661 13.5372C30.4915 13.5372 30.5368 13.6236 30.5668 13.7292C30.5968 13.8348 30.6575 14.0775 30.7018 14.2685C30.7461 14.4596 30.806 14.6735 30.8349 14.7439C30.8638 14.8143 30.9469 14.9953 31.0195 15.1461C31.0922 15.2969 31.1718 15.441 31.1964 15.4662C31.221 15.4915 31.2515 15.545 31.2642 15.5851C31.2769 15.6252 31.3 15.658 31.3155 15.658C31.331 15.658 31.3625 15.6992 31.3854 15.7496C31.4083 15.8 31.4803 15.9029 31.5454 15.9782C31.6104 16.0534 31.8078 16.259 31.9839 16.435C32.1601 16.611 32.3134 16.7549 32.3247 16.7549C32.3359 16.7549 32.4057 16.8029 32.4798 16.8617C32.5539 16.9204 32.672 17.0024 32.7422 17.044C32.8125 17.0857 32.9538 17.1604 33.0562 17.2102C33.1586 17.2599 33.3146 17.3239 33.4029 17.3523C33.4911 17.3808 33.6373 17.4222 33.7276 17.4444C33.8179 17.4666 33.9893 17.5015 34.1084 17.5221C34.2275 17.5426 34.4503 17.5594 34.6035 17.5594C34.7567 17.5594 34.9795 17.5426 35.0986 17.5221C35.2177 17.5015 35.389 17.4671 35.4794 17.4454C35.5697 17.4238 35.6929 17.389 35.7531 17.3682C35.8133 17.3473 35.9734 17.2794 36.1089 17.2173C36.2444 17.1552 36.3552 17.0916 36.3552 17.0759C36.3552 17.0603 36.3805 17.0474 36.4114 17.0474C36.4424 17.0474 36.5194 17.0104 36.5826 16.9652C36.6459 16.9199 36.7297 16.8582 36.7688 16.8281C36.808 16.7979 36.9151 16.7074 37.0068 16.627C37.0985 16.5465 37.2769 16.3742 37.4031 16.2441C37.5293 16.114 37.6326 15.9953 37.6326 15.9804C37.6326 15.9655 37.6624 15.9239 37.6988 15.8879C37.7352 15.852 37.8477 15.6991 37.9489 15.5483C38.05 15.3975 38.175 15.1836 38.2266 15.073C38.2782 14.9623 38.3617 14.7437 38.4123 14.5869C38.4628 14.4302 38.531 14.1752 38.5637 14.0202C38.5965 13.8652 38.6405 13.6931 38.6616 13.6378C38.6826 13.5825 38.7189 13.5372 38.7422 13.5372C38.7656 13.5372 38.8686 13.4508 38.9711 13.3453C39.0737 13.2397 39.1818 13.1039 39.2113 13.0436C39.2409 12.9833 39.2834 12.8517 39.3057 12.7511C39.3281 12.6505 39.3874 12.2639 39.4375 11.8918C39.4877 11.5198 39.5395 11.0575 39.5528 10.8645C39.5691 10.6262 39.5617 10.4503 39.5298 10.316C39.5039 10.2074 39.434 10.0033 39.3746 9.86249C39.267 9.60785 39.2663 9.60146 39.2372 8.61929C39.221 8.07631 39.1968 7.59091 39.1832 7.54063C39.1696 7.49036 39.1338 7.36695 39.1037 7.2664C39.0736 7.16585 38.9904 6.95604 38.9189 6.8002C38.8474 6.64436 38.7669 6.51682 38.7399 6.51682C38.713 6.51682 38.6909 6.49481 38.6909 6.4679C38.6909 6.44099 38.6152 6.34639 38.5227 6.25765C38.4302 6.16891 38.3205 6.05932 38.2789 6.01406C38.2373 5.96879 38.1842 5.93179 38.1608 5.93179C38.1374 5.93179 38.0886 5.89888 38.0523 5.85866C38.016 5.81844 37.9712 5.78553 37.9528 5.78553C37.9344 5.78553 37.898 5.76414 37.8719 5.73803C37.8458 5.71192 37.7987 5.64198 37.7672 5.58263C37.7356 5.52329 37.6678 5.42694 37.6165 5.36847C37.5651 5.31004 37.5231 5.24894 37.5231 5.23267C37.5231 5.21644 37.4307 5.10382 37.3177 4.98242C37.2047 4.86103 37.091 4.76172 37.0649 4.76172C37.0387 4.76172 36.9939 4.73821 36.9652 4.70947C36.9365 4.68073 36.8327 4.61868 36.7345 4.57154C36.6363 4.52441 36.4821 4.46375 36.3917 4.4368C36.3014 4.40982 36.1947 4.37431 36.1545 4.3579C36.1144 4.34148 36.0241 4.31234 35.9538 4.29314C35.8835 4.27391 35.7357 4.24023 35.6253 4.21826C35.5149 4.19628 35.3589 4.1686 35.2786 4.15679C35.1983 4.14494 34.8863 4.12981 34.5852 4.12315C34.2841 4.1165 33.9393 4.12652 33.8188 4.14546ZM33.1802 7.35649C33.3106 7.42001 33.5077 7.51928 33.6181 7.57709C33.7285 7.63493 33.845 7.68331 33.8771 7.68459C33.9091 7.68583 33.9912 7.71534 34.0596 7.75011C34.1349 7.78847 34.2961 7.81882 34.4693 7.82723C34.6304 7.83509 34.8293 7.82116 34.9255 7.79531C35.0194 7.77008 35.3336 7.63369 35.6239 7.49226C36.1342 7.24355 36.1607 7.23503 36.4268 7.23459C36.653 7.23418 36.7291 7.24998 36.8548 7.3234C36.9388 7.37247 37.0672 7.46059 37.14 7.51917C37.2128 7.57778 37.3435 7.72587 37.4304 7.84825C37.5173 7.97067 37.6149 8.13499 37.6474 8.21339C37.6798 8.29178 37.7314 8.4527 37.762 8.57092C37.8043 8.73465 37.8176 8.99708 37.8177 9.67155C37.8178 10.1587 37.8306 10.6148 37.8462 10.6852L37.8746 10.8132L37.9416 10.6854C37.9784 10.6151 38.0738 10.4712 38.1534 10.3655C38.2331 10.2598 38.309 10.1733 38.3222 10.1733C38.3354 10.1733 38.3925 10.2432 38.4491 10.3287L38.5521 10.4841L38.5317 11.0874C38.5205 11.4192 38.485 11.8388 38.4526 12.0198C38.4202 12.2008 38.358 12.4141 38.3143 12.4937C38.2705 12.5734 38.1773 12.6751 38.107 12.7197C38.0368 12.7643 37.9287 12.8423 37.8668 12.893C37.7965 12.9506 37.7315 13.056 37.6936 13.1736C37.6602 13.2772 37.6068 13.5206 37.5748 13.7147C37.5429 13.9087 37.4754 14.1908 37.4246 14.3417C37.3739 14.4925 37.2923 14.6952 37.2433 14.7922C37.1943 14.8892 37.0945 15.0537 37.0213 15.1579C36.9482 15.262 36.7561 15.4828 36.5944 15.6486C36.4328 15.8144 36.28 15.9501 36.2549 15.9503C36.2298 15.9504 36.2093 15.9651 36.2093 15.9829C36.2093 16.0007 36.1525 16.0423 36.0832 16.0752C36.0139 16.1082 35.9359 16.1553 35.9099 16.18C35.8838 16.2046 35.7548 16.2782 35.6232 16.3436C35.4915 16.409 35.3511 16.4624 35.3111 16.4624C35.2712 16.4624 35.2179 16.483 35.1929 16.5081C35.1602 16.5409 34.9908 16.5532 34.5948 16.5514C34.2032 16.5498 34.0381 16.5365 34.0279 16.5057C34.02 16.4819 33.9753 16.4624 33.9285 16.4624C33.8818 16.4624 33.7231 16.4053 33.5757 16.3356C33.4284 16.2658 33.2139 16.1455 33.0991 16.0684C32.9843 15.9912 32.8118 15.8531 32.7159 15.7614C32.62 15.6698 32.4921 15.5391 32.4317 15.471C32.3713 15.4029 32.2612 15.2618 32.187 15.1574C32.1128 15.053 32.0044 14.872 31.946 14.7552C31.8877 14.6383 31.8066 14.444 31.7658 14.3234C31.725 14.2027 31.666 13.9806 31.6346 13.8298C31.6033 13.6789 31.5592 13.4372 31.5366 13.2927C31.514 13.148 31.4681 12.9989 31.4346 12.9613C31.4011 12.9236 31.2915 12.837 31.1912 12.7688C31.0908 12.7006 30.9908 12.6273 30.9689 12.6058C30.9469 12.5843 30.9089 12.5291 30.8843 12.483C30.8597 12.437 30.8251 12.2645 30.8074 12.0998C30.7897 11.9352 30.7497 11.5642 30.7186 11.2755C30.6875 10.9867 30.6621 10.6741 30.6622 10.5807C30.6622 10.476 30.69 10.3654 30.7346 10.2921C30.7777 10.2213 30.8366 10.1733 30.8804 10.1733C30.9209 10.1733 30.954 10.1858 30.954 10.2011C30.954 10.2164 30.993 10.2711 31.0407 10.3226C31.0884 10.3741 31.14 10.4562 31.1553 10.505C31.1707 10.5539 31.222 10.6511 31.2693 10.7211L31.3554 10.8484V9.74972C31.3554 9.11332 31.3721 8.56031 31.3952 8.43552C31.4171 8.31697 31.4786 8.1389 31.532 8.03978C31.5854 7.94065 31.6455 7.83246 31.6656 7.79929C31.6857 7.76616 31.7678 7.68075 31.8481 7.60952C31.9284 7.53826 32.0686 7.4294 32.1597 7.36761C32.2508 7.30578 32.3658 7.24669 32.4152 7.23623C32.4646 7.22577 32.6035 7.22259 32.724 7.22914C32.8773 7.23748 33.014 7.27565 33.1802 7.35649ZM43.3988 16.8646C43.3486 16.8807 43.2501 16.8955 43.1798 16.8974C43.1096 16.8994 42.9289 16.936 42.7784 16.9787C42.6278 17.0215 42.4061 17.0893 42.2857 17.1294C42.1653 17.1695 41.9189 17.274 41.7383 17.3616C41.5576 17.4493 41.3605 17.5502 41.3003 17.5859C41.2401 17.6216 41.1854 17.6631 41.1787 17.6782C41.172 17.6933 41.1513 17.7056 41.1327 17.7056C41.1141 17.7056 40.9718 17.799 40.8164 17.9132C40.661 18.0273 40.4023 18.2536 40.2414 18.4159C40.0804 18.5783 39.8833 18.7934 39.8034 18.894C39.7234 18.9945 39.6498 19.085 39.6398 19.0951C39.6298 19.1051 39.5529 19.2138 39.469 19.3365C39.385 19.4593 39.2274 19.739 39.1188 19.9581C39.0101 20.1773 38.8927 20.4553 38.8579 20.5759C38.8231 20.6966 38.7799 20.8365 38.7619 20.8867C38.744 20.937 38.6955 21.1345 38.6543 21.3255C38.6131 21.5166 38.5691 21.8822 38.5566 22.138C38.5422 22.4314 38.5514 22.766 38.5815 23.0443C38.6077 23.2869 38.643 23.4941 38.6601 23.5046C38.677 23.5151 38.6909 23.5801 38.6909 23.649C38.6909 23.7179 38.75 23.9514 38.8222 24.1679C38.8943 24.3844 39.0418 24.7393 39.1497 24.9567C39.2578 25.174 39.4163 25.4537 39.5021 25.5783C39.5879 25.7028 39.6745 25.8243 39.6945 25.8482C39.7146 25.8721 39.7885 25.9613 39.8588 26.0465C39.929 26.1316 40.1022 26.3178 40.2435 26.4601C40.3848 26.6024 40.5554 26.7599 40.6224 26.8102C40.6895 26.8605 40.7857 26.9372 40.8363 26.9807C40.8868 27.0242 40.9709 27.0817 41.023 27.1086C41.0752 27.1355 41.1261 27.1679 41.1361 27.1807C41.1461 27.1934 41.2283 27.2476 41.3186 27.3012C41.4089 27.3547 41.5116 27.4079 41.5467 27.4194C41.5818 27.4309 41.6105 27.4549 41.6105 27.4727C41.6105 27.4904 41.6321 27.5049 41.6585 27.5049C41.6848 27.5049 41.7921 27.5464 41.8968 27.597C42.0016 27.6477 42.2088 27.7299 42.3572 27.7798C42.5056 27.8298 42.6531 27.8706 42.685 27.8706C42.7168 27.8706 42.7714 27.8857 42.8063 27.9041C42.8411 27.9226 42.9846 27.9557 43.1251 27.9778C43.2656 27.9998 43.5378 28.0339 43.73 28.0534C43.993 28.0801 44.2097 28.0755 44.6059 28.035C44.8954 28.0053 45.2062 27.9642 45.2965 27.9438C45.3869 27.9233 45.5141 27.8963 45.5794 27.8838C45.6446 27.8713 45.698 27.8467 45.698 27.8292C45.698 27.8118 45.737 27.7975 45.7848 27.7975C45.8325 27.7975 45.9351 27.7712 46.0129 27.7391C46.0906 27.707 46.2117 27.6567 46.2819 27.6272C46.3522 27.5978 46.5645 27.4965 46.7537 27.4022C46.9429 27.3079 47.2353 27.1278 47.4033 27.002C47.5713 26.8761 47.7449 26.7387 47.7891 26.6965C47.8333 26.6543 47.9064 26.5949 47.9516 26.5645C47.9967 26.5342 48.0337 26.4865 48.0337 26.4586C48.0337 26.4308 48.0515 26.408 48.0732 26.408C48.095 26.408 48.1648 26.3528 48.2283 26.2853C48.2919 26.2178 48.3753 26.1231 48.4136 26.075C48.452 26.0269 48.5259 25.9367 48.5779 25.8745C48.6298 25.8123 48.6926 25.73 48.7173 25.6916C48.742 25.6533 48.806 25.556 48.8596 25.4756C48.9131 25.3952 49.0426 25.1566 49.1475 24.9454C49.2523 24.7343 49.3807 24.4381 49.4328 24.2873C49.4848 24.1364 49.5627 23.8732 49.6057 23.7022C49.6679 23.4553 49.6879 23.2411 49.7027 22.6601C49.715 22.1812 49.7061 21.8216 49.677 21.618C49.6526 21.4471 49.6083 21.2167 49.5786 21.1061C49.5489 20.9955 49.4744 20.7487 49.4131 20.5577C49.3517 20.3666 49.279 20.1843 49.2515 20.1526C49.224 20.1208 49.2015 20.075 49.2015 20.0508C49.2015 20.0266 49.1603 19.9291 49.11 19.8343C49.0596 19.7395 48.9514 19.5549 48.8695 19.4243C48.7876 19.2937 48.7084 19.1785 48.6934 19.1683C48.6784 19.1582 48.6511 19.1229 48.6327 19.0898C48.6144 19.0568 48.5419 18.9584 48.4716 18.8712C48.4014 18.784 48.2207 18.5886 48.0702 18.4371C47.9196 18.2855 47.7057 18.0927 47.5948 18.0086C47.4839 17.9245 47.3361 17.8146 47.2664 17.7644C47.1966 17.7143 47.0821 17.6444 47.0118 17.609C46.9416 17.5738 46.8759 17.5348 46.8658 17.5225C46.8558 17.5101 46.7326 17.4454 46.5921 17.3786C46.4516 17.3118 46.3038 17.2445 46.2637 17.229C46.2235 17.2135 46.1004 17.1676 45.99 17.1269C45.8796 17.0862 45.7318 17.0371 45.6615 17.0178C45.5912 16.9985 45.4434 16.9654 45.333 16.9443C45.2226 16.9232 45.0448 16.8884 44.9379 16.867C44.831 16.8456 44.4615 16.8297 44.1168 16.8317C43.7721 16.8337 43.449 16.8485 43.3988 16.8646ZM31.1912 17.6307C31.0908 17.71 30.8889 17.8677 30.7424 17.9812C30.5959 18.0948 30.3669 18.2437 30.2337 18.312C30.1003 18.3805 29.8753 18.4792 29.7336 18.5316C29.5919 18.584 29.4266 18.64 29.3664 18.656C29.3062 18.672 29.183 18.7114 29.0927 18.7434C29.0024 18.7755 28.7807 18.8492 28.6 18.9072C28.4194 18.9653 28.0006 19.0986 27.6694 19.2036C27.3382 19.3085 27.0344 19.4073 26.9942 19.4232C26.9541 19.439 26.7981 19.4888 26.6475 19.5337C26.497 19.5786 26.2936 19.6464 26.1956 19.6843C26.0976 19.7222 25.9877 19.7532 25.9514 19.7532C25.9151 19.7532 25.8753 19.7697 25.8629 19.7898C25.8505 19.8099 25.8107 19.8264 25.7744 19.8264C25.7381 19.8264 25.62 19.8611 25.5119 19.9035C25.4039 19.9459 25.247 20.0136 25.1632 20.054C25.0795 20.0944 24.9358 20.2007 24.8439 20.2902C24.752 20.3796 24.6768 20.4764 24.6768 20.5053C24.6768 20.5341 24.6638 20.5577 24.6479 20.5577C24.632 20.5577 24.5915 20.644 24.5579 20.7496C24.5244 20.8552 24.4889 20.9745 24.4791 21.0147C24.4693 21.0549 24.4276 21.5403 24.3865 22.0934C24.3453 22.6464 24.2872 23.3786 24.2574 23.7205C24.2276 24.0624 24.1871 24.5478 24.1675 24.7992C24.1422 25.1229 24.1436 25.3024 24.1723 25.4145C24.1945 25.5016 24.2657 25.6291 24.3305 25.6979C24.4052 25.7773 24.4825 25.823 24.5421 25.823C24.5937 25.823 24.6462 25.8394 24.6586 25.8595C24.6735 25.8837 27.0502 25.8961 31.6702 25.8961C36.2305 25.8961 38.6828 25.8835 38.727 25.8598C38.791 25.8254 38.7879 25.8092 38.6699 25.5663C38.6012 25.4249 38.545 25.2931 38.545 25.2736C38.545 25.254 38.5325 25.2379 38.5174 25.2379C38.5022 25.2379 38.4713 25.1845 38.4487 25.1191C38.4261 25.0537 38.372 24.9098 38.3285 24.7992C38.285 24.6886 38.2243 24.5322 38.1936 24.4518C38.1629 24.3714 38.1246 24.2479 38.1084 24.1776C38.0923 24.1072 38.0522 23.9509 38.0195 23.8302C37.9866 23.7095 37.9337 23.4134 37.9017 23.172C37.86 22.8581 37.8492 22.5824 37.8636 22.2031C37.8747 21.9115 37.9104 21.5261 37.9429 21.3467C37.9755 21.1673 38.0255 20.9534 38.0541 20.8714C38.0826 20.7893 38.1062 20.6932 38.1065 20.6577C38.1068 20.6222 38.1229 20.5646 38.1424 20.5297C38.1618 20.4948 38.2442 20.2935 38.3255 20.0823C38.4068 19.8712 38.5346 19.5878 38.6095 19.4526C38.6844 19.3175 38.8237 19.0789 38.9191 18.9224C39.0145 18.766 39.113 18.6083 39.1381 18.5719C39.1779 18.5142 39.1629 18.4878 39.0194 18.3628C38.9291 18.2841 38.8274 18.2192 38.7934 18.2186C38.7594 18.218 38.7101 18.1878 38.6839 18.1514C38.6576 18.1151 38.5541 18.0294 38.4537 17.9611C38.3534 17.8929 38.222 17.791 38.1618 17.7349C38.1015 17.6787 38.0343 17.6327 38.0123 17.6327C37.9903 17.6326 37.9426 17.5996 37.9063 17.5594C37.87 17.5191 37.8036 17.4862 37.7588 17.4862C37.7141 17.4862 37.6535 17.5232 37.6242 17.5685C37.5946 17.6142 37.5603 17.7918 37.547 17.9686C37.5338 18.1433 37.4982 18.4066 37.4678 18.5536C37.4375 18.7006 37.3698 18.9771 37.3174 19.1682C37.265 19.3593 37.1756 19.6758 37.1187 19.8716C37.0618 20.0673 36.9982 20.2596 36.9772 20.2988C36.9563 20.338 36.9392 20.409 36.9392 20.4565C36.9392 20.5041 36.9243 20.5586 36.9061 20.5778C36.8879 20.5969 36.8562 20.6701 36.8357 20.7405C36.8152 20.8109 36.7498 21.0001 36.6904 21.161C36.631 21.3219 36.5135 21.618 36.4292 21.8191C36.3449 22.0202 36.1238 22.4974 35.9378 22.8795C35.7519 23.2616 35.5162 23.7223 35.414 23.9033C35.3119 24.0843 35.1821 24.3119 35.1257 24.4092C35.0693 24.5063 35.0053 24.6054 34.9833 24.6293C34.9614 24.6532 34.9221 24.7135 34.8959 24.7634C34.8698 24.8132 34.7991 24.917 34.7388 24.9941L34.6291 25.1342L34.5525 25.0428C34.5103 24.9925 34.4429 24.9058 34.4028 24.8501C34.3626 24.7945 34.2928 24.7085 34.2477 24.659C34.2025 24.6096 34.1655 24.5562 34.1655 24.5405C34.1655 24.5247 34.1442 24.4901 34.118 24.4635C34.0919 24.437 34.0209 24.3247 33.9603 24.2141C33.8997 24.1035 33.7605 23.8567 33.651 23.6657C33.5415 23.4746 33.4164 23.2442 33.373 23.1537C33.3297 23.0633 33.2256 22.8411 33.1417 22.6601C33.0579 22.4791 32.94 22.2159 32.8799 22.0751C32.8197 21.9343 32.7383 21.7369 32.6991 21.6363C32.6597 21.5358 32.563 21.2725 32.484 21.0513C32.405 20.8301 32.3262 20.6162 32.309 20.5759C32.2917 20.5357 32.241 20.3876 32.1963 20.2469C32.1516 20.1061 32.074 19.8593 32.0239 19.6984C31.9738 19.5375 31.9085 19.3236 31.8789 19.223C31.8493 19.1225 31.7948 18.908 31.7578 18.7464C31.7207 18.5847 31.6692 18.2556 31.6432 18.0151C31.6101 17.7079 31.5792 17.5644 31.5396 17.5331C31.5085 17.5086 31.4585 17.4881 31.4284 17.4876C31.3983 17.487 31.2915 17.5515 31.1912 17.6307ZM43.6908 18.6889V19.3065L43.9736 19.3223C44.1292 19.3311 44.275 19.3318 44.2977 19.3241C44.323 19.3154 44.3387 19.2154 44.3381 19.0654C44.3377 18.9309 44.3396 18.6522 44.3425 18.446L44.3477 18.0713H44.73H45.1124L45.1224 18.7203L45.1323 19.3693L45.2418 19.3784C45.302 19.3833 45.4416 19.4051 45.552 19.4267C45.6624 19.4482 45.8677 19.5011 46.0082 19.5441C46.1487 19.5871 46.3211 19.6535 46.3914 19.6916C46.4617 19.7297 46.5972 19.8201 46.6925 19.8926C46.7878 19.965 46.8658 20.043 46.8658 20.0659C46.8658 20.0889 46.8979 20.1448 46.9371 20.1901C46.9764 20.2354 47.036 20.3966 47.0697 20.5484C47.1111 20.7347 47.1243 20.9045 47.1103 21.0713C47.0967 21.2341 47.0563 21.3843 46.9918 21.5118C46.938 21.6181 46.8035 21.7896 46.6929 21.8927L46.4919 22.0802L46.7718 22.2188C46.9362 22.3002 47.1337 22.4369 47.2507 22.5505C47.3643 22.6607 47.4498 22.7758 47.4498 22.8186C47.4498 22.8598 47.4643 22.9025 47.482 22.9135C47.4998 22.9245 47.5349 23.0429 47.5601 23.1766C47.5878 23.3236 47.5973 23.5369 47.5842 23.7163C47.5724 23.8795 47.5348 24.0938 47.5008 24.1925C47.4668 24.2912 47.4044 24.4328 47.3622 24.5071C47.3201 24.5815 47.2281 24.7067 47.1578 24.7854C47.0875 24.8641 46.9808 24.9604 46.9206 24.9993C46.8604 25.0383 46.7372 25.1051 46.6469 25.1478C46.5565 25.1906 46.4252 25.2432 46.3549 25.2649C46.2847 25.2866 46.1451 25.3212 46.0447 25.3419C45.9443 25.3625 45.7627 25.397 45.6411 25.4184C45.5194 25.4398 45.3597 25.4573 45.2861 25.4573H45.1522L45.1423 26.1063L45.1323 26.7554H44.7491H44.3659L44.3477 26.1338L44.3294 25.5122H44.0192H43.709L43.699 26.1429L43.689 26.7737H43.2884H42.8879V26.1155V25.4573H42.0667C41.6151 25.4573 41.2456 25.4504 41.2456 25.4419C41.2456 25.4334 41.2795 25.2239 41.321 24.9764C41.3624 24.7288 41.4158 24.5141 41.4396 24.4992C41.4634 24.4843 41.5676 24.482 41.6713 24.494C41.7749 24.5061 41.9165 24.5053 41.9859 24.4922C42.0553 24.4792 42.1511 24.4346 42.1989 24.3931L42.2857 24.3177L42.2961 22.455C42.3054 20.7792 42.3004 20.5795 42.2457 20.4641C42.2123 20.3935 42.1551 20.3197 42.1186 20.3001C42.0821 20.2806 41.8994 20.2621 41.7128 20.2591C41.5261 20.2561 41.3465 20.2402 41.3137 20.2238C41.2645 20.1992 41.253 20.1233 41.2481 19.7908L41.2421 19.3876H42.065H42.8879V18.7294V18.0713H43.2893H43.6908V18.6889ZM33.7458 18.199C33.6856 18.2258 33.594 18.2944 33.5423 18.3515C33.4906 18.4085 33.4281 18.521 33.4036 18.6014C33.3673 18.7201 33.3684 18.7789 33.4094 18.9129C33.4371 19.0038 33.553 19.1988 33.6667 19.3463C33.7805 19.4938 33.8755 19.6334 33.8778 19.6565C33.8801 19.6795 33.8791 19.7313 33.8755 19.7715C33.8719 19.8117 33.8193 19.9927 33.7587 20.1737C33.6981 20.3547 33.6265 20.5522 33.5996 20.6125C33.5727 20.6728 33.492 20.9002 33.4202 21.1179C33.3484 21.3355 33.2897 21.5449 33.2897 21.5832C33.2897 21.6215 33.3287 21.7561 33.3765 21.8823C33.4242 22.0084 33.5209 22.2351 33.5913 22.3859C33.6616 22.5367 33.7637 22.7589 33.8181 22.8795C33.8726 23.0002 34.0059 23.2761 34.1144 23.4926C34.2229 23.7091 34.3321 23.9223 34.3572 23.9665C34.3822 24.0106 34.4222 24.068 34.446 24.0941C34.4698 24.1201 34.4996 24.1742 34.5123 24.2143C34.525 24.2545 34.555 24.2873 34.5789 24.2873C34.6028 24.2873 34.6459 24.2502 34.6745 24.205C34.7031 24.1598 34.8302 23.935 34.957 23.7054C35.0837 23.4759 35.1874 23.2673 35.1874 23.2418C35.1874 23.2164 35.2079 23.1735 35.233 23.1466C35.2581 23.1196 35.3151 23.0238 35.3596 22.9337C35.4042 22.8436 35.5086 22.6217 35.5916 22.4407C35.6746 22.2597 35.7737 22.0149 35.8117 21.8967C35.8497 21.7784 35.8808 21.5928 35.8808 21.4841C35.8808 21.3755 35.8562 21.2275 35.8261 21.1553C35.796 21.0831 35.7713 20.9914 35.7713 20.9514C35.7713 20.9114 35.7234 20.7859 35.6649 20.6725C35.6064 20.559 35.5264 20.3757 35.4871 20.2651C35.4479 20.1545 35.4051 19.9735 35.392 19.8629C35.379 19.7523 35.3844 19.6067 35.404 19.5394C35.4237 19.4721 35.5142 19.3264 35.6052 19.2158C35.6961 19.1051 35.7879 18.9497 35.8092 18.8705C35.838 18.7632 35.8363 18.6941 35.8025 18.6004C35.7774 18.531 35.7068 18.4181 35.6455 18.3495C35.5842 18.2808 35.4725 18.2033 35.3973 18.1772C35.2908 18.1403 35.2507 18.1395 35.2166 18.1736C35.1925 18.1978 35.1371 18.2175 35.0935 18.2175C35.0499 18.2175 34.9364 18.252 34.8412 18.2942C34.7364 18.3406 34.6232 18.3643 34.5538 18.3542C34.4908 18.3451 34.3571 18.3085 34.2568 18.2728C34.1564 18.2371 34.0458 18.1936 34.0109 18.1761C33.9761 18.1587 33.9268 18.1457 33.9015 18.1474C33.8761 18.149 33.8061 18.1723 33.7458 18.199ZM43.7231 21.0239C43.7208 21.4412 43.7224 21.8155 43.7266 21.8557C43.7309 21.8959 43.7409 21.9356 43.7489 21.9439C43.7569 21.9522 43.9318 21.9389 44.1377 21.9144C44.3435 21.8899 44.6104 21.8533 44.7309 21.8331C44.8513 21.813 45.0155 21.7782 45.0958 21.7558C45.1761 21.7334 45.2969 21.6747 45.3643 21.6252C45.4317 21.5757 45.5096 21.4804 45.5376 21.4133C45.5656 21.3462 45.5885 21.2038 45.5885 21.0968C45.5885 20.9671 45.5611 20.8485 45.5064 20.7412C45.4518 20.6342 45.378 20.5566 45.2865 20.51C45.2107 20.4714 45.0876 20.4254 45.0128 20.4078C44.938 20.3902 44.6469 20.3509 44.3659 20.3205C44.0849 20.2902 43.8262 20.2653 43.7911 20.2652C43.7325 20.2651 43.7269 20.3272 43.7231 21.0239ZM43.7729 22.7364C43.7382 22.7525 43.7273 22.9683 43.7273 23.6321V24.5066L44.0466 24.5049C44.2222 24.5039 44.5301 24.4806 44.7309 24.4529C44.9316 24.4253 45.1533 24.3875 45.2236 24.3688C45.2938 24.3501 45.4293 24.2991 45.5246 24.2553C45.62 24.2115 45.698 24.1608 45.698 24.1425C45.698 24.1243 45.7293 24.0994 45.7676 24.0872C45.8059 24.075 45.8716 23.9918 45.9136 23.9023C45.9556 23.8128 45.9898 23.6941 45.9897 23.6386C45.9896 23.5831 45.9723 23.4755 45.9513 23.3996C45.9302 23.3236 45.8628 23.2042 45.8016 23.1343C45.7403 23.0644 45.6304 22.9809 45.5572 22.9488C45.4841 22.9166 45.3914 22.8769 45.3513 22.8605C45.3111 22.8441 45.2208 22.8121 45.1506 22.7895C45.0803 22.7668 44.7519 22.7408 44.4207 22.7316C44.0895 22.7225 43.798 22.7247 43.7729 22.7364ZM27.7971 29.5303C27.6968 29.5549 27.5205 29.6182 27.4053 29.6712C27.2902 29.7241 27.113 29.8506 27.0116 29.9521C26.9102 30.0538 26.7799 30.2373 26.7218 30.3602C26.6639 30.483 26.597 30.6987 26.5733 30.8395C26.5413 31.0298 26.5405 31.1643 26.5701 31.3638C26.592 31.5114 26.6486 31.7195 26.6958 31.8264C26.7431 31.9333 26.8645 32.1112 26.9656 32.2218C27.0835 32.3509 27.2327 32.4638 27.382 32.5372C27.51 32.6 27.7028 32.6721 27.8106 32.6973C27.9316 32.7255 28.1409 32.7362 28.358 32.7252C28.6261 32.7115 28.7658 32.6841 28.9466 32.6097C29.0769 32.5561 29.2443 32.4633 29.3185 32.4036C29.3927 32.3438 29.4687 32.2949 29.4873 32.2949C29.506 32.2949 29.5192 32.3813 29.5168 32.4869L29.5124 32.6788H30.1328H30.7532V32.4595C30.7532 32.291 30.7405 32.2389 30.6985 32.2351C30.6684 32.2324 30.615 32.2283 30.5799 32.226C30.5211 32.2221 30.5161 32.1577 30.5175 31.4082C30.5188 30.7077 30.5257 30.6073 30.5677 30.6861C30.5945 30.7363 30.8023 31.21 31.0294 31.7387L31.4423 32.6999L31.7122 32.6894L31.9821 32.6788L32.426 31.6418C32.8377 30.6803 32.8706 30.6164 32.8786 30.7643C32.8834 30.852 32.8916 31.2151 32.8969 31.5712L32.9065 32.2186L32.797 32.2294C32.6895 32.2399 32.6873 32.2442 32.6766 32.4686L32.6658 32.6971H33.9083H35.1509V32.4672V32.2373L35.0342 32.2284C34.97 32.2235 34.9112 32.2132 34.9035 32.2056C34.8959 32.1979 34.9165 32.1505 34.9492 32.1004C35.0043 32.0161 35.0379 32.0072 35.3901 31.9831C35.5998 31.9688 35.9445 31.9689 36.1561 31.9834C36.509 32.0075 36.5456 32.017 36.5989 32.0986C36.6309 32.1475 36.6499 32.1947 36.6411 32.2035C36.6323 32.2123 36.5726 32.2235 36.5085 32.2284L36.3917 32.2373V32.4672V32.6971H37.6343H38.8769L38.866 32.4686C38.8579 32.2974 38.8414 32.2388 38.8004 32.2351C38.7703 32.2324 38.7169 32.2283 38.6818 32.226C38.6232 32.2222 38.6179 32.1602 38.6179 31.4744C38.6179 31.0633 38.631 30.7189 38.647 30.709C38.663 30.6991 38.9955 31.1419 39.386 31.6931L40.096 32.6952L40.4661 32.6962L40.8362 32.6971L40.8635 32.0115C40.8785 31.6345 40.8815 31.0709 40.8703 30.7592C40.8591 30.4475 40.8588 30.1472 40.8695 30.0919C40.8855 30.01 40.9087 29.9913 40.9944 29.9913C41.0996 29.9913 41.0996 29.9912 41.0996 29.7537V29.516H40.4792H39.8588V29.7537V29.9913H39.9865H40.1142V30.7592C40.1142 31.1815 40.1019 31.5262 40.0869 31.5252C40.0718 31.5242 39.8624 31.244 39.6216 30.9026C39.3807 30.5612 39.0701 30.1219 38.9313 29.9264C38.7925 29.7309 38.6611 29.5587 38.6393 29.544C38.6175 29.5292 38.3821 29.5169 38.1161 29.5166L37.6326 29.516V29.7537V29.9913H37.7603H37.888V31.1066V32.2218L37.6234 32.2208L37.3589 32.2198L37.0893 31.6083C36.9411 31.272 36.6705 30.6637 36.4879 30.2564L36.156 29.516H35.5057H34.8555L34.8663 29.7445L34.8772 29.9731L35.014 29.9844C35.0893 29.9907 35.1509 30.0053 35.1509 30.0169C35.1509 30.0285 35.0013 30.3689 34.8186 30.7734C34.6358 31.1779 34.4449 31.5993 34.3944 31.7099C34.3439 31.8205 34.2731 31.9791 34.2371 32.0624C34.173 32.2105 34.1665 32.2145 33.9515 32.2395C33.8305 32.2536 33.7142 32.2544 33.693 32.2413C33.6675 32.2254 33.6546 31.8453 33.6546 31.1067V29.996L33.7732 29.9845L33.8918 29.9731V29.7537V29.5343L33.267 29.5243L32.6421 29.5143L32.5056 29.8351C32.4306 30.0115 32.2301 30.4767 32.0601 30.8689C31.8901 31.2611 31.7382 31.5953 31.7225 31.6116C31.7069 31.6279 31.5873 31.3975 31.4568 31.0997C31.3264 30.8018 31.1168 30.3232 30.9911 30.0362L30.7626 29.5143L30.1375 29.5243L29.5124 29.5343V29.7537V29.9731L29.631 29.9845L29.7496 29.996V31.1046V32.2133L29.6675 32.2353C29.6223 32.2474 29.5475 32.2576 29.5012 32.2578C29.4491 32.2582 29.348 32.1903 29.2356 32.0794L29.0542 31.9005L28.8026 32.0298C28.5889 32.1397 28.5131 32.1595 28.2993 32.1615C28.0957 32.1633 28.0084 32.1445 27.8421 32.063C27.7101 31.9983 27.5964 31.9075 27.524 31.8089C27.4622 31.7246 27.3874 31.5743 27.358 31.475C27.3285 31.3757 27.3045 31.2088 27.3045 31.1041C27.3045 30.9995 27.3328 30.8256 27.3676 30.7177C27.4114 30.5814 27.4866 30.464 27.6139 30.3331C27.735 30.2085 27.8466 30.1311 27.9431 30.1048C28.0234 30.0828 28.1979 30.0648 28.3309 30.0647C28.4639 30.0646 28.624 30.0747 28.6867 30.0873C28.7957 30.1092 28.8008 30.118 28.8008 30.2884V30.4667H29.0927H29.3847V30.1043V29.7419L29.1383 29.648C29.0029 29.5964 28.7946 29.5374 28.6754 29.5168C28.5563 29.4963 28.3511 29.4808 28.2192 29.4825C28.0875 29.4843 27.8975 29.5058 27.7971 29.5303ZM45.7162 29.5488C45.5757 29.5874 45.3847 29.662 45.2918 29.7145C45.1988 29.7669 45.0484 29.8895 44.9576 29.9868C44.8667 30.0841 44.7555 30.236 44.7104 30.3244C44.6654 30.4127 44.6066 30.5672 44.5797 30.6678C44.553 30.7683 44.5308 30.9662 44.5306 31.1074C44.5303 31.2486 44.5611 31.4761 44.599 31.613C44.6369 31.7498 44.7275 31.9485 44.8003 32.0544C44.8731 32.1603 44.9943 32.2966 45.0697 32.3573C45.1451 32.418 45.2721 32.501 45.352 32.5418C45.4319 32.5826 45.5865 32.6424 45.6955 32.6748C45.8111 32.7092 46.0241 32.7335 46.2064 32.7333C46.3784 32.733 46.6012 32.7108 46.7016 32.6839C46.802 32.657 46.9663 32.5931 47.0669 32.542C47.1675 32.4907 47.2906 32.4157 47.3406 32.3751L47.4315 32.3014V31.5852V30.869L46.729 30.8689L46.0264 30.8689V31.1614V31.4539H46.3549H46.6834V31.7787C46.6834 32.0847 46.6786 32.1049 46.6012 32.1256C46.5561 32.1377 46.3995 32.1479 46.2534 32.1481C46.0946 32.1485 45.933 32.1258 45.8519 32.0919C45.7773 32.0606 45.6696 31.9907 45.6126 31.9365C45.5556 31.8823 45.4687 31.7694 45.4195 31.6859C45.3703 31.6022 45.3143 31.4358 45.295 31.316C45.2724 31.175 45.2728 31.0311 45.2961 30.9077C45.316 30.803 45.3607 30.6567 45.3957 30.5828C45.4306 30.5089 45.5276 30.3816 45.6113 30.2999C45.695 30.2183 45.8286 30.1319 45.9083 30.108C45.988 30.084 46.158 30.0647 46.2861 30.0649C46.4143 30.0651 46.5807 30.0755 46.656 30.0879C46.7925 30.1105 46.7928 30.1111 46.7928 30.2901V30.4696L47.0939 30.459L47.395 30.4484V30.1088C47.395 29.8513 47.3822 29.7614 47.342 29.7365C47.3128 29.7184 47.1568 29.6596 46.9953 29.6058C46.7799 29.5341 46.6043 29.5042 46.3367 29.4933C46.0544 29.4819 45.9138 29.4945 45.7162 29.5488ZM20.5894 29.7537V29.9913H20.7176H20.8459L20.8362 31.1157L20.8266 32.2401L20.708 32.2282L20.5894 32.2163V32.4567V32.6971L21.6021 32.6969C22.1871 32.6968 22.6722 32.6807 22.7508 32.6589C22.8255 32.6381 22.9555 32.5682 23.0395 32.5037C23.1236 32.4391 23.2266 32.3205 23.2685 32.2401C23.3261 32.1296 23.3447 32.0266 23.3447 31.8196C23.3447 31.5863 23.3298 31.5198 23.2444 31.3743C23.1892 31.2803 23.1022 31.1703 23.051 31.13C22.9998 31.0896 22.9382 31.05 22.9142 31.042C22.8854 31.0324 22.9019 30.9849 22.9629 30.9025C23.0137 30.8337 23.0752 30.7315 23.0996 30.6752C23.1241 30.619 23.144 30.4702 23.144 30.3447C23.144 30.1802 23.1211 30.0716 23.0619 29.9555C23.0167 29.867 22.9196 29.7465 22.846 29.6879C22.7398 29.6032 22.6572 29.5749 22.4445 29.5503C22.2973 29.5332 21.8197 29.5185 21.3831 29.5176L20.5894 29.516V29.7537ZM23.363 29.9193V30.3234L23.6641 30.3127C23.9624 30.3023 23.9653 30.3012 23.9767 30.2016C23.9882 30.1013 23.9891 30.101 24.2778 30.101H24.5673V31.1614C24.5673 32.1453 24.5627 32.2221 24.5035 32.226C24.4683 32.2283 24.415 32.2324 24.3848 32.2351C24.3428 32.2389 24.3301 32.291 24.3301 32.4595V32.6788L24.9414 32.6889L25.5527 32.6989V32.4825C25.5527 32.319 25.5386 32.2608 25.495 32.244C25.4632 32.2318 25.4098 32.2218 25.3763 32.2218C25.3207 32.2218 25.3163 32.1313 25.3257 31.1614L25.3359 30.101H25.6268H25.9176V30.2122V30.3234L26.2187 30.3127L26.5198 30.3021V29.9182V29.5343L24.9414 29.5247L23.363 29.5152V29.9193ZM41.939 29.7537V29.9913H42.085C42.1653 29.9913 42.231 29.9984 42.231 30.0071C42.231 30.0158 42.0403 30.4477 41.8073 30.9669C41.5742 31.4861 41.3521 31.9809 41.3137 32.0664C41.2602 32.1853 41.2225 32.2229 41.1534 32.2264C41.1038 32.2289 41.0426 32.233 41.0175 32.2355C40.9876 32.2385 40.9681 32.3191 40.961 32.4686L40.9502 32.6971H41.5923H42.2344L42.2236 32.4686C42.2127 32.2401 42.2127 32.2401 42.0941 32.2286C42.0288 32.2223 41.9755 32.2054 41.9755 32.191C41.9755 32.1767 41.9998 32.1302 42.0295 32.0877C42.0759 32.0213 42.1353 32.0067 42.4496 31.9842C42.6509 31.9697 42.9954 31.9696 43.215 31.984C43.5861 32.0083 43.6187 32.0166 43.6738 32.1009C43.7064 32.1507 43.7274 32.1973 43.7204 32.2043C43.7134 32.2113 43.6587 32.2235 43.5989 32.2315C43.4928 32.2456 43.4897 32.2518 43.4792 32.4715L43.4683 32.6971H44.0905H44.7126V32.4817C44.7126 32.3189 44.6985 32.2607 44.6549 32.244C44.6231 32.2318 44.5574 32.2218 44.5089 32.2218C44.4604 32.2218 44.4207 32.2069 44.4207 32.1888C44.4207 32.1707 44.2101 31.6894 43.9528 31.1193C43.6954 30.5492 43.4285 29.9553 43.3597 29.7994L43.2346 29.5161L42.5868 29.516L41.939 29.516V29.7537ZM47.6687 29.7537V29.9913H47.7965H47.9242V31.1025V32.2136L47.7965 32.2377L47.6687 32.2617V32.4794V32.6971H48.9643H50.2599V32.2935V31.8897L49.9588 31.9004C49.6604 31.9109 49.6576 31.9119 49.6462 32.0115L49.6346 32.1121H49.1444H48.6541V31.7464V31.3808H49.2928H49.9314V31.0883V30.7958H49.2928H48.6541V30.4484V30.101H49.1285H49.603V30.2107V30.3204H49.8949H50.1869V29.9182V29.516H48.9278H47.6687V29.7537ZM50.4586 29.5629C50.4473 29.5925 50.4431 29.6969 50.4493 29.7949C50.4602 29.9664 50.465 29.9735 50.5792 29.9845L50.6978 29.996V31.1066V32.2171L50.5792 32.2286C50.4606 32.2401 50.4606 32.2401 50.4497 32.4686L50.4389 32.6971H51.0628H51.6867L51.6758 32.4686C51.6654 32.2496 51.6608 32.2396 51.5646 32.2285L51.4642 32.2169V31.8331V31.4493L51.5828 31.4608C51.6883 31.4709 51.7286 31.5128 51.9454 31.8372C52.0796 32.0379 52.1838 32.2078 52.1769 32.2147C52.17 32.2216 52.1341 32.233 52.0971 32.24C52.0601 32.247 52.0168 32.254 52.0007 32.2555C51.9846 32.2571 51.9764 32.3529 51.9825 32.4686L51.9934 32.6788L52.6412 32.6888L53.289 32.6988V32.4576C53.289 32.2171 53.2886 32.2163 53.1886 32.2229C53.1334 32.2265 53.0695 32.2278 53.0467 32.2257C53.0238 32.2235 52.8965 32.0551 52.7638 31.8515C52.6312 31.6478 52.5226 31.4671 52.5226 31.45C52.5226 31.4329 52.5842 31.3871 52.6594 31.3483C52.7347 31.3095 52.8396 31.231 52.8926 31.1739C52.9456 31.1168 53.0236 31.0007 53.066 30.9161C53.1236 30.8009 53.1428 30.6949 53.1422 30.4956C53.1416 30.3169 53.1195 30.1808 53.0749 30.0828C53.0383 30.0023 52.9648 29.8849 52.9117 29.8218C52.8585 29.7587 52.7369 29.6688 52.6414 29.622C52.4752 29.5405 52.4258 29.5363 51.4735 29.523C50.623 29.5111 50.4762 29.5169 50.4586 29.5629ZM22.2212 30.1394C22.2816 30.1605 22.3497 30.2189 22.3726 30.2691C22.3954 30.3193 22.4141 30.3999 22.4141 30.4481C22.4141 30.4963 22.3749 30.5814 22.3269 30.6373C22.244 30.7339 22.2241 30.7388 21.9164 30.7399L21.593 30.7409L21.5873 30.4484C21.5842 30.2876 21.5893 30.1436 21.5986 30.1285C21.6079 30.1134 21.7271 30.101 21.8634 30.101C21.9997 30.101 22.1607 30.1183 22.2212 30.1394ZM52.2863 30.1969C52.3351 30.2496 52.3854 30.3486 52.3982 30.4169C52.4113 30.4868 52.4022 30.5876 52.3774 30.6475C52.3532 30.706 52.3032 30.7813 52.2664 30.8147C52.2171 30.8594 52.1018 30.8809 51.8318 30.8958L51.4642 30.9161V30.5086V30.101H51.8309C52.1797 30.101 52.2019 30.1057 52.2863 30.1969ZM36.0271 30.8198C36.1574 31.1146 36.2695 31.3696 36.2762 31.3865C36.2829 31.4035 36.0653 31.4174 35.7926 31.4174C35.4205 31.4174 35.2968 31.406 35.2967 31.3717C35.2966 31.3465 35.3982 31.0915 35.5225 30.8049C35.6469 30.5184 35.758 30.2839 35.7694 30.2839C35.7808 30.2839 35.8968 30.525 36.0271 30.8198ZM43.1236 30.8654C43.2554 31.155 43.3571 31.3982 43.3496 31.4057C43.342 31.4133 43.1128 31.4149 42.8402 31.4093L42.3446 31.3991L42.586 30.8404C42.7188 30.5332 42.8401 30.2946 42.8556 30.3103C42.8712 30.3259 42.9917 30.5757 43.1236 30.8654ZM22.4534 31.4511C22.5407 31.5386 22.5601 31.5889 22.5601 31.7282C22.5601 31.8675 22.5407 31.9177 22.4534 32.0052C22.3491 32.1097 22.3383 32.1121 21.9646 32.1121H21.5825L21.5775 31.7282L21.5724 31.3442H21.9596C22.3388 31.3442 22.3489 31.3464 22.4534 31.4511Z" fill="white"/>
</svg>
