<svg width="900" height="900" viewBox="0 0 900 900" fill="none" xmlns="http://www.w3.org/2000/svg">
<path fill-rule="evenodd" clip-rule="evenodd" d="M715.067 299.202L676.858 320.94C659.283 290.046 635.555 263.022 607.091 241.569C574.816 217.244 537.333 200.747 497.596 193.376C457.859 186.006 416.952 187.965 378.101 199.099C339.25 210.232 303.514 230.236 273.712 257.533C243.909 284.831 220.852 318.677 206.359 356.404C191.866 394.132 186.333 434.709 190.194 474.939C193.715 511.621 204.96 547.1 223.142 579.06L184.933 600.798C163.688 563.455 150.55 522 146.436 479.14C141.924 432.133 148.389 384.722 165.323 340.64C182.257 296.559 209.197 257.012 244.02 225.117C278.842 193.221 320.596 169.848 365.991 156.84C411.386 143.831 459.182 141.543 505.612 150.154C552.043 158.765 595.839 178.042 633.55 206.464C666.808 231.53 694.532 263.106 715.067 299.202ZM595.433 257.038C621.784 276.899 643.751 301.917 660.021 330.518L607.323 360.498C595.135 339.074 578.68 320.333 558.941 305.456C536.559 288.587 510.565 277.146 483.007 272.035C455.45 266.924 427.082 268.282 400.139 276.003C373.196 283.724 348.414 297.596 327.746 316.527C307.078 335.458 291.089 358.929 281.038 385.093C270.988 411.256 267.15 439.396 269.828 467.295C272.27 492.733 280.068 517.338 292.677 539.502L239.979 569.482C223.146 539.894 212.736 507.048 209.476 473.088C205.901 435.844 211.024 398.278 224.441 363.351C237.859 328.423 259.204 297.089 286.795 271.817C314.386 246.546 347.469 228.026 383.437 217.719C419.405 207.412 457.275 205.599 494.064 212.422C530.852 219.245 565.553 234.518 595.433 257.038ZM309.844 529.735C298.611 509.99 291.664 488.07 289.489 465.408C287.103 440.553 290.522 415.484 299.476 392.175C308.43 368.867 322.674 347.957 341.087 331.092C359.499 314.227 381.577 301.868 405.58 294.99C429.583 288.112 454.855 286.901 479.405 291.455C503.956 296.008 527.113 306.2 547.053 321.229C564.638 334.483 579.297 351.179 590.156 370.265L450 450L309.844 529.735ZM733.131 290.433C711.183 251.489 681.405 217.437 645.612 190.46C605.423 160.17 558.749 139.627 509.267 130.45C459.785 121.272 408.849 123.711 360.471 137.575C312.092 151.438 267.595 176.347 230.484 210.339C193.373 244.33 164.663 286.476 146.616 333.454C128.569 380.432 121.678 430.959 126.487 481.054C130.872 526.731 144.873 570.91 167.514 610.707C169.122 613.534 170.774 616.339 172.469 619.12C215.497 689.735 283.918 741.411 363.89 763.385C447.005 786.223 535.788 775.108 610.707 732.486C685.627 689.863 740.547 619.225 763.385 536.11C771.964 504.887 775.752 472.864 774.878 441.076C774.442 425.211 772.846 409.438 770.118 393.88C764.721 363.093 754.893 333.147 740.86 304.998C738.404 300.072 735.827 295.215 733.131 290.433Z" fill="black"/>
</svg>
