<svg width="21" height="17" viewBox="0 0 21 17" fill="none" xmlns="http://www.w3.org/2000/svg">
<path d="M20.7184 2.22724C20.7788 2.14647 20.6896 2.04218 20.593 2.07811C19.9069 2.33344 19.1897 2.50571 18.4582 2.5906C19.2727 2.12348 19.9012 1.4124 20.2498 0.570533C20.2853 0.484774 20.1877 0.408187 20.1036 0.452801C19.3466 0.854139 18.5302 1.14313 17.6821 1.30957C17.6466 1.31654 17.61 1.30494 17.5851 1.27969C16.9486 0.635016 16.1109 0.205781 15.1976 0.0574517C14.2652 -0.0939932 13.3067 0.0559587 12.4726 0.48379C11.6385 0.911621 10.9759 1.59313 10.5887 2.42144C10.2206 3.209 10.1212 4.08691 10.3028 4.93003C10.3169 4.99545 10.2635 5.05721 10.1941 5.05307C8.54404 4.95469 6.93185 4.53336 5.45684 3.81446C3.98558 3.09739 2.68273 2.09983 1.62766 0.883296C1.58083 0.829305 1.49208 0.836293 1.45797 0.898445C1.12966 1.49651 0.957773 2.16311 0.95824 2.8406C0.956907 3.51498 1.1293 4.17922 1.46007 4.77416C1.79084 5.36911 2.26972 5.87631 2.85407 6.2506C2.23436 6.23441 1.62673 6.08734 1.07412 5.82067C1.00291 5.78631 0.917484 5.83524 0.921188 5.91167C0.96428 6.80091 1.30434 7.69364 1.89294 8.37857C2.51932 9.10744 3.38872 9.60624 4.35407 9.7906C3.98246 9.89917 3.59665 9.95641 3.20824 9.9606C2.99684 9.95823 2.78586 9.94325 2.57651 9.91578C2.49888 9.90559 2.4355 9.97637 2.46267 10.0469C2.75061 10.7944 3.25928 11.4467 3.92811 11.9228C4.64316 12.4318 5.50572 12.7142 6.39574 12.7306C4.89283 13.8659 3.03729 14.4855 1.12491 14.4906C0.928403 14.4912 0.731987 14.4851 0.536034 14.4723C0.425608 14.4651 0.374822 14.6063 0.470005 14.6605C2.33331 15.7221 4.46302 16.2831 6.63532 16.2806C8.23917 16.2966 9.83026 16.0056 11.3157 15.4247C12.801 14.8437 14.151 13.9845 15.2866 12.8971C16.4222 11.8097 17.3207 10.516 17.9297 9.09151C18.5386 7.66702 18.8458 6.14033 18.8332 4.6006V4.12077C18.8332 4.0892 18.8488 4.05951 18.875 4.04048C19.5816 3.52834 20.2029 2.91691 20.7184 2.22724Z" fill="white"/>
</svg>
